<?xml version="1.0" encoding="UTF-8"?>
<!DOCTYPE svg PUBLIC "-//W3C//DTD SVG 1.1//EN" "http://www.w3.org/Graphics/SVG/1.1/DTD/svg11.dtd">
<!-- Creator: CorelDRAW 2017 -->
<svg xmlns="http://www.w3.org/2000/svg" xml:space="preserve" width="175px" height="202px" version="1.1" style="shape-rendering:geometricPrecision; text-rendering:geometricPrecision; image-rendering:optimizeQuality; fill-rule:evenodd; clip-rule:evenodd"
viewBox="0 0 23.69 27.46"
 xmlns:xlink="http://www.w3.org/1999/xlink">
 <defs>
  <style type="text/css">
   <![CDATA[
    .fil1 {fill:#727376;fill-rule:nonzero}
    .fil2 {fill:#C83538;fill-rule:nonzero}
    .fil0 {fill:#6D6E70;fill-rule:nonzero}
   ]]>
  </style>
 </defs>
 <g id="Layer_x0020_1">
  <metadata id="CorelCorpID_0Corel-Layer"/>
  <g id="_2031008055824">
   <path class="fil0" d="M11.86 0.02l0 27.42c0,0.01 -0.02,0.02 -0.04,0.02 -0.02,0 -0.03,-0.01 -0.03,-0.02l0 -27.42c0,-0.01 0.01,-0.02 0.03,-0.02 0.02,0 0.04,0.01 0.04,0.02z"/>
   <path class="fil1" d="M14.6 18.89c0,1.53 -1.25,2.78 -2.78,2.78 -1.53,0 -2.78,-1.25 -2.78,-2.78 0,-1.53 1.25,-2.78 2.78,-2.78 1.53,0 2.78,1.25 2.78,2.78zm-5.48 0l0 0c0,1.49 1.21,2.71 2.7,2.71 1.49,0 2.71,-1.22 2.71,-2.71 0,-1.49 -1.22,-2.71 -2.71,-2.71 -1.49,0 -2.7,1.22 -2.7,2.71z"/>
   <path class="fil1" d="M13.52 18.89c0,0.94 -0.76,1.7 -1.7,1.7 -0.94,0 -1.7,-0.76 -1.7,-1.7 0,-0.94 0.76,-1.7 1.7,-1.7 0.94,0 1.7,0.76 1.7,1.7zm-3.19 0l0 0c0,0.82 0.67,1.49 1.49,1.49 0.82,0 1.49,-0.67 1.49,-1.49 0,-0.82 -0.67,-1.49 -1.49,-1.49 -0.82,0 -1.49,0.67 -1.49,1.49z"/>
   <path class="fil1" d="M11.82 18.09c0.44,0 0.8,0.36 0.8,0.8 0,0.44 -0.36,0.8 -0.8,0.8 -0.44,0 -0.8,-0.36 -0.8,-0.8 0,-0.44 0.36,-0.8 0.8,-0.8z"/>
   <path class="fil2" d="M23.23 18.43c0.25,0 0.46,0.2 0.46,0.46 0,0.25 -0.21,0.46 -0.46,0.46 -0.26,0 -0.46,-0.21 -0.46,-0.46 0,-0.26 0.2,-0.46 0.46,-0.46z"/>
   <polygon class="fil1" points="23.38,18.85 23.38,18.92 14.56,18.92 14.56,18.85 "/>
   <path class="fil1" d="M14.64 6.72c0,1.53 -1.24,2.78 -2.77,2.78 -1.54,0 -2.78,-1.25 -2.78,-2.78 0,-1.53 1.24,-2.78 2.78,-2.78 1.53,0 2.77,1.25 2.77,2.78zm-5.48 0l0 0c0,1.49 1.21,2.71 2.71,2.71 1.49,0 2.7,-1.22 2.7,-2.71 0,-1.49 -1.21,-2.71 -2.7,-2.71 -1.5,0 -2.71,1.22 -2.71,2.71z"/>
   <path class="fil1" d="M13.57 6.72c0,0.94 -0.77,1.7 -1.7,1.7 -0.94,0 -1.71,-0.76 -1.71,-1.7 0,-0.94 0.77,-1.7 1.71,-1.7 0.93,0 1.7,0.76 1.7,1.7zm-3.19 0l0 0c0,0.82 0.66,1.49 1.49,1.49 0.82,0 1.49,-0.67 1.49,-1.49 0,-0.82 -0.67,-1.49 -1.49,-1.49 -0.83,0 -1.49,0.67 -1.49,1.49z"/>
   <path class="fil1" d="M11.87 7.52c-0.44,0 -0.8,-0.36 -0.8,-0.8 0,-0.44 0.36,-0.8 0.8,-0.8 0.44,0 0.79,0.36 0.79,0.8 0,0.44 -0.35,0.8 -0.79,0.8z"/>
   <path class="fil2" d="M0.46 7.18c-0.25,0 -0.46,-0.21 -0.46,-0.46 0,-0.25 0.21,-0.46 0.46,-0.46 0.26,0 0.46,0.21 0.46,0.46 0,0.25 -0.2,0.46 -0.46,0.46z"/>
   <polygon class="fil1" points="9.12,6.68 9.12,6.76 0.31,6.76 0.31,6.68 "/>
   <path class="fil2" d="M11.87 3.11l0 0.07c-1.96,0 -3.56,1.59 -3.56,3.55l-0.07 0c0,-1.99 1.63,-3.62 3.63,-3.62z"/>
   <path class="fil2" d="M15.49 18.9c0,2 -1.62,3.63 -3.62,3.63l0 -0.08c1.96,0 3.55,-1.59 3.55,-3.55l0.07 0z"/>
  </g>
 </g>
</svg>
