<?xml version="1.0" encoding="UTF-8"?>
<!DOCTYPE svg PUBLIC "-//W3C//DTD SVG 1.1//EN" "http://www.w3.org/Graphics/SVG/1.1/DTD/svg11.dtd">
<!-- Creator: CorelDRAW 2017 -->
<svg xmlns="http://www.w3.org/2000/svg" xml:space="preserve" width="264px" height="67px" version="1.1" style="shape-rendering:geometricPrecision; text-rendering:geometricPrecision; image-rendering:optimizeQuality; fill-rule:evenodd; clip-rule:evenodd"
viewBox="0 0 171.17 43.42"
 xmlns:xlink="http://www.w3.org/1999/xlink">
 <defs>
  <style type="text/css">
   <![CDATA[
    .str2 {stroke:#727376;stroke-width:1.3;stroke-miterlimit:22.9256}
    .str3 {stroke:#E71615;stroke-width:1.3;stroke-miterlimit:22.9256}
    .str0 {stroke:#727376;stroke-width:1.3;stroke-linejoin:round;stroke-miterlimit:22.9256}
    .str1 {stroke:#E71615;stroke-width:1.3;stroke-linejoin:round;stroke-miterlimit:22.9256}
    .fil0 {fill:none}
   ]]>
  </style>
 </defs>
 <g id="ะต_x203a_ัะต_x00b1__x201a__x0020_1">
  <metadata id="CorelCorpID_0Corel-Layer"/>
  <g id="_2488875055248">
   <g>
    <polygon class="fil0 str0" points="136.55,42.77 128.39,38.7 128.39,10.84 136.55,14.92 "/>
    <polyline class="fil0 str0" points="162.36,42.77 149.45,38.7 136.55,42.77 "/>
    <path class="fil0 str1" d="M158.29 9.48c0,6.8 -8.84,18.35 -8.84,18.35 0,0 -8.83,-11.55 -8.83,-18.35 0,-4.88 3.96,-8.83 8.83,-8.83 4.88,0 8.84,3.95 8.84,8.83z"/>
    <line class="fil0 str0" x1="149.45" y1="38.7" x2="149.45" y2= "29.86" />
    <circle class="fil0 str1" cx="149.45" cy="9.48" r="4.08"/>
    <line class="fil0 str0" x1="149.45" y1="13.56" x2="149.45" y2= "21.03" />
    <line class="fil0 str0" x1="132.47" y1="23.07" x2="132.47" y2= "24.43" />
    <line class="fil0 str0" x1="132.47" y1="25.79" x2="132.47" y2= "27.15" />
    <line class="fil0 str0" x1="132.47" y1="28.5" x2="132.47" y2= "29.86" />
    <line class="fil0 str0" x1="136.55" y1="14.92" x2="139.26" y2= "14.24" />
    <polygon class="fil0 str0" points="162.36,42.77 170.52,38.7 170.52,10.84 162.36,14.92 "/>
    <line class="fil0 str0" x1="166.44" y1="23.07" x2="166.44" y2= "24.43" />
    <line class="fil0 str0" x1="166.44" y1="25.79" x2="166.44" y2= "27.15" />
    <line class="fil0 str0" x1="166.44" y1="28.5" x2="166.44" y2= "29.86" />
    <line class="fil0 str0" x1="162.36" y1="14.92" x2="159.65" y2= "14.24" />
   </g>
   <g>
    <polygon class="fil0 str0" points="102.66,40.73 96.55,34.62 94.51,34.62 94.51,36.66 100.62,42.77 71.41,42.77 71.41,0.65 97.23,0.65 102.66,6.08 "/>
    <line class="fil0 str2" x1="94.51" y1="34.62" x2="93.15" y2= "33.26" />
    <path class="fil0 str2" d="M95.87 27.15c0,4.87 -3.96,8.83 -8.83,8.83 -4.88,0 -8.84,-3.96 -8.84,-8.83 0,-4.88 3.96,-8.84 8.84,-8.84"/>
    <polyline class="fil0 str2" points="102.66,6.08 97.23,6.08 97.23,0.65 "/>
    <path class="fil0 str2" d="M87.04 21.71c-3.01,0 -5.44,2.43 -5.44,5.44 0,3 2.43,5.43 5.44,5.43 3,0 5.43,-2.43 5.43,-5.43"/>
    <line class="fil0 str3" x1="74.81" y1="3.37" x2="76.16" y2= "3.37" />
    <line class="fil0 str3" x1="77.52" y1="3.37" x2="78.88" y2= "3.37" />
    <line class="fil0 str3" x1="80.24" y1="3.37" x2="81.6" y2= "3.37" />
    <line class="fil0 str2" x1="74.81" y1="10.16" x2="99.26" y2= "10.16" />
    <line class="fil0 str2" x1="91.79" y1="12.88" x2="99.26" y2= "12.88" />
    <line class="fil0 str2" x1="85.68" y1="12.88" x2="90.43" y2= "12.88" />
    <line class="fil0 str2" x1="74.81" y1="12.88" x2="84.32" y2= "12.88" />
    <line class="fil0 str2" x1="74.81" y1="15.6" x2="81.6" y2= "15.6" />
    <line class="fil0 str3" x1="74.81" y1="6.08" x2="93.83" y2= "6.08" />
    <path class="fil0 str3" d="M89.07 18.31c3.75,0 6.8,3.05 6.8,6.8l-6.8 0 0 -6.8z"/>
    <polyline class="fil0 str2" points="91.11,31.22 87.04,27.15 81.6,27.15 "/>
   </g>
   <g>
    <rect class="fil0 str2" x="0.65" y="0.65" width="45.03" height="42.12"/>
    <line class="fil0 str2" x1="0.65" y1="6.46" x2="45.68" y2= "6.46" />
    <line class="fil0 str2" x1="2.83" y1="3.55" x2="4.28" y2= "3.55" />
    <line class="fil0 str2" x1="5.73" y1="3.55" x2="7.19" y2= "3.55" />
    <line class="fil0 str2" x1="8.64" y1="3.55" x2="10.09" y2= "3.55" />
    <line class="fil0 str2" x1="12.27" y1="0.65" x2="12.27" y2= "6.46" />
    <line class="fil0 str2" x1="14.45" y1="3.55" x2="43.5" y2= "3.55" />
    <rect class="fil0 str2" x="3.55" y="9.36" width="39.22" height="30.5"/>
    <line class="fil0 str2" x1="7.19" y1="13.72" x2="39.14" y2= "13.72" />
    <line class="fil0 str2" x1="7.19" y1="35.51" x2="39.14" y2= "35.51" />
    <line class="fil0 str2" x1="7.19" y1="24.62" x2="8.64" y2= "24.62" />
    <line class="fil0 str2" x1="37.69" y1="24.62" x2="39.14" y2= "24.62" />
    <path class="fil0 str3" d="M33.33 27.52c0,1.2 -0.97,2.18 -2.18,2.18l-0.72 0c-1.21,0 -2.18,-0.98 -2.18,-2.18l0 -5.81c0,-1.2 0.97,-2.18 2.18,-2.18l0.72 0c1.21,0 2.18,0.98 2.18,2.18l0 5.81z"/>
    <path class="fil0 str3" d="M13 27.52c0,1.2 0.97,2.18 2.17,2.18l0.73 0c1.2,0 2.18,-0.98 2.18,-2.18 0,0 0,0 0,-0.73 0,-0.72 -1.45,-1.45 -1.45,-1.45l-2.18 -1.45c0,0 -1.45,-0.73 -1.45,-1.45 0,-0.73 0,-0.73 0,-0.73 0,-1.2 0.97,-2.18 2.17,-2.18l0.73 0c1.2,0 2.18,0.98 2.18,2.18"/>
    <path class="fil0 str3" d="M26.07 29.7l-4.36 0c-0.4,0 -0.73,-0.32 -0.73,-0.73l0 -8.71c0,-0.4 0.33,-0.73 0.73,-0.73l4.36 0"/>
    <line class="fil0 str3" x1="20.98" y1="24.62" x2="24.62" y2= "24.62" />
   </g>
  </g>
 </g>
</svg>
