<?xml version="1.0" encoding="UTF-8"?>
<!DOCTYPE svg PUBLIC "-//W3C//DTD SVG 1.1//EN" "http://www.w3.org/Graphics/SVG/1.1/DTD/svg11.dtd">
<!-- Creator: CorelDRAW 2017 -->
<svg xmlns="http://www.w3.org/2000/svg" xml:space="preserve" width="265px" height="67px" version="1.1" style="shape-rendering:geometricPrecision; text-rendering:geometricPrecision; image-rendering:optimizeQuality; fill-rule:evenodd; clip-rule:evenodd"
viewBox="0 0 164.85 41.71"
 xmlns:xlink="http://www.w3.org/1999/xlink">
 <defs>
  <style type="text/css">
   <![CDATA[
    .str0 {stroke:#727376;stroke-width:1.24;stroke-miterlimit:22.9256}
    .str1 {stroke:#E71615;stroke-width:1.24;stroke-miterlimit:22.9256}
    .str2 {stroke:#727376;stroke-width:1.24;stroke-linejoin:round;stroke-miterlimit:22.9256}
    .str3 {stroke:#E71615;stroke-width:1.24;stroke-linejoin:round;stroke-miterlimit:22.9256}
    .fil0 {fill:none}
   ]]>
  </style>
 </defs>
 <g id="ะต_x203a_ัะต_x00b1__x201a__x0020_1">
  <metadata id="CorelCorpID_0Corel-Layer"/>
  <g id="_2488784028240">
   <g>
    <line class="fil0 str0" x1="88.08" y1="35.09" x2="88.08" y2= "41.08" />
    <line class="fil0 str0" x1="79.09" y1="41.08" x2="79.09" y2= "35.09" />
    <line class="fil0 str0" x1="76.84" y1="41.08" x2="90.33" y2= "41.08" />
    <line class="fil0 str0" x1="76.84" y1="29.09" x2="93.33" y2= "29.09" />
    <line class="fil0 str0" x1="82.84" y1="32.09" x2="84.33" y2= "32.09" />
    <line class="fil0 str1" x1="74.59" y1="3.62" x2="74.59" y2= "14.86" />
    <line class="fil0 str1" x1="62.61" y1="11.11" x2="103.07" y2= "11.11" />
    <line class="fil0 str1" x1="83.59" y1="3.62" x2="83.59" y2= "26.1" />
    <polyline class="fil0 str0" points="92.58,3.62 92.58,26.1 76.84,26.1 "/>
    <line class="fil0 str0" x1="93.33" y1="35.09" x2="76.84" y2= "35.09" />
    <path class="fil0 str0" d="M59.61 14.86l0 -13.49c0,-0.41 0.34,-0.75 0.75,-0.75l44.95 0c0.42,0 0.75,0.34 0.75,0.75l0 19.48"/>
    <line class="fil0 str0" x1="74.59" y1="35.09" x2="59.61" y2= "35.09" />
    <path class="fil0 str0" d="M74.59 40.33c0,0.42 -0.33,0.75 -0.74,0.75l-13.49 0c-0.41,0 -0.75,-0.33 -0.75,-0.75l0 -22.47c0,-0.42 0.34,-0.75 0.75,-0.75l13.49 0c0.41,0 0.74,0.33 0.74,0.75l0 22.47z"/>
    <line class="fil0 str0" x1="65.6" y1="20.1" x2="65.6" y2= "35.09" />
    <line class="fil0 str0" x1="59.61" y1="24.6" x2="74.59" y2= "24.6" />
    <line class="fil0 str0" x1="59.61" y1="20.1" x2="74.59" y2= "20.1" />
    <path class="fil0 str0" d="M106.06 40.33c0,0.42 -0.33,0.75 -0.75,0.75l-8.99 0c-0.41,0 -0.75,-0.33 -0.75,-0.75l0 -16.48c0,-0.41 0.34,-0.75 0.75,-0.75l8.99 0c0.42,0 0.75,0.34 0.75,0.75l0 16.48z"/>
    <line class="fil0 str1" x1="97.82" y1="35.09" x2="103.81" y2= "35.09" />
    <line class="fil0 str0" x1="95.57" y1="38.09" x2="106.06" y2= "38.09" />
    <line class="fil0 str0" x1="64.85" y1="38.09" x2="69.35" y2= "38.09" />
    <line class="fil0 str1" x1="97.82" y1="29.09" x2="103.81" y2= "29.09" />
    <line class="fil0 str1" x1="97.82" y1="32.09" x2="103.81" y2= "32.09" />
    <line class="fil0 str0" x1="95.57" y1="26.1" x2="106.06" y2= "26.1" />
    <polyline class="fil0 str0" points="62.61,14.86 62.61,3.62 103.07,3.62 103.07,20.85 "/>
   </g>
   <g>
    <circle class="fil0 str2" cx="22.25" cy="13.88" r="13.25"/>
    <circle class="fil0 str3" cx="30.62" cy="27.83" r="13.25"/>
    <circle class="fil0 str2" cx="13.88" cy="27.83" r="13.25"/>
    <line class="fil0 str2" x1="14.57" y1="19.46" x2="15.97" y2= "19.46" />
    <line class="fil0 str2" x1="28.53" y1="19.46" x2="29.92" y2= "19.46" />
    <line class="fil0 str2" x1="21.55" y1="31.32" x2="22.95" y2= "31.32" />
    <path class="fil0 str3" d="M41.08 27.83c0,5.78 -4.68,10.46 -10.46,10.46"/>
    <path class="fil0 str2" d="M13.88 38.29c-5.78,0 -10.47,-4.68 -10.47,-10.46"/>
    <path class="fil0 str2" d="M13.88 7.6c1.91,-2.54 4.95,-4.19 8.37,-4.19 3.42,0 6.46,1.65 8.37,4.19"/>
   </g>
   <g>
    <polyline class="fil0 str0" points="164.22,13.9 164.22,40.45 159.17,40.45 159.17,13.9 "/>
    <line class="fil0 str0" x1="161.7" y1="13.9" x2="161.7" y2= "40.45" />
    <rect class="fil0 str0" x="125.03" y="1.26" width="5.06" height="39.2"/>
    <rect class="fil0 str0" x="133.88" y="1.26" width="2.53" height="37.3"/>
    <line class="fil0 str0" x1="135.14" y1="38.55" x2="135.14" y2= "41.08" />
    <line class="fil0 str0" x1="133.88" y1="35.39" x2="136.41" y2= "35.39" />
    <line class="fil0 str0" x1="133.88" y1="32.86" x2="136.41" y2= "32.86" />
    <line class="fil0 str0" x1="133.88" y1="30.34" x2="136.41" y2= "30.34" />
    <line class="fil0 str0" x1="133.88" y1="5.05" x2="136.41" y2= "5.05" />
    <line class="fil0 str0" x1="127.56" y1="38.55" x2="127.56" y2= "37.29" />
    <line class="fil0 str0" x1="130.09" y1="31.6" x2="128.19" y2= "31.6" />
    <line class="fil0 str0" x1="130.09" y1="35.39" x2="128.19" y2= "35.39" />
    <line class="fil0 str0" x1="130.09" y1="27.81" x2="128.19" y2= "27.81" />
    <line class="fil0 str0" x1="130.09" y1="24.01" x2="128.19" y2= "24.01" />
    <line class="fil0 str0" x1="130.09" y1="20.22" x2="128.19" y2= "20.22" />
    <line class="fil0 str0" x1="130.09" y1="16.43" x2="128.19" y2= "16.43" />
    <line class="fil0 str0" x1="130.09" y1="12.63" x2="128.19" y2= "12.63" />
    <line class="fil0 str0" x1="130.09" y1="8.84" x2="128.19" y2= "8.84" />
    <line class="fil0 str0" x1="130.09" y1="5.05" x2="128.19" y2= "5.05" />
    <rect class="fil0 str1" x="140.2" y="1.26" width="2.53" height="2.53"/>
    <rect class="fil0 str1" x="152.84" y="1.26" width="2.53" height="2.53"/>
    <rect class="fil0 str1" x="140.2" y="13.9" width="2.53" height="2.53"/>
    <rect class="fil0 str1" x="152.84" y="13.9" width="2.53" height="2.53"/>
    <line class="fil0 str1" x1="144.63" y1="2.52" x2="145.89" y2= "2.52" />
    <line class="fil0 str1" x1="147.15" y1="2.52" x2="148.42" y2= "2.52" />
    <line class="fil0 str1" x1="149.68" y1="2.52" x2="150.95" y2= "2.52" />
    <line class="fil0 str1" x1="144.63" y1="15.16" x2="145.89" y2= "15.16" />
    <line class="fil0 str1" x1="147.15" y1="15.16" x2="148.42" y2= "15.16" />
    <line class="fil0 str1" x1="149.68" y1="15.16" x2="150.95" y2= "15.16" />
    <line class="fil0 str1" x1="141.47" y1="5.68" x2="141.47" y2= "6.94" />
    <line class="fil0 str1" x1="141.47" y1="8.21" x2="141.47" y2= "9.47" />
    <line class="fil0 str1" x1="141.47" y1="10.74" x2="141.47" y2= "12" />
    <line class="fil0 str1" x1="154.11" y1="5.68" x2="154.11" y2= "6.94" />
    <line class="fil0 str1" x1="154.11" y1="8.21" x2="154.11" y2= "9.47" />
    <line class="fil0 str1" x1="154.11" y1="10.74" x2="154.11" y2= "12" />
    <circle class="fil0 str1" cx="147.79" cy="8.84" r="3.79"/>
    <polygon class="fil0 str0" points="164.22,13.9 159.17,13.9 159.17,8.84 160.43,4.42 160.43,3.15 162.96,3.15 162.96,4.42 164.22,8.84 "/>
    <line class="fil0 str0" x1="161.7" y1="3.15" x2="161.7" y2= "0.62" />
    <line class="fil0 str0" x1="159.17" y1="8.84" x2="164.22" y2= "8.84" />
    <path class="fil0 str0" d="M140.2 29.07l0 -6.95c0,-1.05 0.85,-1.9 1.9,-1.9l0 0c1.04,0 1.89,0.85 1.89,1.9l0 6.95"/>
    <line class="fil0 str0" x1="138.94" y1="29.07" x2="145.26" y2= "29.07" />
    <line class="fil0 str0" x1="140.83" y1="41.08" x2="140.83" y2= "29.07" />
    <line class="fil0 str0" x1="143.36" y1="41.08" x2="143.36" y2= "29.07" />
    <path class="fil0 str0" d="M155.37 39.19c0,0.69 -0.56,1.26 -1.26,1.26l-5.06 0c-0.7,0 -1.26,-0.57 -1.26,-1.26l0 -17.7c0,-0.7 0.56,-1.27 1.26,-1.27l5.06 0c0.7,0 1.26,0.57 1.26,1.27l0 17.7z"/>
    <line class="fil0 str0" x1="147.79" y1="30.34" x2="155.37" y2= "30.34" />
   </g>
  </g>
 </g>
</svg>
