<?xml version="1.0" encoding="UTF-8"?>
<!DOCTYPE svg PUBLIC "-//W3C//DTD SVG 1.1//EN" "http://www.w3.org/Graphics/SVG/1.1/DTD/svg11.dtd">
<!-- Creator: CorelDRAW 2017 -->
<svg xmlns="http://www.w3.org/2000/svg" xml:space="preserve" width="264px" height="67px" version="1.1" style="shape-rendering:geometricPrecision; text-rendering:geometricPrecision; image-rendering:optimizeQuality; fill-rule:evenodd; clip-rule:evenodd"
viewBox="0 0 73.61 18.72"
 xmlns:xlink="http://www.w3.org/1999/xlink">
 <defs>
  <style type="text/css">
   <![CDATA[
    .str0 {stroke:#727376;stroke-width:0.56;stroke-miterlimit:22.9256}
    .str1 {stroke:#E71615;stroke-width:0.56;stroke-miterlimit:22.9256}
    .str2 {stroke:#727376;stroke-width:0.56;stroke-linejoin:round;stroke-miterlimit:22.9256}
    .str3 {stroke:#E71615;stroke-width:0.56;stroke-linejoin:round;stroke-miterlimit:22.9256}
    .fil0 {fill:none}
   ]]>
  </style>
 </defs>
 <g id="ะต_x203a_ัะต_x00b1__x201a__x0020_1">
  <metadata id="CorelCorpID_0Corel-Layer"/>
  <g id="_2488784035792">
   <g>
    <rect class="fil0 str0" x="55.18" y="0.28" width="18.16" height="18.16"/>
    <line class="fil0 str0" x1="55.18" y1="2.62" x2="73.34" y2= "2.62" />
    <line class="fil0 str1" x1="56.06" y1="1.45" x2="56.64" y2= "1.45" />
    <line class="fil0 str1" x1="57.23" y1="1.45" x2="57.81" y2= "1.45" />
    <line class="fil0 str1" x1="58.4" y1="1.45" x2="58.99" y2= "1.45" />
    <line class="fil0 str0" x1="59.86" y1="0.28" x2="59.86" y2= "2.62" />
    <line class="fil0 str0" x1="60.74" y1="1.45" x2="72.46" y2= "1.45" />
    <rect class="fil0 str0" x="56.35" y="3.79" width="15.81" height="13.47"/>
    <line class="fil0 str0" x1="59.86" y1="4.97" x2="59.86" y2= "16.09" />
    <line class="fil0 str0" x1="57.52" y1="5.26" x2="58.99" y2= "5.26" />
    <line class="fil0 str0" x1="57.52" y1="6.43" x2="59.86" y2= "6.43" />
    <line class="fil0 str0" x1="58.4" y1="7.6" x2="58.99" y2= "7.6" />
    <line class="fil0 str0" x1="58.4" y1="8.77" x2="58.99" y2= "8.77" />
    <line class="fil0 str0" x1="57.52" y1="9.94" x2="59.86" y2= "9.94" />
    <line class="fil0 str0" x1="58.4" y1="12.29" x2="58.99" y2= "12.29" />
    <line class="fil0 str0" x1="58.4" y1="11.12" x2="58.99" y2= "11.12" />
    <line class="fil0 str0" x1="58.4" y1="13.46" x2="58.99" y2= "13.46" />
    <line class="fil0 str0" x1="58.4" y1="14.63" x2="58.99" y2= "14.63" />
    <line class="fil0 str2" x1="61.04" y1="9.36" x2="70.99" y2= "9.36" />
    <line class="fil0 str2" x1="61.33" y1="9.36" x2="61.33" y2= "7.02" />
    <line class="fil0 str2" x1="62.5" y1="9.36" x2="62.5" y2= "7.6" />
    <line class="fil0 str2" x1="64.84" y1="9.36" x2="64.84" y2= "8.19" />
    <line class="fil0 str2" x1="66.01" y1="9.36" x2="66.01" y2= "7.02" />
    <line class="fil0 str2" x1="67.19" y1="9.36" x2="67.19" y2= "8.19" />
    <line class="fil0 str2" x1="68.36" y1="9.36" x2="68.36" y2= "7.02" />
    <line class="fil0 str2" x1="69.53" y1="9.36" x2="69.53" y2= "8.19" />
    <line class="fil0 str2" x1="70.7" y1="9.36" x2="70.7" y2= "7.6" />
    <line class="fil0 str2" x1="63.67" y1="9.36" x2="63.67" y2= "6.43" />
    <rect class="fil0 str3" x="61.33" y="10.53" width="1.46" height="1.46"/>
    <rect class="fil0 str3" x="63.96" y="10.53" width="1.46" height="1.46"/>
    <rect class="fil0 str3" x="66.6" y="10.53" width="1.46" height="1.46"/>
    <rect class="fil0 str3" x="69.24" y="10.53" width="1.46" height="1.46"/>
    <line class="fil0 str3" x1="68.06" y1="5.26" x2="70.99" y2= "5.26" />
    <line class="fil0 str3" x1="67.48" y1="5.26" x2="66.31" y2= "5.26" />
    <line class="fil0 str2" x1="61.04" y1="13.17" x2="63.09" y2= "13.17" />
    <line class="fil0 str2" x1="61.04" y1="14.34" x2="63.09" y2= "14.34" />
    <line class="fil0 str2" x1="63.67" y1="13.17" x2="65.72" y2= "13.17" />
    <line class="fil0 str2" x1="63.67" y1="14.34" x2="65.72" y2= "14.34" />
    <line class="fil0 str2" x1="66.31" y1="13.17" x2="68.36" y2= "13.17" />
    <line class="fil0 str2" x1="66.31" y1="14.34" x2="68.36" y2= "14.34" />
    <line class="fil0 str2" x1="68.94" y1="13.17" x2="70.99" y2= "13.17" />
    <line class="fil0 str2" x1="68.94" y1="14.34" x2="70.99" y2= "14.34" />
   </g>
   <g>
    <polyline class="fil0 str0" points="3.79,11.11 3.79,2.33 5.84,2.33 "/>
    <polyline class="fil0 str0" points="13.46,2.33 15.51,2.33 15.51,18.44 12.87,18.44 "/>
    <path class="fil0 str0" d="M11.11 1.74c0,-0.87 -0.65,-1.46 -1.46,-1.46 -0.81,0 -1.46,0.59 -1.46,1.46l-1.47 0 0 1.18 5.86 0 0 -1.18 -1.47 0z"/>
    <line class="fil0 str0" x1="9.36" y1="1.74" x2="9.94" y2= "1.74" />
    <line class="fil0 str0" x1="4.96" y1="10.53" x2="4.96" y2= "2.33" />
    <line class="fil0 str0" x1="14.34" y1="2.33" x2="14.34" y2= "13.16" />
    <line class="fil0 str1" x1="6.43" y1="6.14" x2="7.01" y2= "6.14" />
    <line class="fil0 str1" x1="7.6" y1="6.14" x2="12.87" y2= "6.14" />
    <line class="fil0 str1" x1="6.43" y1="7.31" x2="7.01" y2= "7.31" />
    <line class="fil0 str1" x1="7.6" y1="7.31" x2="12.87" y2= "7.31" />
    <line class="fil0 str1" x1="6.43" y1="4.96" x2="7.01" y2= "4.96" />
    <line class="fil0 str1" x1="7.6" y1="4.96" x2="12.87" y2= "4.96" />
    <line class="fil0 str1" x1="6.43" y1="8.48" x2="7.01" y2= "8.48" />
    <line class="fil0 str1" x1="7.6" y1="8.48" x2="12.87" y2= "8.48" />
    <line class="fil0 str1" x1="6.43" y1="9.65" x2="7.01" y2= "9.65" />
    <line class="fil0 str1" x1="7.6" y1="9.65" x2="12.87" y2= "9.65" />
    <polygon class="fil0 str0" points="18.44,18.44 17.26,18.44 17.26,2.91 17.56,2.33 18.14,2.33 18.44,2.91 "/>
    <line class="fil0 str0" x1="17.85" y1="2.33" x2="17.85" y2= "1.45" />
    <line class="fil0 str0" x1="18.44" y1="4.67" x2="17.26" y2= "4.67" />
    <line class="fil0 str0" x1="18.44" y1="5.84" x2="17.26" y2= "5.84" />
    <line class="fil0 str0" x1="18.44" y1="7.02" x2="17.26" y2= "7.02" />
    <line class="fil0 str0" x1="18.44" y1="17.26" x2="17.26" y2= "17.26" />
    <path class="fil0 str2" d="M14.34 14.92c0,0 -3.15,3.52 -7.03,3.52 -3.88,0 -7.03,-3.52 -7.03,-3.52 0,0 3.15,-3.51 7.03,-3.51 3.88,0 7.03,3.51 7.03,3.51z"/>
    <circle class="fil0 str2" cx="7.31" cy="14.92" r="3.51"/>
    <path class="fil0 str2" d="M9.65 14.92c0,1.3 -1.05,2.34 -2.34,2.34 -1.3,0 -2.35,-1.04 -2.35,-2.34 0,-1.29 1.05,-2.34 2.35,-2.34"/>
    <polyline class="fil0 str3" points="9.06,13.75 7.31,15.51 6.43,14.63 "/>
    <line class="fil0 str0" x1="12.29" y1="18.44" x2="11.7" y2= "18.44" />
   </g>
   <g>
    <path class="fil0 str3" d="M34.5 12.92c-1.38,-0.8 -2.3,-2.29 -2.3,-3.99 0,-2.55 2.06,-4.62 4.61,-4.62 2.54,0 4.61,2.07 4.61,4.62 0,1.7 -0.93,3.19 -2.31,3.99"/>
    <line class="fil0 str3" x1="36.81" y1="4.31" x2="36.81" y2= "6.62" />
    <line class="fil0 str2" x1="36.81" y1="0.28" x2="36.81" y2= "2.01" />
    <line class="fil0 str2" x1="33.35" y1="14.92" x2="32.48" y2= "16.41" />
    <line class="fil0 str3" x1="39.11" y1="4.93" x2="37.96" y2= "6.93" />
    <line class="fil0 str2" x1="41.13" y1="1.44" x2="40.27" y2= "2.94" />
    <line class="fil0 str2" x1="40.27" y1="14.92" x2="41.13" y2= "16.41" />
    <line class="fil0 str3" x1="34.5" y1="4.93" x2="35.65" y2= "6.93" />
    <line class="fil0 str2" x1="32.48" y1="1.44" x2="33.35" y2= "2.93" />
    <line class="fil0 str2" x1="43.72" y1="8.93" x2="45.45" y2= "8.93" />
    <line class="fil0 str3" x1="39.11" y1="8.93" x2="41.42" y2= "8.93" />
    <line class="fil0 str3" x1="32.2" y1="8.93" x2="34.5" y2= "8.93" />
    <line class="fil0 str2" x1="28.16" y1="8.93" x2="29.89" y2= "8.93" />
    <line class="fil0 str2" x1="42.8" y1="12.38" x2="44.29" y2= "13.25" />
    <line class="fil0 str3" x1="39.11" y1="10.26" x2="40.8" y2= "11.23" />
    <line class="fil0 str3" x1="32.81" y1="6.62" x2="34.81" y2= "7.77" />
    <line class="fil0 str2" x1="29.32" y1="4.6" x2="30.82" y2= "5.47" />
    <line class="fil0 str2" x1="42.8" y1="5.47" x2="44.29" y2= "4.6" />
    <line class="fil0 str3" x1="38.8" y1="7.77" x2="40.8" y2= "6.62" />
    <line class="fil0 str3" x1="32.81" y1="11.23" x2="34.5" y2= "10.26" />
    <line class="fil0 str2" x1="29.32" y1="13.25" x2="30.82" y2= "12.38" />
    <path class="fil0 str2" d="M34.5 15.45c-2.68,-0.95 -4.61,-3.51 -4.61,-6.52 0,-3.82 3.1,-6.92 6.92,-6.92 3.82,0 6.91,3.1 6.91,6.92 0,3.01 -1.92,5.57 -4.61,6.52"/>
    <path class="fil0 str2" d="M39.11 18.44l0 -9.51c0,-1.28 -1.03,-2.31 -2.3,-2.31 -1.28,0 -2.31,1.03 -2.31,2.31l0 9.51"/>
    <line class="fil0 str2" x1="28.16" y1="18.44" x2="45.45" y2= "18.44" />
    <path class="fil0 str2" d="M37.38 18.44l0 -8.94c0,-0.32 -0.25,-0.57 -0.57,-0.57 -0.32,0 -0.58,0.25 -0.58,0.57l0 8.94"/>
   </g>
  </g>
 </g>
</svg>
