<?xml version="1.0" encoding="UTF-8"?>
<!DOCTYPE svg PUBLIC "-//W3C//DTD SVG 1.1//EN" "http://www.w3.org/Graphics/SVG/1.1/DTD/svg11.dtd">
<!-- Creator: CorelDRAW 2017 -->
<svg xmlns="http://www.w3.org/2000/svg" xml:space="preserve" width="60px" height="60px" version="1.1" style="shape-rendering:geometricPrecision; text-rendering:geometricPrecision; image-rendering:optimizeQuality; fill-rule:evenodd; clip-rule:evenodd"
viewBox="0 0 3.93 3.93"
 xmlns:xlink="http://www.w3.org/1999/xlink">
 <defs>
  <style type="text/css">
   <![CDATA[
    .fil0 {fill:#727376;fill-rule:nonzero}
    .fil1 {fill:#C83538;fill-rule:nonzero}
   ]]>
  </style>
 </defs>
 <g id="ะต_x203a_ัะต_x00b1__x201a__x0020_1">
  <metadata id="CorelCorpID_0Corel-Layer"/>
  <g id="_2080153027488">
   <path class="fil0" d="M0.76 0.51l1.01 0 0 -0.13 -1.01 0 0 -0.06c0,-0.11 0.09,-0.19 0.19,-0.19l1.33 0c0.07,0 0.13,0.05 0.13,0.12l0.12 0c0,-0.14 -0.11,-0.25 -0.25,-0.25l-1.33 0c-0.17,0 -0.32,0.14 -0.32,0.32l0 0.31 0.13 0 0 -0.12z"/>
   <path class="fil0" d="M0.76 3.04l0 -0.19 0.25 0 0 -0.13 -0.38 0 0 0.32c0,0.17 0.15,0.32 0.32,0.32l0.19 0 0 -0.13 -0.19 0c-0.1,0 -0.19,-0.09 -0.19,-0.19z"/>
   <path class="fil1" d="M0.38 1.42c0,-0.08 0.07,-0.15 0.15,-0.15l0.01 0c0.04,0 0.08,0.01 0.11,0.04l0.11 0.11 0.11 -0.11 0 0c0.03,-0.03 0.07,-0.04 0.11,-0.04l0.01 0c0.08,0 0.15,0.07 0.15,0.15 0,0.05 -0.02,0.09 -0.05,0.12l-0.33 0.28 -0.33 -0.28c-0.03,-0.03 -0.05,-0.07 -0.05,-0.12zm0.79 0.21c0.06,-0.05 0.1,-0.13 0.1,-0.21 0,-0.15 -0.13,-0.28 -0.28,-0.28l-0.01 0c-0.08,0 -0.15,0.03 -0.2,0.08l-0.02 0.02 -0.02 -0.02c-0.05,-0.05 -0.12,-0.08 -0.2,-0.08l-0.01 0c-0.15,0 -0.28,0.13 -0.28,0.28 0,0.08 0.04,0.16 0.1,0.21l0.41 0.35 0.41 -0.35z"/>
   <path class="fil0" d="M0.13 1.52c0,-0.35 0.28,-0.63 0.63,-0.63 0.35,0 0.63,0.28 0.63,0.63 0,0.35 -0.28,0.63 -0.63,0.63 -0.35,0 -0.63,-0.28 -0.63,-0.63zm1.39 0c0,-0.42 -0.34,-0.76 -0.76,-0.76 -0.42,0 -0.76,0.34 -0.76,0.76 0,0.42 0.34,0.76 0.76,0.76 0.42,0 0.76,-0.34 0.76,-0.76z"/>
   <polygon class="fil0" points="1.9,0.38 1.9,1.14 2.03,1.14 2.03,0.51 3.8,0.51 3.8,2.09 3.48,2.09 3.48,2.22 3.93,2.22 3.93,0.38 "/>
   <path class="fil1" d="M2.98 1.58l0 -0.26c0.07,-0.03 0.12,-0.1 0.12,-0.18 0,-0.1 -0.08,-0.19 -0.19,-0.19 -0.1,0 -0.19,0.09 -0.19,0.19 0,0.08 0.06,0.15 0.13,0.18l0 0.26 -0.13 0 0 -0.11 -0.02 -0.02c-0.11,-0.07 -0.17,-0.19 -0.17,-0.31 0,-0.21 0.17,-0.38 0.38,-0.38 0.21,0 0.38,0.17 0.38,0.38 0,0.12 -0.06,0.24 -0.16,0.31l-0.03 0.02 0 0.11 -0.12 0zm-0.13 -0.44c0,-0.03 0.03,-0.06 0.06,-0.06 0.04,0 0.07,0.03 0.07,0.06 0,0.04 -0.03,0.06 -0.07,0.06 -0.03,0 -0.06,-0.02 -0.06,-0.06zm0.57 0c0,-0.28 -0.23,-0.51 -0.51,-0.51 -0.28,0 -0.5,0.23 -0.5,0.51 0,0.15 0.07,0.3 0.19,0.4l0 0.04 -0.13 0 0 0.13 0.63 0 0 0.13 -0.06 0 0 0.12 0.19 0 0 -0.25 0.13 0 0 -0.13 -0.13 0 0 -0.04c0.12,-0.1 0.19,-0.25 0.19,-0.4z"/>
   <path class="fil0" d="M3.23 3.24c0,0.1 -0.04,0.19 -0.11,0.26 -0.08,0.08 -0.13,0.19 -0.14,0.3l-1.27 0 0 -0.28 -0.24 -0.2c-0.09,-0.08 -0.16,-0.19 -0.18,-0.31l-0.08 -0.41c-0.01,-0.01 -0.01,-0.01 -0.01,-0.02 0,-0.06 0.05,-0.11 0.11,-0.11l0.02 0c0.04,0 0.09,0.03 0.1,0.08l0.09 0.31c0.02,0.07 0.08,0.11 0.15,0.12 0.05,0 0.09,-0.02 0.12,-0.05 0.03,-0.03 0.05,-0.07 0.05,-0.12l0 -1.29c0,-0.07 0.05,-0.13 0.12,-0.13 0.07,0 0.13,0.06 0.13,0.13l0 1.08 0.13 0 0 -0.26c0,-0.07 0.05,-0.12 0.12,-0.12 0.07,0 0.13,0.05 0.13,0.12l0 0.26 0.13 0 0 -0.26c0,-0.07 0.05,-0.12 0.12,-0.12 0.07,0 0.13,0.05 0.13,0.12l0 0.26 0.13 0 0 -0.26c0,-0.07 0.05,-0.12 0.12,-0.12 0.07,0 0.13,0.05 0.13,0.12l0 0.9zm-0.13 -1.15c-0.07,0 -0.14,0.03 -0.19,0.09 -0.04,-0.06 -0.11,-0.09 -0.19,-0.09 -0.07,0 -0.14,0.03 -0.19,0.09 -0.04,-0.06 -0.11,-0.09 -0.19,-0.09 -0.04,0 -0.09,0.01 -0.12,0.04l0 -0.61c0,-0.14 -0.12,-0.25 -0.26,-0.25 -0.14,0 -0.25,0.11 -0.25,0.25l0 1.29c0,0.01 0,0.02 -0.01,0.03 -0.01,0 -0.02,0.01 -0.03,0.01 -0.01,0 -0.03,-0.01 -0.03,-0.03l-0.09 -0.3c-0.03,-0.11 -0.12,-0.18 -0.22,-0.18l-0.02 0c-0.13,0 -0.23,0.11 -0.23,0.24 0,0.02 0,0.03 0,0.05l0.08 0.4c0.03,0.15 0.11,0.29 0.23,0.39l0.19 0.16 0 0.35 1.52 0 0 -0.08c0,-0.1 0.04,-0.19 0.11,-0.26 0.1,-0.09 0.15,-0.22 0.15,-0.35l0 -0.9c0,-0.14 -0.12,-0.25 -0.26,-0.25z"/>
   <polygon class="fil0" points="0.63,2.6 0.76,2.6 0.76,2.41 0.63,2.41 "/>
  </g>
 </g>
</svg>
