<?xml version="1.0" encoding="UTF-8"?>
<!DOCTYPE svg PUBLIC "-//W3C//DTD SVG 1.1//EN" "http://www.w3.org/Graphics/SVG/1.1/DTD/svg11.dtd">
<!-- Creator: CorelDRAW 2017 -->
<svg xmlns="http://www.w3.org/2000/svg" xml:space="preserve" width="71px" height="60px" version="1.1" style="shape-rendering:geometricPrecision; text-rendering:geometricPrecision; image-rendering:optimizeQuality; fill-rule:evenodd; clip-rule:evenodd"
viewBox="0 0 18.95 15.99"
 xmlns:xlink="http://www.w3.org/1999/xlink">
 <defs>
  <style type="text/css">
   <![CDATA[
    .fil1 {fill:#727376;fill-rule:nonzero}
    .fil0 {fill:#C83538;fill-rule:nonzero}
   ]]>
  </style>
 </defs>
 <g id="ะต_x203a_ัะต_x00b1__x201a__x0020_1">
  <metadata id="CorelCorpID_0Corel-Layer"/>
  <g id="_2079953591712">
   <path class="fil0" d="M5.75 2.26c0.31,0 0.56,0.26 0.56,0.57 0,0.31 -0.25,0.56 -0.56,0.56 -0.31,0 -0.56,-0.25 -0.56,-0.56 0,-0.31 0.25,-0.57 0.56,-0.57zm0 1.68c0.62,0 1.12,-0.5 1.12,-1.11 0,-0.62 -0.5,-1.12 -1.12,-1.12 -0.62,0 -1.12,0.5 -1.12,1.12 0,0.61 0.5,1.11 1.12,1.11z"/>
   <path class="fil0" d="M3.39 4.4c0.44,0 0.8,0.36 0.8,0.8 0,0.43 -0.36,0.79 -0.8,0.79 -0.43,0 -0.79,-0.36 -0.79,-0.79 0,-0.44 0.36,-0.8 0.79,-0.8zm0 2.15c0.75,0 1.35,-0.61 1.35,-1.35 0,-0.75 -0.6,-1.35 -1.35,-1.35 -0.74,0 -1.34,0.6 -1.34,1.35 0,0.74 0.6,1.35 1.34,1.35z"/>
   <path class="fil0" d="M5.72 11.63c-0.44,0 -0.79,-0.35 -0.79,-0.79 0,-0.44 0.35,-0.79 0.79,-0.79 0.44,0 0.79,0.35 0.79,0.79 0,0.44 -0.35,0.79 -0.79,0.79zm1.35 -0.79c0,-0.74 -0.61,-1.35 -1.35,-1.35 -0.74,0 -1.35,0.61 -1.35,1.35 0,0.74 0.61,1.35 1.35,1.35 0.74,0 1.35,-0.61 1.35,-1.35z"/>
   <path class="fil0" d="M3.13 9.34c-0.44,0 -0.81,-0.36 -0.81,-0.8 0,-0.45 0.37,-0.81 0.81,-0.81 0.45,0 0.81,0.36 0.81,0.81 0,0.44 -0.36,0.8 -0.81,0.8zm0 -2.17c-0.75,0 -1.36,0.62 -1.36,1.37 0,0.75 0.61,1.36 1.36,1.36 0.75,0 1.36,-0.61 1.36,-1.36 0,-0.75 -0.61,-1.37 -1.36,-1.37z"/>
   <path class="fil1" d="M12.36 11.93c-0.06,0.06 -0.16,0.06 -0.21,0l-1.87 -1.87c-0.06,-0.05 -0.06,-0.15 0,-0.2l0.05 -0.06c0.06,-0.05 0.16,-0.05 0.21,0 2.03,2.03 1.91,1.89 1.91,1.97 0,0.08 -0.04,0.11 -0.09,0.16zm-2.07 0.99c-0.43,-0.43 -0.6,-0.61 -1,-1l0.83 -1.23 1.4 1.4 -1.23 0.83zm-0.97 1.8c-0.64,0.64 -1.6,0.89 -2.42,0.6 -0.43,-1.22 0.39,-2.87 1.62,-2.87 0.34,0 0.65,0.13 0.88,0.36 0.5,0.51 0.47,1.36 -0.08,1.91zm-2.82 -1.36c-3.69,-0.27 -6.41,-3.61 -5.88,-7.3 0.48,-3.32 3.38,-5.61 6.57,-5.5 1.45,0.05 2.66,0.58 2.76,1.18 0.09,0.53 -0.62,1.1 -0.7,1.16l-1.14 0.85c-0.89,0.68 -1.01,1.96 -0.25,2.79 0.64,0.69 1.72,0.82 2.51,0.22l1.13 -0.85c0.26,-0.19 0.69,-0.41 1.04,-0.41 0.48,0 0.76,0.47 0.82,1.4l-2.68 2.35c-0.58,-0.22 -1.2,0.43 -0.93,1.01 -1.1,1.63 -1.07,1.56 -1.09,1.64 -0.97,-0.07 -1.75,0.58 -2.16,1.46zm12.17 -9.82c-0.55,-0.55 -1.31,-0.15 -1.63,0.13l-3.17 2.78c-0.19,-1.23 -0.81,-1.51 -1.33,-1.51 -0.61,0 -1.2,0.4 -1.37,0.53l-1.13 0.85c-0.63,0.47 -1.53,0.29 -1.94,-0.38 -0.35,-0.58 -0.2,-1.33 0.34,-1.74l1.14 -0.86c1.65,-1.26 1.16,-2.93 -1.83,-3.29 -3.62,-0.44 -7.13,2.1 -7.68,5.93 -0.56,3.96 2.3,7.55 6.24,7.92 -0.15,0.58 -0.11,1.19 0.12,1.74 0.02,0.06 0.08,0.12 0.14,0.15 1.7,0.71 3.87,-0.52 3.74,-2.24 0.08,-0.02 -0.03,0.05 1.64,-1.09 0.58,0.28 1.24,-0.34 1.01,-0.93l3.94 -4.49c0.1,-0.11 0.09,-0.29 -0.03,-0.39 -0.11,-0.1 -0.29,-0.09 -0.39,0.03l-3.87 4.41 -1.49 -1.49c0.13,-0.11 5.99,-5.26 6.28,-5.51 0.01,0 0.56,-0.47 0.88,-0.16 0.32,0.32 -0.15,0.87 -0.16,0.88l-1.04 1.19c-0.1,0.12 -0.09,0.29 0.02,0.39 0.12,0.1 0.29,0.09 0.39,-0.02l1.05 -1.2c0.28,-0.32 0.68,-1.08 0.13,-1.63z"/>
  </g>
 </g>
</svg>
