<?xml version="1.0" encoding="UTF-8"?>
<!DOCTYPE svg PUBLIC "-//W3C//DTD SVG 1.1//EN" "http://www.w3.org/Graphics/SVG/1.1/DTD/svg11.dtd">
<!-- Creator: CorelDRAW 2017 -->
<svg xmlns="http://www.w3.org/2000/svg" xml:space="preserve" width="60px" height="60px" version="1.1" style="shape-rendering:geometricPrecision; text-rendering:geometricPrecision; image-rendering:optimizeQuality; fill-rule:evenodd; clip-rule:evenodd"
viewBox="0 0 3.47 3.47"
 xmlns:xlink="http://www.w3.org/1999/xlink">
 <defs>
  <style type="text/css">
   <![CDATA[
    .fil1 {fill:#727376;fill-rule:nonzero}
    .fil0 {fill:#C83538;fill-rule:nonzero}
   ]]>
  </style>
 </defs>
 <g id="ะต_x203a_ัะต_x00b1__x201a__x0020_1">
  <metadata id="CorelCorpID_0Corel-Layer"/>
  <g id="_2080152330704">
   <path class="fil0" d="M3.18 0.15c-0.08,0 -0.14,0.06 -0.14,0.14 0,0.08 0.06,0.14 0.14,0.14 0.08,0 0.14,-0.06 0.14,-0.14 0,-0.08 -0.06,-0.14 -0.14,-0.14zm0 0.43c-0.16,0 -0.29,-0.13 -0.29,-0.29 0,-0.16 0.13,-0.29 0.29,-0.29 0.16,0 0.29,0.13 0.29,0.29 0,0.16 -0.13,0.29 -0.29,0.29z"/>
   <path class="fil0" d="M0.29 1.81c-0.08,0 -0.14,0.06 -0.14,0.14 0,0.08 0.06,0.14 0.14,0.14 0.08,0 0.14,-0.06 0.14,-0.14 0,-0.08 -0.06,-0.14 -0.14,-0.14zm0 0.43c-0.16,0 -0.29,-0.13 -0.29,-0.29 0,-0.16 0.13,-0.29 0.29,-0.29 0.16,0 0.29,0.13 0.29,0.29 0,0.16 -0.13,0.29 -0.29,0.29z"/>
   <path class="fil0" d="M1.16 0.94c-0.08,0 -0.14,0.07 -0.14,0.15 0,0.07 0.06,0.14 0.14,0.14 0.08,0 0.14,-0.07 0.14,-0.14 0,-0.08 -0.06,-0.15 -0.14,-0.15zm0 0.44c-0.16,0 -0.29,-0.13 -0.29,-0.29 0,-0.17 0.13,-0.3 0.29,-0.3 0.16,0 0.29,0.13 0.29,0.3 0,0.16 -0.13,0.29 -0.29,0.29z"/>
   <path class="fil0" d="M1.77 1.56c-0.08,0 -0.14,0.06 -0.14,0.14 0,0.08 0.06,0.14 0.14,0.14 0.08,0 0.14,-0.06 0.14,-0.14 0,-0.08 -0.06,-0.14 -0.14,-0.14zm0 0.43c-0.16,0 -0.29,-0.13 -0.29,-0.29 0,-0.16 0.13,-0.29 0.29,-0.29 0.16,0 0.29,0.13 0.29,0.29 0,0.16 -0.13,0.29 -0.29,0.29z"/>
   <polygon class="fil0" points="2.97,0.39 3.08,0.5 1.98,1.6 1.87,1.49 "/>
   <polygon class="fil0" points="1.36,1.19 1.67,1.49 1.57,1.6 1.26,1.29 "/>
   <polygon class="fil0" points="0.95,1.19 1.06,1.29 0.5,1.85 0.39,1.75 "/>
   <polygon class="fil1" points="0,3.47 3.47,3.47 3.47,3.32 0,3.32 "/>
   <polygon class="fil1" points="3.11,3.4 3.25,3.4 3.25,1.23 3.11,1.23 "/>
   <polygon class="fil1" points="1.73,3.4 1.88,3.4 1.88,2.31 1.73,2.31 "/>
   <polygon class="fil1" points="0.22,3.4 0.37,3.4 0.37,2.53 0.22,2.53 "/>
   <polygon class="fil1" points="1.08,3.4 1.23,3.4 1.23,1.88 1.08,1.88 "/>
  </g>
 </g>
</svg>
