<?xml version="1.0" encoding="UTF-8"?>
<!DOCTYPE svg PUBLIC "-//W3C//DTD SVG 1.1//EN" "http://www.w3.org/Graphics/SVG/1.1/DTD/svg11.dtd">
<!-- Creator: CorelDRAW 2017 -->
<svg xmlns="http://www.w3.org/2000/svg" xml:space="preserve" width="60px" height="60px" version="1.1" style="shape-rendering:geometricPrecision; text-rendering:geometricPrecision; image-rendering:optimizeQuality; fill-rule:evenodd; clip-rule:evenodd"
viewBox="0 0 26.59 26.6"
 xmlns:xlink="http://www.w3.org/1999/xlink">
 <defs>
  <style type="text/css">
   <![CDATA[
    .fil0 {fill:#727376;fill-rule:nonzero}
    .fil1 {fill:#C83538;fill-rule:nonzero}
   ]]>
  </style>
 </defs>
 <g id="ะต_x203a_ัะต_x00b1__x201a__x0020_1">
  <metadata id="CorelCorpID_0Corel-Layer"/>
  <g id="_2080112723664">
   <path class="fil0" d="M16.61 16.61c-2.87,2.87 -7.53,2.87 -10.39,0 -1.39,-1.38 -2.16,-3.23 -2.16,-5.19 0,-1.96 0.77,-3.81 2.16,-5.2 1.43,-1.43 3.31,-2.15 5.19,-2.15 1.88,0 3.77,0.72 5.2,2.15 2.86,2.87 2.86,7.53 0,10.39zm0.59 -10.98c-3.19,-3.2 -8.38,-3.2 -11.58,0 -1.55,1.54 -2.4,3.6 -2.4,5.79 0,2.19 0.85,4.24 2.4,5.79 1.6,1.6 3.7,2.39 5.79,2.39 2.1,0 4.2,-0.79 5.79,-2.39 3.2,-3.19 3.2,-8.39 0,-11.58z"/>
   <path class="fil0" d="M20.31 11.42c0,0.23 0.18,0.42 0.42,0.42 0.23,0 0.42,-0.19 0.42,-0.42 0,-1.31 -0.25,-2.57 -0.75,-3.75 -0.09,-0.22 -0.33,-0.32 -0.55,-0.23 -0.21,0.09 -0.32,0.34 -0.23,0.55 0.46,1.08 0.69,2.24 0.69,3.43z"/>
   <path class="fil0" d="M11.41 2.53c2.38,0 4.61,0.92 6.29,2.6 0.36,0.35 0.68,0.74 0.97,1.15 0.08,0.11 0.21,0.17 0.34,0.17 0.09,0 0.17,-0.02 0.25,-0.08 0.19,-0.13 0.23,-0.39 0.1,-0.58 -0.32,-0.45 -0.68,-0.87 -1.06,-1.26 -1.84,-1.83 -4.29,-2.85 -6.89,-2.85 -0.23,0 -0.42,0.19 -0.42,0.42 0,0.24 0.19,0.43 0.42,0.43z"/>
   <path class="fil0" d="M24.27 25.58l-2.58 -2.58 0.65 -0.65c0,0 0,0 0,0 0,0 0,0 0,0l0.66 -0.66 2.58 2.58 -1.31 1.31zm-20.34 -6.68c-4.12,-4.13 -4.12,-10.84 0,-14.96 2,-2 4.66,-3.1 7.48,-3.1 2.83,0 5.48,1.1 7.48,3.1 2,2 3.1,4.65 3.1,7.48 0,2.82 -1.1,5.48 -3.1,7.48 -2,1.99 -4.65,3.1 -7.48,3.1 -2.82,0 -5.48,-1.11 -7.48,-3.1zm22.54 5.08l-3.17 -3.18c-0.17,-0.16 -0.43,-0.16 -0.6,0l-0.65 0.66 -2.27 -2.27c1.97,-2.12 3.05,-4.86 3.05,-7.77 0,-3.05 -1.19,-5.92 -3.34,-8.08 -2.16,-2.15 -5.03,-3.34 -8.08,-3.34 -3.05,0 -5.91,1.19 -8.07,3.34 -2.23,2.23 -3.34,5.15 -3.34,8.08 0,2.92 1.11,5.85 3.34,8.07 2.16,2.16 5.02,3.35 8.07,3.35 2.91,0 5.65,-1.08 7.77,-3.06l2.27 2.27 -0.65 0.66c-0.17,0.16 -0.17,0.43 0,0.59l3.17 3.18c0.08,0.08 0.19,0.12 0.3,0.12 0.11,0 0.21,-0.04 0.3,-0.12l1.9 -1.91c0.08,-0.08 0.12,-0.19 0.12,-0.3l0 0c0,-0.11 -0.04,-0.21 -0.12,-0.29z"/>
   <path class="fil1" d="M7.8 8.92l0 4.77 -1.18 0 0 -4.77 1.18 0zm4.04 0.67l0 4.1 -1.18 0 0 -4.1 1.18 0zm4.04 -2.02l0 6.12 -1.18 0 0 -6.12 1.18 0zm1.32 6.12l-0.48 0 0 -6.54c0,-0.23 -0.19,-0.42 -0.42,-0.42l-2.02 0c-0.24,0 -0.42,0.19 -0.42,0.42l0 6.54 -1.18 0 0 -4.52c0,-0.23 -0.19,-0.42 -0.42,-0.42l-2.02 0c-0.24,0 -0.42,0.19 -0.42,0.42l0 4.52 -1.18 0 0 -5.19c0,-0.23 -0.19,-0.42 -0.42,-0.42l-2.02 0c-0.24,0 -0.42,0.19 -0.42,0.42l0 5.19 -0.48 0c-0.23,0 -0.42,0.19 -0.42,0.42 0,0.23 0.19,0.42 0.42,0.42l11.9 0c0.23,0 0.42,-0.19 0.42,-0.42 0,-0.23 -0.19,-0.42 -0.42,-0.42z"/>
  </g>
 </g>
</svg>
