<?xml version="1.0" encoding="UTF-8"?>
<!DOCTYPE svg PUBLIC "-//W3C//DTD SVG 1.1//EN" "http://www.w3.org/Graphics/SVG/1.1/DTD/svg11.dtd">
<!-- Creator: CorelDRAW 2017 -->
<svg xmlns="http://www.w3.org/2000/svg" xml:space="preserve" width="36px" height="36px" version="1.1" style="shape-rendering:geometricPrecision; text-rendering:geometricPrecision; image-rendering:optimizeQuality; fill-rule:evenodd; clip-rule:evenodd"
viewBox="0 0 1.14 1.14"
 xmlns:xlink="http://www.w3.org/1999/xlink">
 <defs>
  <style type="text/css">
   <![CDATA[
    .fil0 {fill:#848688;fill-rule:nonzero}
    .fil1 {fill:#C83538;fill-rule:nonzero}
   ]]>
  </style>
 </defs>
 <g id="Layer_x0020_1">
  <metadata id="CorelCorpID_0Corel-Layer"/>
  <g id="_1872894912432">
   <path class="fil0" d="M0.17 0.68c0.06,0 0.08,0.03 0.09,0.08l-0.06 -0.03c-0.01,-0.01 -0.02,-0.01 -0.03,0 0,0 0,0 0,0.01 -0.01,0.02 -0.06,0.04 -0.09,0.04 0,-0.06 0.03,-0.1 0.09,-0.1zm-0.09 0.14c0.03,-0.01 0.09,-0.02 0.12,-0.05l0.07 0.04c-0.01,0.05 -0.07,0.08 -0.1,0.08 -0.04,0 -0.08,-0.03 -0.09,-0.07zm0.09 0.2l-0.01 -0.02 0.01 -0.04 0.02 0.04 -0.02 0.02zm-0.13 -0.03c0,-0.03 0.03,-0.06 0.06,-0.06l0.04 0 -0.02 0.07c-0.01,0.01 -0.01,0.02 0,0.02l0.04 0.04c0.01,0.01 0.02,0.01 0.02,0l0.04 -0.04c0.01,0 0.01,-0.01 0.01,-0.02l-0.03 -0.07 0.04 0c0.04,0 0.06,0.03 0.06,0.06l0 0.15 0.04 0 0 -0.15c0,-0.05 -0.04,-0.09 -0.09,-0.1 0.03,-0.02 0.05,-0.05 0.05,-0.09 0,-0.13 -0.07,-0.15 -0.13,-0.15 -0.06,0 -0.13,0.02 -0.13,0.15 0,0.04 0.02,0.07 0.05,0.1 -0.05,0 -0.09,0.04 -0.09,0.09l0 0.15 0.04 0 0 -0.15z"/>
   <polygon class="fil0" points="0.08,1.14 0.11,1.14 0.11,1.07 0.08,1.07 "/>
   <polygon class="fil0" points="0.23,1.14 0.27,1.14 0.27,1.07 0.23,1.07 "/>
   <path class="fil0" d="M0.57 0.68c0.05,0 0.08,0.03 0.09,0.08l-0.06 -0.03c-0.01,-0.01 -0.02,-0.01 -0.03,0 0,0 0,0 0,0.01 -0.01,0.02 -0.06,0.04 -0.09,0.04 0,-0.06 0.03,-0.1 0.09,-0.1zm-0.09 0.14c0.03,-0.01 0.09,-0.02 0.12,-0.05l0.06 0.04c0,0.05 -0.06,0.08 -0.09,0.08 -0.04,0 -0.08,-0.03 -0.09,-0.07zm0.09 0.2l-0.02 -0.02 0.02 -0.04 0.02 0.04 -0.02 0.02zm-0.17 -0.03l0 0.15 0.04 0 0 -0.15c0,-0.03 0.03,-0.06 0.06,-0.06l0.04 0 -0.03 0.07c0,0.01 0,0.02 0.01,0.02l0.04 0.04c0,0.01 0.02,0.01 0.02,0l0.04 -0.04c0.01,0 0.01,-0.01 0.01,-0.02l-0.03 -0.07 0.04 0c0.04,0 0.06,0.03 0.06,0.06l0 0.15 0.04 0 0 -0.15c0,-0.05 -0.04,-0.09 -0.09,-0.1 0.03,-0.02 0.05,-0.05 0.05,-0.09 0,-0.13 -0.07,-0.15 -0.13,-0.15 -0.06,0 -0.13,0.02 -0.13,0.15 0,0.04 0.02,0.07 0.05,0.1 -0.05,0 -0.09,0.04 -0.09,0.09z"/>
   <polygon class="fil0" points="0.48,1.14 0.51,1.14 0.51,1.07 0.48,1.07 "/>
   <polygon class="fil0" points="0.63,1.14 0.67,1.14 0.67,1.07 0.63,1.07 "/>
   <path class="fil0" d="M0.97 1.02l-0.02 -0.02 0.02 -0.04 0.02 0.04 -0.02 0.02zm0 -0.34c0.05,0 0.08,0.03 0.09,0.08l-0.06 -0.03c-0.01,-0.01 -0.02,-0.01 -0.03,0 0,0 0,0 0,0.01 -0.01,0.02 -0.06,0.04 -0.09,0.04 0,-0.06 0.03,-0.1 0.09,-0.1zm-0.09 0.14c0.03,-0.01 0.09,-0.02 0.12,-0.05l0.06 0.04c0,0.05 -0.06,0.08 -0.09,0.08 -0.04,0 -0.08,-0.03 -0.09,-0.07l0 0zm0.22 0.09c-0.02,-0.01 -0.03,-0.01 -0.05,-0.01 0.03,-0.03 0.05,-0.06 0.05,-0.1 0,-0.13 -0.07,-0.15 -0.13,-0.15 -0.06,0 -0.13,0.02 -0.13,0.15 0,0.04 0.02,0.07 0.05,0.1 -0.05,0 -0.09,0.04 -0.09,0.09l0 0.15 0.04 0 0 -0.15c0,-0.03 0.03,-0.06 0.06,-0.06l0.04 0 -0.03 0.07c0,0.01 0,0.02 0.01,0.02l0.04 0.04c0,0.01 0.02,0.01 0.02,0l0.04 -0.04c0.01,0 0.01,-0.01 0.01,-0.02l-0.03 -0.07 0.04 0c0.04,0 0.06,0.03 0.06,0.06l0 0.15 0.04 0 0 -0.15c0,-0.03 -0.02,-0.06 -0.04,-0.08z"/>
   <polygon class="fil0" points="0.88,1.14 0.91,1.14 0.91,1.07 0.88,1.07 "/>
   <polygon class="fil0" points="1.03,1.14 1.07,1.14 1.07,1.07 1.03,1.07 "/>
   <path class="fil1" d="M1.1 0.4c0,0.01 -0.01,0.02 -0.02,0.02l-0.03 0c0,0 -0.01,0 -0.01,0.01l-0.05 0.05 -0.05 -0.05c0,-0.01 -0.01,-0.01 -0.01,-0.01l-0.11 0 0 -0.1c0,-0.03 -0.03,-0.05 -0.06,-0.05l0 -0.02c0,-0.01 0.01,-0.02 0.02,-0.02l0.3 0c0.01,0 0.02,0.01 0.02,0.02l0 0.15zm-0.32 0.08c0,0.01 -0.01,0.01 -0.02,0.01l-0.13 0c0,0 -0.01,0.01 -0.01,0.01l-0.05 0.06 -0.05 -0.06c0,0 -0.01,-0.01 -0.01,-0.01l-0.13 0c-0.01,0 -0.02,0 -0.02,-0.01l0 -0.08 0.15 0c0.04,0 0.06,-0.03 0.06,-0.06l0 -0.04 0.19 0c0.01,0 0.02,0.01 0.02,0.02l0 0.16zm-0.55 -0.12c0,0 -0.01,0 -0.01,0.01l-0.05 0.06 -0.05 -0.06c0,-0.01 -0.01,-0.01 -0.01,-0.01l-0.05 0c-0.01,0 -0.02,-0.01 -0.02,-0.02l0 -0.23c0,-0.01 0.01,-0.01 0.02,-0.01l0.45 0c0.01,0 0.02,0 0.02,0.01l0 0.23c0,0.01 -0.01,0.02 -0.02,0.02l-0.28 0zm0.85 -0.17l-0.3 0c-0.03,0 -0.06,0.03 -0.06,0.06l0 0.02 -0.15 0 0 -0.16c0,-0.03 -0.02,-0.05 -0.06,-0.05l-0.45 0c-0.03,0 -0.06,0.02 -0.06,0.05l0 0.23c0,0.03 0.03,0.06 0.06,0.06l0.04 0 0.06 0.07c0,0.01 0.02,0.01 0.02,0 0,0 0.01,0 0.01,0l0.05 -0.07 0.08 0 0 0.08c0,0.03 0.03,0.05 0.06,0.05l0.12 0 0.06 0.07c0,0.01 0.01,0.01 0.02,0 0,0 0,0 0.01,0l0.05 -0.07 0.12 0c0.03,0 0.06,-0.02 0.06,-0.05l0 -0.02 0.1 0 0.05 0.07c0.01,0 0.02,0 0.03,0 0,0 0,0 0,0l0.06 -0.07 0.02 0c0.04,0 0.06,-0.03 0.06,-0.06l0 -0.15c0,-0.03 -0.02,-0.06 -0.06,-0.06z"/>
   <polygon class="fil0" points="0.08,0.17 0.11,0.17 0.11,0.13 0.08,0.13 "/>
   <polygon class="fil0" points="0.15,0.17 0.19,0.17 0.19,0.13 0.15,0.13 "/>
   <polygon class="fil0" points="0.23,0.17 0.27,0.17 0.27,0.13 0.23,0.13 "/>
   <polygon class="fil0" points="0.61,0.38 0.65,0.38 0.65,0.34 0.61,0.34 "/>
   <polygon class="fil0" points="0.68,0.38 0.72,0.38 0.72,0.34 0.68,0.34 "/>
   <polygon class="fil0" points="0.88,0.3 0.91,0.3 0.91,0.27 0.88,0.27 "/>
   <polygon class="fil0" points="0.95,0.3 0.99,0.3 0.99,0.27 0.95,0.27 "/>
   <polygon class="fil0" points="1.03,0.3 1.07,0.3 1.07,0.27 1.03,0.27 "/>
   <path class="fil0" d="M0.78 0.15l0.04 0c0,-0.08 -0.07,-0.15 -0.15,-0.15l0 0.04c0.06,0 0.11,0.05 0.11,0.11z"/>
   <path class="fil0" d="M0.38 0.65l0 -0.04c-0.06,0 -0.11,-0.05 -0.11,-0.12l-0.04 0c0,0.09 0.07,0.16 0.15,0.16z"/>
  </g>
 </g>
</svg>
