<?xml version="1.0" encoding="UTF-8"?>
<!DOCTYPE svg PUBLIC "-//W3C//DTD SVG 1.1//EN" "http://www.w3.org/Graphics/SVG/1.1/DTD/svg11.dtd">
<!-- Creator: CorelDRAW 2017 -->
<svg xmlns="http://www.w3.org/2000/svg" xml:space="preserve" width="36px" height="36px" version="1.1" style="shape-rendering:geometricPrecision; text-rendering:geometricPrecision; image-rendering:optimizeQuality; fill-rule:evenodd; clip-rule:evenodd"
viewBox="0 0 3.62 3.61"
 xmlns:xlink="http://www.w3.org/1999/xlink">
 <defs>
  <style type="text/css">
   <![CDATA[
    .fil0 {fill:#848688;fill-rule:nonzero}
    .fil1 {fill:#C83538;fill-rule:nonzero}
   ]]>
  </style>
 </defs>
 <g id="Layer_x0020_1">
  <metadata id="CorelCorpID_0Corel-Layer"/>
  <g id="_1873018683344">
   <path class="fil0" d="M1.75 3.13l-0.99 -0.26 0 -0.5 0.99 -0.26 0 1.02zm-1.22 0.37l-0.12 0c-0.09,0 -0.17,-0.08 -0.17,-0.18l0 -0.35 0.29 0 0 0.53zm-0.41 -0.94c0,-0.09 0.08,-0.17 0.18,-0.17l0.35 0 0 0.46 -0.53 0 0 -0.29zm1.68 -0.58l-1.1 0.29 -0.4 0c-0.17,0 -0.3,0.13 -0.3,0.29l0 0.35c0,0.03 0.03,0.06 0.06,0.06l0.06 0 0 0.35c0,0.16 0.13,0.29 0.29,0.29l0.18 0c0.03,0 0.06,-0.02 0.06,-0.06l0 -0.58 0.05 0 1.1 0.29c0,0 0.01,0 0.01,0 0.01,0 0.03,0 0.04,-0.01 0.01,-0.01 0.02,-0.03 0.02,-0.05l0 -1.16c0,-0.02 -0.01,-0.04 -0.02,-0.05 -0.02,-0.01 -0.04,-0.01 -0.05,-0.01z"/>
   <path class="fil0" d="M3.38 2.75c-0.01,0.01 -0.02,0.03 -0.02,0.05l0.03 0.16 -0.15 0.06c-0.02,0.01 -0.03,0.02 -0.04,0.03l-0.06 0.16 -0.16 -0.03c-0.02,0 -0.04,0 -0.05,0.02l-0.13 0.1 -0.13 -0.1c-0.01,-0.01 -0.02,-0.02 -0.03,-0.02 -0.01,0 -0.01,0 -0.01,0l-0.17 0.03 -0.06 -0.16c0,-0.01 -0.01,-0.02 -0.03,-0.03l-0.16 -0.06 0.03 -0.16c0,-0.02 0,-0.04 -0.01,-0.05l-0.11 -0.13 0.11 -0.13c0.01,-0.01 0.01,-0.03 0.01,-0.05l-0.03 -0.16 0.16 -0.06c0.02,0 0.03,-0.02 0.03,-0.03l0.06 -0.16 0.17 0.03c0.01,0 0.03,0 0.04,-0.01l0.13 -0.11 0.13 0.11c0.01,0.01 0.03,0.01 0.05,0.01l0.16 -0.03 0.06 0.16c0.01,0.01 0.02,0.03 0.04,0.03l0.15 0.06 -0.03 0.16c0,0.02 0.01,0.04 0.02,0.05l0.1 0.13 -0.1 0.13zm0.23 -0.17l-0.13 -0.14 0.04 -0.19c0,-0.03 -0.01,-0.05 -0.04,-0.06l-0.18 -0.07 -0.06 -0.18c-0.01,-0.02 -0.04,-0.04 -0.07,-0.03l-0.18 0.03 -0.15 -0.12c-0.02,-0.02 -0.05,-0.02 -0.07,0l-0.15 0.12 -0.19 -0.03c-0.02,-0.01 -0.05,0.01 -0.06,0.03l-0.07 0.18 -0.17 0.07c-0.03,0.01 -0.05,0.03 -0.04,0.06l0.03 0.19 -0.12 0.14c-0.02,0.02 -0.02,0.06 0,0.08l0.12 0.14 -0.03 0.19c-0.01,0.03 0.01,0.05 0.04,0.06l0.17 0.07 0.07 0.18c0.01,0.02 0.04,0.04 0.06,0.03l0.19 -0.03 0.15 0.12c0.01,0.01 0.02,0.02 0.03,0.02 0.02,0 0.03,-0.01 0.04,-0.02l0.15 -0.12 0.18 0.03c0.03,0.01 0.06,-0.01 0.07,-0.03l0.06 -0.18 0.18 -0.07c0.03,-0.01 0.04,-0.03 0.04,-0.06l-0.04 -0.19 0.13 -0.14c0,-0.01 0.01,-0.03 0.01,-0.04l0 0c0,-0.01 -0.01,-0.03 -0.01,-0.04z"/>
   <polygon class="fil1" points="2.47,2.87 3.05,2.23 3.14,2.31 2.55,2.95 "/>
   <path class="fil1" d="M2.6 2.39c0.01,0 0.03,0.01 0.03,0.03 0,0.01 -0.02,0.03 -0.03,0.03 -0.02,0 -0.03,-0.02 -0.03,-0.03 0,-0.02 0.01,-0.03 0.03,-0.03zm0 0.17c0.08,0 0.14,-0.06 0.14,-0.14 0,-0.08 -0.06,-0.15 -0.14,-0.15 -0.08,0 -0.15,0.07 -0.15,0.15 0,0.08 0.07,0.14 0.15,0.14z"/>
   <path class="fil1" d="M3.01 2.8c-0.02,0 -0.03,-0.02 -0.03,-0.03 0,-0.02 0.01,-0.03 0.03,-0.03 0.01,0 0.03,0.01 0.03,0.03 0,0.01 -0.02,0.03 -0.03,0.03zm0 -0.18c-0.08,0 -0.15,0.07 -0.15,0.15 0,0.08 0.07,0.14 0.15,0.14 0.08,0 0.14,-0.06 0.14,-0.14 0,-0.08 -0.06,-0.15 -0.14,-0.15z"/>
   <path class="fil1" d="M0.39 0.5c0.02,-0.01 0.04,-0.02 0.05,-0.04l0.09 -0.18 0.09 0.18c0.01,0.02 0.03,0.03 0.05,0.04l0.2 0.03 -0.15 0.14c-0.01,0.02 -0.02,0.04 -0.01,0.05l0.03 0.21 -0.18 -0.1c-0.01,0 -0.02,0 -0.03,0 -0.01,0 -0.02,0 -0.03,0l-0.18 0.1 0.03 -0.21c0,-0.01 0,-0.03 -0.02,-0.05l-0.15 -0.14 0.21 -0.03zm-0.16 0.24l-0.05 0.29c0,0.02 0.01,0.04 0.02,0.06 0.02,0.01 0.05,0.01 0.07,0l0.26 -0.14 0.26 0.14c0.01,0 0.02,0.01 0.03,0.01 0.01,0 0.02,-0.01 0.03,-0.01 0.02,-0.02 0.03,-0.04 0.03,-0.06l-0.05 -0.29 0.21 -0.21c0.02,-0.02 0.02,-0.04 0.01,-0.06 0,-0.02 -0.02,-0.04 -0.04,-0.04l-0.3 -0.04 -0.13 -0.27c-0.02,-0.04 -0.08,-0.04 -0.1,0l-0.14 0.27 -0.29 0.04c-0.02,0 -0.04,0.02 -0.05,0.04 0,0 0,0.01 0,0.02 0,0.01 0.01,0.03 0.02,0.04l0.21 0.21z"/>
   <path class="fil1" d="M2.84 0.29c0.02,-0.01 0.04,-0.02 0.05,-0.04l0.03 -0.06 0.03 0.06c0.01,0.02 0.03,0.03 0.05,0.04l0.07 0.01 -0.05 0.05c-0.02,0.01 -0.02,0.03 -0.02,0.05l0.01 0.08 -0.06 -0.04c-0.01,0 -0.02,-0.01 -0.03,-0.01 -0.01,0 -0.02,0.01 -0.03,0.01l-0.06 0.04 0.01 -0.08c0,-0.02 0,-0.04 -0.02,-0.05l-0.05 -0.05 0.07 -0.01zm0.09 -0.29l-0.02 0c-0.02,0 -0.03,0.01 -0.04,0.03l-0.08 0.15 -0.16 0.02c-0.02,0 -0.04,0.02 -0.04,0.04 -0.01,0.02 0,0.04 0.01,0.06l0.12 0.11 -0.03 0.16c0,0.02 0.01,0.05 0.02,0.06 0.02,0.01 0.05,0.01 0.07,0l0.14 -0.07 0.14 0.07c0.01,0.01 0.02,0.01 0.03,0.01 0.01,0 0.02,0 0.03,-0.01 0.02,-0.01 0.03,-0.04 0.03,-0.06l-0.03 -0.16 0.12 -0.11c0.01,-0.02 0.02,-0.04 0.01,-0.06 0,-0.02 -0.02,-0.04 -0.05,-0.04l-0.16 -0.02 -0.07 -0.15c-0.01,-0.02 -0.03,-0.03 -0.04,-0.03z"/>
   <path class="fil1" d="M1.82 1.02c0.02,0 0.03,-0.02 0.04,-0.03l0.01 -0.02 0.01 0.02c0.01,0.01 0.02,0.03 0.04,0.03l0.02 0 -0.01 0.02c-0.01,0.01 -0.02,0.03 -0.02,0.05l0.01 0.02 -0.02 -0.01c-0.01,0 -0.02,-0.01 -0.03,-0.01 -0.01,0 -0.02,0.01 -0.03,0.01l-0.02 0.01 0.01 -0.02c0,-0.02 -0.01,-0.04 -0.02,-0.05l-0.01 -0.02 0.02 0zm-0.11 0.08l-0.02 0.11c0,0.02 0,0.04 0.02,0.05 0.02,0.02 0.04,0.02 0.06,0.01l0.1 -0.05 0.1 0.05c0,0 0.01,0 0.02,0 0.02,0 0.03,0 0.04,-0.01 0.02,-0.01 0.02,-0.03 0.02,-0.05l-0.02 -0.11 0.08 -0.08c0.02,-0.01 0.02,-0.04 0.02,-0.06 -0.01,-0.02 -0.03,-0.03 -0.05,-0.04l-0.11 -0.01 -0.05 -0.1c-0.02,-0.04 -0.08,-0.04 -0.1,0l-0.05 0.1 -0.11 0.01c-0.02,0.01 -0.04,0.02 -0.05,0.04 0,0.02 0,0.05 0.02,0.06l0.08 0.08z"/>
   <path class="fil0" d="M1 0.93c0.32,0 0.58,0.39 0.58,0.87l0.11 0c0,-0.54 -0.31,-0.99 -0.69,-0.99l0 0.12z"/>
   <path class="fil0" d="M0.47 1.1l0 0.12c0.32,0 0.58,0.34 0.58,0.76l0.12 0c0,-0.48 -0.31,-0.88 -0.7,-0.88z"/>
   <path class="fil0" d="M2.57 0.46l0 -0.11c-0.19,0 -0.35,0.15 -0.35,0.35l0.12 0c0,-0.13 0.1,-0.24 0.23,-0.24z"/>
   <path class="fil0" d="M2.28 1.69l0.11 0c0,-0.36 0.27,-0.64 0.59,-0.64l0 -0.12c-0.39,0 -0.7,0.34 -0.7,0.76z"/>
   <path class="fil0" d="M2.16 1.8c0,-0.22 -0.16,-0.4 -0.35,-0.4l0 0.11c0.13,0 0.23,0.13 0.23,0.29l0.12 0z"/>
  </g>
 </g>
</svg>
