<?xml version="1.0" encoding="UTF-8"?>
<!DOCTYPE svg PUBLIC "-//W3C//DTD SVG 1.1//EN" "http://www.w3.org/Graphics/SVG/1.1/DTD/svg11.dtd">
<!-- Creator: CorelDRAW 2017 -->
<svg xmlns="http://www.w3.org/2000/svg" xml:space="preserve" width="36px" height="36px" version="1.1" style="shape-rendering:geometricPrecision; text-rendering:geometricPrecision; image-rendering:optimizeQuality; fill-rule:evenodd; clip-rule:evenodd"
viewBox="0 0 3.11 3.11"
 xmlns:xlink="http://www.w3.org/1999/xlink">
 <defs>
  <style type="text/css">
   <![CDATA[
    .fil0 {fill:#848688;fill-rule:nonzero}
    .fil1 {fill:#C83538;fill-rule:nonzero}
   ]]>
  </style>
 </defs>
 <g id="Layer_x0020_1">
  <metadata id="CorelCorpID_0Corel-Layer"/>
  <g id="_1872646974560">
   <path class="fil0" d="M1.94 1.94c-0.33,0.34 -0.88,0.34 -1.21,0 -0.16,-0.16 -0.25,-0.37 -0.25,-0.6 0,-0.23 0.09,-0.45 0.25,-0.61 0.17,-0.17 0.39,-0.25 0.61,-0.25 0.22,0 0.44,0.08 0.6,0.25 0.34,0.33 0.34,0.88 0,1.21zm0.07 -1.28c-0.37,-0.38 -0.98,-0.38 -1.35,0 -0.18,0.18 -0.28,0.42 -0.28,0.68 0,0.25 0.1,0.49 0.28,0.67 0.18,0.19 0.43,0.28 0.68,0.28 0.24,0 0.49,-0.09 0.67,-0.28 0.38,-0.37 0.38,-0.98 0,-1.35z"/>
   <path class="fil0" d="M2.38 1.34c0,0.02 0.02,0.05 0.05,0.05 0.02,0 0.04,-0.03 0.04,-0.05 0,-0.16 -0.03,-0.3 -0.08,-0.44 -0.01,-0.03 -0.04,-0.04 -0.07,-0.03 -0.02,0.01 -0.03,0.04 -0.02,0.06 0.05,0.13 0.08,0.27 0.08,0.41z"/>
   <path class="fil0" d="M1.34 0.3c0.27,0 0.53,0.1 0.73,0.3 0.04,0.04 0.08,0.09 0.11,0.13 0.01,0.02 0.03,0.02 0.04,0.02 0.01,0 0.02,0 0.03,0 0.03,-0.02 0.03,-0.05 0.01,-0.07 -0.03,-0.05 -0.07,-0.1 -0.12,-0.15 -0.21,-0.21 -0.5,-0.33 -0.8,-0.33 -0.03,0 -0.05,0.02 -0.05,0.05 0,0.02 0.02,0.05 0.05,0.05z"/>
   <path class="fil0" d="M2.84 2.99l-0.3 -0.3 0.07 -0.08c0,0 0,0 0,0 0,0 0,0 0,0l0.08 -0.07 0.3 0.3 -0.15 0.15zm-2.38 -0.78c-0.48,-0.48 -0.48,-1.27 0,-1.75 0.23,-0.23 0.54,-0.36 0.88,-0.36 0.33,0 0.64,0.13 0.87,0.36 0.23,0.23 0.36,0.55 0.36,0.88 0,0.33 -0.13,0.64 -0.36,0.87 -0.23,0.23 -0.54,0.36 -0.87,0.36 -0.34,0 -0.65,-0.13 -0.88,-0.36zm2.64 0.59l-0.37 -0.37c-0.02,-0.02 -0.05,-0.02 -0.07,0l-0.08 0.08 -0.27 -0.27c0.23,-0.24 0.36,-0.56 0.36,-0.9 0,-0.36 -0.14,-0.7 -0.39,-0.95 -0.25,-0.25 -0.59,-0.39 -0.94,-0.39 -0.36,0 -0.7,0.14 -0.95,0.39 -0.26,0.26 -0.39,0.6 -0.39,0.95 0,0.34 0.13,0.68 0.39,0.94 0.25,0.25 0.59,0.39 0.95,0.39 0.34,0 0.66,-0.12 0.9,-0.36l0.27 0.27 -0.08 0.08c-0.02,0.02 -0.02,0.05 0,0.07l0.37 0.37c0.01,0.01 0.03,0.01 0.04,0.01 0.01,0 0.02,0 0.03,-0.01l0.23 -0.23c0.01,0 0.01,-0.02 0.01,-0.03l0 0c0,-0.01 0,-0.03 -0.01,-0.04z"/>
   <path class="fil1" d="M0.91 1.04l0 0.56 -0.14 0 0 -0.56 0.14 0zm0.47 0.08l0 0.48 -0.13 0 0 -0.48 0.13 0zm0.48 -0.23l0 0.71 -0.14 0 0 -0.71 0.14 0zm0.15 0.71l-0.05 0 0 -0.76c0,-0.03 -0.03,-0.05 -0.05,-0.05l-0.24 0c-0.03,0 -0.05,0.02 -0.05,0.05l0 0.76 -0.14 0 0 -0.53c0,-0.02 -0.02,-0.05 -0.05,-0.05l-0.23 0c-0.03,0 -0.05,0.03 -0.05,0.05l0 0.53 -0.14 0 0 -0.61c0,-0.02 -0.02,-0.04 -0.05,-0.04l-0.23 0c-0.03,0 -0.05,0.02 -0.05,0.04l0 0.61 -0.06 0c-0.03,0 -0.05,0.02 -0.05,0.05 0,0.03 0.02,0.05 0.05,0.05l1.39 0c0.03,0 0.05,-0.02 0.05,-0.05 0,-0.03 -0.02,-0.05 -0.05,-0.05z"/>
  </g>
 </g>
</svg>
