<?xml version="1.0" encoding="UTF-8"?>
<!DOCTYPE svg PUBLIC "-//W3C//DTD SVG 1.1//EN" "http://www.w3.org/Graphics/SVG/1.1/DTD/svg11.dtd">
<!-- Creator: CorelDRAW 2017 -->
<svg xmlns="http://www.w3.org/2000/svg" xml:space="preserve" width="36px" height="36px" version="1.1" style="shape-rendering:geometricPrecision; text-rendering:geometricPrecision; image-rendering:optimizeQuality; fill-rule:evenodd; clip-rule:evenodd"
viewBox="0 0 3.11 3.11"
 xmlns:xlink="http://www.w3.org/1999/xlink">
 <defs>
  <style type="text/css">
   <![CDATA[
    .fil0 {fill:#848688;fill-rule:nonzero}
    .fil1 {fill:#C83538;fill-rule:nonzero}
   ]]>
  </style>
 </defs>
 <g id="Layer_x0020_1">
  <metadata id="CorelCorpID_0Corel-Layer"/>
  <g id="_1908876181872">
   <polygon class="fil0" points="0.65,2.91 1.15,2.91 1.15,2.81 0.65,2.81 "/>
   <path class="fil0" d="M2.61 2.21c0.22,0 0.4,0.18 0.4,0.4 0,0.22 -0.18,0.4 -0.4,0.4 -0.22,0 -0.4,-0.18 -0.4,-0.4 0,-0.22 0.18,-0.4 0.4,-0.4zm-1.31 -0.7c0,-0.08 -0.02,-0.15 -0.04,-0.22 0.07,-0.02 0.11,-0.05 0.14,-0.07 0.06,0.08 0.09,0.18 0.1,0.29l-0.2 0zm0.1 0.38c-0.03,-0.02 -0.07,-0.05 -0.14,-0.07 0.02,-0.07 0.04,-0.14 0.04,-0.21l0.2 0c-0.01,0.1 -0.04,0.2 -0.1,0.28zm-0.18 0.02c0.06,0.02 0.09,0.04 0.12,0.06 -0.08,0.08 -0.17,0.14 -0.28,0.17 0.05,-0.06 0.11,-0.14 0.16,-0.23zm-0.63 0c0.04,0.09 0.1,0.17 0.16,0.23 -0.11,-0.03 -0.21,-0.09 -0.28,-0.17 0.02,-0.02 0.06,-0.04 0.12,-0.06zm-0.09 -0.3c0.01,0.07 0.02,0.14 0.05,0.21 -0.07,0.02 -0.12,0.05 -0.15,0.07 -0.05,-0.08 -0.09,-0.18 -0.1,-0.28l0.2 0zm-0.1 -0.39c0.03,0.02 0.08,0.05 0.15,0.07 -0.03,0.07 -0.04,0.14 -0.05,0.22l-0.2 0c0.01,-0.11 0.05,-0.21 0.1,-0.29zm0.19 -0.02c-0.06,-0.02 -0.1,-0.04 -0.12,-0.06 0.07,-0.08 0.17,-0.14 0.28,-0.17 -0.06,0.06 -0.12,0.14 -0.16,0.23zm0.47 -0.23c0.11,0.03 0.2,0.09 0.28,0.17 -0.03,0.02 -0.06,0.04 -0.12,0.06 -0.05,-0.09 -0.11,-0.17 -0.16,-0.23zm-0.11 0.28l0 -0.24c0.05,0.05 0.12,0.12 0.17,0.22 -0.05,0.01 -0.1,0.02 -0.17,0.02zm0 0.26l0 -0.16c0.08,0 0.15,-0.01 0.21,-0.03 0.02,0.06 0.04,0.12 0.04,0.19l-0.25 0zm0 0.25l0 -0.15 0.25 0c0,0.06 -0.02,0.12 -0.04,0.18 -0.06,-0.02 -0.13,-0.03 -0.21,-0.03zm0 0.34l0 -0.24c0.07,0 0.12,0.01 0.17,0.02 -0.05,0.1 -0.12,0.17 -0.17,0.22zm-0.1 -0.24l0 0.24c-0.05,-0.05 -0.11,-0.12 -0.16,-0.22 0.04,-0.01 0.1,-0.02 0.16,-0.02zm0 -0.25l0 0.15c-0.08,0 -0.15,0.01 -0.21,0.03 -0.02,-0.06 -0.03,-0.12 -0.04,-0.18l0.25 0zm0 -0.26l0 0.16 -0.25 0c0.01,-0.07 0.02,-0.13 0.04,-0.19 0.06,0.02 0.13,0.03 0.21,0.03zm0 -0.34l0 0.24c-0.06,0 -0.12,-0.01 -0.16,-0.02 0.05,-0.1 0.11,-0.17 0.16,-0.22zm0.86 1.6l-1.61 0 0 -2.21 1.61 0 0 1.11 -0.11 0c-0.02,-0.37 -0.33,-0.66 -0.7,-0.66 -0.38,0 -0.7,0.32 -0.7,0.71 0,0.38 0.32,0.7 0.7,0.7 0.37,0 0.68,-0.29 0.7,-0.65l0.11 0 0 1zm-0.15 0.4l-1.31 0c-0.08,0 -0.15,-0.07 -0.15,-0.15l0 -0.15 1.61 0 0 0.15c0,0.08 -0.07,0.15 -0.15,0.15zm-1.31 -2.91l1.31 0c0.08,0 0.15,0.07 0.15,0.15l0 0.05 -1.61 0 0 -0.05c0,-0.08 0.07,-0.15 0.15,-0.15zm2.36 0c0.22,0 0.4,0.18 0.4,0.4 0,0.22 -0.18,0.4 -0.4,0.4 -0.22,0 -0.4,-0.18 -0.4,-0.4 0,-0.22 0.18,-0.4 0.4,-0.4zm0 1.05c0.22,0 0.4,0.18 0.4,0.41 0,0.22 -0.18,0.4 -0.4,0.4 -0.22,0 -0.4,-0.18 -0.4,-0.4 0,-0.23 0.18,-0.41 0.4,-0.41zm-0.6 0.46l0.1 0c0.03,0.25 0.24,0.45 0.5,0.45 0.28,0 0.5,-0.23 0.5,-0.5 0,-0.28 -0.22,-0.51 -0.5,-0.51 -0.26,0 -0.47,0.2 -0.5,0.46l-0.1 0 0 -0.96 0.1 0c0.03,0.26 0.24,0.45 0.5,0.45 0.28,0 0.5,-0.22 0.5,-0.5 0,-0.27 -0.22,-0.5 -0.5,-0.5 -0.26,0 -0.47,0.2 -0.5,0.45l-0.2 0 0 1.06 -0.1 0 0 -1.26c0,-0.14 -0.12,-0.25 -0.25,-0.25l-1.31 0c-0.14,0 -0.25,0.11 -0.25,0.25l0 2.61c0,0.14 0.11,0.25 0.25,0.25l1.31 0c0.13,0 0.25,-0.11 0.25,-0.25l0 -1.25 0.1 0 0 1.05 0.2 0c0.03,0.25 0.24,0.45 0.5,0.45 0.28,0 0.5,-0.22 0.5,-0.5 0,-0.28 -0.22,-0.5 -0.5,-0.5 -0.26,0 -0.47,0.2 -0.5,0.45l-0.1 0 0 -0.95z"/>
   <polygon class="fil1" points="2.56,0.8 2.66,0.8 2.66,0.55 2.81,0.55 2.81,0.45 2.66,0.45 2.66,0.3 2.81,0.3 2.81,0.2 2.56,0.2 2.56,0.45 2.41,0.45 2.41,0.55 2.56,0.55 "/>
   <polygon class="fil1" points="2.56,2.91 2.81,2.91 2.81,2.81 2.66,2.81 2.66,2.51 2.76,2.51 2.76,2.41 2.66,2.41 2.66,2.31 2.56,2.31 2.56,2.41 2.46,2.41 2.46,2.51 2.56,2.51 "/>
   <polygon class="fil1" points="2.36,1.81 2.46,1.81 2.46,1.46 2.36,1.46 "/>
   <polygon class="fil1" points="2.36,1.35 2.46,1.35 2.46,1.25 2.36,1.25 "/>
   <path class="fil1" d="M2.66 1.63c0,-0.04 0.03,-0.07 0.07,-0.07 0.05,0 0.08,0.03 0.08,0.07l0 0.18 0.1 0 0 -0.18c0,-0.1 -0.08,-0.17 -0.18,-0.17 -0.02,0 -0.05,0 -0.07,0.01l0 -0.01 -0.1 0 0 0.35 0.1 0 0 -0.18z"/>
  </g>
 </g>
</svg>
