<?xml version="1.0" encoding="UTF-8"?>
<!DOCTYPE svg PUBLIC "-//W3C//DTD SVG 1.1//EN" "http://www.w3.org/Graphics/SVG/1.1/DTD/svg11.dtd">
<!-- Creator: CorelDRAW 2017 -->
<svg xmlns="http://www.w3.org/2000/svg" xml:space="preserve" width="36px" height="41px" version="1.1" style="shape-rendering:geometricPrecision; text-rendering:geometricPrecision; image-rendering:optimizeQuality; fill-rule:evenodd; clip-rule:evenodd"
viewBox="0 0 3.62 4.03"
 xmlns:xlink="http://www.w3.org/1999/xlink">
 <defs>
  <style type="text/css">
   <![CDATA[
    .fil1 {fill:#848688;fill-rule:nonzero}
    .fil0 {fill:#C83538;fill-rule:nonzero}
   ]]>
  </style>
 </defs>
 <g id="Layer_x0020_1">
  <metadata id="CorelCorpID_0Corel-Layer"/>
  <g id="_1872894879280">
   <path class="fil0" d="M2.47 2.07c0,0.03 -0.02,0.06 -0.04,0.08l-0.87 0.51c-0.05,0.03 -0.08,0.01 -0.1,0 -0.03,-0.01 -0.04,-0.05 -0.04,-0.08l0 -1.02c0,-0.04 0.01,-0.07 0.04,-0.08 0.03,-0.02 0.07,-0.02 0.1,0l0.87 0.51c0.02,0.01 0.04,0.05 0.04,0.08zm-0.23 0l-0.59 -0.35 0 0.7 0.59 -0.35z"/>
   <path class="fil1" d="M3.62 1.15l0 1.87c0,0.21 -0.17,0.38 -0.38,0.38l-1.34 0 0 0.44 0.32 0c0.06,0 0.1,0.05 0.1,0.1 0,0.05 -0.04,0.09 -0.1,0.09l-0.82 0c-0.06,0 -0.1,-0.04 -0.1,-0.09 0,-0.05 0.04,-0.1 0.1,-0.1l0.32 0 0 -0.44 -1.34 0c-0.21,0 -0.38,-0.17 -0.38,-0.38l0 -1.87c0,-0.21 0.17,-0.39 0.38,-0.39l2.86 0c0.21,0 0.38,0.18 0.38,0.39zm-0.17 -0.01c0,-0.1 -0.08,-0.19 -0.19,-0.19l-2.86 0c-0.1,0 -0.19,0.09 -0.19,0.19l0 0.45 0.67 0c0.06,0 0.1,0.04 0.1,0.1 0,0.05 -0.04,0.09 -0.1,0.09l-0.67 0 0 0.6 0.67 0c0.06,0 0.1,0.04 0.1,0.09 0,0.06 -0.04,0.1 -0.1,0.1l-0.67 0 0 0.45c0,0.1 0.09,0.19 0.19,0.19l2.86 0c0.11,0 0.19,-0.09 0.19,-0.19l0 -0.45 -0.73 0c-0.05,0 -0.09,-0.04 -0.09,-0.1 0,-0.05 0.04,-0.09 0.09,-0.09l0.73 0 0 -0.6 -0.73 0c-0.05,0 -0.09,-0.04 -0.09,-0.09 0,-0.06 0.04,-0.1 0.09,-0.1l0.73 0 0 -0.45z"/>
   <g>
    <path class="fil1" d="M0.88 0.51c0.02,0.04 0.05,0.06 0.09,0.06 0.01,0 0.02,-0.01 0.04,-0.01 0.04,-0.02 0.06,-0.08 0.04,-0.13l-0.12 -0.27c-0.03,-0.05 -0.08,-0.07 -0.13,-0.04 -0.05,0.02 -0.07,0.07 -0.05,0.12l0.13 0.27z"/>
    <path class="fil1" d="M2.61 0.56c0.01,0 0.03,0.01 0.04,0.01 0.04,0 0.07,-0.02 0.09,-0.06l0.12 -0.27c0.03,-0.05 0.01,-0.1 -0.04,-0.12 -0.05,-0.03 -0.11,-0.01 -0.13,0.04l-0.12 0.27c-0.03,0.05 -0.01,0.11 0.04,0.13z"/>
    <path class="fil1" d="M1.72 0.37l0 -0.28c0,-0.05 0.04,-0.09 0.09,-0.09 0.05,0 0.09,0.04 0.09,0.09l0 0.28c0,0.05 -0.04,0.09 -0.09,0.09 -0.05,0 -0.09,-0.04 -0.09,-0.09z"/>
   </g>
  </g>
 </g>
</svg>
