<?xml version="1.0" encoding="UTF-8"?>
<!DOCTYPE svg PUBLIC "-//W3C//DTD SVG 1.1//EN" "http://www.w3.org/Graphics/SVG/1.1/DTD/svg11.dtd">
<!-- Creator: CorelDRAW 2017 -->
<svg xmlns="http://www.w3.org/2000/svg" xml:space="preserve" width="44px" height="44px" version="1.1" style="shape-rendering:geometricPrecision; text-rendering:geometricPrecision; image-rendering:optimizeQuality; fill-rule:evenodd; clip-rule:evenodd"
viewBox="0 0 3.57 3.57"
 xmlns:xlink="http://www.w3.org/1999/xlink">
 <defs>
  <style type="text/css">
   <![CDATA[
    .str0 {stroke:#727376;stroke-width:0.16;stroke-miterlimit:22.9256}
    .str1 {stroke:#E71615;stroke-width:0.16;stroke-miterlimit:22.9256}
    .fil0 {fill:none}
   ]]>
  </style>
 </defs>
 <g id="ะต_x203a_ัะต_x00b1__x201a__x0020_1">
  <metadata id="CorelCorpID_0Corel-Layer"/>
  <g id="_2438926221840">
   <path class="fil0 str0" d="M3.49 2.55c0,0.09 -0.08,0.17 -0.17,0.17l-2.09 0 -1.09 0.77 -0.06 0 0 -3.24c0,-0.1 0.07,-0.17 0.17,-0.17l3.07 0c0.09,0 0.17,0.07 0.17,0.17l0 2.3z"/>
   <rect class="fil0 str1" x="0.3" y="0.3" width="2.96" height="1.76"/>
   <polygon class="fil0 str1" points="1.45,1.56 1.4,1.56 1.4,0.79 1.45,0.79 2.17,1.18 "/>
   <line class="fil0 str0" x1="0.25" y1="2.33" x2="0.9" y2= "2.33" />
   <line class="fil0 str0" x1="1.23" y1="2.33" x2="2.66" y2= "2.33" />
   <line class="fil0 str0" x1="2.77" y1="2.33" x2="2.88" y2= "2.33" />
   <line class="fil0 str0" x1="2.99" y1="2.33" x2="3.1" y2= "2.33" />
   <line class="fil0 str0" x1="3.21" y1="2.33" x2="3.32" y2= "2.33" />
   <line class="fil0 str0" x1="1.07" y1="2.22" x2="1.07" y2= "2.44" />
  </g>
 </g>
</svg>
