<?xml version="1.0" encoding="UTF-8"?>
<!DOCTYPE svg PUBLIC "-//W3C//DTD SVG 1.1//EN" "http://www.w3.org/Graphics/SVG/1.1/DTD/svg11.dtd">
<!-- Creator: CorelDRAW 2017 -->
<svg xmlns="http://www.w3.org/2000/svg" xml:space="preserve" width="36px" height="31px" version="1.1" style="shape-rendering:geometricPrecision; text-rendering:geometricPrecision; image-rendering:optimizeQuality; fill-rule:evenodd; clip-rule:evenodd"
viewBox="0 0 3.62 3.06"
 xmlns:xlink="http://www.w3.org/1999/xlink">
 <defs>
  <style type="text/css">
   <![CDATA[
    .fil1 {fill:#848688;fill-rule:nonzero}
    .fil0 {fill:#C83538;fill-rule:nonzero}
   ]]>
  </style>
 </defs>
 <g id="Layer_x0020_1">
  <metadata id="CorelCorpID_0Corel-Layer"/>
  <g id="_1872991806608">
   <path class="fil0" d="M1.1 0.43c0.06,0 0.11,0.05 0.11,0.11 0,0.06 -0.05,0.11 -0.11,0.11 -0.06,0 -0.11,-0.05 -0.11,-0.11 0,-0.06 0.05,-0.11 0.11,-0.11zm0 0.32c0.12,0 0.21,-0.09 0.21,-0.21 0,-0.12 -0.09,-0.21 -0.21,-0.21 -0.12,0 -0.21,0.09 -0.21,0.21 0,0.12 0.09,0.21 0.21,0.21z"/>
   <path class="fil0" d="M0.65 0.84c0.08,0 0.15,0.07 0.15,0.15 0,0.09 -0.07,0.16 -0.15,0.16 -0.08,0 -0.15,-0.07 -0.15,-0.16 0,-0.08 0.07,-0.15 0.15,-0.15zm0 0.41c0.14,0 0.26,-0.11 0.26,-0.26 0,-0.14 -0.12,-0.25 -0.26,-0.25 -0.14,0 -0.26,0.11 -0.26,0.25 0,0.15 0.12,0.26 0.26,0.26z"/>
   <path class="fil0" d="M1.09 2.22c-0.08,0 -0.15,-0.06 -0.15,-0.15 0,-0.08 0.07,-0.15 0.15,-0.15 0.09,0 0.16,0.07 0.16,0.15 0,0.09 -0.07,0.15 -0.16,0.15zm0.26 -0.15c0,-0.14 -0.11,-0.26 -0.26,-0.26 -0.14,0 -0.25,0.12 -0.25,0.26 0,0.14 0.11,0.26 0.25,0.26 0.15,0 0.26,-0.12 0.26,-0.26z"/>
   <path class="fil0" d="M0.6 1.79c-0.09,0 -0.16,-0.07 -0.16,-0.16 0,-0.08 0.07,-0.15 0.16,-0.15 0.08,0 0.15,0.07 0.15,0.15 0,0.09 -0.07,0.16 -0.15,0.16zm0 -0.42c-0.14,0 -0.26,0.12 -0.26,0.26 0,0.15 0.12,0.26 0.26,0.26 0.14,0 0.26,-0.11 0.26,-0.26 0,-0.14 -0.12,-0.26 -0.26,-0.26z"/>
   <path class="fil1" d="M2.36 2.28c-0.01,0.01 -0.03,0.01 -0.04,0l-0.35 -0.36c-0.02,-0.01 -0.02,-0.02 0,-0.04l0.01 -0.01c0.01,-0.01 0.02,-0.01 0.04,0 0.38,0.39 0.36,0.36 0.36,0.38 0,0.01 -0.01,0.02 -0.02,0.03zm-0.39 0.19c-0.08,-0.08 -0.12,-0.12 -0.19,-0.19l0.16 -0.24 0.26 0.27 -0.23 0.16zm-0.19 0.34c-0.12,0.13 -0.3,0.17 -0.46,0.12 -0.08,-0.23 0.07,-0.55 0.31,-0.55 0.06,0 0.12,0.03 0.17,0.07 0.09,0.1 0.09,0.26 -0.02,0.36zm-0.54 -0.26c-0.7,-0.05 -1.22,-0.69 -1.12,-1.39 0.09,-0.64 0.65,-1.07 1.25,-1.05 0.28,0.01 0.51,0.11 0.53,0.22 0.02,0.1 -0.12,0.21 -0.13,0.22l-0.22 0.17c-0.17,0.13 -0.19,0.37 -0.05,0.53 0.12,0.13 0.33,0.16 0.48,0.04l0.22 -0.16c0.05,-0.04 0.13,-0.08 0.2,-0.08 0.09,0 0.14,0.09 0.15,0.27l-0.51 0.45c-0.11,-0.04 -0.23,0.08 -0.18,0.19 -0.21,0.31 -0.2,0.3 -0.2,0.32 -0.19,-0.02 -0.34,0.11 -0.42,0.27zm2.33 -1.87c-0.11,-0.11 -0.25,-0.03 -0.31,0.02l-0.61 0.53c-0.04,-0.23 -0.15,-0.28 -0.25,-0.28 -0.12,0 -0.23,0.07 -0.26,0.1l-0.22 0.16c-0.12,0.09 -0.29,0.05 -0.37,-0.07 -0.07,-0.12 -0.04,-0.26 0.06,-0.34l0.22 -0.16c0.32,-0.24 0.22,-0.56 -0.35,-0.63 -0.69,-0.08 -1.36,0.4 -1.47,1.13 -0.1,0.76 0.44,1.45 1.2,1.52 -0.03,0.11 -0.03,0.22 0.02,0.33 0,0.01 0.01,0.02 0.03,0.03 0.32,0.13 0.74,-0.1 0.71,-0.43 0.02,0 -0.01,0.01 0.32,-0.21 0.11,0.05 0.23,-0.06 0.19,-0.18l0.75 -0.85c0.02,-0.03 0.02,-0.06 0,-0.08 -0.03,-0.02 -0.06,-0.02 -0.08,0.01l-0.74 0.84 -0.28 -0.28c0.02,-0.03 1.14,-1.01 1.2,-1.06 0,0 0.1,-0.09 0.16,-0.03 0.06,0.06 -0.02,0.17 -0.03,0.17l-0.2 0.23c-0.01,0.02 -0.01,0.05 0.01,0.07 0.02,0.02 0.05,0.02 0.07,0l0.2 -0.23c0.06,-0.06 0.13,-0.21 0.03,-0.31z"/>
  </g>
 </g>
</svg>
