<?xml version="1.0" encoding="UTF-8"?>
<!DOCTYPE svg PUBLIC "-//W3C//DTD SVG 1.1//EN" "http://www.w3.org/Graphics/SVG/1.1/DTD/svg11.dtd">
<!-- Creator: CorelDRAW 2017 -->
<svg xmlns="http://www.w3.org/2000/svg" xml:space="preserve" width="36px" height="37px" version="1.1" style="shape-rendering:geometricPrecision; text-rendering:geometricPrecision; image-rendering:optimizeQuality; fill-rule:evenodd; clip-rule:evenodd"
viewBox="0 0 3.62 3.67"
 xmlns:xlink="http://www.w3.org/1999/xlink">
 <defs>
  <style type="text/css">
   <![CDATA[
    .fil1 {fill:#848688;fill-rule:nonzero}
    .fil0 {fill:#C83538;fill-rule:nonzero}
   ]]>
  </style>
 </defs>
 <g id="Layer_x0020_1">
  <metadata id="CorelCorpID_0Corel-Layer"/>
  <g id="_1872646979328">
   <path class="fil0" d="M2.45 3.04c-0.17,0 -0.31,0.14 -0.31,0.31 0,0.18 0.15,0.32 0.31,0.32 0.16,0 0.3,-0.14 0.3,-0.32 0,-0.17 -0.14,-0.31 -0.3,-0.31zm0 0.47c-0.09,0 -0.15,-0.07 -0.15,-0.16 0,-0.08 0.07,-0.15 0.15,-0.15 0.08,0 0.15,0.07 0.15,0.15 0,0.09 -0.07,0.16 -0.15,0.16z"/>
   <path class="fil0" d="M0.79 3.04c-0.17,0 -0.31,0.14 -0.31,0.31 0,0.18 0.14,0.32 0.31,0.32 0.17,0 0.3,-0.14 0.3,-0.32 0,-0.17 -0.14,-0.31 -0.3,-0.31zm0 0.47c-0.09,0 -0.15,-0.07 -0.15,-0.16 0,-0.08 0.07,-0.15 0.15,-0.15 0.08,0 0.15,0.07 0.15,0.15 0,0.09 -0.07,0.16 -0.15,0.16z"/>
   <path class="fil1" d="M3.18 0l-0.12 0.48 -3.06 0 0.56 1.67c-0.18,0.03 -0.33,0.19 -0.33,0.39 0,0.23 0.18,0.41 0.39,0.41l2.13 0 0 -0.15 -2.13 0c-0.13,0 -0.23,-0.11 -0.23,-0.25 0,-0.14 0.11,-0.25 0.23,-0.25l2.13 0 0.56 -2.14 0.31 0 0 -0.16 -0.44 0zm-0.54 2.14l-1.91 0 -0.51 -1.51 2.8 0 -0.38 1.51z"/>
   <polygon class="fil0" points="0.99,1.88 1.15,1.88 1.15,1 0.99,1 "/>
   <polygon class="fil0" points="1.54,1.88 1.7,1.88 1.7,1 1.54,1 "/>
   <polygon class="fil0" points="2.1,1.88 2.25,1.88 2.25,1 2.1,1 "/>
  </g>
 </g>
</svg>
