<?xml version="1.0" encoding="UTF-8"?>
<!DOCTYPE svg PUBLIC "-//W3C//DTD SVG 1.1//EN" "http://www.w3.org/Graphics/SVG/1.1/DTD/svg11.dtd">
<!-- Creator: CorelDRAW 2017 -->
<svg xmlns="http://www.w3.org/2000/svg" xml:space="preserve" width="36px" height="33px" version="1.1" style="shape-rendering:geometricPrecision; text-rendering:geometricPrecision; image-rendering:optimizeQuality; fill-rule:evenodd; clip-rule:evenodd"
viewBox="0 0 1.14 1.05"
 xmlns:xlink="http://www.w3.org/1999/xlink">
 <defs>
  <style type="text/css">
   <![CDATA[
    .fil0 {fill:#848688;fill-rule:nonzero}
    .fil1 {fill:#C83538;fill-rule:nonzero}
   ]]>
  </style>
 </defs>
 <g id="Layer_x0020_1">
  <metadata id="CorelCorpID_0Corel-Layer"/>
  <g id="_1872894895120">
   <path class="fil0" d="M1.04 0.3l-0.04 0 0 -0.03 0.03 -0.03c0.01,-0.02 0.02,-0.04 0.02,-0.06l0 -0.08c0,-0.06 -0.04,-0.1 -0.1,-0.1l-0.05 0c-0.05,0 -0.09,0.04 -0.09,0.1l0 0.08c0,0.02 0,0.04 0.02,0.06l0.03 0.03 0 0.03 -0.05 0c-0.05,0 -0.08,0.04 -0.09,0.08 -0.01,0 -0.01,0 -0.02,0l-0.06 0 0 -0.04 0.04 -0.04c0.02,-0.01 0.03,-0.04 0.03,-0.06l0 -0.09c0,-0.06 -0.05,-0.11 -0.11,-0.11 -0.01,0 -0.02,0 -0.02,0.01 0,0.01 0.01,0.02 0.02,0.02 0.04,0 0.07,0.04 0.07,0.08l0 0.09c0,0.01 0,0.03 -0.02,0.04l-0.03 0.04c-0.01,0 -0.01,0.01 -0.01,0.01l0 0.07c0,0.01 0.01,0.01 0.02,0.01l0.07 0c0.04,0 0.07,0.04 0.07,0.08l0 0.11 -0.4 0 0 -0.11c0,-0.03 0.02,-0.06 0.04,-0.07 0.01,0 0.01,0 0.01,0 0,0 0.01,-0.01 0.02,-0.01l0.07 0c0.01,0 0.02,0 0.02,-0.01l0 -0.07c0,0 0,-0.01 -0.01,-0.01l-0.03 -0.04c-0.01,-0.01 -0.02,-0.03 -0.02,-0.04l0 -0.09c0,-0.04 0.03,-0.08 0.07,-0.08 0.01,0 0.02,-0.01 0.02,-0.02 0,-0.01 -0.01,-0.01 -0.02,-0.01 -0.06,0 -0.11,0.05 -0.11,0.11l0 0.09c0,0.02 0.01,0.05 0.03,0.06l0.04 0.04 0 0.04 -0.06 0c-0.01,0 -0.01,0 -0.01,0 -0.01,-0.04 -0.05,-0.08 -0.1,-0.08l-0.05 0 0 -0.03 0.03 -0.03c0.02,-0.02 0.03,-0.04 0.03,-0.06l0 -0.08c0,-0.06 -0.05,-0.1 -0.1,-0.1l-0.05 0c-0.05,0 -0.1,0.04 -0.1,0.1l0 0.08c0,0.02 0.01,0.04 0.03,0.06l0.03 0.03 0 0.03 -0.05 0c-0.06,0 -0.1,0.05 -0.1,0.1l0 0.11c0,0.01 0.01,0.02 0.02,0.02l0.26 0c0.01,0 0.02,-0.01 0.02,-0.02 0,-0.01 -0.01,-0.01 -0.02,-0.01l-0.25 0 0 -0.1c0,-0.03 0.03,-0.06 0.07,-0.06l0.06 0c0.01,0 0.02,-0.01 0.02,-0.02l0 -0.05c0,-0.01 0,-0.02 -0.01,-0.02l-0.03 -0.03c-0.01,-0.01 -0.01,-0.03 -0.01,-0.04l0 -0.08c0,-0.04 0.03,-0.07 0.06,-0.07l0.05 0c0.03,0 0.06,0.03 0.06,0.07l0 0.08c0,0.01 0,0.03 -0.01,0.04l-0.03 0.03c-0.01,0 -0.01,0.01 -0.01,0.02l0 0.05c0,0.01 0.01,0.02 0.01,0.02l0.07 0c0.03,0 0.06,0.02 0.06,0.05 -0.03,0.02 -0.06,0.06 -0.06,0.1l0 0.12c0,0.01 0.01,0.02 0.02,0.02l0.44 0c0.01,0 0.02,-0.01 0.02,-0.02l0 -0.12c0,-0.04 -0.03,-0.08 -0.06,-0.1 0,-0.03 0.03,-0.05 0.06,-0.05l0.07 0c0.01,0 0.01,-0.01 0.01,-0.02l0 -0.05c0,-0.01 0,-0.02 0,-0.02l-0.04 -0.03c0,-0.01 -0.01,-0.03 -0.01,-0.04l0 -0.08c0,-0.04 0.03,-0.07 0.06,-0.07l0.05 0c0.04,0 0.07,0.03 0.07,0.07l0 0.08c0,0.01 -0.01,0.03 -0.02,0.04l-0.03 0.03c-0.01,0 -0.01,0.01 -0.01,0.02l0 0.05c0,0.01 0.01,0.02 0.02,0.02l0.06 0c0.04,0 0.07,0.03 0.07,0.06l0 0.1 -0.25 0c-0.01,0 -0.02,0 -0.02,0.01 0,0.01 0.01,0.02 0.02,0.02l0.26 0c0.01,0 0.02,-0.01 0.02,-0.02l0 -0.11c0,-0.05 -0.04,-0.1 -0.1,-0.1z"/>
   <path class="fil1" d="M0.64 0.91c0,0.01 0,0.01 0,0.02l0.01 0.07 -0.07 -0.03c0,-0.01 -0.01,-0.01 -0.01,0l-0.06 0.03 0.01 -0.07c0,-0.01 0,-0.01 -0.01,-0.02l-0.05 -0.05 0.07 -0.01c0.01,0 0.01,0 0.01,-0.01l0.04 -0.06 0.03 0.06c0,0.01 0.01,0.01 0.01,0.01l0.07 0.01 -0.05 0.05zm0.09 -0.07l-0.09 -0.02 -0.05 -0.08c0,-0.01 -0.01,-0.01 -0.01,-0.01 -0.01,0 -0.02,0 -0.02,0.01l-0.04 0.08 -0.1 0.02c0,0 -0.01,0 -0.01,0.01 0,0 0,0.01 0.01,0.01l0.06 0.07 -0.01 0.1c0,0 0,0.01 0,0.01 0.01,0 0.01,0.01 0.01,0.01 0.01,0 0.01,0 0.01,-0.01l0.09 -0.04 0.08 0.04c0,0.01 0.01,0.01 0.01,0.01l0 0c0,0 0.01,-0.01 0.01,-0.01 0,0 0.01,-0.01 0.01,-0.01l-0.02 -0.1 0.07 -0.07c0,0 0.01,-0.01 0,-0.01 0,-0.01 0,-0.01 -0.01,-0.01z"/>
   <path class="fil0" d="M1.02 0.79c-0.01,0 -0.01,0.01 -0.01,0.01l0.01 0.07 -0.06 -0.03c0,0 0,0 -0.01,0 0,0 0,0 0,0l-0.07 0.03 0.01 -0.07c0,0 0,-0.01 0,-0.01l-0.05 -0.05 0.07 -0.01c0,0 0.01,-0.01 0.01,-0.01l0.03 -0.07 0.04 0.07c0,0 0,0.01 0.01,0.01l0.07 0.01 -0.05 0.05zm0.09 -0.08l-0.1 -0.02 -0.04 -0.08c0,-0.01 -0.01,-0.01 -0.02,-0.01 0,0 -0.01,0 -0.01,0.01l-0.05 0.08 -0.09 0.02c-0.01,0 -0.01,0 -0.01,0.01 -0.01,0.01 0,0.01 0,0.02l0.07 0.07 -0.02 0.09c0,0.01 0,0.01 0.01,0.02 0.01,0 0.01,0 0.02,0l0.08 -0.04 0.09 0.04c0,0 0,0 0.01,0 0,0 0,0 0.01,0 0,-0.01 0,-0.01 0,-0.02l-0.01 -0.09 0.06 -0.07c0.01,-0.01 0.01,-0.01 0.01,-0.02 0,-0.01 -0.01,-0.01 -0.01,-0.01z"/>
   <path class="fil0" d="M0.27 0.79c-0.01,0 -0.01,0.01 -0.01,0.01l0.01 0.07 -0.06 -0.03c0,0 -0.01,0 -0.01,0 0,0 0,0 -0.01,0l-0.06 0.03 0.01 -0.07c0,0 0,-0.01 0,-0.01l-0.05 -0.05 0.07 -0.01c0,0 0.01,-0.01 0.01,-0.01l0.03 -0.07 0.03 0.07c0.01,0 0.01,0.01 0.02,0.01l0.07 0.01 -0.05 0.05zm0.08 -0.08l-0.09 -0.02 -0.04 -0.08c-0.01,-0.01 -0.01,-0.01 -0.02,-0.01 0,0 -0.01,0 -0.01,0.01l-0.05 0.08 -0.09 0.02c-0.01,0 -0.01,0 -0.01,0.01 -0.01,0.01 0,0.01 0,0.02l0.07 0.07 -0.02 0.09c0,0.01 0,0.01 0.01,0.02 0,0 0.01,0 0.02,0l0.08 -0.04 0.09 0.04c0,0 0,0 0,0 0.01,0 0.01,0 0.01,0 0.01,-0.01 0.01,-0.01 0.01,-0.02l-0.01 -0.09 0.06 -0.07c0.01,-0.01 0.01,-0.01 0.01,-0.02 0,-0.01 -0.01,-0.01 -0.02,-0.01z"/>
  </g>
 </g>
</svg>
