<?xml version="1.0" encoding="UTF-8"?>
<!DOCTYPE svg PUBLIC "-//W3C//DTD SVG 1.1//EN" "http://www.w3.org/Graphics/SVG/1.1/DTD/svg11.dtd">
<!-- Creator: CorelDRAW 2017 -->
<svg xmlns="http://www.w3.org/2000/svg" xml:space="preserve" width="36px" height="36px" version="1.1" style="shape-rendering:geometricPrecision; text-rendering:geometricPrecision; image-rendering:optimizeQuality; fill-rule:evenodd; clip-rule:evenodd"
viewBox="0 0 1.14 1.14"
 xmlns:xlink="http://www.w3.org/1999/xlink">
 <defs>
  <style type="text/css">
   <![CDATA[
    .fil0 {fill:#848688;fill-rule:nonzero}
    .fil1 {fill:#C83538;fill-rule:nonzero}
   ]]>
  </style>
 </defs>
 <g id="Layer_x0020_1">
  <metadata id="CorelCorpID_0Corel-Layer"/>
  <g id="_1872991852752">
   <path class="fil0" d="M1.09 0.12l-0.18 0c0.01,-0.04 0.05,-0.08 0.09,-0.08 0.05,0 0.08,0.04 0.09,0.08zm-0.9 0.13c0.01,0 0.02,-0.01 0.02,-0.02l0 -0.09c0,-0.05 0.05,-0.1 0.1,-0.1l0.59 0c-0.02,0.03 -0.04,0.06 -0.04,0.1 0,0 0,0 0.01,0 -0.01,0 -0.01,0 -0.01,0l0 0.16c0,0.01 0.01,0.02 0.03,0.02 0.01,0 0.02,-0.01 0.02,-0.02l0 -0.14 0.21 0c0.01,0 0.02,-0.01 0.02,-0.02 0,-0.08 -0.06,-0.14 -0.14,-0.14 0,0 -0.01,0 -0.01,0 0,0 0,0 -0.01,0l-0.67 0c-0.08,0 -0.14,0.06 -0.14,0.14l0 0.09c0,0.01 0.01,0.02 0.02,0.02z"/>
   <path class="fil1" d="M0.09 0.51c0,0 0.01,0 0.01,-0.01l0.19 -0.18 0.14 0.15c0.01,0 0.03,0 0.04,0l0.26 -0.27 0 0.08c0,0.02 0.01,0.03 0.02,0.03 0.02,0 0.03,-0.01 0.03,-0.03l0 -0.14c0,-0.01 -0.01,-0.02 -0.03,-0.02l-0.14 0c-0.01,0 -0.02,0.01 -0.02,0.02 0,0.01 0.01,0.02 0.02,0.02l0.09 0 -0.25 0.26 -0.15 -0.15c-0.01,-0.01 -0.02,-0.01 -0.03,0l-0.2 0.2c-0.01,0.01 -0.01,0.02 0,0.03 0,0.01 0.01,0.01 0.02,0.01z"/>
   <path class="fil0" d="M0.02 0.53c0,0 -0.01,0 -0.01,0 -0.01,0.01 -0.01,0.01 -0.01,0.02 0,0 0,0.01 0.01,0.01 0,0.01 0.01,0.01 0.01,0.01 0.01,0 0.01,0 0.02,-0.01 0,0 0,-0.01 0,-0.01 0,-0.01 0,-0.01 0,-0.02 -0.01,0 -0.01,0 -0.02,0z"/>
   <path class="fil0" d="M0.8 0.87c-0.09,0 -0.17,-0.08 -0.17,-0.17 0,-0.09 0.07,-0.16 0.15,-0.17l0 0.17c0,0.01 0.01,0.02 0.02,0.02l0.17 0c-0.01,0.09 -0.08,0.15 -0.17,0.15zm-0.7 0.15l0.53 0c0.01,0.03 0.02,0.06 0.04,0.08l-0.48 0c-0.04,0 -0.08,-0.04 -0.09,-0.08zm0.89 -0.34l-0.17 0 0 -0.17c0,-0.01 -0.01,-0.02 -0.02,-0.02 -0.12,0 -0.21,0.09 -0.21,0.21 0,0.12 0.09,0.21 0.21,0.21 0.02,0 0.05,0 0.06,-0.01l0 0.1c0,0.05 -0.04,0.1 -0.09,0.1 -0.05,0 -0.09,-0.05 -0.09,-0.1 0,0 0,0 0,0 0,0 0,0 0,0 0,-0.01 -0.01,-0.02 -0.02,-0.02l-0.45 0 0 -0.48c0,-0.01 -0.01,-0.02 -0.02,-0.02 -0.01,0 -0.02,0.01 -0.02,0.02l0 0.48 -0.1 0c-0.01,0 -0.02,0.01 -0.02,0.02 0,0.08 0.06,0.14 0.14,0.14l0.58 0c0.08,0 0.14,-0.06 0.14,-0.14l0 -0.11c0,0 0,0 0,0 0.06,-0.04 0.11,-0.11 0.11,-0.19 0,-0.01 -0.01,-0.02 -0.03,-0.02z"/>
   <path class="fil1" d="M0.9 0.6l0 -0.19c0.1,0.01 0.19,0.09 0.2,0.19l-0.2 0zm-0.02 -0.24c-0.01,0 -0.02,0.01 -0.02,0.02l0 0.24c0,0.02 0.01,0.03 0.02,0.03l0.24 0c0.01,0 0.02,-0.01 0.02,-0.03 0,-0.14 -0.12,-0.26 -0.26,-0.26z"/>
   <path class="fil0" d="M0.47 0.72l-0.19 0c-0.01,0 -0.02,0.01 -0.02,0.02 0,0.02 0.01,0.03 0.02,0.03l0.19 0c0.01,0 0.02,-0.01 0.02,-0.03 0,-0.01 -0.01,-0.02 -0.02,-0.02z"/>
   <path class="fil0" d="M0.54 0.84c0,0 0,0.01 0,0.01 0,0.01 0,0.01 0,0.02 0.01,0 0.01,0 0.02,0 0,0 0.01,0 0.01,0 0.01,-0.01 0.01,-0.01 0.01,-0.02 0,0 0,-0.01 -0.01,-0.01 0,-0.01 -0.01,-0.01 -0.01,-0.01 -0.01,0 -0.01,0 -0.02,0.01z"/>
   <path class="fil0" d="M0.47 0.83l-0.19 0c-0.01,0 -0.02,0.01 -0.02,0.02 0,0.01 0.01,0.02 0.02,0.02l0.19 0c0.01,0 0.02,-0.01 0.02,-0.02 0,-0.01 -0.01,-0.02 -0.02,-0.02z"/>
   <path class="fil0" d="M0.28 0.66l0.08 0c0.01,0 0.02,-0.01 0.02,-0.02 0,-0.01 -0.01,-0.02 -0.02,-0.02l-0.08 0c-0.01,0 -0.02,0.01 -0.02,0.02 0,0.01 0.01,0.02 0.02,0.02z"/>
  </g>
 </g>
</svg>
