<?xml version="1.0" encoding="UTF-8"?>
<!DOCTYPE svg PUBLIC "-//W3C//DTD SVG 1.1//EN" "http://www.w3.org/Graphics/SVG/1.1/DTD/svg11.dtd">
<!-- Creator: CorelDRAW 2017 -->
<svg xmlns="http://www.w3.org/2000/svg" xml:space="preserve" width="141px" height="130px" version="1.1" style="shape-rendering:geometricPrecision; text-rendering:geometricPrecision; image-rendering:optimizeQuality; fill-rule:evenodd; clip-rule:evenodd"
viewBox="0 0 17.25 16.01"
 xmlns:xlink="http://www.w3.org/1999/xlink">
 <defs>
  <style type="text/css">
   <![CDATA[
    .str0 {stroke:#727376;stroke-width:0.25;stroke-linejoin:round;stroke-miterlimit:22.9256}
    .str1 {stroke:#E71615;stroke-width:0.25;stroke-linejoin:round;stroke-miterlimit:22.9256}
    .fil0 {fill:none}
   ]]>
  </style>
 </defs>
 <g id="ะต_x203a_ัะต_x00b1__x201a__x0020_1">
  <metadata id="CorelCorpID_0Corel-Layer"/>
  <g id="_2438926142480">
   <line class="fil0 str0" x1="2.84" y1="14.53" x2="2.84" y2= "11.27" />
   <line class="fil0 str0" x1="3.93" y1="14.53" x2="3.93" y2= "10.99" />
   <line class="fil0 str0" x1="5.02" y1="14.53" x2="5.02" y2= "9.91" />
   <line class="fil0 str0" x1="6.1" y1="14.53" x2="6.1" y2= "9.36" />
   <line class="fil0 str0" x1="7.19" y1="14.53" x2="7.19" y2= "9.09" />
   <line class="fil0 str0" x1="8.28" y1="14.53" x2="8.28" y2= "8.01" />
   <line class="fil0 str0" x1="9.36" y1="14.53" x2="9.36" y2= "8.01" />
   <line class="fil0 str0" x1="10.45" y1="14.53" x2="10.45" y2= "8.01" />
   <line class="fil0 str0" x1="11.54" y1="14.53" x2="11.54" y2= "5.83" />
   <line class="fil0 str0" x1="12.63" y1="14.53" x2="12.63" y2= "5.83" />
   <line class="fil0 str0" x1="13.71" y1="14.53" x2="13.71" y2= "5.83" />
   <line class="fil0 str0" x1="14.8" y1="14.53" x2="14.8" y2= "4.74" />
   <polyline class="fil0 str0" points="16.97,14.53 16.97,3.38 15.89,3.38 14.8,4.74 13.44,5.83 11.54,5.83 10.45,8.01 9.64,8.01 8.55,7.73 6.92,9.36 5.29,9.36 4.2,10.99 2.84,10.99 1.75,12.35 1.75,14.53 "/>
   <line class="fil0 str0" x1="15.89" y1="3.38" x2="15.89" y2= "14.53" />
   <line class="fil0 str1" x1="1.75" y1="1.48" x2="1.75" y2= "2.03" />
   <line class="fil0 str1" x1="1.75" y1="2.57" x2="1.75" y2= "3.11" />
   <line class="fil0 str1" x1="1.75" y1="3.66" x2="1.75" y2= "4.2" />
   <line class="fil0 str1" x1="1.75" y1="4.74" x2="1.75" y2= "5.29" />
   <line class="fil0 str1" x1="2.57" y1="1.75" x2="7.46" y2= "1.75" />
   <line class="fil0 str1" x1="2.57" y1="2.84" x2="7.46" y2= "2.84" />
   <line class="fil0 str1" x1="2.57" y1="3.93" x2="7.46" y2= "3.93" />
   <line class="fil0 str1" x1="2.57" y1="5.02" x2="7.46" y2= "5.02" />
   <polyline class="fil0 str0" points="16.97,2.57 16.97,0.12 0.12,0.12 0.12,15.89 17.25,15.89 "/>
  </g>
 </g>
</svg>
