<?xml version="1.0" encoding="UTF-8"?>
<!DOCTYPE svg PUBLIC "-//W3C//DTD SVG 1.1//EN" "http://www.w3.org/Graphics/SVG/1.1/DTD/svg11.dtd">
<!-- Creator: CorelDRAW 2017 -->
<svg xmlns="http://www.w3.org/2000/svg" xml:space="preserve" width="36px" height="36px" version="1.1" style="shape-rendering:geometricPrecision; text-rendering:geometricPrecision; image-rendering:optimizeQuality; fill-rule:evenodd; clip-rule:evenodd"
viewBox="0 0 1.14 1.14"
 xmlns:xlink="http://www.w3.org/1999/xlink">
 <defs>
  <style type="text/css">
   <![CDATA[
    .fil0 {fill:#848688;fill-rule:nonzero}
    .fil1 {fill:#C83538;fill-rule:nonzero}
   ]]>
  </style>
 </defs>
 <g id="Layer_x0020_1">
  <metadata id="CorelCorpID_0Corel-Layer"/>
  <g id="_1872983713328">
   <path class="fil0" d="M0.66 0.84c-0.03,0.01 -0.04,0.03 -0.04,0.06l0 0.05 -0.03 0 0 -0.26 0.05 0c0.04,0 0.07,-0.03 0.07,-0.07l0 -0.03 -0.04 0 0 0.03c0,0.01 -0.01,0.02 -0.03,0.02l-0.14 0c-0.01,0 -0.02,-0.01 -0.02,-0.02l0 -0.03 -0.05 0 0 0.03c0,0.04 0.03,0.07 0.07,0.07l0.05 0 0 0.26 -0.03 0 0 -0.05c0,-0.03 -0.01,-0.05 -0.04,-0.06 -0.07,-0.03 -0.11,-0.1 -0.12,-0.17 -0.02,-0.12 0.07,-0.23 0.19,-0.24 0.06,-0.01 0.12,0.01 0.16,0.05 0.03,0.02 0.04,0.05 0.06,0.07 0.04,0.11 0,0.24 -0.11,0.29zm-0.07 0.25l-0.04 0c-0.02,0 -0.03,-0.01 -0.03,-0.02l0.1 0c0,0.01 -0.01,0.02 -0.03,0.02zm0.03 -0.09l0 0.02 -0.1 0 0 -0.02 0.1 0zm0.06 -0.6c-0.13,-0.06 -0.29,0 -0.35,0.13 -0.06,0.13 0,0.29 0.13,0.35 0.01,0 0.02,0.01 0.02,0.02l0 0.17c0,0.04 0.03,0.07 0.07,0.07l0.04 0c0.04,0 0.08,-0.03 0.08,-0.07l0 -0.17c0,-0.01 0,-0.02 0.01,-0.02 0.06,-0.03 0.1,-0.07 0.13,-0.13 0.06,-0.13 0,-0.29 -0.13,-0.35z"/>
   <path class="fil0" d="M0.05 0.21c0,-0.09 0.08,-0.16 0.19,-0.16 0.1,0 0.19,0.07 0.19,0.16 0,0.1 -0.09,0.17 -0.19,0.17 -0.11,0 -0.19,-0.07 -0.19,-0.17zm0.43 0c0,-0.11 -0.11,-0.21 -0.24,-0.21 -0.13,0 -0.24,0.1 -0.24,0.21 0,0.12 0.11,0.22 0.24,0.22 0.13,0 0.24,-0.1 0.24,-0.22z"/>
   <path class="fil0" d="M1.07 0l-0.43 0c-0.04,0 -0.07,0.03 -0.07,0.07l0 0.26 0.05 0 0 -0.26c0,-0.01 0.01,-0.02 0.02,-0.02l0.43 0c0.01,0 0.02,0.01 0.02,0.02l0 0.45c0,0.02 -0.01,0.03 -0.02,0.03l-0.19 0 0 0.04 0.19 0c0.04,0 0.07,-0.03 0.07,-0.07l0 -0.45c0,-0.04 -0.03,-0.07 -0.07,-0.07z"/>
   <path class="fil1" d="M0.23 0.77l-0.03 0.03 0.05 0.06 -0.08 0c-0.02,0 -0.03,-0.01 -0.03,-0.03l0 -0.38 -0.04 0 0 0.38c0,0.04 0.03,0.07 0.07,0.07l0.08 0 -0.05 0.06 0.03 0.03 0.1 -0.09c0.01,-0.01 0.01,-0.03 0,-0.04l-0.1 -0.09z"/>
   <path class="fil1" d="M1.01 0.63l-0.1 0.09 0.03 0.03 0.06 -0.05 0 0.2c0,0.07 -0.05,0.12 -0.12,0.12l-0.07 0 0 0.05 0.07 0c0.09,0 0.17,-0.07 0.17,-0.17l0 -0.2 0.05 0.05 0.03 -0.03 -0.09 -0.09c-0.01,-0.01 -0.03,-0.01 -0.03,0z"/>
   <path class="fil1" d="M0.77 0.35c0,0 0.01,0.01 0.01,0.01 0.01,0 0.02,-0.01 0.02,-0.01l0.1 -0.1 0.03 0.03c0.01,0 0.01,0.01 0.02,0.01l0.1 0 0 -0.05 -0.09 0 -0.04 -0.04c-0.01,-0.01 -0.02,-0.01 -0.03,0l-0.11 0.1 -0.05 -0.06c0,0 -0.01,0 -0.02,0l-0.04 0 0 0.05 0.03 0 0.07 0.06z"/>
   <polygon class="fil0" points="0.71,1.07 0.76,1.07 0.76,1.02 0.71,1.02 "/>
   <polygon class="fil0" points="0.21,0.24 0.26,0.24 0.26,0.19 0.21,0.19 "/>
   <polygon class="fil0" points="0.31,0.24 0.36,0.24 0.36,0.19 0.31,0.19 "/>
   <polygon class="fil0" points="0.12,0.24 0.17,0.24 0.17,0.19 0.12,0.19 "/>
  </g>
 </g>
</svg>
