<?xml version="1.0" encoding="UTF-8"?>
<!DOCTYPE svg PUBLIC "-//W3C//DTD SVG 1.1//EN" "http://www.w3.org/Graphics/SVG/1.1/DTD/svg11.dtd">
<!-- Creator: CorelDRAW 2017 -->
<svg xmlns="http://www.w3.org/2000/svg" xml:space="preserve" width="50px" height="44px" version="1.1" style="shape-rendering:geometricPrecision; text-rendering:geometricPrecision; image-rendering:optimizeQuality; fill-rule:evenodd; clip-rule:evenodd"
viewBox="0 0 2.46 2.15"
 xmlns:xlink="http://www.w3.org/1999/xlink">
 <defs>
  <style type="text/css">
   <![CDATA[
    .str2 {stroke:#727376;stroke-width:0.1;stroke-miterlimit:22.9256}
    .str1 {stroke:#E71615;stroke-width:0.1;stroke-miterlimit:22.9256}
    .str0 {stroke:#727376;stroke-width:0.1;stroke-linejoin:round;stroke-miterlimit:22.9256}
    .fil0 {fill:none}
   ]]>
  </style>
 </defs>
 <g id="ะต_x203a_ัะต_x00b1__x201a__x0020_1">
  <metadata id="CorelCorpID_0Corel-Layer"/>
  <g id="_2438922031696">
   <path class="fil0 str0" d="M1.43 1.38c-0.12,0.25 -0.37,0.42 -0.66,0.42 -0.4,0 -0.72,-0.32 -0.72,-0.72 0,-0.4 0.32,-0.73 0.72,-0.73 0.29,0 0.54,0.18 0.66,0.42"/>
   <ellipse class="fil0 str0" cx="0.77" cy="1.08" rx="0.49" ry="0.72"/>
   <ellipse class="fil0 str0" cx="0.77" cy="1.08" rx="0.27" ry="0.72"/>
   <line class="fil0 str0" x1="0.77" y1="0.35" x2="0.77" y2= "1.8" />
   <line class="fil0 str0" x1="1.31" y1="0.58" x2="0.24" y2= "0.58" />
   <line class="fil0 str0" x1="1.34" y1="1.53" x2="0.2" y2= "1.53" />
   <line class="fil0 str0" x1="1.42" y1="1.08" x2="0.05" y2= "1.08" />
   <path class="fil0 str0" d="M1.36 0.43c0.09,-0.05 0.21,-0.08 0.33,-0.08 0.4,0 0.72,0.33 0.72,0.73 0,0.4 -0.32,0.72 -0.72,0.72 -0.12,0 -0.23,-0.03 -0.33,-0.08"/>
   <path class="fil0 str1" d="M1.84 0.92c0,-0.08 -0.07,-0.15 -0.15,-0.15 -0.09,0 -0.16,0.07 -0.16,0.15 0,0.09 0.08,0.12 0.16,0.16 0.07,0.03 0.15,0.06 0.15,0.15 0,0.08 -0.07,0.15 -0.15,0.15 -0.09,0 -0.16,-0.07 -0.16,-0.15"/>
   <line class="fil0 str1" x1="1.69" y1="0.77" x2="1.69" y2= "0.66" />
   <line class="fil0 str1" x1="1.69" y1="1.38" x2="1.69" y2= "1.5" />
   <line class="fil0 str2" x1="1.95" y1="1.08" x2="2.03" y2= "1.08" />
   <line class="fil0 str2" x1="1.95" y1="0.92" x2="2.03" y2= "0.92" />
   <line class="fil0 str2" x1="1.95" y1="1.23" x2="2.03" y2= "1.23" />
   <line class="fil0 str2" x1="0.01" y1="0.05" x2="1.95" y2= "0.05" />
   <line class="fil0 str2" x1="2.03" y1="0.05" x2="2.1" y2= "0.05" />
   <line class="fil0 str2" x1="2.18" y1="0.05" x2="2.26" y2= "0.05" />
   <line class="fil0 str2" x1="2.33" y1="0.05" x2="2.41" y2= "0.05" />
   <line class="fil0 str2" x1="0.2" y1="2.1" x2="0.28" y2= "2.1" />
   <line class="fil0 str2" x1="0.05" y1="2.1" x2="0.13" y2= "2.1" />
   <line class="fil0 str2" x1="0.35" y1="2.1" x2="0.43" y2= "2.1" />
   <line class="fil0 str2" x1="0.51" y1="2.1" x2="2.45" y2= "2.1" />
  </g>
 </g>
</svg>
