<?xml version="1.0" encoding="UTF-8"?>
<!DOCTYPE svg PUBLIC "-//W3C//DTD SVG 1.1//EN" "http://www.w3.org/Graphics/SVG/1.1/DTD/svg11.dtd">
<!-- Creator: CorelDRAW 2017 -->
<svg xmlns="http://www.w3.org/2000/svg" xml:space="preserve" width="36px" height="36px" version="1.1" style="shape-rendering:geometricPrecision; text-rendering:geometricPrecision; image-rendering:optimizeQuality; fill-rule:evenodd; clip-rule:evenodd"
viewBox="0 0 3.08 3.08"
 xmlns:xlink="http://www.w3.org/1999/xlink">
 <defs>
  <style type="text/css">
   <![CDATA[
    .fil0 {fill:#848688;fill-rule:nonzero}
    .fil1 {fill:#C83538;fill-rule:nonzero}
   ]]>
  </style>
 </defs>
 <g id="Layer_x0020_1">
  <metadata id="CorelCorpID_0Corel-Layer"/>
  <g id="_1872647022784">
   <path class="fil0" d="M2.75 0.38c0.03,0 0.06,-0.03 0.06,-0.06 0,-0.03 -0.03,-0.06 -0.06,-0.06 -0.04,0 -0.06,0.03 -0.06,0.06 0,0.03 0.02,0.06 0.06,0.06z"/>
   <path class="fil0" d="M2.38 0.38c0.04,0 0.06,-0.03 0.06,-0.06 0,-0.03 -0.02,-0.06 -0.06,-0.06 -0.03,0 -0.06,0.03 -0.06,0.06 0,0.03 0.03,0.06 0.06,0.06z"/>
   <path class="fil0" d="M2.02 0.38c0.04,0 0.06,-0.03 0.06,-0.06 0,-0.03 -0.02,-0.06 -0.06,-0.06 -0.03,0 -0.06,0.03 -0.06,0.06 0,0.03 0.03,0.06 0.06,0.06z"/>
   <path class="fil0" d="M1.66 1.86c-0.03,0 -0.06,0.03 -0.06,0.06 0,0.03 0.03,0.06 0.06,0.06 0.04,0 0.06,-0.03 0.06,-0.06 0,-0.03 -0.02,-0.06 -0.06,-0.06z"/>
   <path class="fil0" d="M1.66 2.22c-0.03,0 -0.06,0.03 -0.06,0.06 0,0.04 0.03,0.06 0.06,0.06 0.04,0 0.06,-0.02 0.06,-0.06 0,-0.03 -0.02,-0.06 -0.06,-0.06z"/>
   <path class="fil0" d="M1.66 2.58c-0.03,0 -0.06,0.03 -0.06,0.06 0,0.04 0.03,0.06 0.06,0.06 0.04,0 0.06,-0.02 0.06,-0.06 0,-0.03 -0.02,-0.06 -0.06,-0.06z"/>
   <path class="fil0" d="M2.9 2.96l-2.72 0c-0.03,0 -0.06,-0.02 -0.06,-0.06l0 -2.26 2.84 0 0 2.26c0,0.04 -0.02,0.06 -0.06,0.06zm-2.72 -2.84l2.72 0c0.04,0 0.06,0.03 0.06,0.06l0 0.34 -2.84 0 0 -0.34c0,-0.03 0.03,-0.06 0.06,-0.06zm2.72 -0.12l-2.72 0c-0.1,0 -0.18,0.08 -0.18,0.18l0 2.72c0,0.1 0.08,0.18 0.18,0.18l2.72 0c0.1,0 0.18,-0.08 0.18,-0.18l0 -2.72c0,-0.1 -0.08,-0.18 -0.18,-0.18z"/>
   <path class="fil1" d="M0.52 1.02l1.66 0.46 -1.66 0 0 -0.46zm2.05 0.44l-1.67 -0.46 1.67 0 0 0.46zm0.06 -0.58l-2.17 0c0,0 0,0 0,0 0,0 -0.01,0 -0.01,0 0,0 0,0 0,0 0,0 0,0 0,0 0,0 0,0 -0.01,0 0,0 0,0 0,0 0,0 0,0 0,0 0,0 0,0 0,0 0,0 -0.01,0 -0.01,0 0,0 0,0 0,0.01 0,0 0,0 0,0 0,0 0,0 0,0 0,0 -0.01,0 -0.01,0 0,0 0,0 0,0 0,0 0,0 0,0 0,0 0,0 0,0.01 0,0 0,0 -0.01,0 0,0 0,0 0,0 0,0 0,0 0,0 0,0 0,0 0,0 0,0 0,0.01 0,0.01 0,0 0,0 0,0 0,0 -0.01,0 -0.01,0 0,0 0,0 0,0 0,0 0,0.01 0,0.01 0,0 0,0 0,0 0,0 0,0 0,0 0,0 0,0 0,0 0,0 0,0 0,0 0,0.01 0,0.01 0,0.01 0,0 0,0 0,0 0,0 0,0 0,0 0,0.01 0,0.01 0,0.01 0,0 0,0 0,0l0 0.6c0,0.03 0.02,0.06 0.06,0.06l2.17 0c0,0 0,0 0,0 0,0 0,0 0,0 0,0 0,0 0,0 0,0 0.01,0 0.01,0 0,0 0,0 0,0 0,0 0,0 0,0 0,0 0,0 0,0 0.01,0 0.01,0 0.01,0 0,0 0,0 0,0 0,0 0,0 0,-0.01 0,0 0,0 0.01,0 0,0 0,0 0,0 0,0 0,0 0,0 0,0 0,0 0,0 0,0 0,0 0,0 0.01,0 0.01,0 0.01,-0.01 0,0 0,0 0,0 0,0 0,0 0.01,0 0,0 0,-0.01 0,-0.01 0,0 0,0 0,0 0,0 0,0 0,0 0,0 0,0 0,0 0,0 0,-0.01 0,-0.01 0,0 0,0 0,0 0,0 0,0 0,0 0,0 0,0 0,0 0,0 0,0 0,0 0,-0.01 0,-0.01 0,-0.01 0,0 0,0 0.01,0 0,0 0,0 0,0 0,0 0,-0.01 0,-0.01 0,0 0,0 0,0l0 -0.6c0,-0.03 -0.03,-0.06 -0.06,-0.06z"/>
   <path class="fil1" d="M0.52 2.05l0.62 0.53 -0.62 0 0 -0.53zm0.72 0.46l-0.62 -0.53 0.62 0 0 0.53zm0.06 -0.65l-0.84 0c0,0 0,0 0,0 -0.01,0 -0.01,0 -0.01,0 0,0 0,0 0,0 0,0 0,0 0,0 0,0 -0.01,0 -0.01,0 0,0 0,0 0,0 0,0 0,0 0,0 0,0 0,0 0,0.01 -0.01,0 -0.01,0 -0.01,0 0,0 0,0 0,0 0,0 0,0 0,0 0,0 0,0 -0.01,0 0,0 0,0 0,0 0,0 0,0 0,0 0,0 0,0.01 0,0.01 0,0 0,0 0,0 -0.01,0 -0.01,0 -0.01,0 0,0 0,0 0,0 0,0 0,0 0,0 0,0 0,0 0,0 0,0.01 0,0.01 0,0.01 0,0 0,0 0,0 0,0 0,0 -0.01,0 0,0 0,0 0,0 0,0.01 0,0.01 0,0.01 0,0 0,0 0,0 0,0 0,0 0,0 0,0 0,0 0,0.01 0,0 0,0 0,0 0,0 0,0 0,0 0,0 0,0 0,0 0,0.01 0,0.01 0,0.01 0,0 0,0 0,0 0,0 0,0 0,0l0 0.72c0,0.04 0.02,0.06 0.06,0.06l0.84 0c0,0 0,0 0.01,0 0,0 0,0 0,0 0,0 0,0 0,0 0,0 0,0 0,0 0.01,0 0.01,0 0.01,0 0,0 0,0 0,0 0,0 0,0 0,0 0.01,0 0.01,0 0.01,0 0,0 0,0 0,0 0,0 0,-0.01 0,-0.01 0,0 0,0 0.01,0 0,0 0,0 0,0 0,0 0,0 0,0 0,0 0,0 0,0 0,0 0,-0.01 0.01,-0.01 0,0 0,0 0,0 0,0 0,0 0,0 0,0 0,0 0,0 0,0 0,0 0,0 0,0 0,0 0,-0.01 0,0 0,0 0,0 0,0 0,0 0,0 0.01,0 0.01,0 0.01,0 0,0 0,0 0,-0.01 0,0 0,0 0,0 0,0 0,0 0,0 0,0 0,0 0,0 0,0 0,-0.01 0,-0.01 0,0 0,0 0,0 0,0 0,0 0,0 0,0 0,0 0,-0.01 0,0 0,0 0,0l0 -0.72c0,-0.03 -0.03,-0.06 -0.06,-0.06z"/>
   <path class="fil0" d="M2.63 1.86l-0.73 0c-0.03,0 -0.06,0.03 -0.06,0.06 0,0.03 0.03,0.06 0.06,0.06l0.73 0c0.03,0 0.06,-0.03 0.06,-0.06 0,-0.03 -0.03,-0.06 -0.06,-0.06z"/>
   <path class="fil0" d="M2.63 2.22l-0.73 0c-0.03,0 -0.06,0.03 -0.06,0.06 0,0.04 0.03,0.06 0.06,0.06l0.73 0c0.03,0 0.06,-0.02 0.06,-0.06 0,-0.03 -0.03,-0.06 -0.06,-0.06z"/>
   <path class="fil0" d="M2.63 2.58l-0.73 0c-0.03,0 -0.06,0.03 -0.06,0.06 0,0.04 0.03,0.06 0.06,0.06l0.73 0c0.03,0 0.06,-0.02 0.06,-0.06 0,-0.03 -0.03,-0.06 -0.06,-0.06z"/>
  </g>
 </g>
</svg>
