<?xml version="1.0" encoding="UTF-8"?>
<!DOCTYPE svg PUBLIC "-//W3C//DTD SVG 1.1//EN" "http://www.w3.org/Graphics/SVG/1.1/DTD/svg11.dtd">
<!-- Creator: CorelDRAW 2017 -->
<svg xmlns="http://www.w3.org/2000/svg" xml:space="preserve" width="78px" height="78px" version="1.1" style="shape-rendering:geometricPrecision; text-rendering:geometricPrecision; image-rendering:optimizeQuality; fill-rule:evenodd; clip-rule:evenodd"
viewBox="0 0 1248.4 1248.49"
 xmlns:xlink="http://www.w3.org/1999/xlink">
 <defs>
  <style type="text/css">
   <![CDATA[
    .str0 {stroke:#727376;stroke-width:14.43;stroke-miterlimit:22.9256}
    .fil0 {fill:none;fill-rule:nonzero}
   ]]>
  </style>
 </defs>
 <g id="ะต_x203a_ัะต_x00b1__x201a__x0020_1">
  <metadata id="CorelCorpID_0Corel-Layer"/>
  <g id="wordpress.eps">
   <path class="fil0 str0" d="M785.09 344.81c-0.49,0.49 -1.19,0.72 -1.68,0.96 2.88,12.82 2.16,26.38 -0.23,39.44 8.08,9.05 4.53,26.86 -11.15,26.86 -22.34,-0.24 -44.45,-0.24 -66.79,-0.24 54.18,149.01 127.37,305.62 163.97,460.07 17.6,-67.25 41.12,-133.06 52.29,-202.01 18.55,-113.1 -11.89,-189.6 -43.47,-295.13 -17.38,-57.27 -11.19,-105.75 22.81,-142.12 -106.22,-70.58 -225.78,-106.69 -356.22,-84.59 -82.94,13.78 -157.1,47.78 -222.43,100.51 -25.45,20.69 -47.07,43.98 -72.27,63.21 38.26,0 76.53,1.2 114.54,2.16 11.42,0.47 17.36,9.01 17.82,18.04 3.35,2.39 5.73,6.18 6.19,11.87 0,1.46 0.24,2.88 0.24,4.28 0.93,16.19 0,32.81 -0.49,48.98 -0.21,8.06 -7.14,16.39 -15.92,15.92 -17.34,-1.19 -34.68,-3.8 -52.05,-6.66 62.52,141.15 114.09,289.2 171.6,432.97 3.32,-9.01 6.9,-18.04 10.21,-27.07 17.83,-76.52 39.45,-154.94 70.82,-223.85 -28.03,-56.33 -50.62,-121.45 -62.02,-182.28 -21.86,-1.67 -43.71,-3.58 -65.6,-6.44 -8.55,-1.15 -12.11,-8.78 -10.45,-14.95 -0.94,-1.67 -1.66,-3.58 -1.89,-5.95 -1.42,-10.92 -2.61,-21.37 -3.09,-32.3 -0.26,-3.57 -0.26,-7.15 -0.26,-10.71 0,-9.26 6.43,-14.01 13.31,-14.96 0.96,-2.38 2.61,-4.54 5.47,-5 61.55,-9.99 124.29,-6.64 186.31,-5.94 41.59,0.47 110.28,-11.87 148.52,6.64 10.24,4.76 10.47,19.26 3.58,26.62 -0.7,0.74 -1.19,1.2 -1.67,1.67zm273.29 -148.05c190.11,171.58 228.37,450.58 131.42,682.03 -103.63,246.89 -349.35,343.16 -601.24,362.41 -5.23,0.46 -9.05,-1.19 -11.64,-3.82 -276.13,-5.93 -514.25,-210.3 -561.07,-488.09 -43.26,-255.94 78.41,-510.94 295.15,-650.2 253.33,-162.78 532.31,-96.72 747.38,97.67zm-151.63 828.2c153.29,-148.54 234.08,-324.85 182.28,-539.69 -59.88,179.89 -119.77,360.73 -182.28,539.69zm-132.83 77.21c-29.68,-54.4 -47.76,-116.21 -69.88,-173.72 -24.93,-64.87 -51.07,-129.48 -74.36,-194.85 -45.15,129.51 -89.34,259.97 -142.6,385.45 52.07,8.09 104.11,13.79 156.84,9.98 45.87,-3.08 86.99,-15.69 130,-26.86zm-388.56 -35.86c-76.28,-205.11 -161.11,-408.76 -229.3,-616.47 -113.82,233.38 14.73,488.13 229.3,616.47z"/>
  </g>
 </g>
</svg>
