<?xml version="1.0" encoding="UTF-8"?>
<!DOCTYPE svg PUBLIC "-//W3C//DTD SVG 1.1//EN" "http://www.w3.org/Graphics/SVG/1.1/DTD/svg11.dtd">
<!-- Creator: CorelDRAW 2017 -->
<svg xmlns="http://www.w3.org/2000/svg" xml:space="preserve" width="78px" height="75px" version="1.1" style="shape-rendering:geometricPrecision; text-rendering:geometricPrecision; image-rendering:optimizeQuality; fill-rule:evenodd; clip-rule:evenodd"
viewBox="0 0 13.84 13.36"
 xmlns:xlink="http://www.w3.org/1999/xlink">
 <defs>
  <style type="text/css">
   <![CDATA[
    .str0 {stroke:#727376;stroke-width:0.16;stroke-miterlimit:22.9256}
    .str1 {stroke:#E71615;stroke-width:0.16;stroke-miterlimit:22.9256}
    .fil0 {fill:none}
   ]]>
  </style>
 </defs>
 <g id="ะต_x203a_ัะต_x00b1__x201a__x0020_1">
  <metadata id="CorelCorpID_0Corel-Layer"/>
  <g id="_2488828467952">
   <g>
    <path class="fil0 str0" d="M8.76 2.17c-0.21,-0.03 -0.36,-0.15 -0.72,-0.03 -0.86,0.31 -0.94,2.04 -0.59,2.77 0.11,0.22 0.35,0.54 0.67,0.54 0.62,0 0.4,-0.06 0.72,-0.23 0.11,0.17 0.03,0.18 0.32,0.18 0.07,0 0.08,-0.02 0.08,-0.02 0.05,-0.23 0.02,-4.15 0.02,-4.73l-0.02 -0.08c-0.14,-0.03 -0.23,-0.02 -0.38,-0.02 -0.13,0 -0.1,0.05 -0.1,0.33 0,0.33 0.02,1.05 0,1.29zm0 2.79l0 -2.33c-0.75,-0.51 -0.95,0.47 -0.97,1.12 -0.02,0.7 0.16,1.61 0.97,1.21z"/>
    <path class="fil0 str0" d="M2.73 2.28c-0.01,0.1 0.14,0.37 0.19,0.42 0.18,-0.02 0.46,-0.36 0.72,-0.14 0.18,0.16 0.21,0.49 0.2,0.79 -0.24,-0.06 -0.61,-0.27 -1.01,0.13 -0.45,0.47 -0.45,1.52 0.13,1.89 0.13,0.09 0.4,0.13 0.58,0.07 0.2,-0.06 0.25,-0.18 0.38,-0.27l0.11 0.23 0.3 0c0.05,-0.18 0.01,-2.28 -0.02,-2.53 -0.06,-0.38 -0.23,-0.64 -0.54,-0.74 -0.27,-0.09 -0.84,0 -1.04,0.15zm1.11 2.58l0 -1.08c-0.93,-0.56 -0.96,0.9 -0.57,1.21 0.17,0.14 0.51,0.02 0.57,-0.13z"/>
    <path class="fil0 str1" d="M1.49 2.98c-0.07,-0.1 -0.68,-1.89 -0.79,-2.19 -0.09,-0.27 0.01,-0.24 -0.52,-0.24 -0.05,0 -0.07,0.01 -0.1,0.02 -0.02,0.13 0.87,2.37 1.02,2.75 0.14,0.36 0.1,0.24 0.1,0.66l0 1.32c0,0.14 0.03,0.1 0.41,0.1 0.13,0 0.1,-0.06 0.1,-0.32l0 -1.25c0,-0.35 0.02,-0.32 0.15,-0.68l0.67 -1.83c0.02,-0.05 0.43,-1.13 0.43,-1.18 0,-0.04 -0.01,-0.03 -0.02,-0.05 -0.15,-0.02 -0.36,-0.01 -0.52,0 -0.06,0.08 -0.61,1.81 -0.71,2.15l-0.18 0.64c0,0.02 -0.01,0.04 -0.01,0.05 -0.01,0.01 -0.01,0.02 -0.01,0.03 -0.01,0 -0.01,0.01 -0.01,0.01 0,0 -0.01,0.01 -0.01,0.01z"/>
    <path class="fil0 str0" d="M11.55 5.26c0,-0.09 -0.04,-0.22 -0.06,-0.29 -0.21,-0.02 -0.65,0.19 -0.95,-0.13 -0.2,-0.22 -0.27,-0.6 -0.25,-0.98 0.4,0.02 0.91,0.07 1.32,0.02 -0.01,-0.5 0,-1.41 -0.54,-1.7 -0.3,-0.16 -0.64,-0.07 -0.83,0.13 -0.1,0.11 -0.15,0.16 -0.23,0.31 -0.53,1.03 -0.32,3.19 1.14,2.8 0.16,-0.04 0.27,-0.11 0.4,-0.16zm-1.24 -1.75c0.13,0.01 0.25,-0.02 0.38,-0.02 0.12,0 0.27,0.01 0.4,-0.01 0.02,-0.31 -0.06,-1.03 -0.4,-0.98 -0.34,0.04 -0.41,0.92 -0.38,1.01z"/>
    <path class="fil0 str0" d="M5.46 2.34l-0.01 -0.17c-0.12,-0.02 -0.39,-0.04 -0.46,0.01 -0.03,0.03 -0.02,-0.01 -0.03,0.07 0,0.03 0,0.08 0,0.1 0.01,0.5 -0.03,2.98 0.02,3.03 0.04,0.04 0.42,0.02 0.46,0.01 0.05,-0.17 0,-2.29 0.02,-2.72 0.16,-0.14 0.56,-0.19 0.72,-0.02 0.14,0.14 0.09,0.59 0.09,0.84 0,0.3 -0.04,1.72 0.01,1.9 0.1,0.02 0.21,0.01 0.31,0.01 0.24,0 0.18,0.06 0.18,-0.83 0,-0.44 0,-0.88 0,-1.31 0,-0.47 0.07,-0.86 -0.28,-1.05 -0.44,-0.24 -0.86,0.08 -1.03,0.13z"/>
    <path class="fil0 str0" d="M11.98 2.18c-0.04,0.08 0.09,0.31 0.13,0.4l0.35 0.79c0.11,0.25 0.16,0.27 0.1,0.41l-0.59 1.39c-0.05,0.12 -0.12,0.22 0.05,0.23 0.43,0.03 0.36,-0.01 0.47,-0.3l0.21 -0.63c0.02,-0.06 0.04,-0.1 0.06,-0.16 0.01,-0.03 0.01,-0.05 0.02,-0.08l0.04 -0.07c0.07,0.22 0.38,1.1 0.47,1.23l0.41 0.01c0.13,-0.03 0,-0.22 -0.09,-0.42l-0.5 -1.2c-0.04,-0.15 0.7,-1.46 0.64,-1.61 -0.11,-0.02 -0.4,-0.06 -0.46,0.05 0,0 -0.02,0.06 -0.02,0.07 -0.03,0.05 -0.04,0.08 -0.06,0.14l-0.33 0.85c-0.05,-0.16 -0.37,-1.03 -0.44,-1.11 -0.09,-0.02 -0.39,-0.02 -0.46,0.01z"/>
   </g>
   <g>
    <path class="fil0 str1" d="M0.2 7.69c-0.16,0.03 -0.11,0.23 -0.11,0.48l0 4.82c0,0.3 0.01,0.28 0.3,0.28 1.44,0 11.64,0.02 11.74,-0.01 0.11,-0.03 0.3,-0.43 0.36,-0.53l1.21 -2.1c0.13,-0.23 0.02,-0.3 -0.17,-0.63 -0.07,-0.14 -1.29,-2.24 -1.32,-2.28 -0.07,-0.06 -0.44,-0.04 -0.56,-0.04 -0.91,0 -11.33,-0.01 -11.45,0.01zm0.51 0.53l0.01 4.5 11.06 -0.02 0.64 -1.12c0.11,-0.19 0.21,-0.37 0.32,-0.55 0.06,-0.1 0.11,-0.18 0.16,-0.28 0.2,-0.38 0.21,-0.2 0,-0.58l-1.14 -1.96 -11.05 0.01z"/>
    <path class="fil0 str0" d="M2.19 9.32l0.02 1.03c-0.01,0.34 -0.03,0.71 -0.03,1.05 0.45,0.02 0.84,0.08 1.18,-0.14 0.72,-0.45 0.78,-1.91 -0.46,-1.98 -0.11,-0.01 -0.59,-0.01 -0.68,0.01l-0.03 0.03zm0.35 1.79c0.24,0.08 0.58,-0.01 0.71,-0.13 0.35,-0.3 0.36,-0.96 0,-1.24 -0.19,-0.15 -0.43,-0.18 -0.72,-0.16l0.01 1.53z"/>
    <path class="fil0 str0" d="M7.64 11.07c-0.13,0 -0.41,0.11 -0.68,0.02 -0.14,-0.05 -0.34,-0.23 -0.33,-0.42l1.06 -0.02c0.01,-0.25 0.02,-0.43 -0.09,-0.61 -0.08,-0.14 -0.23,-0.25 -0.45,-0.27 -0.93,-0.11 -1.17,1.23 -0.43,1.57 0.27,0.13 0.82,0.1 0.91,0.02 0.03,-0.02 0.02,-0.1 0.03,-0.15 0.01,-0.1 0.02,-0.07 -0.02,-0.14zm-1 -0.66l0.71 -0.01c0.01,-0.09 -0.03,-0.21 -0.07,-0.27 -0.15,-0.16 -0.58,-0.15 -0.64,0.28z"/>
    <path class="fil0 str0" d="M9.81 9.41l-0.02 0.44c-0.28,0.04 -0.26,-0.11 -0.27,0.27 0.08,0.07 0.13,0.04 0.25,0.04 0,0.28 -0.03,0.78 0.06,1.01 0.05,0.13 0.14,0.21 0.29,0.24 0.15,0.04 0.34,0.02 0.45,-0.04l0.03 -0.25c-0.15,-0.07 -0.11,0.03 -0.31,-0.01 -0.12,-0.02 -0.16,-0.09 -0.18,-0.21 -0.03,-0.21 -0.01,-0.52 -0.01,-0.74l0.45 0c0.03,-0.45 0.02,-0.29 -0.43,-0.31 -0.02,-0.13 0.03,-0.31 0.01,-0.43 -0.04,-0.06 -0.2,-0.02 -0.32,-0.01z"/>
    <path class="fil0 str0" d="M9.31 11.1l-0.05 -0.03c-0.22,0.03 -0.36,0.11 -0.6,0 -0.14,-0.07 -0.26,-0.23 -0.27,-0.44 -0.01,-0.24 0.08,-0.41 0.22,-0.48 0.13,-0.07 0.31,-0.06 0.45,-0.02 0.1,0.02 0.06,0.02 0.14,-0.01l0.05 -0.29c-0.34,-0.1 -0.68,-0.04 -0.9,0.13 -0.62,0.5 -0.29,1.61 0.71,1.46 0.05,0 0.17,-0.04 0.21,-0.06 0.05,-0.03 0.04,-0.2 0.04,-0.26z"/>
    <path class="fil0 str0" d="M5.07 9.82c-0.05,0.07 -0.04,0.06 -0.02,0.15 0.06,0.32 0.06,0.67 0.05,0.99 -0.01,0.07 -0.01,0.14 -0.01,0.21l-0.01 0.16c0.02,0.1 0.16,0.08 0.33,0.06l0.03 -0.04c0.03,-0.09 -0.07,-0.91 0.03,-1.08 0.07,-0.12 0.21,-0.18 0.42,-0.14 0.08,0.02 0.13,0.06 0.16,-0.05 0.02,-0.06 0.06,-0.18 0.06,-0.24 -0.13,-0.03 -0.26,-0.08 -0.41,-0.05 -0.17,0.03 -0.23,0.15 -0.29,0.17l-0.03 -0.18 -0.31 0.04z"/>
    <path class="fil0 str0" d="M4.27 11.36c0.04,0.05 0.18,0.04 0.27,0.04 0.08,-0.01 0.04,0 0.08,-0.03l-0.01 -1.17c0.01,-0.11 0.03,-0.28 0.01,-0.38 -0.03,-0.06 -0.2,-0.01 -0.25,-0.01 -0.21,0.03 -0.12,0.04 -0.09,0.58 0.01,0.14 -0.02,0.93 -0.01,0.97z"/>
    <path class="fil0 str0" d="M4.42 9.19c-0.27,0.06 -0.22,0.51 0.11,0.43 0.25,-0.05 0.21,-0.51 -0.11,-0.43z"/>
   </g>
  </g>
 </g>
</svg>
