<?xml version="1.0" encoding="UTF-8"?>
<!DOCTYPE svg PUBLIC "-//W3C//DTD SVG 1.1//EN" "http://www.w3.org/Graphics/SVG/1.1/DTD/svg11.dtd">
<!-- Creator: CorelDRAW 2017 -->
<svg xmlns="http://www.w3.org/2000/svg" xml:space="preserve" width="69px" height="78px" version="1.1" style="shape-rendering:geometricPrecision; text-rendering:geometricPrecision; image-rendering:optimizeQuality; fill-rule:evenodd; clip-rule:evenodd"
viewBox="0 0 10.13 11.46"
 xmlns:xlink="http://www.w3.org/1999/xlink">
 <defs>
  <style type="text/css">
   <![CDATA[
    .str0 {stroke:#727376;stroke-width:0.13;stroke-miterlimit:22.9256}
    .str1 {stroke:#E71615;stroke-width:0.13;stroke-miterlimit:22.9256}
    .fil0 {fill:none;fill-rule:nonzero}
    .fil1 {fill:#FEFEFE;fill-rule:nonzero}
   ]]>
  </style>
 </defs>
 <g id="ะต_x203a_ัะต_x00b1__x201a__x0020_1">
  <metadata id="CorelCorpID_0Corel-Layer"/>
  <g id="_2488830497376">
   <polygon class="fil0 str0" points="5.06,11.39 0.98,10.26 0.07,0.07 10.06,0.07 9.15,10.26 "/>
   <path class="fil1" d="M1.6 4.69c0.08,0 0.17,0 0.25,0 0.03,0.22 0.05,0.45 0.07,0.67 0.08,-0.25 0.17,-0.45 0.29,-0.57 0.13,-0.13 0.27,-0.19 0.43,-0.19 0.29,0 0.54,0.19 0.77,0.56 0.21,0.36 0.33,0.79 0.36,1.28 0.02,0.48 -0.05,0.88 -0.22,1.2 -0.16,0.32 -0.37,0.47 -0.63,0.47 -0.14,0 -0.28,-0.05 -0.41,-0.15 -0.13,-0.1 -0.25,-0.25 -0.37,-0.45 0.03,0.27 0.05,0.55 0.08,0.82 0.03,0.26 0.05,0.52 0.08,0.78 -0.07,0 -0.15,0 -0.22,0 -0.07,-0.66 -0.15,-1.34 -0.23,-2.06 -0.08,-0.75 -0.16,-1.54 -0.25,-2.36zm1.06 0.36c-0.22,0 -0.39,0.14 -0.52,0.42 -0.12,0.27 -0.16,0.61 -0.12,1 0.02,0.25 0.08,0.47 0.16,0.66 0.08,0.2 0.19,0.35 0.31,0.46 0.13,0.11 0.26,0.16 0.38,0.16 0.13,0 0.24,-0.05 0.35,-0.16 0.1,-0.12 0.18,-0.27 0.24,-0.48 0.05,-0.2 0.07,-0.42 0.06,-0.66 -0.01,-0.23 -0.06,-0.46 -0.14,-0.68 -0.08,-0.23 -0.19,-0.4 -0.32,-0.53 -0.12,-0.12 -0.26,-0.19 -0.4,-0.19zm1.45 -1.86c0.09,0 0.18,0 0.27,0 0.01,0.38 0.02,0.75 0.03,1.11 0.01,0.36 0.02,0.7 0.03,1.04 0.1,-0.24 0.21,-0.43 0.33,-0.55 0.12,-0.13 0.26,-0.19 0.41,-0.19 0.15,0 0.28,0.07 0.39,0.21 0.12,0.14 0.2,0.32 0.25,0.55 0.05,0.23 0.08,0.58 0.07,1.04 -0.01,0.29 -0.01,0.57 -0.02,0.84 0,0.27 0,0.54 -0.01,0.8 -0.08,0 -0.15,0 -0.23,0 0,-0.49 0.01,-0.99 0.01,-1.51 0.01,-0.39 0,-0.65 -0.02,-0.79 -0.03,-0.23 -0.08,-0.41 -0.17,-0.53 -0.08,-0.12 -0.19,-0.18 -0.32,-0.18 -0.16,0 -0.29,0.1 -0.41,0.28 -0.12,0.18 -0.2,0.41 -0.23,0.67 -0.02,0.17 -0.02,0.47 -0.01,0.91 0.01,0.39 0.02,0.78 0.03,1.15 -0.07,0 -0.15,0 -0.23,0 -0.02,-0.72 -0.05,-1.46 -0.08,-2.25 -0.02,-0.82 -0.05,-1.69 -0.09,-2.6zm2.36 1.5c0.08,0 0.17,0 0.26,0 -0.01,0.22 -0.02,0.45 -0.03,0.67 0.11,-0.25 0.23,-0.44 0.37,-0.57 0.14,-0.13 0.29,-0.19 0.46,-0.19 0.28,0 0.51,0.19 0.68,0.56 0.17,0.36 0.23,0.79 0.18,1.28 -0.04,0.48 -0.17,0.88 -0.38,1.2 -0.21,0.32 -0.44,0.47 -0.7,0.47 -0.14,0 -0.27,-0.05 -0.39,-0.15 -0.11,-0.1 -0.21,-0.25 -0.31,-0.45 -0.01,0.27 -0.02,0.55 -0.03,0.82 -0.01,0.26 -0.02,0.52 -0.03,0.78 -0.07,0 -0.15,0 -0.22,0 0.02,-0.66 0.04,-1.34 0.06,-2.06 0.03,-0.75 0.05,-1.54 0.08,-2.36zm1.01 0.36c-0.22,0 -0.41,0.14 -0.58,0.42 -0.16,0.27 -0.24,0.61 -0.26,1 -0.01,0.25 0.02,0.47 0.07,0.66 0.05,0.2 0.14,0.35 0.25,0.46 0.11,0.11 0.23,0.16 0.36,0.16 0.12,0 0.24,-0.05 0.36,-0.16 0.12,-0.12 0.23,-0.27 0.31,-0.48 0.08,-0.2 0.14,-0.42 0.15,-0.66 0.02,-0.23 0.01,-0.46 -0.04,-0.68 -0.05,-0.23 -0.13,-0.4 -0.24,-0.53 -0.11,-0.12 -0.24,-0.19 -0.38,-0.19z"/>
   <path id="1" class="fil0 str1" d="M1.6 4.69c0.08,0 0.17,0 0.25,0 0.03,0.22 0.05,0.45 0.07,0.67 0.08,-0.25 0.17,-0.45 0.29,-0.57 0.13,-0.13 0.27,-0.19 0.43,-0.19 0.29,0 0.54,0.19 0.77,0.56 0.21,0.36 0.33,0.79 0.36,1.28 0.02,0.48 -0.05,0.88 -0.22,1.2 -0.16,0.32 -0.37,0.47 -0.63,0.47 -0.14,0 -0.28,-0.05 -0.41,-0.15 -0.13,-0.1 -0.25,-0.25 -0.37,-0.45 0.03,0.27 0.05,0.55 0.08,0.82 0.03,0.26 0.05,0.52 0.08,0.78 -0.07,0 -0.15,0 -0.22,0 -0.07,-0.66 -0.15,-1.34 -0.23,-2.06 -0.08,-0.75 -0.16,-1.54 -0.25,-2.36zm1.06 0.36c-0.22,0 -0.39,0.14 -0.52,0.42 -0.12,0.27 -0.16,0.61 -0.12,1 0.02,0.25 0.08,0.47 0.16,0.66 0.08,0.2 0.19,0.35 0.31,0.46 0.13,0.11 0.26,0.16 0.38,0.16 0.13,0 0.24,-0.05 0.35,-0.16 0.1,-0.12 0.18,-0.27 0.24,-0.48 0.05,-0.2 0.07,-0.42 0.06,-0.66 -0.01,-0.23 -0.06,-0.46 -0.14,-0.68 -0.08,-0.23 -0.19,-0.4 -0.32,-0.53 -0.12,-0.12 -0.26,-0.19 -0.4,-0.19zm1.45 -1.86c0.09,0 0.18,0 0.27,0 0.01,0.38 0.02,0.75 0.03,1.11 0.01,0.36 0.02,0.7 0.03,1.04 0.1,-0.24 0.21,-0.43 0.33,-0.55 0.12,-0.13 0.26,-0.19 0.41,-0.19 0.15,0 0.28,0.07 0.39,0.21 0.12,0.14 0.2,0.32 0.25,0.55 0.05,0.23 0.08,0.58 0.07,1.04 -0.01,0.29 -0.01,0.57 -0.02,0.84 0,0.27 0,0.54 -0.01,0.8 -0.08,0 -0.15,0 -0.23,0 0,-0.49 0.01,-0.99 0.01,-1.51 0.01,-0.39 0,-0.65 -0.02,-0.79 -0.03,-0.23 -0.08,-0.41 -0.17,-0.53 -0.08,-0.12 -0.19,-0.18 -0.32,-0.18 -0.16,0 -0.29,0.1 -0.41,0.28 -0.12,0.18 -0.2,0.41 -0.23,0.67 -0.02,0.17 -0.02,0.47 -0.01,0.91 0.01,0.39 0.02,0.78 0.03,1.15 -0.07,0 -0.15,0 -0.23,0 -0.02,-0.72 -0.05,-1.46 -0.08,-2.25 -0.02,-0.82 -0.05,-1.69 -0.09,-2.6zm2.36 1.5c0.08,0 0.17,0 0.26,0 -0.01,0.22 -0.02,0.45 -0.03,0.67 0.11,-0.25 0.23,-0.44 0.37,-0.57 0.14,-0.13 0.29,-0.19 0.46,-0.19 0.28,0 0.51,0.19 0.68,0.56 0.17,0.36 0.23,0.79 0.18,1.28 -0.04,0.48 -0.17,0.88 -0.38,1.2 -0.21,0.32 -0.44,0.47 -0.7,0.47 -0.14,0 -0.27,-0.05 -0.39,-0.15 -0.11,-0.1 -0.21,-0.25 -0.31,-0.45 -0.01,0.27 -0.02,0.55 -0.03,0.82 -0.01,0.26 -0.02,0.52 -0.03,0.78 -0.07,0 -0.15,0 -0.22,0 0.02,-0.66 0.04,-1.34 0.06,-2.06 0.03,-0.75 0.05,-1.54 0.08,-2.36zm1.01 0.36c-0.22,0 -0.41,0.14 -0.58,0.42 -0.16,0.27 -0.24,0.61 -0.26,1 -0.01,0.25 0.02,0.47 0.07,0.66 0.05,0.2 0.14,0.35 0.25,0.46 0.11,0.11 0.23,0.16 0.36,0.16 0.12,0 0.24,-0.05 0.36,-0.16 0.12,-0.12 0.23,-0.27 0.31,-0.48 0.08,-0.2 0.14,-0.42 0.15,-0.66 0.02,-0.23 0.01,-0.46 -0.04,-0.68 -0.05,-0.23 -0.13,-0.4 -0.24,-0.53 -0.11,-0.12 -0.24,-0.19 -0.38,-0.19z"/>
  </g>
 </g>
</svg>
