<?xml version="1.0" encoding="UTF-8"?>
<!DOCTYPE svg PUBLIC "-//W3C//DTD SVG 1.1//EN" "http://www.w3.org/Graphics/SVG/1.1/DTD/svg11.dtd">
<!-- Creator: CorelDRAW 2017 -->
<svg xmlns="http://www.w3.org/2000/svg" xml:space="preserve" width="78px" height="78px" version="1.1" style="shape-rendering:geometricPrecision; text-rendering:geometricPrecision; image-rendering:optimizeQuality; fill-rule:evenodd; clip-rule:evenodd"
viewBox="0 0 8.02 8.02"
 xmlns:xlink="http://www.w3.org/1999/xlink">
 <defs>
  <style type="text/css">
   <![CDATA[
    .str1 {stroke:#727376;stroke-width:0.09;stroke-miterlimit:22.9256}
    .str0 {stroke:#E71615;stroke-width:0.09;stroke-miterlimit:22.9256}
    .fil0 {fill:none;fill-rule:nonzero}
    .fil1 {fill:#FEFEFE;fill-rule:nonzero}
   ]]>
  </style>
 </defs>
 <g id="ะต_x203a_ัะต_x00b1__x201a__x0020_1">
  <metadata id="CorelCorpID_0Corel-Layer"/>
  <g id="_2488784029840">
   <path class="fil0 str0" d="M7.96 7.64l-2.48 -7.42c-0.03,-0.11 -0.13,-0.17 -0.23,-0.17l-2.48 0c-0.08,0 -0.15,0.03 -0.2,0.1 -0.05,0.06 -0.06,0.15 -0.03,0.22l2.19 6.58c0.2,0.61 0.77,1.02 1.41,1.02l1.58 0c0.08,0 0.16,-0.04 0.2,-0.1 0.05,-0.07 0.06,-0.15 0.04,-0.23z"/>
   <path class="fil1 str1" d="M5.45 0.15c-0.05,-0.07 -0.12,-0.1 -0.2,-0.1l-2.48 0c-0.11,0 -0.2,0.06 -0.23,0.17l-2.48 7.42c-0.03,0.08 -0.01,0.16 0.03,0.23 0.05,0.06 0.12,0.1 0.2,0.1l1.59 0c0.64,0 1.2,-0.41 1.41,-1.02l2.19 -6.58c0.03,-0.07 0.01,-0.16 -0.03,-0.22z"/>
  </g>
 </g>
</svg>
