<?xml version="1.0" encoding="UTF-8"?>
<!DOCTYPE svg PUBLIC "-//W3C//DTD SVG 1.1//EN" "http://www.w3.org/Graphics/SVG/1.1/DTD/svg11.dtd">
<!-- Creator: CorelDRAW 2017 -->
<svg xmlns="http://www.w3.org/2000/svg" xml:space="preserve" width="69px" height="78px" version="1.1" style="shape-rendering:geometricPrecision; text-rendering:geometricPrecision; image-rendering:optimizeQuality; fill-rule:evenodd; clip-rule:evenodd"
viewBox="0 0 7.65 8.66"
 xmlns:xlink="http://www.w3.org/1999/xlink">
 <defs>
  <style type="text/css">
   <![CDATA[
    .str1 {stroke:#606062;stroke-width:0.1;stroke-miterlimit:22.9256}
    .str0 {stroke:#E71615;stroke-width:0.1;stroke-miterlimit:22.9256}
    .fil0 {fill:none;fill-rule:nonzero}
    .fil1 {fill:#FEFEFE;fill-rule:nonzero}
   ]]>
  </style>
 </defs>
 <g id="ะต_x203a_ัะต_x00b1__x201a__x0020_1">
  <metadata id="CorelCorpID_0Corel-Layer"/>
  <g id="_2488828483504">
   <polygon class="fil0 str0" points="4,1.62 4,2.1 4,2.57 4,3.54 4,4.02 4,4.48 5.2,4.4 5.09,5.67 4,5.94 4,6.92 5.76,6.43 5.77,6.28 6,3.79 6.02,3.54 5.76,3.54 4.8,3.54 4.84,2.55 6.11,2.52 6.19,1.62 "/>
   <polygon class="fil0 str0" points="3.63,5.94 2.4,5.59 2.36,5.06 1.76,4.95 1.89,6.43 3.63,6.92 "/>
   <polygon class="fil0 str0" points="3.63,1.62 2.82,1.62 2.99,6.46 3.63,6.46 "/>
   <polygon class="fil0 str1" points="3.82,8.61 0.74,7.75 0.05,0.05 7.6,0.05 6.91,7.75 "/>
   <polygon class="fil1 str0" points="2.96,5.75 2.4,5.59 2.36,5.06 1.76,4.95 1.89,6.43 3.63,6.92 3.63,6.46 3.63,5.94 3.63,1.62 2.82,1.62 "/>
  </g>
 </g>
</svg>
