<?xml version="1.0" encoding="UTF-8"?>
<!DOCTYPE svg PUBLIC "-//W3C//DTD SVG 1.1//EN" "http://www.w3.org/Graphics/SVG/1.1/DTD/svg11.dtd">
<!-- Creator: CorelDRAW 2017 -->
<svg xmlns="http://www.w3.org/2000/svg" xml:space="preserve" width="78px" height="78px" version="1.1" style="shape-rendering:geometricPrecision; text-rendering:geometricPrecision; image-rendering:optimizeQuality; fill-rule:evenodd; clip-rule:evenodd"
viewBox="0 0 10.06 10.06"
 xmlns:xlink="http://www.w3.org/1999/xlink">
 <defs>
  <style type="text/css">
   <![CDATA[
    .str0 {stroke:#727376;stroke-width:0.12;stroke-miterlimit:22.9256}
    .str1 {stroke:#E71615;stroke-width:0.12;stroke-miterlimit:22.9256}
    .fil0 {fill:none;fill-rule:nonzero}
   ]]>
  </style>
 </defs>
 <g id="ะต_x203a_ัะต_x00b1__x201a__x0020_1">
  <metadata id="CorelCorpID_0Corel-Layer"/>
  <g id="_2488828457008">
   <path class="fil0 str0" d="M9.38 0.06l-8.7 0c-0.34,0 -0.62,0.28 -0.62,0.62l0 8.7c0,0.35 0.28,0.62 0.62,0.62l8.7 0c0.35,0 0.62,-0.27 0.62,-0.62l0 -8.7c0,-0.34 -0.27,-0.62 -0.62,-0.62z"/>
   <path class="fil0 str1" d="M7.22 4.41c-0.17,0 -0.31,-0.14 -0.31,-0.31 0,-0.17 0.13,-0.31 0.3,-0.31l0.01 0c0.17,0 0.31,0.14 0.31,0.31 0,0.17 -0.14,0.31 -0.31,0.31z"/>
   <path class="fil0 str1" d="M7.21 5.03c-0.17,0 -0.31,0.14 -0.31,0.31l0 3.11c0,0.17 0.14,0.31 0.31,0.31 0.17,0 0.31,-0.14 0.31,-0.31l0 -3.11c0,-0.17 -0.14,-0.31 -0.31,-0.31z"/>
   <path class="fil0 str1" d="M3.32 5.65l0.78 -2.86 0.78 2.86 -1.56 0zm1.08 -4.12c-0.08,-0.27 -0.53,-0.27 -0.6,0l-1.87 6.84c-0.04,0.17 0.06,0.34 0.22,0.38 0.17,0.05 0.34,-0.05 0.38,-0.22l0.62 -2.26 1.9 0 0.61 2.26c0.04,0.14 0.17,0.23 0.3,0.23 0.03,0 0.06,0 0.09,-0.01 0.16,-0.04 0.26,-0.22 0.21,-0.38l-1.86 -6.84z"/>
  </g>
 </g>
</svg>
