<?xml version="1.0" encoding="UTF-8"?>
<!DOCTYPE svg PUBLIC "-//W3C//DTD SVG 1.1//EN" "http://www.w3.org/Graphics/SVG/1.1/DTD/svg11.dtd">
<!-- Creator: CorelDRAW 2017 -->
<svg xmlns="http://www.w3.org/2000/svg" xml:space="preserve" width="78px" height="78px" version="1.1" style="shape-rendering:geometricPrecision; text-rendering:geometricPrecision; image-rendering:optimizeQuality; fill-rule:evenodd; clip-rule:evenodd"
viewBox="0 0 50.95 50.95"
 xmlns:xlink="http://www.w3.org/1999/xlink">
 <defs>
  <style type="text/css">
   <![CDATA[
    .str0 {stroke:#606062;stroke-width:0.59;stroke-miterlimit:22.9256}
    .str1 {stroke:#E71615;stroke-width:0.59;stroke-miterlimit:22.9256}
    .fil0 {fill:none;fill-rule:nonzero}
   ]]>
  </style>
 </defs>
 <g id="ะต_x203a_ัะต_x00b1__x201a__x0020_1">
  <metadata id="CorelCorpID_0Corel-Layer"/>
  <g id="_2488829087984">
   <path class="fil0 str0" d="M47.51 0.29l-44.07 0c-1.73,0 -3.15,1.42 -3.15,3.15l0 44.07c0,1.74 1.42,3.15 3.15,3.15l44.07 0c1.74,0 3.15,-1.41 3.15,-3.15l0 -44.07c0,-1.73 -1.41,-3.15 -3.15,-3.15z"/>
   <path class="fil0 str1" d="M34.92 41.22c-1.67,0 -3.25,-0.65 -4.44,-1.84 -0.62,-0.61 -0.62,-1.61 -0.01,-2.23 0.61,-0.62 1.61,-0.61 2.23,0 0.59,0.59 1.38,0.92 2.22,0.92 1.74,0 3.15,-1.41 3.15,-3.15 0,-1.74 -1.41,-3.15 -3.15,-3.15 -3.47,0 -6.29,-2.82 -6.29,-6.29 0,-3.47 2.82,-6.3 6.29,-6.3 1.68,0 3.26,0.66 4.45,1.84 0.61,0.61 0.61,1.61 0,2.23 -0.61,0.61 -1.61,0.61 -2.23,0 -0.59,-0.59 -1.38,-0.92 -2.22,-0.92 -1.74,0 -3.15,1.41 -3.15,3.15 0,1.73 1.41,3.15 3.15,3.15 3.47,0 6.3,2.82 6.3,6.29 0,3.47 -2.83,6.3 -6.3,6.3z"/>
   <path class="fil0 str1" d="M12.89 22.33l6.29 0c3.47,0 6.3,-2.82 6.3,-6.3 0,-3.47 -2.83,-6.29 -6.3,-6.29l-6.29 0 0 12.59zm-1.58 22.03c-0.87,0 -1.57,-0.7 -1.57,-1.57l0 -34.63c0,-0.87 0.7,-1.57 1.57,-1.57l7.87 0c5.21,0 9.45,4.24 9.45,9.44 0,5.21 -4.24,9.45 -9.45,9.45l-6.29 0 0 17.31c0,0.87 -0.71,1.57 -1.58,1.57z"/>
  </g>
 </g>
</svg>
