<?xml version="1.0" encoding="UTF-8"?>
<!DOCTYPE svg PUBLIC "-//W3C//DTD SVG 1.1//EN" "http://www.w3.org/Graphics/SVG/1.1/DTD/svg11.dtd">
<!-- Creator: CorelDRAW 2017 -->
<svg xmlns="http://www.w3.org/2000/svg" xml:space="preserve" width="74px" height="78px" version="1.1" style="shape-rendering:geometricPrecision; text-rendering:geometricPrecision; image-rendering:optimizeQuality; fill-rule:evenodd; clip-rule:evenodd"
viewBox="0 0 6.11 6.4"
 xmlns:xlink="http://www.w3.org/1999/xlink">
 <defs>
  <style type="text/css">
   <![CDATA[
    .str1 {stroke:#727376;stroke-width:0.07;stroke-miterlimit:22.9256}
    .str0 {stroke:#E71615;stroke-width:0.07;stroke-miterlimit:22.9256}
    .fil0 {fill:#FEFEFE;fill-rule:nonzero}
   ]]>
  </style>
 </defs>
 <g id="ะต_x203a_ัะต_x00b1__x201a__x0020_1">
  <metadata id="CorelCorpID_0Corel-Layer"/>
  <g id="_2488828465520">
   <path class="fil0 str0" d="M6.04 3.29c-0.03,-0.06 -0.1,-0.09 -0.16,-0.09l-2.38 0c-0.07,0 -0.14,0.04 -0.18,0.11l-1.29 2.77c-0.03,0.06 -0.02,0.13 0.01,0.19 0.04,0.06 0.1,0.09 0.17,0.09l2.37 0c0.08,0 0.15,-0.04 0.18,-0.11l1.29 -2.77c0.03,-0.06 0.03,-0.13 -0.01,-0.19z"/>
   <path class="fil0 str1" d="M5.14 0.13c-0.03,-0.06 -0.09,-0.09 -0.16,-0.09l-1.98 0c-0.08,0 -0.15,0.04 -0.18,0.11l-2.76 5.93c-0.03,0.06 -0.03,0.13 0.01,0.19 0.03,0.06 0.1,0.09 0.16,0.09l1.98 0c0.08,0 0.15,-0.04 0.18,-0.11l2.77 -5.93c0.03,-0.06 0.02,-0.13 -0.02,-0.19z"/>
  </g>
 </g>
</svg>
