<?xml version="1.0" encoding="UTF-8"?>
<!DOCTYPE svg PUBLIC "-//W3C//DTD SVG 1.1//EN" "http://www.w3.org/Graphics/SVG/1.1/DTD/svg11.dtd">
<!-- Creator: CorelDRAW 2017 -->
<svg xmlns="http://www.w3.org/2000/svg" xml:space="preserve" width="78px" height="78px" version="1.1" style="shape-rendering:geometricPrecision; text-rendering:geometricPrecision; image-rendering:optimizeQuality; fill-rule:evenodd; clip-rule:evenodd"
viewBox="0 0 14.85 14.85"
 xmlns:xlink="http://www.w3.org/1999/xlink">
 <defs>
  <style type="text/css">
   <![CDATA[
    .str0 {stroke:#727376;stroke-width:0.17;stroke-miterlimit:22.9256}
    .str1 {stroke:#E71615;stroke-width:0.17;stroke-miterlimit:22.9256}
    .fil0 {fill:none;fill-rule:nonzero}
   ]]>
  </style>
 </defs>
 <g id="ะต_x203a_ัะต_x00b1__x201a__x0020_1">
  <metadata id="CorelCorpID_0Corel-Layer"/>
  <g id="_2488784040944">
   <path class="fil0 str0" d="M13.85 0.09l-12.85 0c-0.5,0 -0.91,0.41 -0.91,0.91l0 12.85c0,0.5 0.41,0.92 0.91,0.92l12.85 0c0.5,0 0.92,-0.42 0.92,-0.92l0 -12.85c0,-0.5 -0.42,-0.91 -0.92,-0.91z"/>
   <path class="fil0 str1" d="M3.98 8.34l1.15 -4.22 1.15 4.22 -2.3 0zm1.59 -6.08c-0.11,-0.4 -0.77,-0.4 -0.88,0l-2.75 10.09c-0.07,0.25 0.07,0.5 0.32,0.56 0.24,0.07 0.49,-0.07 0.56,-0.32l0.91 -3.33 2.8 0 0.91 3.33c0.06,0.21 0.24,0.34 0.44,0.34 0.04,0 0.09,0 0.13,-0.02 0.24,-0.06 0.38,-0.32 0.32,-0.56l-2.76 -10.09z"/>
   <path class="fil0 str1" d="M12.01 9.26l-1.83 0 0 -0.92c0,-0.5 0.41,-0.91 0.92,-0.91 0.5,0 0.91,0.41 0.91,0.91l0 0.92zm-0.91 -2.75c-1.02,0 -1.84,0.82 -1.84,1.83l0 2.76c0,1.01 0.82,1.83 1.84,1.83 0.49,0 0.95,-0.19 1.29,-0.54 0.18,-0.18 0.18,-0.47 0,-0.65 -0.18,-0.17 -0.47,-0.18 -0.65,0 -0.17,0.18 -0.4,0.27 -0.64,0.27 -0.51,0 -0.92,-0.41 -0.92,-0.91l0 -0.92 2.29 0c0.25,0 0.46,-0.21 0.46,-0.46l0 -1.38c0,-1.01 -0.82,-1.83 -1.83,-1.83z"/>
  </g>
 </g>
</svg>
