<?xml version="1.0" encoding="UTF-8"?>
<!DOCTYPE svg PUBLIC "-//W3C//DTD SVG 1.1//EN" "http://www.w3.org/Graphics/SVG/1.1/DTD/svg11.dtd">
<!-- Creator: CorelDRAW 2017 -->
<svg xmlns="http://www.w3.org/2000/svg" xml:space="preserve" width="60px" height="60px" version="1.1" style="shape-rendering:geometricPrecision; text-rendering:geometricPrecision; image-rendering:optimizeQuality; fill-rule:evenodd; clip-rule:evenodd"
viewBox="0 0 6.84 6.84"
 xmlns:xlink="http://www.w3.org/1999/xlink">
 <defs>
  <style type="text/css">
   <![CDATA[
    .fil0 {fill:#727376;fill-rule:nonzero}
    .fil1 {fill:#C83538;fill-rule:nonzero}
   ]]>
  </style>
 </defs>
 <g id="ะต_x203a_ัะต_x00b1__x201a__x0020_1">
  <metadata id="CorelCorpID_0Corel-Layer"/>
  <g id="_2079953595072">
   <polygon class="fil0" points="1.43,6.4 2.54,6.4 2.54,6.18 1.43,6.18 "/>
   <path class="fil0" d="M5.74 4.86c0.49,0 0.88,0.39 0.88,0.88 0,0.49 -0.39,0.88 -0.88,0.88 -0.49,0 -0.88,-0.39 -0.88,-0.88 0,-0.49 0.39,-0.88 0.88,-0.88zm-2.88 -1.55c-0.01,-0.17 -0.04,-0.32 -0.09,-0.46 0.15,-0.06 0.25,-0.12 0.32,-0.17 0.12,0.19 0.2,0.4 0.22,0.63l-0.45 0zm0.23 0.85c-0.07,-0.05 -0.17,-0.11 -0.32,-0.16 0.05,-0.14 0.08,-0.3 0.09,-0.47l0.45 0c-0.02,0.23 -0.1,0.45 -0.22,0.63zm-0.41 0.04c0.13,0.05 0.21,0.1 0.27,0.13 -0.17,0.18 -0.38,0.3 -0.62,0.37 0.12,-0.12 0.25,-0.29 0.35,-0.5zm-1.39 0c0.1,0.21 0.23,0.38 0.35,0.5 -0.24,-0.07 -0.45,-0.19 -0.61,-0.37 0.05,-0.03 0.14,-0.08 0.26,-0.13zm-0.18 -0.67c0.01,0.17 0.04,0.33 0.09,0.47 -0.14,0.05 -0.25,0.11 -0.31,0.16 -0.13,-0.18 -0.2,-0.4 -0.22,-0.63l0.44 0zm-0.22 -0.85c0.06,0.05 0.17,0.11 0.31,0.17 -0.05,0.14 -0.08,0.29 -0.09,0.46l-0.44 0c0.02,-0.23 0.09,-0.44 0.22,-0.63zm0.4 -0.04c-0.12,-0.04 -0.21,-0.09 -0.26,-0.13 0.16,-0.17 0.37,-0.3 0.61,-0.37 -0.12,0.13 -0.25,0.29 -0.35,0.5zm1.04 -0.5c0.24,0.07 0.45,0.2 0.62,0.37 -0.06,0.04 -0.14,0.09 -0.27,0.13 -0.1,-0.21 -0.23,-0.37 -0.35,-0.5zm-0.23 0.62l0 -0.54c0.11,0.11 0.25,0.27 0.37,0.49 -0.11,0.02 -0.23,0.04 -0.37,0.05zm0 0.55l0 -0.33c0.17,-0.01 0.33,-0.03 0.46,-0.07 0.04,0.12 0.07,0.26 0.08,0.4l-0.54 0zm0 0.56l0 -0.34 0.54 0c-0.01,0.15 -0.04,0.28 -0.08,0.4 -0.13,-0.03 -0.29,-0.06 -0.46,-0.06zm0 0.75l0 -0.53c0.14,0 0.26,0.02 0.37,0.05 -0.12,0.21 -0.26,0.37 -0.37,0.48zm-0.22 -0.53l0 0.53c-0.11,-0.11 -0.26,-0.27 -0.37,-0.48 0.1,-0.03 0.23,-0.05 0.37,-0.05zm0 -0.56l0 0.34c-0.18,0 -0.33,0.03 -0.46,0.06 -0.05,-0.12 -0.08,-0.25 -0.09,-0.4l0.55 0zm0 -0.55l0 0.33 -0.55 0c0.01,-0.14 0.04,-0.28 0.09,-0.4 0.13,0.04 0.28,0.06 0.46,0.07zm0 -0.76l0 0.54c-0.14,-0.01 -0.27,-0.03 -0.37,-0.05 0.11,-0.22 0.26,-0.38 0.37,-0.49zm1.87 3.52l-3.53 0 0 -4.86 3.53 0 0 2.43 -0.22 0c-0.06,-0.8 -0.73,-1.43 -1.54,-1.43 -0.86,0 -1.55,0.69 -1.55,1.54 0,0.85 0.69,1.55 1.55,1.55 0.81,0 1.48,-0.64 1.54,-1.44l0.22 0 0 2.21zm-0.33 0.88l-2.87 0c-0.18,0 -0.33,-0.15 -0.33,-0.33l0 -0.33 3.53 0 0 0.33c0,0.18 -0.15,0.33 -0.33,0.33zm-2.87 -6.4l2.87 0c0.18,0 0.33,0.15 0.33,0.33l0 0.11 -3.53 0 0 -0.11c0,-0.18 0.15,-0.33 0.33,-0.33zm5.19 0c0.49,0 0.88,0.4 0.88,0.88 0,0.49 -0.39,0.89 -0.88,0.89 -0.49,0 -0.88,-0.4 -0.88,-0.89 0,-0.48 0.39,-0.88 0.88,-0.88zm0 2.32c0.49,0 0.88,0.39 0.88,0.88 0,0.49 -0.39,0.88 -0.88,0.88 -0.49,0 -0.88,-0.39 -0.88,-0.88 0,-0.49 0.39,-0.88 0.88,-0.88zm-1.32 0.99l0.22 0c0.06,0.56 0.53,1 1.1,1 0.61,0 1.1,-0.5 1.1,-1.11 0,-0.61 -0.49,-1.1 -1.1,-1.1 -0.57,0 -1.04,0.43 -1.1,0.99l-0.22 0 0 -2.1 0.22 0c0.06,0.56 0.53,1 1.1,1 0.61,0 1.1,-0.5 1.1,-1.11 0,-0.6 -0.49,-1.1 -1.1,-1.1 -0.57,0 -1.04,0.44 -1.1,0.99l-0.45 0 0 2.32 -0.22 0 0 -2.76c0,-0.3 -0.24,-0.55 -0.55,-0.55l-2.87 0c-0.3,0 -0.55,0.25 -0.55,0.55l0 5.74c0,0.31 0.25,0.55 0.55,0.55l2.87 0c0.31,0 0.55,-0.24 0.55,-0.55l0 -2.76 0.22 0 0 2.32 0.45 0c0.06,0.56 0.53,0.99 1.1,0.99 0.61,0 1.1,-0.49 1.1,-1.1 0,-0.61 -0.49,-1.1 -1.1,-1.1 -0.57,0 -1.04,0.43 -1.1,0.99l-0.22 0 0 -2.1z"/>
   <polygon class="fil1" points="5.63,1.77 5.85,1.77 5.85,1.21 6.18,1.21 6.18,0.99 5.85,0.99 5.85,0.66 6.18,0.66 6.18,0.44 5.63,0.44 5.63,0.99 5.3,0.99 5.3,1.21 5.63,1.21 "/>
   <polygon class="fil1" points="5.63,6.4 6.18,6.4 6.18,6.18 5.85,6.18 5.85,5.52 6.07,5.52 6.07,5.3 5.85,5.3 5.85,5.08 5.63,5.08 5.63,5.3 5.41,5.3 5.41,5.52 5.63,5.52 "/>
   <polygon class="fil1" points="5.19,3.97 5.41,3.97 5.41,3.2 5.19,3.2 "/>
   <polygon class="fil1" points="5.19,2.98 5.41,2.98 5.41,2.76 5.19,2.76 "/>
   <path class="fil1" d="M5.85 3.59c0,-0.09 0.07,-0.17 0.17,-0.17 0.09,0 0.16,0.08 0.16,0.17l0 0.38 0.22 0 0 -0.38c0,-0.22 -0.17,-0.39 -0.38,-0.39 -0.06,0 -0.12,0.01 -0.17,0.04l0 -0.04 -0.22 0 0 0.77 0.22 0 0 -0.38z"/>
  </g>
 </g>
</svg>
