<?xml version="1.0" encoding="UTF-8"?>
<!DOCTYPE svg PUBLIC "-//W3C//DTD SVG 1.1//EN" "http://www.w3.org/Graphics/SVG/1.1/DTD/svg11.dtd">
<!-- Creator: CorelDRAW 2017 -->
<svg xmlns="http://www.w3.org/2000/svg" xml:space="preserve" width="60px" height="60px" version="1.1" style="shape-rendering:geometricPrecision; text-rendering:geometricPrecision; image-rendering:optimizeQuality; fill-rule:evenodd; clip-rule:evenodd"
viewBox="0 0 5.57 5.57"
 xmlns:xlink="http://www.w3.org/1999/xlink">
 <defs>
  <style type="text/css">
   <![CDATA[
    .fil0 {fill:#727376;fill-rule:nonzero}
    .fil1 {fill:#C83538;fill-rule:nonzero}
   ]]>
  </style>
 </defs>
 <g id="ะต_x203a_ัะต_x00b1__x201a__x0020_1">
  <metadata id="CorelCorpID_0Corel-Layer"/>
  <g id="_2079953583648">
   <path class="fil0" d="M5.48 0l-5.39 0c-0.05,0 -0.09,0.04 -0.09,0.09l0 1.02c0,0.06 0.04,0.1 0.09,0.1l5.39 0c0.06,0 0.09,-0.04 0.09,-0.1l0 -1.02c0,-0.05 -0.03,-0.09 -0.09,-0.09zm-0.09 1.02l-5.2 0 0 -0.83 5.2 0 0 0.83z"/>
   <polygon class="fil0" points="0.46,0.56 1.02,0.56 1.02,0.37 0.46,0.37 "/>
   <polygon class="fil0" points="0.46,0.84 1.02,0.84 1.02,0.65 0.46,0.65 "/>
   <path class="fil1" d="M0.09 3.62l3.07 0c0.05,0 0.09,-0.03 0.09,-0.09l0 -1.86c0,-0.05 -0.04,-0.09 -0.09,-0.09l-3.07 0c-0.05,0 -0.09,0.04 -0.09,0.09l0 1.86c0,0.06 0.04,0.09 0.09,0.09zm2.32 -0.72l0.65 -0.34 0 0.79 -0.65 -0.45zm0.46 0.54l-2.47 0 1.27 -0.82 1.2 0.82zm0.19 -1.68l0 0.6 -0.83 0.42 -0.51 -0.36c-0.03,-0.01 -0.08,-0.01 -0.1,0l-1.43 0.93 0 -1.59 2.87 0z"/>
   <path class="fil1" d="M0.79 2.6c0.18,0 0.32,-0.15 0.32,-0.32 0,-0.18 -0.14,-0.33 -0.32,-0.33 -0.18,0 -0.33,0.15 -0.33,0.33 0,0.17 0.15,0.32 0.33,0.32zm0 -0.46c0.07,0 0.14,0.06 0.14,0.14 0,0.07 -0.07,0.14 -0.14,0.14 -0.07,0 -0.14,-0.07 -0.14,-0.14 0,-0.08 0.07,-0.14 0.14,-0.14z"/>
   <polygon class="fil0" points="3.53,1.76 4.92,1.76 4.92,1.58 3.53,1.58 "/>
   <polygon class="fil0" points="3.53,2.23 5.57,2.23 5.57,2.04 3.53,2.04 "/>
   <polygon class="fil0" points="3.53,2.69 5.57,2.69 5.57,2.51 3.53,2.51 "/>
   <polygon class="fil0" points="3.53,3.16 5.57,3.16 5.57,2.97 3.53,2.97 "/>
   <polygon class="fil0" points="3.53,3.62 5.57,3.62 5.57,3.44 3.53,3.44 "/>
   <path class="fil0" d="M2.14 3.99l-2.05 0c-0.05,0 -0.09,0.04 -0.09,0.1l0 1.39c0,0.06 0.04,0.09 0.09,0.09l2.05 0c0.05,0 0.09,-0.03 0.09,-0.09l0 -1.39c0,-0.06 -0.04,-0.1 -0.09,-0.1zm-0.1 1.4l-1.85 0 0 -1.21 1.85 0 0 1.21z"/>
   <path class="fil0" d="M5.48 3.99l-2.88 0c-0.05,0 -0.09,0.04 -0.09,0.1l0 1.39c0,0.06 0.04,0.09 0.09,0.09l2.88 0c0.06,0 0.09,-0.03 0.09,-0.09l0 -1.39c0,-0.06 -0.03,-0.1 -0.09,-0.1zm-1.02 0.19l0 1.21 -0.74 0 0 -1.21 0.74 0zm-1.77 0l0.84 0 0 1.21 -0.84 0 0 -1.21zm2.7 1.21l-0.75 0 0 -1.21 0.75 0 0 1.21z"/>
   <polygon class="fil0" points="0.93,4.83 1.3,4.83 1.3,4.64 0.93,4.64 "/>
   <polygon class="fil0" points="1.49,4.83 1.86,4.83 1.86,4.64 1.49,4.64 "/>
   <polygon class="fil0" points="0.37,4.83 0.74,4.83 0.74,4.64 0.37,4.64 "/>
  </g>
 </g>
</svg>
