<?xml version="1.0" encoding="UTF-8"?>
<!DOCTYPE svg PUBLIC "-//W3C//DTD SVG 1.1//EN" "http://www.w3.org/Graphics/SVG/1.1/DTD/svg11.dtd">
<!-- Creator: CorelDRAW 2017 -->
<svg xmlns="http://www.w3.org/2000/svg" xml:space="preserve" width="30px" height="27px" version="1.1" style="shape-rendering:geometricPrecision; text-rendering:geometricPrecision; image-rendering:optimizeQuality; fill-rule:evenodd; clip-rule:evenodd"
viewBox="0 0 2.8 2.47"
 xmlns:xlink="http://www.w3.org/1999/xlink">
 <defs>
  <style type="text/css">
   <![CDATA[
    .fil0 {fill:#848688;fill-rule:nonzero}
    .fil1 {fill:#C83538;fill-rule:nonzero}
   ]]>
  </style>
 </defs>
 <g id="Layer_x0020_1">
  <metadata id="CorelCorpID_0Corel-Layer"/>
  <g id="_1908876163184">
   <path class="fil0" d="M1.84 0.99l0 0.14c0,0.03 0.02,0.06 0.05,0.06 0.04,0 0.06,-0.03 0.06,-0.06l0 -0.14c0,-0.05 -0.02,-0.09 -0.06,-0.12 -0.1,-0.09 -0.22,-0.15 -0.27,-0.18l0 -0.14c0.03,-0.03 0.04,-0.07 0.04,-0.11l0 -0.2c0,-0.13 -0.11,-0.24 -0.24,-0.24l-0.04 0c-0.14,0 -0.24,0.11 -0.24,0.24l0 0.2c0,0.04 0.01,0.08 0.04,0.11l0 0.14c-0.06,0.03 -0.17,0.09 -0.28,0.18 -0.03,0.03 -0.05,0.07 -0.05,0.12l0 0.14c0,0.03 0.02,0.05 0.05,0.05 0.03,0 0.06,-0.02 0.06,-0.05l0 -0.14c0,-0.01 0,-0.03 0.01,-0.03 0.13,-0.1 0.26,-0.17 0.28,-0.18 0.03,-0.01 0.04,-0.04 0.04,-0.06l0 -0.2c0,-0.02 -0.01,-0.04 -0.02,-0.05 -0.01,0 -0.02,-0.01 -0.02,-0.03l0 -0.2c0,-0.07 0.06,-0.13 0.13,-0.13l0.04 0c0.07,0 0.13,0.06 0.13,0.13l0 0.2c0,0.02 -0.01,0.03 -0.02,0.03 -0.01,0.01 -0.02,0.03 -0.02,0.05l0 0.2c0,0.02 0.01,0.05 0.03,0.06 0.03,0.01 0.16,0.08 0.28,0.18 0.01,0 0.02,0.02 0.02,0.03z"/>
   <path class="fil0" d="M2.38 1.76c-0.02,0.01 -0.03,0.03 -0.03,0.05l0 0.2c0,0.02 0.02,0.04 0.04,0.05 0.02,0.02 0.16,0.08 0.28,0.18 0.01,0.01 0.01,0.02 0.01,0.04l0 0.14c0,0.03 0.03,0.05 0.06,0.05 0.03,0 0.06,-0.02 0.06,-0.05l0 -0.14c0,-0.05 -0.02,-0.09 -0.06,-0.12 -0.11,-0.09 -0.22,-0.16 -0.27,-0.18l0 -0.15c0.02,-0.02 0.04,-0.06 0.04,-0.1l0 -0.2c0,-0.13 -0.11,-0.24 -0.24,-0.24l-0.05 0c-0.13,0 -0.24,0.11 -0.24,0.24l0 0.2c0,0.04 0.02,0.08 0.04,0.1l0 0.15c-0.05,0.02 -0.16,0.09 -0.27,0.18 -0.04,0.03 -0.06,0.07 -0.06,0.12l0 0.14c0,0.03 0.03,0.05 0.06,0.05 0.03,0 0.05,-0.02 0.05,-0.05l0 -0.14c0,-0.02 0.01,-0.03 0.02,-0.04 0.12,-0.1 0.25,-0.16 0.28,-0.18 0.02,-0.01 0.04,-0.03 0.04,-0.05l0 -0.2c0,-0.02 -0.01,-0.04 -0.03,-0.05 -0.01,0 -0.01,-0.02 -0.01,-0.03l0 -0.2c0,-0.07 0.05,-0.13 0.12,-0.13l0.05 0c0.07,0 0.12,0.06 0.12,0.13l0 0.2c0,0.01 0,0.03 -0.01,0.03z"/>
   <path class="fil0" d="M0.99 2.28l0 0.14c0,0.03 0.03,0.05 0.06,0.05 0.03,0 0.06,-0.02 0.06,-0.05l0 -0.14c0,-0.05 -0.03,-0.09 -0.06,-0.12 -0.11,-0.09 -0.22,-0.15 -0.28,-0.18l0 -0.14c0.03,-0.03 0.04,-0.07 0.04,-0.11l0 -0.2c0,-0.13 -0.1,-0.24 -0.24,-0.24l-0.04 0c-0.13,0 -0.24,0.11 -0.24,0.24l0 0.2c0,0.04 0.02,0.08 0.04,0.11l0 0.14c-0.05,0.03 -0.17,0.09 -0.27,0.18 -0.04,0.03 -0.06,0.07 -0.06,0.12l0 0.14c0,0.03 0.03,0.05 0.06,0.05 0.03,0 0.05,-0.02 0.05,-0.05l0 -0.14c0,-0.02 0.01,-0.03 0.02,-0.04 0.12,-0.1 0.25,-0.16 0.28,-0.18 0.02,-0.01 0.03,-0.03 0.03,-0.05l0 -0.2c0,-0.02 -0.01,-0.04 -0.02,-0.05 -0.01,0 -0.02,-0.02 -0.02,-0.03l0 -0.2c0,-0.07 0.06,-0.13 0.13,-0.13l0.04 0c0.07,0 0.13,0.06 0.13,0.13l0 0.2c0,0.01 0,0.03 -0.01,0.03 -0.02,0.01 -0.03,0.03 -0.03,0.05l0 0.2c0,0.02 0.02,0.04 0.04,0.05 0.02,0.02 0.15,0.08 0.28,0.18 0.01,0.01 0.01,0.02 0.01,0.04z"/>
   <path class="fil1" d="M1.4 2c0.03,0 0.06,-0.03 0.06,-0.06l0 -0.07 0 0c0.11,0 0.2,-0.09 0.2,-0.2 0,-0.11 -0.09,-0.19 -0.2,-0.19l-0.12 0c-0.05,0 -0.09,-0.04 -0.09,-0.08 0,-0.05 0.04,-0.08 0.09,-0.08l0.22 0c0.03,0 0.05,-0.03 0.05,-0.06 0,-0.03 -0.02,-0.06 -0.05,-0.06l-0.11 0 0 -0.07c0,-0.03 -0.02,-0.06 -0.05,-0.06 -0.03,0 -0.06,0.03 -0.06,0.06l0 0.07 0 0c-0.11,0 -0.2,0.09 -0.2,0.2 0,0.1 0.09,0.19 0.2,0.19l0.12 0c0.05,0 0.08,0.04 0.08,0.08 0,0.05 -0.03,0.08 -0.08,0.08l-0.22 0c-0.04,0 -0.06,0.03 -0.06,0.06 0,0.03 0.02,0.06 0.06,0.06l0.1 0 0 0.07c0,0.03 0.03,0.06 0.06,0.06z"/>
  </g>
 </g>
</svg>
