<?xml version="1.0" encoding="UTF-8"?>
<!DOCTYPE svg PUBLIC "-//W3C//DTD SVG 1.1//EN" "http://www.w3.org/Graphics/SVG/1.1/DTD/svg11.dtd">
<!-- Creator: CorelDRAW 2017 -->
<svg xmlns="http://www.w3.org/2000/svg" xml:space="preserve" width="29px" height="29px" version="1.1" style="shape-rendering:geometricPrecision; text-rendering:geometricPrecision; image-rendering:optimizeQuality; fill-rule:evenodd; clip-rule:evenodd"
viewBox="0 0 29.69 30.07"
 xmlns:xlink="http://www.w3.org/1999/xlink">
 <defs>
  <style type="text/css">
   <![CDATA[
    .fil1 {fill:#848688;fill-rule:nonzero}
    .fil0 {fill:#C83538;fill-rule:nonzero}
   ]]>
  </style>
 </defs>
 <g id="Layer_x0020_1">
  <metadata id="CorelCorpID_0Corel-Layer"/>
  <g id="_2685448941232">
   <path class="fil0" d="M20.09 24.95c-1.4,0 -2.49,1.16 -2.49,2.56 0,1.41 1.15,2.56 2.49,2.56 1.35,0 2.5,-1.15 2.5,-2.56 0,-1.4 -1.15,-2.56 -2.5,-2.56zm0 3.84c-0.7,0 -1.21,-0.58 -1.21,-1.28 0,-0.71 0.58,-1.29 1.21,-1.29 0.64,0 1.22,0.58 1.22,1.29 0,0.7 -0.58,1.28 -1.22,1.28z"/>
   <path class="fil0" d="M6.46 24.95c-1.4,0 -2.49,1.16 -2.49,2.56 0,1.41 1.15,2.56 2.49,2.56 1.41,0 2.5,-1.15 2.5,-2.56 0,-1.4 -1.15,-2.56 -2.5,-2.56zm0 3.84c-0.7,0 -1.21,-0.58 -1.21,-1.28 0,-0.71 0.57,-1.29 1.21,-1.29 0.71,0 1.22,0.58 1.22,1.29 0,0.71 -0.57,1.28 -1.22,1.28z"/>
   <path class="fil1" d="M26.11 0l-1 3.9 -25.11 0 4.63 13.73c-1.55,0.23 -2.71,1.54 -2.71,3.23 0,1.85 1.41,3.33 3.2,3.33l17.4 0 0 -1.22 -17.4 0c-1.09,0 -1.92,-0.9 -1.92,-2.05 0,-1.15 0.89,-2.05 1.92,-2.05l17.46 0 4.55 -17.59 2.56 0 0 -1.28 -3.58 0zm-4.48 17.59l-15.68 0 -4.16 -12.41 22.97 0 -3.13 12.41z"/>
   <polygon class="fil0" points="8.13,15.42 9.41,15.42 9.41,8.19 8.13,8.19 "/>
   <polygon class="fil0" points="12.67,15.42 13.96,15.42 13.96,8.19 12.67,8.19 "/>
   <polygon class="fil0" points="17.21,15.42 18.5,15.42 18.5,8.19 17.21,8.19 "/>
  </g>
 </g>
</svg>
