<?xml version="1.0" encoding="UTF-8"?>
<!DOCTYPE svg PUBLIC "-//W3C//DTD SVG 1.1//EN" "http://www.w3.org/Graphics/SVG/1.1/DTD/svg11.dtd">
<!-- Creator: CorelDRAW 2017 -->
<svg xmlns="http://www.w3.org/2000/svg" xml:space="preserve" width="60px" height="60px" version="1.1" style="shape-rendering:geometricPrecision; text-rendering:geometricPrecision; image-rendering:optimizeQuality; fill-rule:evenodd; clip-rule:evenodd"
viewBox="0 0 5.09 5.09"
 xmlns:xlink="http://www.w3.org/1999/xlink">
 <defs>
  <style type="text/css">
   <![CDATA[
    .fil0 {fill:#FEFEFE;fill-rule:nonzero}
    .fil1 {fill:#C83538;fill-rule:nonzero}
   ]]>
  </style>
 </defs>
 <g id="Layer_x0020_1">
  <metadata id="CorelCorpID_0Corel-Layer"/>
  <g id="_1872695330384">
   <path class="fil0" d="M0.99 0.66l1.31 0 0 -0.17 -1.31 0 0 -0.08c0,-0.14 0.11,-0.25 0.24,-0.25l1.73 0c0.09,0 0.16,0.08 0.16,0.17l0.16 0c0,-0.18 -0.14,-0.33 -0.32,-0.33l-1.73 0c-0.22,0 -0.41,0.18 -0.41,0.41l0 0.41 0.17 0 0 -0.16z"/>
   <path class="fil0" d="M0.99 3.94l0 -0.25 0.32 0 0 -0.16 -0.49 0 0 0.41c0,0.23 0.19,0.41 0.41,0.41l0.25 0 0 -0.16 -0.25 0c-0.13,0 -0.24,-0.11 -0.24,-0.25z"/>
   <path class="fil1" d="M0.49 1.84c0,-0.11 0.09,-0.2 0.2,-0.2l0.01 0c0.06,0 0.11,0.02 0.15,0.06l0.14 0.14 0.14 -0.14 0 0c0.03,-0.04 0.08,-0.06 0.14,-0.06l0.01 0c0.11,0 0.2,0.09 0.2,0.2 0,0.06 -0.03,0.11 -0.07,0.15l-0.42 0.37 -0.43 -0.37c-0.04,-0.04 -0.07,-0.09 -0.07,-0.15zm1.03 0.28c0.08,-0.07 0.12,-0.17 0.12,-0.28 0,-0.2 -0.16,-0.36 -0.36,-0.36l-0.01 0c-0.1,0 -0.19,0.04 -0.26,0.1l-0.02 0.03 -0.03 -0.03c-0.07,-0.06 -0.16,-0.1 -0.26,-0.1l-0.01 0c-0.2,0 -0.36,0.16 -0.36,0.36 0,0.11 0.04,0.21 0.13,0.28l0.53 0.45 0.53 -0.45z"/>
   <path class="fil0" d="M0.16 1.97c0,-0.45 0.37,-0.82 0.83,-0.82 0.45,0 0.82,0.37 0.82,0.82 0,0.45 -0.37,0.82 -0.82,0.82 -0.46,0 -0.83,-0.37 -0.83,-0.82zm1.81 0c0,-0.54 -0.44,-0.98 -0.98,-0.98 -0.55,0 -0.99,0.44 -0.99,0.98 0,0.54 0.44,0.99 0.99,0.99 0.54,0 0.98,-0.45 0.98,-0.99z"/>
   <polygon class="fil0" points="2.46,0.49 2.46,1.48 2.63,1.48 2.63,0.66 4.93,0.66 4.93,2.71 4.52,2.71 4.52,2.87 5.09,2.87 5.09,0.49 "/>
   <path class="fil1" d="M3.86 2.05l0 -0.34c0.09,-0.03 0.16,-0.13 0.16,-0.23 0,-0.14 -0.11,-0.25 -0.24,-0.25 -0.14,0 -0.25,0.11 -0.25,0.25 0,0.1 0.07,0.2 0.16,0.23l0 0.34 -0.16 0 0 -0.14 -0.03 -0.03c-0.14,-0.09 -0.22,-0.24 -0.22,-0.4 0,-0.27 0.23,-0.49 0.5,-0.49 0.27,0 0.49,0.22 0.49,0.49 0,0.16 -0.08,0.31 -0.21,0.4l-0.04 0.03 0 0.14 -0.16 0zm-0.17 -0.57c0,-0.05 0.04,-0.08 0.09,-0.08 0.04,0 0.08,0.03 0.08,0.08 0,0.04 -0.04,0.08 -0.08,0.08 -0.05,0 -0.09,-0.04 -0.09,-0.08zm0.74 0c0,-0.36 -0.29,-0.66 -0.65,-0.66 -0.37,0 -0.66,0.3 -0.66,0.66 0,0.2 0.09,0.39 0.25,0.51l0 0.06 -0.17 0 0 0.17 0.82 0 0 0.16 -0.08 0 0 0.17 0.25 0 0 -0.33 0.16 0 0 -0.17 -0.16 0 0 -0.06c0.15,-0.12 0.24,-0.31 0.24,-0.51z"/>
   <path class="fil0" d="M4.19 4.2c0,0.13 -0.05,0.25 -0.14,0.34 -0.11,0.11 -0.17,0.24 -0.19,0.39l-1.64 0 0 -0.37 -0.31 -0.26c-0.13,-0.1 -0.21,-0.24 -0.24,-0.4l-0.11 -0.53c0,-0.01 0,-0.02 0,-0.03 0,-0.07 0.06,-0.14 0.14,-0.14l0.02 0c0.06,0 0.12,0.04 0.14,0.11l0.11 0.39c0.02,0.09 0.1,0.16 0.2,0.16 0.06,0 0.11,-0.02 0.15,-0.06 0.04,-0.04 0.06,-0.1 0.06,-0.15l0 -1.68c0,-0.09 0.07,-0.16 0.17,-0.16 0.09,0 0.16,0.07 0.16,0.16l0 1.4 0.16 0 0 -0.33c0,-0.09 0.08,-0.17 0.17,-0.17 0.09,0 0.16,0.08 0.16,0.17l0 0.33 0.17 0 0 -0.33c0,-0.09 0.07,-0.17 0.16,-0.17 0.09,0 0.16,0.08 0.16,0.17l0 0.33 0.17 0 0 -0.33c0,-0.09 0.07,-0.17 0.16,-0.17 0.09,0 0.17,0.08 0.17,0.17l0 1.16zm-0.17 -1.49c-0.1,0 -0.18,0.04 -0.24,0.11 -0.06,-0.07 -0.15,-0.11 -0.25,-0.11 -0.1,0 -0.19,0.04 -0.25,0.11 -0.06,-0.07 -0.14,-0.11 -0.24,-0.11 -0.06,0 -0.12,0.02 -0.17,0.05l0 -0.79c0,-0.18 -0.14,-0.33 -0.32,-0.33 -0.19,0 -0.33,0.15 -0.33,0.33l0 1.68c0,0.01 -0.01,0.02 -0.02,0.03 -0.01,0.01 -0.02,0.01 -0.03,0.01 -0.02,0 -0.04,-0.01 -0.04,-0.03l-0.12 -0.4c-0.03,-0.13 -0.15,-0.22 -0.29,-0.22l-0.02 0c-0.17,0 -0.3,0.14 -0.3,0.3 0,0.02 0,0.04 0,0.06l0.11 0.53c0.04,0.2 0.14,0.37 0.29,0.5l0.25 0.21 0 0.45 1.97 0 0 -0.1c0,-0.12 0.05,-0.24 0.14,-0.33 0.12,-0.13 0.19,-0.29 0.19,-0.46l0 -1.16c0,-0.18 -0.15,-0.33 -0.33,-0.33z"/>
   <polygon class="fil0" points="0.82,3.37 0.99,3.37 0.99,3.12 0.82,3.12 "/>
  </g>
 </g>
</svg>
