<?xml version="1.0" encoding="UTF-8"?>
<!DOCTYPE svg PUBLIC "-//W3C//DTD SVG 1.1//EN" "http://www.w3.org/Graphics/SVG/1.1/DTD/svg11.dtd">
<!-- Creator: CorelDRAW 2017 -->
<svg xmlns="http://www.w3.org/2000/svg" xml:space="preserve" width="29px" height="29px" version="1.1" style="shape-rendering:geometricPrecision; text-rendering:geometricPrecision; image-rendering:optimizeQuality; fill-rule:evenodd; clip-rule:evenodd"
viewBox="0 0 4.06 4.06"
 xmlns:xlink="http://www.w3.org/1999/xlink">
 <defs>
  <style type="text/css">
   <![CDATA[
    .fil0 {fill:#848688;fill-rule:nonzero}
    .fil1 {fill:#C83538;fill-rule:nonzero}
   ]]>
  </style>
 </defs>
 <g id="Layer_x0020_1">
  <metadata id="CorelCorpID_0Corel-Layer"/>
  <g id="_2438879359600">
   <path class="fil0" d="M3.76 3.35l-3.46 0c-0.1,0 -0.18,-0.08 -0.18,-0.18l0 -0.18 0.18 0c0.03,0 0.06,-0.03 0.06,-0.06l0 -0.18 1.19 0c0.11,0 0.22,0.05 0.29,0.12l-1.3 0c-0.04,0 -0.06,0.03 -0.06,0.06 0,0.03 0.02,0.06 0.06,0.06l3.4 0 0 0.18c0,0.1 -0.08,0.18 -0.18,0.18zm-1.26 0.59l-0.94 0c0.08,-0.07 0.13,-0.18 0.13,-0.3l0 -0.17 0.69 0 0 0.17c0,0.12 0.04,0.23 0.12,0.3zm-2.26 -3.32l0 2.25 -0.12 0 0 -2.08c0,-0.08 0.05,-0.14 0.12,-0.17zm0.12 -0.5l1.19 0c0.23,0 0.42,0.19 0.42,0.42 0,0.03 0.03,0.05 0.06,0.05 0.03,0 0.06,-0.02 0.06,-0.05 0,-0.23 0.19,-0.42 0.42,-0.42l1.19 0 0 2.28 -1.19 0c-0.17,0 -0.32,0.07 -0.42,0.19l0 -1.82c0,-0.03 -0.03,-0.06 -0.06,-0.06 -0.03,0 -0.06,0.03 -0.06,0.06l0 1.82c-0.1,-0.12 -0.25,-0.19 -0.42,-0.19l-1.19 0 0 -2.28zm3.34 2.51l-1.19 0c-0.16,0 -0.3,0.07 -0.4,0.18 0.05,-0.17 0.21,-0.3 0.4,-0.3l1.19 0 0 0.12zm-3.34 -0.12l1.19 0c0.19,0 0.35,0.13 0.4,0.3 -0.1,-0.11 -0.24,-0.18 -0.4,-0.18l-1.19 0 0 -0.12zm1.86 0.36c0.07,-0.07 0.18,-0.12 0.29,-0.12l1.19 0 0 0.12 -1.48 0zm1.72 -2.08l0 2.08 -0.12 0 0 -2.25c0.07,0.03 0.12,0.09 0.12,0.17zm-0.12 -0.29l0 -0.44c0,-0.03 -0.02,-0.06 -0.06,-0.06l-1.25 0c-0.21,0 -0.39,0.12 -0.48,0.29 -0.09,-0.17 -0.27,-0.29 -0.48,-0.29l-1.25 0c-0.04,0 -0.06,0.03 -0.06,0.06l0 0.44c-0.14,0.03 -0.24,0.15 -0.24,0.29l0 2.38c0,0.16 0.13,0.3 0.3,0.3l1.27 0 0 0.17c0,0.17 -0.14,0.3 -0.3,0.3l-0.5 0c-0.03,0 -0.06,0.03 -0.06,0.06 0,0.03 0.03,0.06 0.06,0.06l2.52 0c0.03,0 0.06,-0.03 0.06,-0.06 0,-0.03 -0.03,-0.06 -0.06,-0.06l-0.5 0c-0.16,0 -0.3,-0.13 -0.3,-0.3l0 -0.17 1.27 0c0.17,0 0.3,-0.14 0.3,-0.3l0 -2.38c0,-0.14 -0.1,-0.26 -0.24,-0.29z"/>
   <path class="fil1" d="M1.33 0.73c-0.03,-0.02 -0.06,-0.02 -0.09,0l-0.07 0.07 -0.07 -0.07c-0.03,-0.02 -0.06,-0.02 -0.09,0 -0.02,0.02 -0.02,0.06 0,0.09l0.08 0.07 -0.08 0.07c-0.02,0.02 -0.02,0.06 0,0.09 0.01,0.01 0.03,0.01 0.05,0.01 0.01,0 0.03,0 0.04,-0.01l0.07 -0.08 0.07 0.08c0.01,0.01 0.03,0.01 0.04,0.01 0.02,0 0.04,0 0.05,-0.01 0.02,-0.03 0.02,-0.07 0,-0.09l-0.08 -0.07 0.08 -0.07c0.02,-0.03 0.02,-0.07 0,-0.09z"/>
   <path class="fil1" d="M0.83 0.59l0.68 0 0 0.59 -0.68 0 0 -0.59zm-0.06 0.71l0.8 0c0.03,0 0.06,-0.03 0.06,-0.06l0 -0.7c0,-0.04 -0.03,-0.06 -0.06,-0.06l-0.8 0c-0.03,0 -0.06,0.02 -0.06,0.06l0 0.7c0,0.03 0.03,0.06 0.06,0.06z"/>
   <path class="fil0" d="M0.77 1.55l0.8 0c0.03,0 0.06,-0.03 0.06,-0.06 0,-0.04 -0.03,-0.06 -0.06,-0.06l-0.8 0c-0.03,0 -0.06,0.02 -0.06,0.06 0,0.03 0.03,0.06 0.06,0.06z"/>
   <path class="fil0" d="M0.77 1.79l0.8 0c0.03,0 0.06,-0.02 0.06,-0.06 0,-0.03 -0.03,-0.06 -0.06,-0.06l-0.8 0c-0.03,0 -0.06,0.03 -0.06,0.06 0,0.04 0.03,0.06 0.06,0.06z"/>
   <path class="fil0" d="M3.05 0.73c-0.03,-0.02 -0.06,-0.02 -0.09,0l-0.07 0.07 -0.07 -0.07c-0.03,-0.02 -0.06,-0.02 -0.09,0 -0.02,0.02 -0.02,0.06 0,0.09l0.08 0.07 -0.08 0.07c-0.02,0.02 -0.02,0.06 0,0.09 0.02,0.01 0.03,0.01 0.05,0.01 0.01,0 0.03,0 0.04,-0.01l0.07 -0.08 0.07 0.08c0.02,0.01 0.03,0.01 0.05,0.01 0.01,0 0.03,0 0.04,-0.01 0.02,-0.03 0.02,-0.07 0,-0.09l-0.07 -0.07 0.07 -0.07c0.02,-0.03 0.02,-0.07 0,-0.09z"/>
   <path class="fil0" d="M2.55 0.59l0.68 0 0 0.59 -0.68 0 0 -0.59zm-0.06 0.71l0.8 0c0.03,0 0.06,-0.03 0.06,-0.06l0 -0.7c0,-0.04 -0.03,-0.06 -0.06,-0.06l-0.8 0c-0.03,0 -0.05,0.02 -0.05,0.06l0 0.7c0,0.03 0.02,0.06 0.05,0.06z"/>
   <path class="fil1" d="M2.49 1.55l0.8 0c0.03,0 0.06,-0.03 0.06,-0.06 0,-0.04 -0.03,-0.06 -0.06,-0.06l-0.8 0c-0.03,0 -0.05,0.02 -0.05,0.06 0,0.03 0.02,0.06 0.05,0.06z"/>
   <path class="fil1" d="M2.49 1.79l0.8 0c0.03,0 0.06,-0.02 0.06,-0.06 0,-0.03 -0.03,-0.06 -0.06,-0.06l-0.8 0c-0.03,0 -0.05,0.03 -0.05,0.06 0,0.04 0.02,0.06 0.05,0.06z"/>
   <path class="fil0" d="M0.77 2.04l0.8 0c0.03,0 0.06,-0.03 0.06,-0.06 0,-0.03 -0.03,-0.06 -0.06,-0.06l-0.8 0c-0.03,0 -0.06,0.03 -0.06,0.06 0,0.03 0.03,0.06 0.06,0.06z"/>
   <path class="fil1" d="M2.49 2.04l0.8 0c0.03,0 0.06,-0.03 0.06,-0.06 0,-0.03 -0.03,-0.06 -0.06,-0.06l-0.8 0c-0.03,0 -0.05,0.03 -0.05,0.06 0,0.03 0.02,0.06 0.05,0.06z"/>
  </g>
 </g>
</svg>
