<?xml version="1.0" encoding="UTF-8"?>
<!DOCTYPE svg PUBLIC "-//W3C//DTD SVG 1.1//EN" "http://www.w3.org/Graphics/SVG/1.1/DTD/svg11.dtd">
<!-- Creator: CorelDRAW 2017 -->
<svg xmlns="http://www.w3.org/2000/svg" xml:space="preserve" width="29px" height="29px" version="1.1" style="shape-rendering:geometricPrecision; text-rendering:geometricPrecision; image-rendering:optimizeQuality; fill-rule:evenodd; clip-rule:evenodd"
viewBox="0 0 8.15 8.15"
 xmlns:xlink="http://www.w3.org/1999/xlink">
 <defs>
  <style type="text/css">
   <![CDATA[
    .fil1 {fill:#848688;fill-rule:nonzero}
    .fil0 {fill:#C83538;fill-rule:nonzero}
   ]]>
  </style>
 </defs>
 <g id="Layer_x0020_1">
  <metadata id="CorelCorpID_0Corel-Layer"/>
  <g id="_2438879667392">
   <path class="fil0" d="M6.34 1.73c-0.28,-0.25 -0.3,-0.68 -0.05,-0.96 0.25,-0.28 0.67,-0.3 0.95,-0.05 0.28,0.25 0.31,0.67 0.06,0.95 -0.02,0.02 -0.04,0.04 -0.06,0.06 -0.02,0.02 -0.04,0.06 -0.04,0.1l0 0.21 -0.27 0 0 -0.35 0.37 -0.37 -0.2 -0.19 -0.31 0.31 -0.31 -0.31 -0.19 0.19 0.37 0.37 0 0.35 -0.28 0 0 -0.21c0,-0.04 -0.01,-0.08 -0.04,-0.1zm-0.5 0.31l0 0.27 1.9 0 0 -0.27 -0.27 0 0 -0.15c0.37,-0.38 0.36,-0.98 -0.01,-1.35 -0.38,-0.37 -0.98,-0.36 -1.35,0.02 -0.36,0.37 -0.36,0.96 0,1.33l0 0.15 -0.27 0z"/>
   <polygon class="fil0" points="1.09,1.36 1.36,1.36 1.36,1.09 1.09,1.09 "/>
   <polygon class="fil1" points="5.98,3.4 6.25,3.4 6.25,3.12 5.98,3.12 "/>
   <path class="fil0" d="M1.22 1.63c-0.22,0 -0.4,-0.18 -0.4,-0.41 0,-0.22 0.18,-0.4 0.4,-0.4 0.23,0 0.41,0.18 0.41,0.4 0,0.23 -0.18,0.41 -0.41,0.41zm0 -1.09c-0.37,0 -0.68,0.31 -0.68,0.68 0,0.38 0.31,0.68 0.68,0.68 0.38,0 0.68,-0.3 0.68,-0.68 0,-0.37 -0.3,-0.68 -0.68,-0.68z"/>
   <path class="fil1" d="M7.88 7.88l-4.89 0 0 -2.33c0.18,0.19 0.42,0.29 0.68,0.29l3.53 0c0.26,0 0.5,-0.1 0.68,-0.29l0 2.33zm-6.39 -0.55l0 -3.25c0,-0.03 0,-0.05 -0.01,-0.07l-0.27 -0.54c-0.04,-0.07 -0.13,-0.09 -0.2,-0.05 -0.02,0.01 -0.03,0.03 -0.04,0.05l-0.28 0.54c-0.01,0.02 -0.01,0.04 -0.01,0.07l0 3.25 -0.41 0 0 -7.06 4.62 0 0 4.48 -2.04 0c-0.07,0 -0.13,0.06 -0.13,0.14l0 2.44 -1.23 0zm-0.4 0.55c-0.08,0 -0.14,-0.06 -0.14,-0.14l0 -0.41 0.27 0 0 0.41c0,0.08 -0.06,0.14 -0.13,0.14zm-0.14 -1.09l0.27 0 0 0.27 -0.27 0 0 -0.27zm0.02 -2.71l0.12 -0.24 0.12 0.24 -0.24 0zm-0.02 0.27l0.27 0 0 2.17 -0.27 0 0 -2.17zm6.91 0.68c-0.06,0.31 -0.34,0.54 -0.66,0.54l-3.53 0c-0.33,0 -0.6,-0.23 -0.67,-0.54l4.86 0zm0.15 -0.28l-2.85 0 0 -4.61c0,-0.08 -0.06,-0.14 -0.13,-0.14l-4.89 0c-0.08,0 -0.14,0.06 -0.14,0.14l0 7.33c0,0.08 0.06,0.14 0.14,0.14l0.54 0 0 0.13c0,0.23 0.18,0.41 0.41,0.41 0.22,0 0.4,-0.18 0.4,-0.41l0 -0.13 1.23 0 0 0.4c0,0.08 0.06,0.14 0.13,0.14l5.16 0c0.08,0 0.14,-0.06 0.14,-0.14l0 -3.12c0,-0.08 -0.06,-0.14 -0.14,-0.14z"/>
   <path class="fil1" d="M7.88 4.21l-2.17 0 0 -1.36 2.17 0 0 1.36zm0.13 -1.63l-2.44 0c-0.08,0 -0.14,0.06 -0.14,0.14l0 1.63c0,0.07 0.06,0.13 0.14,0.13l2.44 0c0.08,0 0.14,-0.06 0.14,-0.13l0 -1.63c0,-0.08 -0.06,-0.14 -0.14,-0.14z"/>
   <polygon class="fil1" points="6.66,3.94 7.33,3.94 7.33,3.67 6.66,3.67 "/>
   <polygon class="fil0" points="2.31,1.09 4.62,1.09 4.62,0.82 2.31,0.82 "/>
   <polygon class="fil0" points="2.31,1.63 4.08,1.63 4.08,1.36 2.31,1.36 "/>
   <polygon class="fil0" points="3.26,7.06 3.53,7.06 3.53,6.79 3.26,6.79 "/>
   <polygon class="fil0" points="3.94,7.06 5.71,7.06 5.71,6.79 3.94,6.79 "/>
   <polygon class="fil0" points="3.94,7.61 5.16,7.61 5.16,7.33 3.94,7.33 "/>
   <polygon class="fil1" points="6.66,3.4 7.61,3.4 7.61,3.12 6.66,3.12 "/>
  </g>
 </g>
</svg>
