<?xml version="1.0" encoding="UTF-8"?>
<!DOCTYPE svg PUBLIC "-//W3C//DTD SVG 1.1//EN" "http://www.w3.org/Graphics/SVG/1.1/DTD/svg11.dtd">
<!-- Creator: CorelDRAW 2017 -->
<svg xmlns="http://www.w3.org/2000/svg" xml:space="preserve" width="71px" height="60px" version="1.1" style="shape-rendering:geometricPrecision; text-rendering:geometricPrecision; image-rendering:optimizeQuality; fill-rule:evenodd; clip-rule:evenodd"
viewBox="0 0 70.19 59.24"
 xmlns:xlink="http://www.w3.org/1999/xlink">
 <defs>
  <style type="text/css">
   <![CDATA[
    .fil1 {fill:#FEFEFE;fill-rule:nonzero}
    .fil0 {fill:#C83538;fill-rule:nonzero}
   ]]>
  </style>
 </defs>
 <g id="Layer_x0020_1">
  <metadata id="CorelCorpID_0Corel-Layer"/>
  <g id="_1872894874000">
   <path class="fil0" d="M21.3 8.39c1.15,0 2.08,0.94 2.08,2.08 0,1.15 -0.93,2.09 -2.08,2.09 -1.15,0 -2.08,-0.94 -2.08,-2.09 0,-1.14 0.93,-2.08 2.08,-2.08zm0 6.22c2.28,0 4.14,-1.85 4.14,-4.13 0,-2.29 -1.86,-4.15 -4.14,-4.15 -2.28,0 -4.14,1.86 -4.14,4.15 0,2.28 1.86,4.13 4.14,4.13z"/>
   <path class="fil0" d="M12.57 16.31c1.63,0 2.94,1.32 2.94,2.94 0,1.63 -1.31,2.94 -2.94,2.94 -1.62,0 -2.94,-1.31 -2.94,-2.94 0,-1.62 1.32,-2.94 2.94,-2.94zm0 7.94c2.76,0 5,-2.24 5,-5 0,-2.75 -2.24,-4.99 -5,-4.99 -2.75,0 -4.99,2.24 -4.99,4.99 0,2.76 2.24,5 4.99,5z"/>
   <path class="fil0" d="M21.19 43.1c-1.62,0 -2.94,-1.32 -2.94,-2.94 0,-1.62 1.32,-2.94 2.94,-2.94 1.62,0 2.94,1.32 2.94,2.94 0,1.62 -1.32,2.94 -2.94,2.94zm5 -2.94c0,-2.76 -2.24,-5 -5,-5 -2.75,0 -4.99,2.24 -4.99,5 0,2.75 2.24,4.99 4.99,4.99 2.76,0 5,-2.24 5,-4.99z"/>
   <path class="fil0" d="M11.6 34.62c-1.65,0 -2.99,-1.35 -2.99,-2.99 0,-1.65 1.34,-3 2.99,-3 1.65,0 2.99,1.35 2.99,3 0,1.64 -1.34,2.99 -2.99,2.99zm0 -8.04c-2.78,0 -5.05,2.26 -5.05,5.05 0,2.78 2.27,5.04 5.05,5.04 2.78,0 5.05,-2.26 5.05,-5.04 0,-2.79 -2.27,-5.05 -5.05,-5.05z"/>
   <path class="fil1" d="M45.78 44.21c-0.21,0.2 -0.56,0.2 -0.77,0l-6.93 -6.93c-0.21,-0.21 -0.21,-0.55 0,-0.77l0.21 -0.2c0.2,-0.21 0.56,-0.21 0.76,0 7.51,7.51 7.09,6.99 7.09,7.31 0,0.27 -0.16,0.39 -0.36,0.59zm-7.65 3.65c-1.58,-1.58 -2.24,-2.24 -3.7,-3.7l3.08 -4.55 5.17 5.17 -4.55 3.08zm-3.59 6.66c-2.39,2.4 -5.93,3.31 -8.99,2.22 -1.59,-4.49 1.45,-10.6 6.01,-10.6 1.25,0 2.41,0.47 3.27,1.32 1.86,1.87 1.74,5.04 -0.29,7.06zm-10.47 -5.03c-13.67,-1.01 -23.72,-13.36 -21.77,-27.03 1.76,-12.32 12.53,-20.8 24.32,-20.38 5.4,0.19 9.88,2.14 10.26,4.37 0.33,1.97 -2.32,4.07 -2.62,4.3l-4.21 3.16c-3.32,2.49 -3.74,7.26 -0.94,10.3 2.36,2.56 6.38,3.04 9.31,0.85l4.2 -3.16c0.96,-0.7 2.55,-1.53 3.83,-1.53 1.8,0 2.82,1.74 3.06,5.18l-9.93 8.71c-2.18,-0.82 -4.47,1.59 -3.46,3.74 -4.09,6.04 -3.97,5.77 -4.03,6.1 -3.6,-0.27 -6.51,2.14 -8.02,5.39zm45.1 -36.37c-2.03,-2.04 -4.85,-0.57 -6.05,0.49l-11.73 10.29c-0.71,-4.56 -3.01,-5.59 -4.94,-5.59 -2.24,0 -4.43,1.48 -5.06,1.94l-4.21 3.16c-2.33,1.75 -5.66,1.09 -7.16,-1.4 -1.3,-2.16 -0.76,-4.94 1.26,-6.46l4.23 -3.17c6.08,-4.66 4.29,-10.88 -6.79,-12.2 -13.41,-1.61 -26.43,7.8 -28.46,21.99 -2.09,14.67 8.54,27.94 23.11,29.32 -0.54,2.14 -0.42,4.41 0.43,6.44 0.11,0.25 0.31,0.45 0.56,0.56 6.28,2.62 14.31,-1.93 13.82,-8.29 0.31,-0.06 -0.11,0.18 6.11,-4.03 2.14,1.02 4.56,-1.25 3.74,-3.46l14.58 -16.62c0.38,-0.42 0.33,-1.07 -0.09,-1.45 -0.43,-0.37 -1.08,-0.33 -1.45,0.1l-14.34 16.34 -5.52 -5.52c0.46,-0.4 22.19,-19.46 23.26,-20.4 0.02,-0.02 2.08,-1.76 3.25,-0.59 1.17,1.17 -0.57,3.23 -0.58,3.25l-3.87 4.41c-0.38,0.43 -0.34,1.08 0.09,1.45 0.43,0.37 1.08,0.33 1.45,-0.09l3.87 -4.42c1.06,-1.21 2.52,-4.03 0.49,-6.05z"/>
  </g>
 </g>
</svg>
