<?xml version="1.0" encoding="UTF-8"?>
<!DOCTYPE svg PUBLIC "-//W3C//DTD SVG 1.1//EN" "http://www.w3.org/Graphics/SVG/1.1/DTD/svg11.dtd">
<!-- Creator: CorelDRAW 2017 -->
<svg xmlns="http://www.w3.org/2000/svg" xml:space="preserve" width="159px" height="36px" version="1.1" style="shape-rendering:geometricPrecision; text-rendering:geometricPrecision; image-rendering:optimizeQuality; fill-rule:evenodd; clip-rule:evenodd"
viewBox="0 0 22.09 5.05"
 xmlns:xlink="http://www.w3.org/1999/xlink">
 <defs>
  <style type="text/css">
   <![CDATA[
    .fil1 {fill:#FEFEFE}
    .fil0 {fill:#FEFEFE;fill-rule:nonzero}
   ]]>
  </style>
 </defs>
 <g id="Layer_x0020_1">
  <metadata id="CorelCorpID_0Corel-Layer"/>
  <g id="_1872695330960">
   <path class="fil0" d="M3.75 2.69c0,-0.49 0.18,-0.9 0.55,-1.25 0.36,-0.35 0.8,-0.52 1.32,-0.52 0.5,0 0.93,0.18 1.29,0.52 0.36,0.35 0.54,0.77 0.54,1.25 0,0.5 -0.17,0.93 -0.53,1.28 -0.36,0.35 -0.8,0.53 -1.32,0.53 -0.51,0 -0.95,-0.18 -1.31,-0.53 -0.36,-0.35 -0.54,-0.78 -0.54,-1.28zm3.22 0.02c0,-0.37 -0.14,-0.68 -0.4,-0.93 -0.27,-0.26 -0.6,-0.38 -0.99,-0.38 -0.37,0 -0.69,0.13 -0.95,0.38 -0.27,0.26 -0.4,0.57 -0.4,0.93 0,0.37 0.13,0.68 0.41,0.93 0.27,0.26 0.6,0.38 1,0.38 0.36,0 0.67,-0.13 0.93,-0.38 0.27,-0.26 0.4,-0.57 0.4,-0.93z"/>
   <path id="1" class="fil0" d="M10.11 1.4l-0.37 0.3c-0.1,-0.1 -0.19,-0.18 -0.27,-0.23 -0.08,-0.05 -0.2,-0.07 -0.35,-0.07 -0.16,0 -0.3,0.03 -0.4,0.11 -0.1,0.07 -0.15,0.17 -0.15,0.29 0,0.1 0.04,0.19 0.13,0.26 0.09,0.08 0.24,0.17 0.46,0.26 0.22,0.09 0.38,0.18 0.5,0.26 0.12,0.08 0.22,0.17 0.3,0.26 0.08,0.1 0.13,0.2 0.17,0.31 0.04,0.11 0.06,0.22 0.06,0.34 0,0.28 -0.1,0.52 -0.31,0.71 -0.2,0.2 -0.45,0.3 -0.73,0.3 -0.29,0 -0.53,-0.08 -0.75,-0.23 -0.22,-0.16 -0.38,-0.39 -0.5,-0.69l0.46 -0.14c0.17,0.38 0.42,0.57 0.77,0.57 0.16,0 0.3,-0.05 0.41,-0.15 0.11,-0.1 0.17,-0.22 0.17,-0.37 0,-0.09 -0.03,-0.18 -0.09,-0.28 -0.06,-0.09 -0.13,-0.16 -0.21,-0.22 -0.09,-0.06 -0.22,-0.13 -0.41,-0.21 -0.19,-0.08 -0.33,-0.15 -0.44,-0.21 -0.1,-0.07 -0.18,-0.14 -0.26,-0.23 -0.07,-0.09 -0.13,-0.18 -0.16,-0.27 -0.04,-0.08 -0.05,-0.18 -0.05,-0.28 0,-0.24 0.09,-0.45 0.29,-0.61 0.19,-0.17 0.43,-0.26 0.7,-0.26 0.18,0 0.37,0.04 0.56,0.12 0.19,0.08 0.34,0.2 0.47,0.36z"/>
   <path id="2" class="fil0" d="M10.86 1.03l0.68 0c0.38,0 0.69,0.09 0.92,0.27 0.24,0.18 0.35,0.41 0.35,0.7 0,0.29 -0.12,0.53 -0.36,0.72 -0.25,0.2 -0.63,0.29 -1.13,0.29l0 1.38 -0.46 0 0 -3.36zm0.46 0.4l0 1.18c0.35,-0.01 0.6,-0.05 0.77,-0.15 0.16,-0.09 0.24,-0.24 0.24,-0.45 0,-0.16 -0.06,-0.29 -0.18,-0.41 -0.13,-0.11 -0.4,-0.17 -0.83,-0.17z"/>
   <polygon id="3" class="fil0" points="13.42,1.03 15.28,1.03 15.28,1.49 13.88,1.49 13.88,2.32 15.28,2.32 15.28,2.78 13.88,2.78 13.88,3.93 15.28,3.93 15.28,4.39 13.42,4.39 "/>
   <path id="4" class="fil0" d="M15.89 1.03l0.73 0c0.37,0 0.66,0.09 0.89,0.27 0.23,0.18 0.34,0.41 0.34,0.69 0,0.23 -0.07,0.42 -0.22,0.6 -0.15,0.17 -0.38,0.29 -0.69,0.36l0.98 1.44 -0.53 0 -0.93 -1.38 -0.11 0 0 1.38 -0.46 0 0 -3.36zm0.46 0.41l0 1.17c0.68,0.01 1.02,-0.18 1.02,-0.59 0,-0.14 -0.04,-0.26 -0.12,-0.35 -0.08,-0.09 -0.18,-0.15 -0.32,-0.19 -0.13,-0.03 -0.32,-0.04 -0.58,-0.04z"/>
   <path id="5" class="fil0" d="M18.39 2.69c0,-0.49 0.18,-0.9 0.54,-1.25 0.37,-0.35 0.81,-0.52 1.32,-0.52 0.5,0 0.94,0.18 1.3,0.52 0.36,0.35 0.54,0.77 0.54,1.25 0,0.5 -0.18,0.93 -0.53,1.28 -0.36,0.35 -0.8,0.53 -1.32,0.53 -0.52,0 -0.95,-0.18 -1.31,-0.53 -0.36,-0.35 -0.54,-0.78 -0.54,-1.28zm3.22 0.02c0,-0.37 -0.14,-0.68 -0.41,-0.93 -0.26,-0.26 -0.59,-0.38 -0.98,-0.38 -0.37,0 -0.69,0.13 -0.96,0.38 -0.26,0.26 -0.39,0.57 -0.39,0.93 0,0.37 0.13,0.68 0.4,0.93 0.28,0.26 0.61,0.38 1,0.38 0.37,0 0.68,-0.13 0.94,-0.38 0.26,-0.26 0.4,-0.57 0.4,-0.93z"/>
   <path class="fil0" d="M0 4.44l0 -4.44 1.66 0c0.24,0 0.42,0.01 0.54,0.03 0.17,0.03 0.32,0.09 0.44,0.17 0.11,0.08 0.21,0.19 0.28,0.34 0.07,0.14 0.1,0.3 0.1,0.48 0,0.29 -0.09,0.55 -0.28,0.75 -0.19,0.21 -0.54,0.31 -1.03,0.31l-0.98 0 0 -0.41 0.98 0c0.3,0 0.52,-0.05 0.64,-0.17 0.13,-0.11 0.19,-0.27 0.19,-0.47 0,-0.15 -0.03,-0.27 -0.11,-0.38 -0.07,-0.1 -0.17,-0.17 -0.29,-0.21 -0.08,-0.02 -0.23,-0.03 -0.44,-0.03l-1.23 0 0 4.03 -0.47 0z"/>
   <path class="fil0" d="M0.71 4.44l0 -3.52 1.57 0c0.31,0 0.55,0.03 0.71,0.1 0.16,0.06 0.29,0.17 0.39,0.33 0.1,0.16 0.15,0.34 0.15,0.53 0,0.25 -0.08,0.46 -0.25,0.63 -0.16,0.17 -0.41,0.28 -0.74,0.33 0.12,0.06 0.21,0.12 0.28,0.17 0.13,0.13 0.26,0.29 0.38,0.47 0.57,0.85 0.82,1.47 2.24,1.33 -1.11,0.54 -1.88,0.12 -2.44,-0.73l-0.24 -0.37c-0.13,-0.21 -0.24,-0.37 -0.33,-0.49 -0.09,-0.11 -0.17,-0.19 -0.24,-0.23 -0.07,-0.05 -0.14,-0.08 -0.21,-0.1 -0.05,-0.01 -0.14,-0.01 -0.26,-0.01l-0.48 0 0 -0.4 0.94 0c0.21,0 0.38,-0.03 0.5,-0.07 0.12,-0.04 0.21,-0.11 0.27,-0.21 0.06,-0.1 0.1,-0.2 0.1,-0.32 0,-0.16 -0.06,-0.3 -0.18,-0.41 -0.13,-0.11 -0.32,-0.16 -0.58,-0.16l-1.11 0c0,1.04 0,2.09 0,3.13l-0.47 0z"/>
   <rect class="fil1" x="0.54" y="1.67" width="0.66" height="0.41"/>
  </g>
 </g>
</svg>
