<?xml version="1.0" encoding="UTF-8"?>
<!DOCTYPE svg PUBLIC "-//W3C//DTD SVG 1.1//EN" "http://www.w3.org/Graphics/SVG/1.1/DTD/svg11.dtd">
<!-- Creator: CorelDRAW 2017 -->
<svg xmlns="http://www.w3.org/2000/svg" xml:space="preserve" width="158px" height="36px" version="1.1" style="shape-rendering:geometricPrecision; text-rendering:geometricPrecision; image-rendering:optimizeQuality; fill-rule:evenodd; clip-rule:evenodd"
viewBox="0 0 21.77 4.98"
 xmlns:xlink="http://www.w3.org/1999/xlink">
 <defs>
  <style type="text/css">
   <![CDATA[
    .fil3 {fill:#4B4B4D}
    .fil1 {fill:#4B4B4D;fill-rule:nonzero}
    .fil0 {fill:#4B4B4D;fill-rule:nonzero}
    .fil2 {fill:#E71615;fill-rule:nonzero}
   ]]>
  </style>
 </defs>
 <g id="Layer_x0020_1">
  <metadata id="CorelCorpID_0Corel-Layer"/>
  <g id="_1872630683040">
   <path class="fil0" d="M3.69 2.65c0,-0.48 0.18,-0.89 0.54,-1.23 0.37,-0.34 0.8,-0.51 1.3,-0.51 0.5,0 0.92,0.17 1.28,0.51 0.36,0.35 0.54,0.75 0.54,1.23 0,0.5 -0.18,0.92 -0.53,1.27 -0.36,0.34 -0.79,0.51 -1.3,0.51 -0.51,0 -0.94,-0.17 -1.29,-0.52 -0.36,-0.35 -0.54,-0.77 -0.54,-1.26zm3.18 0.02c0,-0.36 -0.13,-0.67 -0.4,-0.92 -0.26,-0.25 -0.59,-0.37 -0.97,-0.37 -0.37,0 -0.68,0.12 -0.94,0.38 -0.26,0.25 -0.39,0.56 -0.39,0.91 0,0.36 0.13,0.67 0.4,0.92 0.27,0.25 0.6,0.38 0.98,0.38 0.36,0 0.67,-0.13 0.93,-0.39 0.26,-0.25 0.39,-0.56 0.39,-0.91z"/>
   <path id="1" class="fil0" d="M9.96 1.38l-0.37 0.3c-0.09,-0.11 -0.18,-0.18 -0.26,-0.23 -0.08,-0.05 -0.19,-0.07 -0.34,-0.07 -0.16,0 -0.29,0.03 -0.39,0.11 -0.11,0.07 -0.16,0.16 -0.16,0.28 0,0.1 0.05,0.19 0.14,0.26 0.08,0.08 0.23,0.17 0.45,0.26 0.21,0.09 0.38,0.17 0.49,0.25 0.12,0.08 0.22,0.17 0.3,0.26 0.07,0.1 0.13,0.2 0.17,0.31 0.03,0.1 0.05,0.21 0.05,0.33 0,0.27 -0.1,0.51 -0.3,0.7 -0.2,0.2 -0.44,0.29 -0.73,0.29 -0.27,0 -0.52,-0.07 -0.73,-0.22 -0.21,-0.16 -0.38,-0.38 -0.49,-0.69l0.45 -0.12c0.17,0.37 0.42,0.55 0.75,0.55 0.17,0 0.31,-0.04 0.41,-0.14 0.11,-0.1 0.17,-0.22 0.17,-0.37 0,-0.09 -0.03,-0.18 -0.09,-0.27 -0.05,-0.09 -0.12,-0.17 -0.21,-0.22 -0.08,-0.06 -0.22,-0.13 -0.4,-0.21 -0.19,-0.08 -0.33,-0.15 -0.43,-0.21 -0.1,-0.06 -0.19,-0.14 -0.26,-0.23 -0.07,-0.08 -0.12,-0.17 -0.16,-0.26 -0.03,-0.08 -0.05,-0.18 -0.05,-0.28 0,-0.23 0.09,-0.43 0.29,-0.6 0.19,-0.17 0.42,-0.25 0.69,-0.25 0.18,0 0.36,0.04 0.55,0.12 0.18,0.07 0.34,0.19 0.46,0.35z"/>
   <path id="2" class="fil0" d="M10.71 1.01l0.66 0c0.38,0 0.68,0.09 0.91,0.27 0.23,0.18 0.35,0.41 0.35,0.69 0,0.28 -0.12,0.52 -0.36,0.71 -0.25,0.2 -0.62,0.29 -1.11,0.28l0 1.37 -0.45 0 0 -3.32zm0.45 0.4l0 1.16c0.34,0 0.59,-0.05 0.75,-0.14 0.16,-0.1 0.25,-0.25 0.25,-0.45 0,-0.16 -0.07,-0.29 -0.19,-0.4 -0.12,-0.11 -0.39,-0.17 -0.81,-0.17z"/>
   <polygon id="3" class="fil0" points="13.23,1.01 15.06,1.01 15.06,1.47 13.68,1.47 13.68,2.29 15.06,2.29 15.06,2.74 13.68,2.74 13.68,3.87 15.06,3.87 15.06,4.33 13.23,4.33 "/>
   <path id="4" class="fil0" d="M15.67 1.01l0.71 0c0.36,0 0.65,0.09 0.88,0.27 0.22,0.18 0.33,0.41 0.33,0.68 0,0.22 -0.07,0.42 -0.21,0.59 -0.15,0.17 -0.37,0.29 -0.68,0.36l0.96 1.42 -0.52 0 -0.92 -1.37 -0.1 0 0 1.37 -0.45 0 0 -3.32zm0.45 0.4l0 1.16c0.67,0.01 1,-0.18 1,-0.58 0,-0.14 -0.04,-0.26 -0.12,-0.35 -0.08,-0.08 -0.18,-0.15 -0.31,-0.18 -0.13,-0.03 -0.32,-0.05 -0.57,-0.05z"/>
   <path id="5" class="fil0" d="M18.12 2.65c0,-0.48 0.18,-0.89 0.54,-1.23 0.36,-0.34 0.8,-0.51 1.3,-0.51 0.5,0 0.92,0.17 1.28,0.51 0.36,0.35 0.53,0.75 0.53,1.23 0,0.5 -0.17,0.92 -0.53,1.27 -0.35,0.34 -0.78,0.51 -1.29,0.51 -0.51,0 -0.94,-0.17 -1.3,-0.52 -0.35,-0.35 -0.53,-0.77 -0.53,-1.26zm3.17 0.02c0,-0.36 -0.13,-0.67 -0.39,-0.92 -0.26,-0.25 -0.59,-0.37 -0.97,-0.37 -0.37,0 -0.68,0.12 -0.94,0.38 -0.27,0.25 -0.4,0.56 -0.4,0.91 0,0.36 0.14,0.67 0.41,0.92 0.26,0.25 0.59,0.38 0.98,0.38 0.36,0 0.67,-0.13 0.93,-0.39 0.25,-0.25 0.38,-0.56 0.38,-0.91z"/>
   <path class="fil1" d="M0 4.38l0 -4.38 1.64 0c0.23,0 0.41,0.01 0.53,0.03 0.17,0.03 0.31,0.09 0.43,0.16 0.11,0.08 0.21,0.2 0.28,0.34 0.07,0.14 0.1,0.3 0.1,0.47 0,0.3 -0.09,0.54 -0.28,0.75 -0.19,0.2 -0.53,0.3 -1.02,0.3l-0.96 0 0 -0.4 0.97 0c0.29,0 0.5,-0.06 0.63,-0.17 0.12,-0.11 0.19,-0.26 0.19,-0.46 0,-0.15 -0.04,-0.27 -0.11,-0.38 -0.08,-0.1 -0.17,-0.17 -0.29,-0.2 -0.08,-0.02 -0.22,-0.03 -0.43,-0.03l-1.22 0 0 3.97 -0.46 0z"/>
   <path class="fil2" d="M0.7 4.38l0 -3.47 1.54 0c0.31,0 0.55,0.03 0.71,0.09 0.16,0.06 0.29,0.17 0.38,0.33 0.1,0.16 0.15,0.33 0.15,0.52 0,0.25 -0.08,0.46 -0.24,0.63 -0.16,0.17 -0.41,0.27 -0.74,0.32 0.12,0.06 0.21,0.11 0.28,0.17 0.13,0.12 0.25,0.28 0.38,0.46 0.56,0.84 0.81,1.44 2.2,1.32 -1.09,0.52 -1.86,0.11 -2.41,-0.73l-0.23 -0.36c-0.13,-0.21 -0.24,-0.37 -0.33,-0.48 -0.08,-0.11 -0.16,-0.19 -0.23,-0.23 -0.07,-0.05 -0.14,-0.08 -0.21,-0.1 -0.05,-0.01 -0.14,-0.01 -0.25,-0.01l-0.47 0 0 -0.4 0.92 0c0.21,0 0.37,-0.02 0.49,-0.07 0.12,-0.04 0.21,-0.11 0.27,-0.2 0.06,-0.1 0.09,-0.2 0.09,-0.32 0,-0.16 -0.06,-0.29 -0.18,-0.4 -0.11,-0.11 -0.3,-0.16 -0.56,-0.16l-1.1 0c0,1.03 0,2.06 0,3.09l-0.46 0z"/>
   <rect class="fil3" x="0.53" y="1.65" width="0.65" height="0.41"/>
  </g>
 </g>
</svg>
