<?xml version="1.0" encoding="UTF-8"?>
<!DOCTYPE svg PUBLIC "-//W3C//DTD SVG 1.1//EN" "http://www.w3.org/Graphics/SVG/1.1/DTD/svg11.dtd">
<!-- Creator: CorelDRAW 2017 -->
<svg xmlns="http://www.w3.org/2000/svg" xml:space="preserve" width="60px" height="60px" version="1.1" style="shape-rendering:geometricPrecision; text-rendering:geometricPrecision; image-rendering:optimizeQuality; fill-rule:evenodd; clip-rule:evenodd"
viewBox="0 0 4.34 4.34"
 xmlns:xlink="http://www.w3.org/1999/xlink">
 <defs>
  <style type="text/css">
   <![CDATA[
    .fil1 {fill:#FEFEFE;fill-rule:nonzero}
    .fil0 {fill:#C83538;fill-rule:nonzero}
   ]]>
  </style>
 </defs>
 <g id="Layer_x0020_1">
  <metadata id="CorelCorpID_0Corel-Layer"/>
  <g id="_1872695329136">
   <path class="fil0" d="M3.98 0.19c-0.1,0 -0.18,0.08 -0.18,0.17 0,0.1 0.08,0.18 0.18,0.18 0.1,0 0.18,-0.08 0.18,-0.18 0,-0.09 -0.08,-0.17 -0.18,-0.17zm0 0.54c-0.2,0 -0.37,-0.16 -0.37,-0.37 0,-0.2 0.17,-0.36 0.37,-0.36 0.2,0 0.36,0.16 0.36,0.36 0,0.21 -0.16,0.37 -0.36,0.37z"/>
   <path class="fil0" d="M0.36 2.27c-0.09,0 -0.17,0.07 -0.17,0.17 0,0.1 0.08,0.18 0.17,0.18 0.1,0 0.18,-0.08 0.18,-0.18 0,-0.1 -0.08,-0.17 -0.18,-0.17zm0 0.54c-0.2,0 -0.36,-0.17 -0.36,-0.37 0,-0.2 0.16,-0.36 0.36,-0.36 0.21,0 0.37,0.16 0.37,0.36 0,0.2 -0.16,0.37 -0.37,0.37z"/>
   <path class="fil0" d="M1.45 1.18c-0.1,0 -0.18,0.08 -0.18,0.18 0,0.1 0.08,0.18 0.18,0.18 0.1,0 0.18,-0.08 0.18,-0.18 0,-0.1 -0.08,-0.18 -0.18,-0.18zm0 0.54c-0.2,0 -0.37,-0.16 -0.37,-0.36 0,-0.2 0.17,-0.37 0.37,-0.37 0.2,0 0.36,0.17 0.36,0.37 0,0.2 -0.16,0.36 -0.36,0.36z"/>
   <path class="fil0" d="M2.22 1.95c-0.1,0 -0.18,0.08 -0.18,0.18 0,0.1 0.08,0.17 0.18,0.17 0.09,0 0.17,-0.07 0.17,-0.17 0,-0.1 -0.08,-0.18 -0.17,-0.18zm0 0.54c-0.21,0 -0.37,-0.16 -0.37,-0.36 0,-0.2 0.16,-0.37 0.37,-0.37 0.2,0 0.36,0.17 0.36,0.37 0,0.2 -0.16,0.36 -0.36,0.36z"/>
   <polygon class="fil0" points="3.72,0.49 3.85,0.62 2.48,2 2.34,1.87 "/>
   <polygon class="fil0" points="1.71,1.48 2.09,1.87 1.96,2 1.57,1.62 "/>
   <polygon class="fil0" points="1.19,1.48 1.32,1.62 0.62,2.32 0.49,2.18 "/>
   <polygon class="fil1" points="0,4.34 4.34,4.34 4.34,4.16 0,4.16 "/>
   <polygon class="fil1" points="3.89,4.25 4.07,4.25 4.07,1.54 3.89,1.54 "/>
   <polygon class="fil1" points="2.17,4.25 2.36,4.25 2.36,2.9 2.17,2.9 "/>
   <polygon class="fil1" points="0.27,4.25 0.46,4.25 0.46,3.17 0.27,3.17 "/>
   <polygon class="fil1" points="1.35,4.25 1.54,4.25 1.54,2.35 1.35,2.35 "/>
  </g>
 </g>
</svg>
