<?xml version="1.0" encoding="UTF-8"?>
<!DOCTYPE svg PUBLIC "-//W3C//DTD SVG 1.1//EN" "http://www.w3.org/Graphics/SVG/1.1/DTD/svg11.dtd">
<!-- Creator: CorelDRAW 2017 -->
<svg xmlns="http://www.w3.org/2000/svg" xml:space="preserve" width="75px" height="11px" version="1.1" style="shape-rendering:geometricPrecision; text-rendering:geometricPrecision; image-rendering:optimizeQuality; fill-rule:evenodd; clip-rule:evenodd"
viewBox="0 0 74.19 10.83"
 xmlns:xlink="http://www.w3.org/1999/xlink">
 <defs>
  <style type="text/css">
   <![CDATA[
    .fil0 {fill:#4B4B4D;fill-rule:nonzero}
   ]]>
  </style>
 </defs>
 <g id="Layer_x0020_1">
  <metadata id="CorelCorpID_0Corel-Layer"/>
  <g id="_2685448947344">
   <path class="fil0" d="M71.59 10.48c-2.04,0.78 -4.24,0.13 -6.21,-0.55 -0.04,-0.02 -0.03,-0.08 0.02,-0.07 1.85,0.53 3.89,1.13 5.79,0.49 1.57,-0.52 2.87,-1.87 2.67,-3.62 -0.21,-1.75 -1.66,-3.01 -3.25,-3.56 -1.77,-0.61 -3.7,-0.53 -5.54,-0.31 -7.76,0.96 -15.02,5.62 -23.03,4.5 -3.35,-0.47 -6.91,-2.08 -8.69,-5.11 -0.01,-0.01 0.01,-0.03 0.02,-0.01 2.1,2.85 5.35,4.46 8.83,4.87 4.11,0.5 8.24,-0.68 12.11,-1.93 3.97,-1.28 7.94,-2.77 12.14,-3.05 1.8,-0.12 3.72,-0.01 5.33,0.91 1.28,0.74 2.26,2.2 2.4,3.69 0.16,1.74 -1.02,3.15 -2.59,3.75z"/>
   <path class="fil0" d="M66.95 0.75c-2.3,-0.6 -4.63,-0.61 -6.96,-0.19 -2.26,0.41 -4.44,1.17 -6.61,1.93 -3.89,1.35 -7.92,2.72 -12.09,1.98 -1.99,-0.36 -3.88,-1.19 -5.32,-2.63 -0.01,0 0,-0.01 0.01,-0.01 2.91,2.75 7.19,3.03 10.94,2.31 4.42,-0.86 8.49,-3 12.93,-3.81 2.35,-0.43 4.86,-0.53 7.14,0.29 0.08,0.03 0.05,0.16 -0.04,0.13z"/>
   <path class="fil0" d="M2.61 10.48c2.04,0.78 4.23,0.13 6.2,-0.55 0.05,-0.02 0.03,-0.08 -0.02,-0.07 -1.85,0.53 -3.88,1.13 -5.78,0.49 -1.57,-0.52 -2.88,-1.87 -2.67,-3.62 0.2,-1.75 1.65,-3.01 3.24,-3.56 1.78,-0.61 3.7,-0.53 5.54,-0.31 7.76,0.96 15.03,5.62 23.03,4.5 3.36,-0.47 6.91,-2.08 8.7,-5.11 0.01,-0.01 -0.02,-0.03 -0.03,-0.01 -2.1,2.85 -5.34,4.46 -8.83,4.87 -4.11,0.5 -8.23,-0.68 -12.11,-1.93 -3.97,-1.28 -7.93,-2.77 -12.13,-3.05 -1.81,-0.12 -3.73,-0.01 -5.33,0.91 -1.29,0.74 -2.26,2.2 -2.4,3.69 -0.17,1.74 1.01,3.15 2.59,3.75z"/>
   <path class="fil0" d="M7.25 0.75c2.29,-0.6 4.62,-0.61 6.95,-0.19 2.27,0.41 4.44,1.17 6.61,1.93 3.89,1.35 7.93,2.72 12.09,1.98 1.99,-0.36 3.88,-1.19 5.33,-2.63 0,0 -0.01,-0.01 -0.01,-0.01 -2.91,2.75 -7.19,3.03 -10.94,2.31 -4.43,-0.86 -8.49,-3 -12.94,-3.81 -2.34,-0.43 -4.85,-0.53 -7.13,0.29 -0.09,0.03 -0.05,0.16 0.04,0.13z"/>
  </g>
 </g>
</svg>
