<?xml version="1.0" encoding="UTF-8"?>
<!DOCTYPE svg PUBLIC "-//W3C//DTD SVG 1.1//EN" "http://www.w3.org/Graphics/SVG/1.1/DTD/svg11.dtd">
<!-- Creator: CorelDRAW 2017 -->
<svg xmlns="http://www.w3.org/2000/svg" xml:space="preserve" width="60px" height="60px" version="1.1" style="shape-rendering:geometricPrecision; text-rendering:geometricPrecision; image-rendering:optimizeQuality; fill-rule:evenodd; clip-rule:evenodd"
viewBox="0 0 59.19 59.2"
 xmlns:xlink="http://www.w3.org/1999/xlink">
 <defs>
  <style type="text/css">
   <![CDATA[
    .fil0 {fill:#FEFEFE;fill-rule:nonzero}
    .fil1 {fill:#C83538;fill-rule:nonzero}
   ]]>
  </style>
 </defs>
 <g id="Layer_x0020_1">
  <metadata id="CorelCorpID_0Corel-Layer"/>
  <g id="_1872695329872">
   <path class="fil0" d="M36.97 36.98c-6.38,6.38 -16.75,6.38 -23.13,0 -3.09,-3.09 -4.79,-7.2 -4.79,-11.56 0,-4.37 1.7,-8.48 4.79,-11.57 3.19,-3.19 7.38,-4.78 11.56,-4.78 4.19,0 8.38,1.59 11.57,4.78 6.38,6.38 6.38,16.75 0,23.13zm1.32 -24.45c-7.1,-7.11 -18.67,-7.11 -25.78,0 -3.44,3.44 -5.34,8.02 -5.34,12.89 0,4.87 1.9,9.44 5.34,12.89 3.56,3.55 8.23,5.33 12.89,5.33 4.67,0 9.34,-1.78 12.89,-5.33 7.11,-7.11 7.11,-18.68 0,-25.78z"/>
   <path class="fil0" d="M45.2 25.42c0,0.51 0.42,0.93 0.94,0.93 0.51,0 0.93,-0.42 0.93,-0.93 0,-2.91 -0.56,-5.72 -1.66,-8.36 -0.2,-0.48 -0.75,-0.7 -1.23,-0.5 -0.47,0.2 -0.7,0.75 -0.5,1.22 1.01,2.42 1.52,4.98 1.52,7.64z"/>
   <path class="fil0" d="M25.4 5.62c5.29,0 10.26,2.06 14,5.8 0.79,0.79 1.52,1.65 2.16,2.55 0.18,0.26 0.47,0.39 0.76,0.39 0.19,0 0.38,-0.05 0.55,-0.17 0.42,-0.3 0.52,-0.89 0.22,-1.31 -0.71,-0.98 -1.5,-1.92 -2.36,-2.79 -4.1,-4.09 -9.54,-6.34 -15.33,-6.34 -0.51,0 -0.93,0.42 -0.93,0.93 0,0.52 0.42,0.94 0.93,0.94z"/>
   <path class="fil0" d="M54.02 56.94l-5.74 -5.74 1.45 -1.45c0,0 0,0 0,0 0,0 0,0 0,0l1.46 -1.46 5.74 5.74 -2.91 2.91zm-45.26 -14.88c-9.18,-9.18 -9.18,-24.11 0,-33.29 4.44,-4.45 10.36,-6.9 16.64,-6.9 6.29,0 12.2,2.45 16.65,6.9 4.45,4.45 6.9,10.36 6.9,16.65 0,6.28 -2.45,12.2 -6.9,16.64 -4.45,4.45 -10.36,6.9 -16.65,6.9 -6.28,0 -12.2,-2.45 -16.64,-6.9zm50.16 11.31l-7.07 -7.07c-0.36,-0.36 -0.96,-0.36 -1.32,0l-1.46 1.46 -5.05 -5.05c4.39,-4.71 6.8,-10.82 6.8,-17.29 0,-6.79 -2.64,-13.18 -7.44,-17.98 -4.8,-4.8 -11.19,-7.44 -17.98,-7.44 -6.79,0 -13.17,2.64 -17.97,7.44 -4.95,4.96 -7.43,11.47 -7.43,17.98 0,6.5 2.48,13.01 7.43,17.97 4.8,4.8 11.18,7.44 17.97,7.44 6.48,0 12.58,-2.41 17.3,-6.79l5.05 5.04 -1.46 1.46c-0.37,0.37 -0.37,0.96 0,1.33l7.07 7.06c0.18,0.18 0.42,0.27 0.66,0.27 0.24,0 0.48,-0.09 0.66,-0.27l4.24 -4.24c0.18,-0.18 0.27,-0.42 0.27,-0.66l0 0c0,-0.24 -0.09,-0.48 -0.27,-0.66z"/>
   <path class="fil1" d="M17.35 19.86l0 10.61 -2.62 0 0 -10.61 2.62 0zm9 1.5l0 9.11 -2.63 0 0 -9.11 2.63 0zm8.99 -4.5l0 13.61 -2.62 0 0 -13.61 2.62 0zm2.93 13.61l-1.06 0 0 -14.55c0,-0.51 -0.42,-0.93 -0.93,-0.93l-4.5 0c-0.52,0 -0.94,0.42 -0.94,0.93l0 14.55 -2.62 0 0 -10.05c0,-0.52 -0.42,-0.94 -0.94,-0.94l-4.49 0c-0.52,0 -0.94,0.42 -0.94,0.94l0 10.05 -2.62 0 0 -11.55c0,-0.52 -0.42,-0.94 -0.94,-0.94l-4.5 0c-0.51,0 -0.93,0.42 -0.93,0.94l0 11.55 -1.06 0c-0.52,0 -0.94,0.42 -0.94,0.94 0,0.52 0.42,0.94 0.94,0.94l26.47 0c0.52,0 0.94,-0.42 0.94,-0.94 0,-0.52 -0.42,-0.94 -0.94,-0.94z"/>
  </g>
 </g>
</svg>
