<?xml version="1.0" encoding="UTF-8"?>
<!DOCTYPE svg PUBLIC "-//W3C//DTD SVG 1.1//EN" "http://www.w3.org/Graphics/SVG/1.1/DTD/svg11.dtd">
<!-- Creator: CorelDRAW 2017 -->
<svg xmlns="http://www.w3.org/2000/svg" xml:space="preserve" width="60px" height="60px" version="1.1" style="shape-rendering:geometricPrecision; text-rendering:geometricPrecision; image-rendering:optimizeQuality; fill-rule:evenodd; clip-rule:evenodd"
viewBox="0 0 4.34 4.34"
 xmlns:xlink="http://www.w3.org/1999/xlink">
 <defs>
  <style type="text/css">
   <![CDATA[
    .fil0 {fill:#FEFEFE;fill-rule:nonzero}
    .fil1 {fill:#C83538;fill-rule:nonzero}
   ]]>
  </style>
 </defs>
 <g id="Layer_x0020_1">
  <metadata id="CorelCorpID_0Corel-Layer"/>
  <g id="_1872695295824">
   <polygon class="fil0" points="0.91,4.06 1.61,4.06 1.61,3.92 0.91,3.92 "/>
   <path class="fil0" d="M3.64 3.08c0.31,0 0.56,0.25 0.56,0.56 0,0.31 -0.25,0.56 -0.56,0.56 -0.31,0 -0.56,-0.25 -0.56,-0.56 0,-0.31 0.25,-0.56 0.56,-0.56zm-1.82 -0.98c-0.01,-0.11 -0.03,-0.2 -0.06,-0.29 0.09,-0.04 0.16,-0.08 0.2,-0.11 0.08,0.12 0.13,0.25 0.14,0.4l-0.28 0zm0.14 0.54c-0.04,-0.03 -0.11,-0.07 -0.2,-0.1 0.03,-0.09 0.05,-0.19 0.06,-0.3l0.28 0c-0.01,0.15 -0.06,0.28 -0.14,0.4zm-0.26 0.03c0.08,0.03 0.14,0.06 0.17,0.08 -0.1,0.11 -0.24,0.19 -0.39,0.23 0.07,-0.08 0.16,-0.18 0.22,-0.31zm-0.88 0c0.06,0.13 0.15,0.23 0.22,0.31 -0.15,-0.04 -0.28,-0.12 -0.39,-0.23 0.04,-0.02 0.09,-0.05 0.17,-0.08zm-0.12 -0.43c0.01,0.11 0.03,0.21 0.06,0.3 -0.09,0.03 -0.16,0.07 -0.2,0.1 -0.07,-0.12 -0.12,-0.25 -0.14,-0.4l0.28 0zm-0.14 -0.54c0.04,0.03 0.11,0.07 0.2,0.11 -0.03,0.09 -0.05,0.18 -0.06,0.29l-0.28 0c0.02,-0.15 0.07,-0.28 0.14,-0.4zm0.26 -0.02c-0.08,-0.03 -0.13,-0.06 -0.17,-0.09 0.11,-0.11 0.24,-0.19 0.39,-0.23 -0.07,0.08 -0.16,0.18 -0.22,0.32zm0.66 -0.32c0.15,0.04 0.29,0.12 0.39,0.23 -0.03,0.03 -0.09,0.06 -0.17,0.09 -0.06,-0.14 -0.15,-0.24 -0.22,-0.32zm-0.15 0.39l0 -0.34c0.07,0.07 0.16,0.17 0.24,0.31 -0.07,0.01 -0.15,0.03 -0.24,0.03zm0 0.35l0 -0.21c0.11,-0.01 0.21,-0.02 0.29,-0.04 0.03,0.08 0.05,0.16 0.06,0.25l-0.35 0zm0 0.35l0 -0.21 0.35 0c-0.01,0.09 -0.03,0.18 -0.06,0.25 -0.08,-0.02 -0.18,-0.03 -0.29,-0.04zm0 0.48l0 -0.34c0.09,0.01 0.17,0.02 0.24,0.04 -0.08,0.13 -0.17,0.24 -0.24,0.3zm-0.14 -0.34l0 0.34c-0.07,-0.06 -0.16,-0.17 -0.23,-0.3 0.06,-0.02 0.14,-0.03 0.23,-0.04zm0 -0.35l0 0.21c-0.11,0.01 -0.21,0.02 -0.29,0.04 -0.03,-0.07 -0.05,-0.16 -0.06,-0.25l0.35 0zm0 -0.35l0 0.21 -0.35 0c0.01,-0.09 0.03,-0.17 0.06,-0.25 0.08,0.02 0.18,0.03 0.29,0.04zm0 -0.48l0 0.34c-0.09,0 -0.17,-0.02 -0.23,-0.03 0.07,-0.14 0.16,-0.24 0.23,-0.31zm1.19 2.23l-2.24 0 0 -3.08 2.24 0 0 1.54 -0.14 0c-0.04,-0.51 -0.46,-0.91 -0.98,-0.91 -0.54,0 -0.98,0.44 -0.98,0.98 0,0.54 0.44,0.98 0.98,0.98 0.52,0 0.94,-0.4 0.98,-0.91l0.14 0 0 1.4zm-0.21 0.56l-1.82 0c-0.12,0 -0.21,-0.09 -0.21,-0.21l0 -0.21 2.24 0 0 0.21c0,0.12 -0.09,0.21 -0.21,0.21zm-1.82 -4.06l1.82 0c0.12,0 0.21,0.09 0.21,0.21l0 0.07 -2.24 0 0 -0.07c0,-0.12 0.09,-0.21 0.21,-0.21zm3.29 0c0.31,0 0.56,0.25 0.56,0.56 0,0.31 -0.25,0.56 -0.56,0.56 -0.31,0 -0.56,-0.25 -0.56,-0.56 0,-0.31 0.25,-0.56 0.56,-0.56zm0 1.47c0.31,0 0.56,0.25 0.56,0.56 0,0.31 -0.25,0.56 -0.56,0.56 -0.31,0 -0.56,-0.25 -0.56,-0.56 0,-0.31 0.25,-0.56 0.56,-0.56zm-0.84 0.63l0.15 0c0.03,0.36 0.33,0.63 0.69,0.63 0.39,0 0.7,-0.31 0.7,-0.7 0,-0.38 -0.31,-0.7 -0.7,-0.7 -0.36,0 -0.66,0.28 -0.69,0.63l-0.15 0 0 -1.33 0.15 0c0.03,0.35 0.33,0.63 0.69,0.63 0.39,0 0.7,-0.31 0.7,-0.7 0,-0.39 -0.31,-0.7 -0.7,-0.7 -0.36,0 -0.66,0.28 -0.69,0.63l-0.29 0 0 1.47 -0.14 0 0 -1.75c0,-0.19 -0.15,-0.35 -0.35,-0.35l-1.82 0c-0.19,0 -0.35,0.16 -0.35,0.35l0 3.64c0,0.2 0.16,0.35 0.35,0.35l1.82 0c0.2,0 0.35,-0.15 0.35,-0.35l0 -1.75 0.14 0 0 1.47 0.29 0c0.03,0.36 0.33,0.63 0.69,0.63 0.39,0 0.7,-0.31 0.7,-0.7 0,-0.38 -0.31,-0.7 -0.7,-0.7 -0.36,0 -0.66,0.28 -0.69,0.63l-0.15 0 0 -1.33z"/>
   <polygon class="fil1" points="3.57,1.12 3.71,1.12 3.71,0.77 3.92,0.77 3.92,0.63 3.71,0.63 3.71,0.42 3.92,0.42 3.92,0.28 3.57,0.28 3.57,0.63 3.36,0.63 3.36,0.77 3.57,0.77 "/>
   <polygon class="fil1" points="3.57,4.06 3.92,4.06 3.92,3.92 3.71,3.92 3.71,3.5 3.85,3.5 3.85,3.36 3.71,3.36 3.71,3.22 3.57,3.22 3.57,3.36 3.43,3.36 3.43,3.5 3.57,3.5 "/>
   <polygon class="fil1" points="3.29,2.52 3.43,2.52 3.43,2.03 3.29,2.03 "/>
   <polygon class="fil1" points="3.29,1.89 3.43,1.89 3.43,1.75 3.29,1.75 "/>
   <path class="fil1" d="M3.71 2.28c0,-0.06 0.05,-0.11 0.11,-0.11 0.06,0 0.1,0.05 0.1,0.11l0 0.24 0.14 0 0 -0.24c0,-0.14 -0.11,-0.25 -0.24,-0.25 -0.04,0 -0.08,0.01 -0.11,0.03l0 -0.03 -0.14 0 0 0.49 0.14 0 0 -0.24z"/>
  </g>
 </g>
</svg>
