<?xml version="1.0" encoding="UTF-8"?>
<!DOCTYPE svg PUBLIC "-//W3C//DTD SVG 1.1//EN" "http://www.w3.org/Graphics/SVG/1.1/DTD/svg11.dtd">
<!-- Creator: CorelDRAW 2017 -->
<svg xmlns="http://www.w3.org/2000/svg" xml:space="preserve" width="60px" height="60px" version="1.1" style="shape-rendering:geometricPrecision; text-rendering:geometricPrecision; image-rendering:optimizeQuality; fill-rule:evenodd; clip-rule:evenodd"
viewBox="0 0 5.09 5.09"
 xmlns:xlink="http://www.w3.org/1999/xlink">
 <defs>
  <style type="text/css">
   <![CDATA[
    .fil0 {fill:#FEFEFE;fill-rule:nonzero}
    .fil1 {fill:#C83538;fill-rule:nonzero}
   ]]>
  </style>
 </defs>
 <g id="Layer_x0020_1">
  <metadata id="CorelCorpID_0Corel-Layer"/>
  <g id="_1872695272528">
   <path class="fil0" d="M5.01 0l-4.93 0c-0.05,0 -0.08,0.03 -0.08,0.09l0 0.93c0,0.05 0.03,0.08 0.08,0.08l4.93 0c0.05,0 0.08,-0.03 0.08,-0.08l0 -0.93c0,-0.06 -0.03,-0.09 -0.08,-0.09zm-0.09 0.93l-4.75 0 0 -0.76 4.75 0 0 0.76z"/>
   <polygon class="fil0" points="0.42,0.51 0.93,0.51 0.93,0.34 0.42,0.34 "/>
   <polygon class="fil0" points="0.42,0.76 0.93,0.76 0.93,0.59 0.42,0.59 "/>
   <path class="fil1" d="M0.08 3.31l2.8 0c0.06,0 0.09,-0.04 0.09,-0.09l0 -1.69c0,-0.05 -0.03,-0.09 -0.09,-0.09l-2.8 0c-0.05,0 -0.08,0.04 -0.08,0.09l0 1.69c0,0.05 0.03,0.09 0.08,0.09zm2.12 -0.66l0.6 -0.31 0 0.72 -0.6 -0.41zm0.42 0.49l-2.26 0 1.17 -0.75 1.09 0.75zm0.18 -1.53l0 0.55 -0.76 0.38 -0.47 -0.33c-0.03,-0.01 -0.07,-0.01 -0.09,0l-1.31 0.85 0 -1.45 2.63 0z"/>
   <path class="fil1" d="M0.72 2.38c0.16,0 0.3,-0.14 0.3,-0.3 0,-0.16 -0.14,-0.3 -0.3,-0.3 -0.16,0 -0.3,0.14 -0.3,0.3 0,0.16 0.14,0.3 0.3,0.3zm0 -0.43c0.07,0 0.13,0.06 0.13,0.13 0,0.07 -0.06,0.13 -0.13,0.13 -0.07,0 -0.13,-0.06 -0.13,-0.13 0,-0.07 0.06,-0.13 0.13,-0.13z"/>
   <polygon class="fil0" points="3.22,1.61 4.5,1.61 4.5,1.44 3.22,1.44 "/>
   <polygon class="fil0" points="3.22,2.04 5.09,2.04 5.09,1.87 3.22,1.87 "/>
   <polygon class="fil0" points="3.22,2.46 5.09,2.46 5.09,2.29 3.22,2.29 "/>
   <polygon class="fil0" points="3.22,2.88 5.09,2.88 5.09,2.72 3.22,2.72 "/>
   <polygon class="fil0" points="3.22,3.31 5.09,3.31 5.09,3.14 3.22,3.14 "/>
   <path class="fil0" d="M1.95 3.65l-1.87 0c-0.05,0 -0.08,0.03 -0.08,0.08l0 1.28c0,0.05 0.03,0.08 0.08,0.08l1.87 0c0.05,0 0.09,-0.03 0.09,-0.08l0 -1.28c0,-0.05 -0.04,-0.08 -0.09,-0.08zm-0.08 1.27l-1.7 0 0 -1.1 1.7 0 0 1.1z"/>
   <path class="fil0" d="M5.01 3.65l-2.63 0c-0.06,0 -0.09,0.03 -0.09,0.08l0 1.28c0,0.05 0.03,0.08 0.09,0.08l2.63 0c0.05,0 0.08,-0.03 0.08,-0.08l0 -1.28c0,-0.05 -0.03,-0.08 -0.08,-0.08zm-0.94 0.17l0 1.1 -0.68 0 0 -1.1 0.68 0zm-1.61 0l0.76 0 0 1.1 -0.76 0 0 -1.1zm2.46 1.1l-0.68 0 0 -1.1 0.68 0 0 1.1z"/>
   <polygon class="fil0" points="0.85,4.41 1.19,4.41 1.19,4.24 0.85,4.24 "/>
   <polygon class="fil0" points="1.36,4.41 1.7,4.41 1.7,4.24 1.36,4.24 "/>
   <polygon class="fil0" points="0.34,4.41 0.68,4.41 0.68,4.24 0.34,4.24 "/>
  </g>
 </g>
</svg>
