<?xml version="1.0" encoding="UTF-8"?>
<!DOCTYPE svg PUBLIC "-//W3C//DTD SVG 1.1//EN" "http://www.w3.org/Graphics/SVG/1.1/DTD/svg11.dtd">
<!-- Creator: CorelDRAW 2017 -->
<svg xmlns="http://www.w3.org/2000/svg" xml:space="preserve" width="26px" height="29px" version="1.1" style="shape-rendering:geometricPrecision; text-rendering:geometricPrecision; image-rendering:optimizeQuality; fill-rule:evenodd; clip-rule:evenodd"
viewBox="0 0 1.26 1.39"
 xmlns:xlink="http://www.w3.org/1999/xlink">
 <defs>
  <style type="text/css">
   <![CDATA[
    .fil1 {fill:#848688}
    .fil0 {fill:#C83538}
   ]]>
  </style>
 </defs>
 <g id="Layer_x0020_1">
  <metadata id="CorelCorpID_0Corel-Layer"/>
  <g id="_1872646973792">
   <g>
    <path class="fil0" d="M0.93 0.88l-0.01 -0.02c-0.05,-0.2 -0.13,-0.47 -0.26,-0.58 -0.2,-0.17 -0.39,-0.2 -0.66,-0.16 -0.03,0.25 0.12,0.41 0.34,0.5 0.21,0.08 0.48,0.14 0.58,0.28l0.01 -0.02zm-0.1 -0.13c-0.02,-0.06 -0.04,-0.13 -0.06,-0.19l0 -0.01c-0.04,-0.1 -0.09,-0.18 -0.14,-0.23 -0.1,-0.08 -0.19,-0.12 -0.28,-0.15 -0.09,-0.02 -0.18,-0.02 -0.29,0 -0.01,0.08 0.01,0.16 0.05,0.22 0.06,0.07 0.14,0.13 0.25,0.17 0.05,0.02 0.1,0.04 0.15,0.05 0.11,0.04 0.23,0.09 0.32,0.14z"/>
   </g>
   <g>
    <path class="fil1" d="M0.92 0.86l0.01 0.02c0.25,-0.06 0.48,-0.68 0.21,-0.86 -0.08,-0.05 -0.15,0 -0.21,0.05 -0.25,0.22 -0.01,0.43 -0.01,0.79zm0.06 -0.06c0.03,-0.03 0.07,-0.07 0.11,-0.12 0.04,-0.07 0.08,-0.16 0.1,-0.24l0 0c0.02,-0.08 0.02,-0.17 0,-0.24 -0.01,-0.05 -0.04,-0.1 -0.08,-0.13 -0.03,-0.01 -0.05,-0.02 -0.07,-0.01 -0.02,0.01 -0.05,0.03 -0.07,0.06l-0.01 0c-0.12,0.11 -0.09,0.23 -0.05,0.39l0 0c0.03,0.08 0.06,0.18 0.07,0.29z"/>
   </g>
   <g>
    <path class="fil1" d="M0.51 1.33c0.08,-0.01 0.15,-0.04 0.2,-0.09 0.05,-0.03 0.09,-0.08 0.11,-0.13 0.03,-0.04 0.04,-0.09 0.04,-0.12 0,-0.02 -0.01,-0.03 -0.01,-0.04 -0.02,-0.02 -0.05,-0.06 -0.09,-0.08 -0.02,-0.02 -0.04,-0.03 -0.05,-0.04 -0.05,0.04 -0.11,0.13 -0.15,0.24 -0.03,0.08 -0.05,0.18 -0.05,0.26zm-0.05 0.06c0.36,0 0.52,-0.37 0.43,-0.48 -0.03,-0.04 -0.12,-0.12 -0.19,-0.14 -0.11,0.06 -0.28,0.4 -0.24,0.62z"/>
   </g>
  </g>
 </g>
</svg>
