<?xml version="1.0" encoding="UTF-8"?>
<!DOCTYPE svg PUBLIC "-//W3C//DTD SVG 1.1//EN" "http://www.w3.org/Graphics/SVG/1.1/DTD/svg11.dtd">
<!-- Creator: CorelDRAW 2017 -->
<svg xmlns="http://www.w3.org/2000/svg" xml:space="preserve" width="21px" height="21px" version="1.1" style="shape-rendering:geometricPrecision; text-rendering:geometricPrecision; image-rendering:optimizeQuality; fill-rule:evenodd; clip-rule:evenodd"
viewBox="0 0 0.59 0.58"
 xmlns:xlink="http://www.w3.org/1999/xlink">
 <defs>
  <style type="text/css">
   <![CDATA[
    .fil0 {fill:#BDBFC1}
    .fil1 {fill:#C83538;fill-rule:nonzero}
   ]]>
  </style>
 </defs>
 <g id="Layer_x0020_1">
  <metadata id="CorelCorpID_0Corel-Layer"/>
  <g id="_2163625329296">
   <rect class="fil0" width="0.59" height="0.58"/>
   <path class="fil1" d="M0.57 0l0.01 0.02c-0.06,0.05 -0.12,0.12 -0.2,0.22 -0.07,0.1 -0.13,0.19 -0.17,0.28l-0.03 0.02c-0.02,0.02 -0.04,0.03 -0.05,0.04 0,-0.01 -0.01,-0.03 -0.02,-0.07l-0.01 -0.02c-0.02,-0.05 -0.04,-0.08 -0.05,-0.1 -0.02,-0.02 -0.03,-0.03 -0.05,-0.04 0.03,-0.03 0.06,-0.05 0.08,-0.05 0.02,0 0.05,0.03 0.07,0.1l0.02 0.03c0.04,-0.09 0.11,-0.17 0.18,-0.25 0.07,-0.08 0.15,-0.14 0.22,-0.18z"/>
  </g>
 </g>
</svg>
