<?xml version="1.0" encoding="UTF-8"?>
<!DOCTYPE svg PUBLIC "-//W3C//DTD SVG 1.1//EN" "http://www.w3.org/Graphics/SVG/1.1/DTD/svg11.dtd">
<!-- Creator: CorelDRAW 2017 -->
<svg xmlns="http://www.w3.org/2000/svg" xml:space="preserve" width="36px" height="36px" version="1.1" style="shape-rendering:geometricPrecision; text-rendering:geometricPrecision; image-rendering:optimizeQuality; fill-rule:evenodd; clip-rule:evenodd"
viewBox="0 0 2.37 2.37"
 xmlns:xlink="http://www.w3.org/1999/xlink">
 <defs>
  <style type="text/css">
   <![CDATA[
    .fil0 {fill:#848688;fill-rule:nonzero}
    .fil1 {fill:#C83538;fill-rule:nonzero}
   ]]>
  </style>
 </defs>
 <g id="Layer_x0020_1">
  <metadata id="CorelCorpID_0Corel-Layer"/>
  <g id="_2324386755568">
   <path class="fil0" d="M2.11 0.29c0.03,0 0.05,-0.02 0.05,-0.04 0,-0.03 -0.02,-0.05 -0.05,-0.05 -0.02,0 -0.04,0.02 -0.04,0.05 0,0.02 0.02,0.04 0.04,0.04z"/>
   <path class="fil0" d="M1.83 0.29c0.03,0 0.05,-0.02 0.05,-0.04 0,-0.03 -0.02,-0.05 -0.05,-0.05 -0.02,0 -0.04,0.02 -0.04,0.05 0,0.02 0.02,0.04 0.04,0.04z"/>
   <path class="fil0" d="M1.56 0.29c0.02,0 0.04,-0.02 0.04,-0.04 0,-0.03 -0.02,-0.05 -0.04,-0.05 -0.03,0 -0.05,0.02 -0.05,0.05 0,0.02 0.02,0.04 0.05,0.04z"/>
   <path class="fil0" d="M1.28 1.43c-0.03,0 -0.05,0.02 -0.05,0.05 0,0.02 0.02,0.04 0.05,0.04 0.02,0 0.05,-0.02 0.05,-0.04 0,-0.03 -0.03,-0.05 -0.05,-0.05z"/>
   <path class="fil0" d="M1.28 1.71c-0.03,0 -0.05,0.02 -0.05,0.05 0,0.02 0.02,0.04 0.05,0.04 0.02,0 0.05,-0.02 0.05,-0.04 0,-0.03 -0.03,-0.05 -0.05,-0.05z"/>
   <path class="fil0" d="M1.28 1.99c-0.03,0 -0.05,0.02 -0.05,0.04 0,0.03 0.02,0.05 0.05,0.05 0.02,0 0.05,-0.02 0.05,-0.05 0,-0.02 -0.03,-0.04 -0.05,-0.04z"/>
   <path class="fil0" d="M2.23 2.28l-2.09 0c-0.03,0 -0.05,-0.02 -0.05,-0.05l0 -1.74 2.19 0 0 1.74c0,0.03 -0.02,0.05 -0.05,0.05zm-2.09 -2.19l2.09 0c0.03,0 0.05,0.02 0.05,0.05l0 0.26 -2.19 0 0 -0.26c0,-0.03 0.02,-0.05 0.05,-0.05zm2.09 -0.09l-2.09 0c-0.08,0 -0.14,0.06 -0.14,0.14l0 2.09c0,0.08 0.06,0.14 0.14,0.14l2.09 0c0.08,0 0.14,-0.06 0.14,-0.14l0 -2.09c0,-0.08 -0.06,-0.14 -0.14,-0.14z"/>
   <path class="fil1" d="M0.4 0.78l1.28 0.36 -1.28 0 0 -0.36zm1.57 0.35l-1.28 -0.36 1.28 0 0 0.36zm0.05 -0.45l-1.67 0c0,0 0,0 0,0 0,0 0,0 0,0 0,0 0,0 0,0 0,0 0,0 -0.01,0 0,0 0,0 0,0 0,0 0,0 0,0 0,0 0,0 0,0 0,0 0,0 0,0 0,0 -0.01,0 -0.01,0 0,0 0,0 0,0 0,0 0,0 0,0 0,0 0,0 0,0 0,0 0,0 0,0 0,0.01 -0.01,0.01 -0.01,0.01 0,0 0,0 0,0 0,0 0,0 0,0 0,0 0,0 0,0 0,0 0,0 0,0 0,0 0,0 0,0 0,0 0,0.01 -0.01,0.01 0,0 0,0 0,0 0,0 0,0 0,0 0,0 0,0 0,0 0,0 0,0 0,0 0,0 0,0 0,0.01 0,0 0,0 0,0 0,0 0,0 0,0 0,0 0,0 0,0 0,0 0,0 0,0 0,0 0,0 0,0 0,0.01 0,0.01 0,0.01 0,0 0,0 0,0 0,0 0,0 0,0 0,0 0,0 0,0l0 0.47c0,0.02 0.02,0.04 0.04,0.04l1.67 0c0,0 0,0 0,0 0,0 0,0 0,0 0.01,0 0.01,0 0.01,0 0,0 0,0 0,0 0,0 0,0 0,0 0,0 0,0 0,0 0,0 0,0 0,0 0.01,0 0.01,0 0.01,0 0,0 0,0 0,0 0,0 0,0 0,0 0,0 0,0 0,0 0,0 0,0 0.01,-0.01 0,0 0,0 0,0 0,0 0,0 0,0 0,0 0,0 0,0 0,0 0,0 0,0 0,0 0,0 0,0 0.01,0 0.01,-0.01 0.01,-0.01 0,0 0,0 0,0 0,0 0,0 0,0 0,0 0,0 0,0 0,0 0,0 0,0 0,-0.01 0,-0.01 0,-0.01 0,0 0,0 0,0 0,0 0,0 0,0 0,0 0,0 0,0 0.01,0 0.01,0 0.01,0 0,0 0,0 0,-0.01 0,0 0,0 0,0 0,0 0,0 0,0 0,0 0,0 0,0 0,0 0,0 0,0l0 -0.47c0,-0.02 -0.02,-0.04 -0.05,-0.04z"/>
   <path class="fil1" d="M0.4 1.58l0.48 0.41 -0.48 0 0 -0.41zm0.55 0.35l-0.47 -0.41 0.47 0 0 0.41zm0.05 -0.5l-0.65 0c0,0 0,0 0,0 0,0 0,0 0,0 0,0 0,0 0,0 0,0 -0.01,0 -0.01,0 0,0 0,0 0,0 0,0 0,0 0,0 0,0 0,0 0,0 0,0 0,0 -0.01,0.01 0,0 0,0 0,0 0,0 0,0 0,0 0,0 0,0 0,0 0,0 0,0 0,0 0,0 0,0 0,0 -0.01,0 -0.01,0 -0.01,0 0,0 0,0 0,0 0,0 0,0 0,0 0,0.01 0,0.01 0,0.01 0,0 0,0 0,0 0,0 0,0 0,0 0,0 0,0 -0.01,0 0,0 0,0 0,0 0,0 0,0 0,0 0,0 0,0.01 0,0.01 0,0 0,0 0,0 0,0 0,0 0,0 0,0 0,0 0,0 0,0 0,0 0,0 0,0 0,0.01 0,0.01 0,0 0,0 0,0 0,0 0,0 0,0 0,0 0,0 0,0 0,0 0,0 0,0 0,0.01 0,0.01 0,0.01 0,0 0,0 0,0l0 0.55c0,0.03 0.02,0.05 0.04,0.05l0.65 0c0,0 0,0 0.01,0 0,0 0,0 0,0 0,0 0,0 0,0 0,0 0,0 0,0 0,0 0,0 0.01,0 0,0 0,0 0,0 0,0 0,0 0,0 0,0 0,0 0,0 0,0 0,-0.01 0,-0.01 0,0 0,0 0.01,0 0,0 0,0 0,0 0,0 0,0 0,0 0,0 0,0 0,0 0,0 0,0 0,0 0,0 0,0 0.01,0 0,-0.01 0,-0.01 0,-0.01 0,0 0,0 0,0 0,0 0,0 0,0 0,0 0,0 0,0 0,0 0,0 0,0 0,0 0,0 0,0 0,0 0,-0.01 0,-0.01 0,0 0,0 0,0 0,0 0,0 0,0 0,0 0,0 0.01,0 0,0 0,0 0,0 0,0 0,-0.01 0,-0.01 0,0 0,0 0,0 0,0 0,0 0,0 0,0 0,0 0,0 0,0 0,0 0,-0.01 0,0 0,0 0,0l0 -0.55c0,-0.03 -0.02,-0.05 -0.05,-0.05z"/>
   <path class="fil0" d="M2.02 1.43l-0.56 0c-0.02,0 -0.04,0.02 -0.04,0.05 0,0.02 0.02,0.04 0.04,0.04l0.56 0c0.03,0 0.05,-0.02 0.05,-0.04 0,-0.03 -0.02,-0.05 -0.05,-0.05z"/>
   <path class="fil0" d="M2.02 1.71l-0.56 0c-0.02,0 -0.04,0.02 -0.04,0.05 0,0.02 0.02,0.04 0.04,0.04l0.56 0c0.03,0 0.05,-0.02 0.05,-0.04 0,-0.03 -0.02,-0.05 -0.05,-0.05z"/>
   <path class="fil0" d="M2.02 1.99l-0.56 0c-0.02,0 -0.04,0.02 -0.04,0.04 0,0.03 0.02,0.05 0.04,0.05l0.56 0c0.03,0 0.05,-0.02 0.05,-0.05 0,-0.02 -0.02,-0.04 -0.05,-0.04z"/>
  </g>
 </g>
</svg>
