<?xml version="1.0" encoding="UTF-8"?>
<!DOCTYPE svg PUBLIC "-//W3C//DTD SVG 1.1//EN" "http://www.w3.org/Graphics/SVG/1.1/DTD/svg11.dtd">
<!-- Creator: CorelDRAW 2017 -->
<svg xmlns="http://www.w3.org/2000/svg" xml:space="preserve" width="36px" height="36px" version="1.1" style="shape-rendering:geometricPrecision; text-rendering:geometricPrecision; image-rendering:optimizeQuality; fill-rule:evenodd; clip-rule:evenodd"
viewBox="0 0 8.25 8.23"
 xmlns:xlink="http://www.w3.org/1999/xlink">
 <defs>
  <style type="text/css">
   <![CDATA[
    .fil0 {fill:#848688;fill-rule:nonzero}
    .fil1 {fill:#C83538;fill-rule:nonzero}
   ]]>
  </style>
 </defs>
 <g id="Layer_x0020_1">
  <metadata id="CorelCorpID_0Corel-Layer"/>
  <g id="_2324098776528">
   <path class="fil0" d="M3.99 7.13l-2.25 -0.6 0 -1.12 2.25 -0.59 0 2.31zm-2.78 0.83l-0.27 0c-0.22,0 -0.4,-0.17 -0.4,-0.39l0 -0.8 0.67 0 0 1.19zm-0.93 -2.12c0,-0.22 0.17,-0.4 0.39,-0.4l0.8 0 0 1.06 -1.19 0 0 -0.66zm3.81 -1.33l-2.5 0.66 -0.92 0c-0.36,0 -0.66,0.3 -0.66,0.67l0 0.8c0,0.07 0.06,0.13 0.13,0.13l0.14 0 0 0.8c0,0.36 0.29,0.66 0.66,0.66l0.4 0c0.07,0 0.13,-0.06 0.13,-0.13l0 -1.33 0.12 0 2.5 0.66c0.01,0 0.03,0 0.04,0 0.03,0 0.06,-0.01 0.08,-0.03 0.03,-0.02 0.05,-0.06 0.05,-0.1l0 -2.66c0,-0.04 -0.02,-0.08 -0.05,-0.1 -0.03,-0.03 -0.08,-0.04 -0.12,-0.03z"/>
   <path class="fil0" d="M7.7 6.26c-0.03,0.03 -0.04,0.07 -0.03,0.11l0.06 0.38 -0.36 0.13c-0.03,0.01 -0.06,0.04 -0.08,0.08l-0.13 0.36 -0.37 -0.07c-0.04,0 -0.08,0.01 -0.11,0.03l-0.29 0.25 -0.3 -0.25c-0.02,-0.02 -0.05,-0.03 -0.08,-0.03 -0.01,0 -0.02,0 -0.03,0l-0.37 0.07 -0.13 -0.36c-0.02,-0.04 -0.05,-0.07 -0.08,-0.08l-0.36 -0.13 0.07 -0.38c0,-0.04 -0.01,-0.08 -0.03,-0.11l-0.25 -0.29 0.25 -0.29c0.02,-0.03 0.03,-0.07 0.02,-0.11l-0.06 -0.38 0.36 -0.13c0.03,-0.01 0.06,-0.04 0.08,-0.08l0.13 -0.35 0.37 0.06c0.04,0.01 0.08,0 0.11,-0.03l0.3 -0.24 0.29 0.24c0.03,0.03 0.07,0.04 0.11,0.03l0.37 -0.06 0.13 0.35c0.02,0.04 0.05,0.07 0.08,0.08l0.36 0.13 -0.06 0.38c-0.01,0.04 0,0.08 0.03,0.11l0.24 0.29 -0.24 0.29zm0.51 -0.37l-0.27 -0.33 0.07 -0.43c0.01,-0.06 -0.02,-0.13 -0.08,-0.15l-0.41 -0.15 -0.15 -0.4c-0.02,-0.06 -0.08,-0.1 -0.14,-0.09l-0.43 0.08 -0.33 -0.28c-0.05,-0.04 -0.12,-0.04 -0.17,0l-0.33 0.28 -0.43 -0.08c-0.06,-0.01 -0.12,0.03 -0.14,0.09l-0.15 0.4 -0.41 0.15c-0.06,0.02 -0.09,0.09 -0.08,0.15l0.07 0.42 -0.27 0.34c-0.04,0.05 -0.04,0.12 0,0.17l0.27 0.33 -0.07 0.42c-0.01,0.07 0.02,0.13 0.08,0.15l0.41 0.15 0.15 0.4c0.02,0.06 0.08,0.1 0.14,0.09l0.43 -0.08 0.33 0.28c0.03,0.02 0.06,0.03 0.09,0.03 0.03,0 0.06,-0.01 0.08,-0.03l0.33 -0.28 0.43 0.08c0.06,0.01 0.12,-0.03 0.14,-0.09l0.15 -0.4 0.41 -0.15c0.06,-0.02 0.09,-0.08 0.08,-0.15l-0.07 -0.42 0.27 -0.33c0.03,-0.03 0.04,-0.06 0.04,-0.09l0 0c0,-0.03 -0.01,-0.06 -0.04,-0.08z"/>
   <polygon class="fil1" points="5.62,6.55 6.95,5.09 7.15,5.26 5.82,6.72 "/>
   <path class="fil1" d="M5.92 5.44c0.04,0 0.07,0.03 0.07,0.07 0,0.03 -0.03,0.06 -0.07,0.06 -0.04,0 -0.07,-0.03 -0.07,-0.06 0,-0.04 0.03,-0.07 0.07,-0.07zm0 0.4c0.18,0 0.33,-0.15 0.33,-0.33 0,-0.19 -0.15,-0.34 -0.33,-0.34 -0.18,0 -0.33,0.15 -0.33,0.34 0,0.18 0.15,0.33 0.33,0.33z"/>
   <path class="fil1" d="M6.85 6.37c-0.04,0 -0.07,-0.03 -0.07,-0.07 0,-0.03 0.03,-0.06 0.07,-0.06 0.04,0 0.07,0.03 0.07,0.06 0,0.04 -0.03,0.07 -0.07,0.07zm0 -0.4c-0.18,0 -0.33,0.15 -0.33,0.33 0,0.19 0.15,0.34 0.33,0.34 0.18,0 0.33,-0.15 0.33,-0.34 0,-0.18 -0.15,-0.33 -0.33,-0.33z"/>
   <path class="fil1" d="M0.89 1.13c0.05,-0.01 0.08,-0.03 0.1,-0.07l0.22 -0.43 0.21 0.43c0.02,0.04 0.05,0.06 0.1,0.07l0.47 0.07 -0.34 0.33c-0.03,0.03 -0.05,0.08 -0.04,0.12l0.08 0.47 -0.42 -0.22c-0.02,-0.01 -0.04,-0.01 -0.06,-0.01 -0.03,0 -0.05,0 -0.07,0.01l-0.42 0.22 0.08 -0.47c0.01,-0.04 -0.01,-0.09 -0.04,-0.12l-0.34 -0.33 0.47 -0.07zm-0.36 0.55l-0.12 0.66c-0.01,0.05 0.01,0.1 0.05,0.13 0.05,0.03 0.1,0.04 0.14,0.01l0.61 -0.31 0.6 0.31c0.02,0.01 0.04,0.02 0.06,0.02 0.02,0 0.05,-0.01 0.08,-0.03 0.04,-0.03 0.06,-0.08 0.05,-0.13l-0.12 -0.66 0.49 -0.48c0.04,-0.03 0.05,-0.09 0.03,-0.13 -0.01,-0.05 -0.05,-0.09 -0.1,-0.1l-0.68 -0.09 -0.3 -0.61c-0.04,-0.09 -0.19,-0.09 -0.23,0l-0.3 0.61 -0.68 0.09c-0.05,0.01 -0.09,0.05 -0.1,0.1 -0.01,0.01 -0.01,0.02 -0.01,0.04 0,0.03 0.01,0.07 0.04,0.09l0.49 0.48z"/>
   <path class="fil1" d="M6.48 0.65c0.04,0 0.08,-0.03 0.1,-0.07l0.07 -0.15 0.08 0.15c0.02,0.04 0.05,0.07 0.1,0.07l0.17 0.03 -0.13 0.12c-0.03,0.03 -0.04,0.07 -0.03,0.12l0.03 0.16 -0.16 -0.08c-0.02,-0.01 -0.04,-0.01 -0.06,-0.01 -0.02,0 -0.04,0 -0.06,0.01l-0.15 0.08 0.03 -0.16c0,-0.05 -0.01,-0.09 -0.04,-0.12l-0.12 -0.12 0.17 -0.03zm0.18 -0.65l-0.02 0c-0.05,0 -0.09,0.03 -0.11,0.07l-0.16 0.33 -0.37 0.05c-0.05,0.01 -0.09,0.05 -0.11,0.09 -0.01,0.05 0,0.11 0.04,0.14l0.26 0.26 -0.06 0.37c-0.01,0.05 0.01,0.1 0.05,0.13 0.04,0.02 0.1,0.03 0.14,0.01l0.33 -0.18 0.33 0.18c0.02,0.01 0.04,0.01 0.06,0.01 0.03,0 0.06,-0.01 0.08,-0.02 0.04,-0.03 0.06,-0.08 0.05,-0.13l-0.06 -0.37 0.27 -0.26c0.03,-0.03 0.05,-0.09 0.03,-0.14 -0.02,-0.04 -0.06,-0.08 -0.11,-0.09l-0.37 -0.05 -0.16 -0.33c-0.02,-0.04 -0.06,-0.07 -0.11,-0.07z"/>
   <path class="fil1" d="M4.14 2.32c0.04,0 0.08,-0.03 0.1,-0.07l0.02 -0.04 0.02 0.04c0.02,0.04 0.06,0.07 0.1,0.07l0.05 0.01 -0.03 0.03c-0.04,0.03 -0.05,0.08 -0.04,0.12l0.01 0.05 -0.05 -0.02c-0.02,-0.01 -0.04,-0.02 -0.06,-0.02 -0.02,0 -0.04,0.01 -0.06,0.02l-0.04 0.02 0 -0.05c0.01,-0.04 0,-0.09 -0.03,-0.12l-0.04 -0.03 0.05 -0.01zm-0.25 0.18l-0.04 0.25c-0.01,0.05 0.01,0.1 0.05,0.13 0.04,0.03 0.1,0.03 0.14,0.01l0.22 -0.12 0.22 0.12c0.02,0.01 0.04,0.01 0.06,0.01 0.03,0 0.06,0 0.08,-0.02 0.04,-0.03 0.06,-0.08 0.05,-0.13l-0.04 -0.25 0.18 -0.17c0.03,-0.03 0.05,-0.09 0.03,-0.13 -0.01,-0.05 -0.05,-0.09 -0.11,-0.1l-0.24 -0.03 -0.11 -0.22c-0.05,-0.09 -0.19,-0.09 -0.24,0l-0.11 0.22 -0.24 0.03c-0.05,0.01 -0.1,0.05 -0.11,0.1 -0.02,0.04 0,0.1 0.03,0.13l0.18 0.17z"/>
   <path class="fil0" d="M2.27 2.12c0.73,0 1.33,0.89 1.33,1.99l0.26 0c0,-1.24 -0.71,-2.26 -1.59,-2.26l0 0.27z"/>
   <path class="fil0" d="M1.07 2.52l0 0.26c0.73,0 1.33,0.78 1.33,1.73l0.27 0c0,-1.1 -0.72,-1.99 -1.6,-1.99z"/>
   <path class="fil0" d="M5.85 1.06l0 -0.27c-0.44,0 -0.79,0.36 -0.79,0.8l0.26 0c0,-0.3 0.24,-0.53 0.53,-0.53z"/>
   <path class="fil0" d="M5.19 3.85l0.27 0c0,-0.81 0.59,-1.47 1.32,-1.47l0 -0.26c-0.87,0 -1.59,0.77 -1.59,1.73z"/>
   <path class="fil0" d="M4.92 4.11c0,-0.51 -0.35,-0.93 -0.79,-0.93l0 0.27c0.29,0 0.53,0.3 0.53,0.66l0.26 0z"/>
  </g>
 </g>
</svg>
