<?xml version="1.0" encoding="UTF-8"?>
<!DOCTYPE svg PUBLIC "-//W3C//DTD SVG 1.1//EN" "http://www.w3.org/Graphics/SVG/1.1/DTD/svg11.dtd">
<!-- Creator: CorelDRAW 2017 -->
<svg xmlns="http://www.w3.org/2000/svg" xml:space="preserve" width="122px" height="20px" version="1.1" style="shape-rendering:geometricPrecision; text-rendering:geometricPrecision; image-rendering:optimizeQuality; fill-rule:evenodd; clip-rule:evenodd"
viewBox="0 0 123.6 19.91"
 xmlns:xlink="http://www.w3.org/1999/xlink">
 <defs>
  <style type="text/css">
   <![CDATA[
    .fil0 {fill:#C83538;fill-rule:nonzero}
   ]]>
  </style>
 </defs>
 <g id="Layer_x0020_1">
  <metadata id="CorelCorpID_0Corel-Layer"/>
  <g id="_2324281409088">
   <path class="fil0" d="M20.33 0.56c0,0 -0.16,-0.01 -0.47,-0.02 -0.32,-0.01 -0.77,0.01 -1.34,0.08 -0.58,0.08 -1.26,0.24 -2,0.54 -0.74,0.3 -1.52,0.76 -2.28,1.38 -0.76,0.61 -1.51,1.38 -2.26,2.23 -0.75,0.85 -1.51,1.79 -2.39,2.71 -0.88,0.89 -1.94,1.83 -3.35,2.19 -0.7,0.18 -1.45,0.18 -2.15,0.03 -0.37,-0.05 -0.67,-0.17 -1.05,-0.29 -0.16,-0.07 -0.3,-0.1 -0.48,-0.2 -0.17,-0.09 -0.35,-0.18 -0.49,-0.29 -1.25,-0.82 -2.05,-2.28 -2.07,-3.77 -0.02,-0.74 0.15,-1.49 0.45,-2.12 0.35,-0.71 0.86,-1.25 1.49,-1.63 1.25,-0.76 2.84,-0.73 3.97,-0.01 1.19,0.73 1.64,2.15 1.39,3.26 -0.04,0.14 -0.06,0.28 -0.12,0.41 -0.02,0.08 -0.04,0.12 -0.08,0.21l-0.08 0.16c-0.14,0.27 -0.31,0.48 -0.5,0.66 -0.39,0.36 -0.86,0.57 -1.32,0.63 -0.91,0.12 -1.7,-0.29 -2.06,-0.81 -0.38,-0.52 -0.38,-1.04 -0.32,-1.35 0.06,-0.32 0.15,-0.46 0.15,-0.46 0,0 -0.06,0.16 -0.07,0.47 0,0.29 0.09,0.76 0.46,1.16 0.35,0.39 1.04,0.62 1.73,0.43 0.35,-0.08 0.68,-0.27 0.93,-0.56 0.13,-0.14 0.24,-0.31 0.31,-0.48l0.06 -0.16 0.04 -0.14c0.03,-0.1 0.04,-0.2 0.07,-0.31 0.12,-0.83 -0.3,-1.8 -1.11,-2.26 -0.83,-0.47 -1.99,-0.45 -2.87,0.1 -0.44,0.26 -0.82,0.7 -1.04,1.14 -0.25,0.52 -0.37,1.07 -0.37,1.64 0.01,1.13 0.56,2.29 1.52,2.98 0.23,0.18 0.46,0.3 0.78,0.45 0.25,0.08 0.57,0.22 0.86,0.26 0.59,0.14 1.19,0.16 1.77,0.03 1.16,-0.26 2.16,-1.06 3.04,-1.89 0.88,-0.84 1.68,-1.75 2.48,-2.58 0.8,-0.83 1.61,-1.57 2.43,-2.17 0.82,-0.59 1.66,-1.03 2.44,-1.29 0.78,-0.27 1.49,-0.4 2.07,-0.43 0.59,-0.03 1.05,-0.02 1.36,0.02 0.31,0.03 0.47,0.05 0.47,0.05z"/>
   <path class="fil0" d="M60.1 17c0,0 -0.33,0.23 -1.01,0.6 -0.67,0.37 -1.7,0.87 -3.11,1.23 -1.4,0.36 -3.2,0.61 -5.22,0.28 -2.02,-0.31 -4.18,-1.22 -6.25,-2.61 -2.07,-1.37 -4.06,-3.18 -6.08,-5.12 -2.03,-1.94 -4.08,-4.06 -6.42,-5.97 -2.32,-1.89 -4.99,-3.59 -8.04,-4.24 -1.51,-0.31 -3.1,-0.38 -4.66,-0.16 -1.57,0.18 -3.05,0.74 -4.34,1.68 -2.6,1.85 -4.15,5.08 -4.1,8.22 0.02,1.58 0.48,3.1 1.34,4.37 0.39,0.63 0.94,1.18 1.48,1.66 0.57,0.48 1.2,0.86 1.84,1.18 2.63,1.23 5.77,0.87 7.82,-0.67 1.01,-0.78 1.76,-1.83 2.13,-2.98 0.38,-1.13 0.42,-2.33 0.15,-3.41 -0.07,-0.28 -0.15,-0.54 -0.25,-0.79l-0.07 -0.2c0,-0.01 -0.06,-0.11 -0.08,-0.17 -0.07,-0.12 -0.13,-0.28 -0.2,-0.38 -0.23,-0.42 -0.58,-0.84 -0.95,-1.17 -0.74,-0.68 -1.67,-1.08 -2.57,-1.2 -0.9,-0.14 -1.77,-0.01 -2.52,0.27 -0.15,0.05 -0.39,0.17 -0.54,0.25 -0.16,0.09 -0.31,0.18 -0.46,0.3 -0.29,0.21 -0.54,0.47 -0.74,0.73 -0.83,1.07 -0.94,2.23 -0.86,2.96 0.04,0.36 0.11,0.65 0.17,0.83 0.06,0.18 0.09,0.28 0.09,0.28l-0.11 0.05c0,0 -0.04,-0.1 -0.12,-0.28 -0.09,-0.18 -0.2,-0.46 -0.28,-0.85 -0.15,-0.75 -0.19,-2.02 0.66,-3.31 0.81,-1.29 2.66,-2.34 4.82,-2.12 1.07,0.1 2.19,0.52 3.13,1.3 0.48,0.4 0.9,0.84 1.26,1.43 0.09,0.14 0.14,0.26 0.22,0.4 0.04,0.08 0.06,0.1 0.11,0.22l0.09 0.23c0.14,0.3 0.24,0.61 0.32,0.93 0.34,1.28 0.35,2.73 -0.12,4.09 -0.44,1.36 -1.34,2.64 -2.58,3.53 -2.48,1.76 -6.04,2.06 -8.92,0.55 -1.43,-0.75 -2.65,-1.9 -3.47,-3.34 -0.83,-1.38 -1.21,-3.06 -1.2,-4.69 0,-1.64 0.45,-3.26 1.15,-4.75 0.71,-1.48 1.73,-2.84 3.02,-3.9 1.28,-1.06 2.91,-1.81 4.56,-2.06 1.64,-0.29 3.34,-0.26 4.97,0.05 3.28,0.63 6.12,2.43 8.49,4.37 2.4,1.97 4.47,4.1 6.45,6.06 1.99,1.97 3.91,3.76 5.88,5.15 1.96,1.38 3.99,2.29 5.89,2.63 1.91,0.36 3.63,0.17 4.98,-0.14 1.36,-0.33 2.41,-0.71 3.11,-0.99 0.71,-0.28 1.09,-0.43 1.09,-0.43l0.05 0.1z"/>
   <path class="fil0" d="M57.24 18.03c0,0 0.16,-0.06 0.47,-0.16 0.15,-0.05 0.33,-0.12 0.53,-0.23 0.2,-0.09 0.44,-0.2 0.68,-0.36 1,-0.57 2.33,-1.71 3.11,-3.55 0.39,-0.91 0.61,-1.99 0.59,-3.13 -0.01,-0.56 -0.1,-1.15 -0.23,-1.72 -0.16,-0.62 -0.4,-1.15 -0.73,-1.69 -0.66,-1.07 -1.75,-1.92 -3,-2.35 -1.26,-0.41 -2.69,-0.41 -3.91,0.14 -1.24,0.52 -2.17,1.55 -2.6,2.76 -0.43,1.2 -0.36,2.56 0.27,3.62 0.58,0.96 1.65,1.71 2.74,1.77 1.08,0.1 2.15,-0.27 2.75,-1 0.61,-0.73 0.79,-1.66 0.64,-2.43 -0.13,-0.81 -0.62,-1.31 -1.12,-1.62 -0.49,-0.31 -0.97,-0.32 -1.28,-0.34 -0.31,0.04 -0.48,0.06 -0.48,0.06l-0.02 -0.06c0,0 0.17,-0.03 0.49,-0.1 0.32,-0.01 0.83,-0.05 1.4,0.25 0.14,0.06 0.28,0.16 0.42,0.25 0.14,0.11 0.26,0.25 0.4,0.38 0.11,0.15 0.24,0.33 0.34,0.51 0.03,0.09 0.07,0.18 0.11,0.27l0.07 0.16 0.03 0.16c0.23,0.85 0.07,1.95 -0.62,2.83 -0.68,0.9 -1.93,1.38 -3.19,1.26 -1.27,-0.1 -2.51,-0.86 -3.21,-2.11 -0.66,-1.17 -0.73,-2.72 -0.21,-4.03 0.27,-0.65 0.65,-1.27 1.16,-1.77 0.27,-0.24 0.52,-0.49 0.85,-0.65l0.46 -0.28c0.16,-0.08 0.32,-0.12 0.49,-0.18l0.48 -0.17 0.53 -0.11c0.34,-0.04 0.69,-0.09 1.04,-0.07 0.69,0 1.38,0.11 2.03,0.33 1.29,0.44 2.42,1.28 3.18,2.36 0.76,1.07 1.14,2.34 1.19,3.56 0.07,1.21 -0.18,2.36 -0.59,3.34 -0.41,0.98 -0.99,1.78 -1.6,2.38 -0.61,0.61 -1.22,1.06 -1.77,1.33 -0.27,0.16 -0.53,0.26 -0.75,0.35 -0.22,0.1 -0.41,0.16 -0.57,0.2 -0.3,0.1 -0.47,0.14 -0.47,0.14l-0.1 -0.3z"/>
   <path class="fil0" d="M103.27 0.56c0,0 0.16,-0.02 0.47,-0.05 0.31,-0.04 0.77,-0.05 1.36,-0.02 0.59,0.03 1.29,0.16 2.07,0.43 0.78,0.26 1.62,0.7 2.44,1.29 0.82,0.6 1.64,1.34 2.43,2.17 0.8,0.83 1.6,1.74 2.48,2.58 0.88,0.83 1.88,1.63 3.04,1.89 0.58,0.13 1.18,0.11 1.77,-0.03 0.29,-0.04 0.61,-0.18 0.86,-0.26 0.33,-0.15 0.55,-0.27 0.78,-0.45 0.96,-0.69 1.51,-1.85 1.52,-2.98 0,-0.57 -0.12,-1.12 -0.37,-1.64 -0.22,-0.44 -0.59,-0.88 -1.04,-1.14 -0.88,-0.55 -2.04,-0.57 -2.87,-0.1 -0.81,0.46 -1.23,1.43 -1.1,2.26 0.02,0.11 0.03,0.21 0.06,0.31l0.04 0.14 0.06 0.17c0.08,0.16 0.18,0.33 0.31,0.47 0.25,0.29 0.59,0.48 0.93,0.56 0.69,0.19 1.38,-0.04 1.73,-0.43 0.37,-0.4 0.46,-0.87 0.46,-1.16 -0.01,-0.31 -0.07,-0.47 -0.07,-0.47 0,0 0.09,0.14 0.15,0.46 0.07,0.31 0.06,0.83 -0.31,1.35 -0.36,0.52 -1.15,0.93 -2.07,0.81 -0.45,-0.06 -0.92,-0.27 -1.31,-0.63 -0.2,-0.18 -0.37,-0.39 -0.51,-0.66l-0.08 -0.16c-0.04,-0.09 -0.05,-0.13 -0.08,-0.21 -0.05,-0.13 -0.08,-0.27 -0.12,-0.4 -0.25,-1.12 0.2,-2.54 1.39,-3.27 1.14,-0.72 2.73,-0.75 3.97,0.01 0.63,0.38 1.14,0.92 1.49,1.63 0.3,0.63 0.47,1.38 0.45,2.12 -0.02,1.48 -0.82,2.95 -2.07,3.77 -0.14,0.11 -0.32,0.2 -0.49,0.29 -0.18,0.1 -0.32,0.13 -0.48,0.2 -0.37,0.12 -0.68,0.24 -1.05,0.29 -0.7,0.15 -1.44,0.15 -2.14,-0.03 -1.42,-0.36 -2.48,-1.3 -3.36,-2.19 -0.88,-0.92 -1.64,-1.86 -2.39,-2.71 -0.75,-0.85 -1.49,-1.62 -2.26,-2.23 -0.76,-0.62 -1.54,-1.08 -2.28,-1.38 -0.74,-0.3 -1.42,-0.46 -1.99,-0.54 -0.57,-0.07 -1.03,-0.09 -1.34,-0.08 -0.31,0.01 -0.48,0.02 -0.48,0.02z"/>
   <path class="fil0" d="M63.55 16.9c0,0 0.38,0.15 1.09,0.43 0.7,0.28 1.75,0.66 3.11,0.99 1.36,0.31 3.07,0.5 4.98,0.14 1.9,-0.34 3.94,-1.25 5.9,-2.63 1.96,-1.39 3.88,-3.18 5.87,-5.15 1.98,-1.96 4.05,-4.09 6.45,-6.05 2.38,-1.95 5.21,-3.75 8.49,-4.38 1.63,-0.31 3.33,-0.34 4.97,-0.05 1.65,0.25 3.28,1 4.56,2.06 1.3,1.06 2.31,2.42 3.03,3.9 0.69,1.49 1.14,3.11 1.14,4.75 0.01,1.63 -0.37,3.31 -1.2,4.69 -0.82,1.44 -2.04,2.59 -3.47,3.34 -2.88,1.51 -6.43,1.21 -8.92,-0.55 -1.23,-0.89 -2.13,-2.17 -2.58,-3.53 -0.47,-1.36 -0.46,-2.81 -0.12,-4.09 0.08,-0.32 0.19,-0.63 0.32,-0.93l0.09 -0.22c0.05,-0.13 0.07,-0.15 0.11,-0.23 0.08,-0.13 0.13,-0.26 0.23,-0.4 0.36,-0.59 0.78,-1.03 1.25,-1.43 0.94,-0.78 2.06,-1.2 3.13,-1.3 2.16,-0.22 4.01,0.83 4.83,2.12 0.84,1.29 0.8,2.56 0.65,3.31 -0.08,0.39 -0.19,0.67 -0.27,0.85 -0.09,0.18 -0.13,0.28 -0.13,0.28l-0.11 -0.05c0,0 0.04,-0.1 0.1,-0.28 0.06,-0.18 0.12,-0.47 0.16,-0.83 0.08,-0.73 -0.03,-1.89 -0.86,-2.96 -0.2,-0.26 -0.45,-0.52 -0.74,-0.73 -0.14,-0.12 -0.3,-0.21 -0.45,-0.3 -0.16,-0.08 -0.39,-0.2 -0.55,-0.25 -0.75,-0.28 -1.62,-0.41 -2.52,-0.27 -0.9,0.12 -1.83,0.52 -2.57,1.2 -0.36,0.33 -0.72,0.75 -0.95,1.17 -0.07,0.1 -0.13,0.26 -0.19,0.38 -0.03,0.06 -0.09,0.16 -0.08,0.18l-0.08 0.19c-0.1,0.25 -0.18,0.52 -0.25,0.79 -0.27,1.08 -0.22,2.28 0.16,3.41 0.36,1.15 1.11,2.2 2.12,2.98 2.05,1.54 5.19,1.9 7.82,0.67 0.65,-0.32 1.27,-0.7 1.84,-1.18 0.55,-0.48 1.09,-1.03 1.48,-1.66 0.86,-1.27 1.32,-2.79 1.34,-4.37 0.06,-3.14 -1.5,-6.37 -4.1,-8.22 -1.29,-0.94 -2.77,-1.5 -4.34,-1.68 -1.56,-0.22 -3.14,-0.15 -4.66,0.16 -3.05,0.65 -5.71,2.35 -8.04,4.25 -2.34,1.9 -4.39,4.02 -6.42,5.96 -2.02,1.94 -4.01,3.75 -6.08,5.12 -2.06,1.39 -4.23,2.3 -6.25,2.61 -2.02,0.33 -3.82,0.08 -5.22,-0.28 -1.41,-0.36 -2.43,-0.86 -3.11,-1.23 -0.67,-0.37 -1.01,-0.6 -1.01,-0.6l0.05 -0.1z"/>
   <path class="fil0" d="M66.26 18.33c0,0 -0.17,-0.04 -0.47,-0.14 -0.16,-0.04 -0.35,-0.1 -0.57,-0.2 -0.22,-0.09 -0.48,-0.19 -0.75,-0.35 -0.55,-0.27 -1.16,-0.72 -1.77,-1.33 -0.61,-0.6 -1.18,-1.4 -1.6,-2.38 -0.41,-0.98 -0.66,-2.13 -0.59,-3.34 0.05,-1.22 0.43,-2.49 1.19,-3.56 0.76,-1.08 1.89,-1.92 3.19,-2.36 0.64,-0.22 1.33,-0.33 2.03,-0.33 0.34,-0.02 0.69,0.03 1.04,0.07l0.52 0.11 0.49 0.17c0.16,0.06 0.32,0.1 0.48,0.18l0.46 0.28c0.33,0.16 0.59,0.41 0.85,0.65 0.52,0.5 0.89,1.12 1.16,1.77 0.52,1.31 0.46,2.86 -0.21,4.03 -0.69,1.25 -1.94,2.02 -3.21,2.11 -1.26,0.12 -2.5,-0.36 -3.19,-1.26 -0.68,-0.88 -0.85,-1.98 -0.62,-2.83l0.04 -0.16 0.06 -0.16c0.04,-0.09 0.08,-0.18 0.12,-0.27 0.09,-0.18 0.22,-0.36 0.33,-0.51 0.14,-0.13 0.26,-0.27 0.4,-0.38 0.15,-0.09 0.28,-0.19 0.42,-0.25 0.57,-0.3 1.08,-0.26 1.4,-0.25 0.32,0.07 0.49,0.1 0.49,0.1l-0.02 0.06c0,0 -0.17,-0.02 -0.48,-0.06 -0.31,0.02 -0.79,0.03 -1.28,0.34 -0.49,0.31 -0.99,0.81 -1.12,1.62 -0.15,0.77 0.03,1.7 0.64,2.43 0.6,0.73 1.67,1.1 2.75,1 1.09,-0.06 2.16,-0.81 2.74,-1.77 0.63,-1.06 0.7,-2.42 0.27,-3.62 -0.43,-1.21 -1.36,-2.24 -2.59,-2.76 -1.22,-0.55 -2.66,-0.55 -3.92,-0.14 -1.25,0.43 -2.34,1.28 -3,2.35 -0.33,0.54 -0.57,1.07 -0.72,1.69 -0.14,0.57 -0.23,1.16 -0.24,1.72 -0.02,1.14 0.2,2.22 0.59,3.13 0.78,1.84 2.11,2.98 3.11,3.55 0.24,0.16 0.48,0.27 0.68,0.36 0.2,0.11 0.38,0.18 0.53,0.23 0.31,0.1 0.47,0.16 0.47,0.16l-0.1 0.3z"/>
  </g>
 </g>
</svg>
