<?xml version="1.0" encoding="UTF-8"?>
<!DOCTYPE svg PUBLIC "-//W3C//DTD SVG 1.1//EN" "http://www.w3.org/Graphics/SVG/1.1/DTD/svg11.dtd">
<!-- Creator: CorelDRAW 2017 -->
<svg xmlns="http://www.w3.org/2000/svg" xml:space="preserve" width="69px" height="231px" version="1.1" style="shape-rendering:geometricPrecision; text-rendering:geometricPrecision; image-rendering:optimizeQuality; fill-rule:evenodd; clip-rule:evenodd"
viewBox="0 0 12.2 40.75"
 xmlns:xlink="http://www.w3.org/1999/xlink">
 <defs>
  <style type="text/css">
   <![CDATA[
    .fil0 {fill:#C83538;fill-rule:nonzero}
   ]]>
  </style>
 </defs>
 <g id="Layer_x0020_1">
  <metadata id="CorelCorpID_0Corel-Layer"/>
  <g>
   <path class="fil0" d="M2.08 0l0 0.42 -2.08 0 0 -0.42 2.08 0zm3.34 0l0 0.42 -2.09 0 0 -0.42 2.09 0zm3.33 0l0 0.42 -2.08 0 0 -0.42 2.08 0zm3.24 0.42l-1.99 0 0 -0.42 1.99 0 0.21 0.21 -0.21 0.21zm0 -0.42l0.21 0 0 0.21 -0.21 -0.21zm0.21 0.31l-0.42 0 0 -0.1 0.42 0 0 0.1zm0 3.33l-0.42 0 0 -2.08 0.42 0 0 2.08zm0 3.33l-0.42 0 0 -2.08 0.42 0 0 2.08zm0 3.34l-0.42 0 0 -2.08 0.42 0 0 2.08zm0 3.33l-0.42 0 0 -2.08 0.42 0 0 2.08zm0 3.34l-0.42 0 0 -2.08 0.42 0 0 2.08zm0 3.33l-0.42 0 0 -2.08 0.42 0 0 2.08zm0 3.34l-0.42 0 0 -2.09 0.42 0 0 2.09zm0 3.33l-0.42 0 0 -2.08 0.42 0 0 2.08zm0 3.34l-0.42 0 0 -2.09 0.42 0 0 2.09zm0 3.33l-0.42 0 0 -2.08 0.42 0 0 2.08zm0 3.34l-0.42 0 0 -2.09 0.42 0 0 2.09zm-0.42 2.28l0 -1.03 0.42 0 0 1.03 -0.21 0.2 -0.21 -0.2zm0.42 0l0 0.2 -0.21 0 0.21 -0.2zm-1.27 0.2l0 -0.41 1.06 0 0 0.41 -1.06 0zm-2.59 -0.41l1.34 0 0 0.41 -1.34 0 0 -0.41zm-1.02 1.69l0 -0.74 0 0 0.04 0 0.03 -0.01 0.04 0 0.04 -0.01 0.03 -0.01 0.04 -0.01 0.03 -0.01 0.04 -0.01 0.03 -0.02 0.03 -0.01 0.03 -0.02 0.03 -0.02 0.03 -0.02 0.03 -0.02 0.03 -0.03 0.02 -0.02 0.03 -0.03 0.02 -0.02 0.02 -0.03 0.02 -0.03 0.02 -0.03 0.02 -0.03 0.02 -0.03 0.01 -0.04 0.01 -0.03 0.02 -0.03 0.01 -0.04 0 -0.04 0.01 -0.03 0.01 -0.04 0 -0.04 0 -0.03 0.74 0 0 0.07 -0.01 0.08 -0.01 0.07 -0.01 0.07 -0.02 0.08 -0.02 0.07 -0.02 0.07 -0.03 0.06 -0.03 0.07 -0.03 0.06 -0.04 0.06 -0.03 0.06 -0.05 0.06 -0.04 0.06 -0.05 0.05 -0.04 0.05 -0.06 0.05 -0.05 0.05 -0.06 0.04 -0.05 0.04 -0.06 0.04 -0.07 0.04 -0.06 0.03 -0.07 0.03 -0.06 0.03 -0.07 0.02 -0.07 0.02 -0.07 0.02 -0.08 0.01 -0.07 0.01 -0.08 0.01 -0.07 0 0 0zm-1.48 -1.48l0.74 0 0 0 0 0.03 0 0.04 0.01 0.04 0 0.03 0.01 0.04 0.01 0.04 0.01 0.03 0.01 0.03 0.02 0.04 0.02 0.03 0.01 0.03 0.02 0.03 0.02 0.03 0.03 0.03 0.02 0.02 0.02 0.03 0.03 0.02 0.03 0.03 0.03 0.02 0.02 0.02 0.03 0.02 0.04 0.02 0.03 0.01 0.03 0.02 0.03 0.01 0.04 0.01 0.03 0.01 0.04 0.01 0.04 0.01 0.03 0 0.04 0.01 0.04 0 0 0.74 -0.08 0 -0.07 -0.01 -0.08 -0.01 -0.07 -0.01 -0.07 -0.02 -0.07 -0.02 -0.07 -0.02 -0.07 -0.03 -0.06 -0.03 -0.07 -0.03 -0.06 -0.04 -0.06 -0.04 -0.06 -0.04 -0.05 -0.04 -0.06 -0.05 -0.05 -0.05 -0.05 -0.05 -0.05 -0.05 -0.04 -0.06 -0.04 -0.06 -0.04 -0.06 -0.03 -0.06 -0.04 -0.06 -0.03 -0.07 -0.02 -0.06 -0.03 -0.07 -0.02 -0.07 -0.01 -0.08 -0.02 -0.07 -0.01 -0.07 0 -0.08 0 -0.07 0 0zm1.48 -1.49l0 0.74 0 0 -0.04 0.01 -0.04 0 -0.03 0 -0.04 0.01 -0.04 0.01 -0.03 0.01 -0.04 0.01 -0.03 0.01 -0.03 0.02 -0.03 0.01 -0.04 0.02 -0.03 0.02 -0.02 0.02 -0.03 0.02 -0.03 0.03 -0.03 0.02 -0.02 0.03 -0.02 0.02 -0.03 0.03 -0.02 0.03 -0.02 0.03 -0.01 0.03 -0.02 0.03 -0.02 0.04 -0.01 0.03 -0.01 0.04 -0.01 0.03 -0.01 0.04 0 0.03 -0.01 0.04 0 0.04 0 0.04 -0.74 0 0 -0.08 0 -0.08 0.01 -0.07 0.02 -0.07 0.01 -0.07 0.02 -0.08 0.03 -0.06 0.02 -0.07 0.03 -0.07 0.04 -0.06 0.03 -0.06 0.04 -0.06 0.04 -0.06 0.04 -0.06 0.05 -0.05 0.05 -0.05 0.05 -0.05 0.06 -0.05 0.05 -0.04 0.06 -0.04 0.06 -0.04 0.06 -0.04 0.07 -0.03 0.06 -0.03 0.07 -0.03 0.07 -0.02 0.07 -0.02 0.07 -0.02 0.07 -0.01 0.08 -0.01 0.07 0 0.08 -0.01 0 0zm1.48 1.49l-0.74 0 0 -0.04 0 -0.04 -0.01 -0.04 -0.01 -0.03 0 -0.04 -0.01 -0.03 -0.02 -0.04 -0.01 -0.03 -0.01 -0.04 -0.02 -0.03 -0.02 -0.03 -0.02 -0.03 -0.02 -0.03 -0.02 -0.03 -0.02 -0.02 -0.03 -0.03 -0.02 -0.02 -0.03 -0.03 -0.03 -0.02 -0.03 -0.02 -0.03 -0.02 -0.03 -0.02 -0.03 -0.01 -0.03 -0.02 -0.04 -0.01 -0.03 -0.01 -0.04 -0.01 -0.03 -0.01 -0.04 -0.01 -0.04 0 -0.03 0 -0.04 -0.01 0 -0.74 0.07 0.01 0.08 0 0.07 0.01 0.08 0.01 0.07 0.02 0.07 0.02 0.07 0.02 0.06 0.03 0.07 0.03 0.06 0.03 0.07 0.04 0.06 0.04 0.05 0.04 0.06 0.04 0.05 0.05 0.06 0.05 0.04 0.05 0.05 0.05 0.04 0.06 0.05 0.06 0.03 0.06 0.04 0.06 0.03 0.06 0.03 0.07 0.03 0.07 0.02 0.06 0.02 0.08 0.02 0.07 0.01 0.07 0.01 0.07 0.01 0.08 0 0.08z"/>
  </g>
 </g>
</svg>
