<?xml version="1.0" encoding="UTF-8"?>
<!DOCTYPE svg PUBLIC "-//W3C//DTD SVG 1.1//EN" "http://www.w3.org/Graphics/SVG/1.1/DTD/svg11.dtd">
<!-- Creator: CorelDRAW 2017 -->
<svg xmlns="http://www.w3.org/2000/svg" xml:space="preserve" width="74px" height="214px" version="1.1" style="shape-rendering:geometricPrecision; text-rendering:geometricPrecision; image-rendering:optimizeQuality; fill-rule:evenodd; clip-rule:evenodd"
viewBox="0 0 4685.74 13587.91"
 xmlns:xlink="http://www.w3.org/1999/xlink">
 <defs>
  <style type="text/css">
   <![CDATA[
    .fil0 {fill:#C83538;fill-rule:nonzero}
   ]]>
  </style>
 </defs>
 <g id="Layer_x0020_1">
  <metadata id="CorelCorpID_0Corel-Layer"/>
  <g>
   <path class="fil0" d="M748.99 0l0 149.8 -748.99 0 0 -149.8 748.99 0zm1198.38 0l0 149.8 -748.99 0 0 -149.8 748.99 0zm1198.38 0l0 149.8 -748.99 0 0 -149.8 748.99 0zm1198.38 0l0 149.8 -748.99 0 0 -149.8 748.99 0zm341.61 1006.56l-149.79 0 0 -748.98 149.79 0 0 748.98zm0 1198.39l-149.79 0 0 -748.99 149.79 0 0 748.99zm0 1198.3l-149.79 0 0 -748.91 149.79 0 0 748.91zm0 1198.38l-149.79 0 0 -748.99 149.79 0 0 748.99zm0 1198.38l-149.79 0 0 -748.99 149.79 0 0 748.99zm0 1198.38l-149.79 0 0 -748.99 149.79 0 0 748.99zm0 1198.38l-149.79 0 0 -748.98 149.79 0 0 748.98zm0 1198.38l-149.79 0 0 -748.98 149.79 0 0 748.98zm0 1198.38l-149.79 0 0 -748.98 149.79 0 0 748.98zm0 1198.38l-149.79 0 0 -748.98 149.79 0 0 748.98zm0 1198.39l-149.79 0 0 -748.99 149.79 0 0 748.99zm-1208.41 139.83l0 -149.8 748.98 0 0 149.8 -748.98 0zm-1198.38 0l0 -149.8 748.98 0 0 149.8 -748.98 0zm-630.35 457.78l0 -266.34 0 0 13.78 -0.37 13.48 -0.98 13.26 -1.72 13.1 -2.32 12.81 -3 12.51 -3.59 12.36 -4.12 12.06 -4.79 11.76 -5.32 11.46 -5.84 11.16 -6.45 10.78 -6.96 10.49 -7.42 10.11 -7.93 9.74 -8.39 9.28 -8.92 8.84 -9.28 8.46 -9.67 7.94 -10.11 7.42 -10.48 6.96 -10.79 6.45 -11.16 5.84 -11.46 5.39 -11.76 4.72 -12.06 4.19 -12.35 3.6 -12.59 2.99 -12.8 2.33 -13.04 1.64 -13.33 1.05 -13.56 0.38 -13.78 266.34 0 -0.68 27.27 -2.09 27.03 -3.37 26.67 -4.72 26.29 -5.99 25.84 -7.2 25.31 -8.46 24.8 -9.51 24.26 -10.71 23.6 -11.84 22.99 -12.88 22.32 -13.85 21.57 -14.83 20.9 -15.81 20.07 -16.78 19.25 -17.6 18.5 -18.5 17.6 -19.25 16.7 -20.14 15.81 -20.83 14.83 -21.64 13.85 -22.25 12.81 -22.99 11.76 -23.59 10.71 -24.27 9.59 -24.72 8.39 -25.31 7.19 -25.84 5.91 -26.22 4.72 -26.59 3.37 -26.96 2.1 -27.26 0.67 0 0zm-532.68 -532.68l266.34 0 0 0 0.37 13.78 1.05 13.56 1.65 13.33 2.32 13.04 3 12.8 3.59 12.59 4.2 12.35 4.71 12.06 5.4 11.76 5.84 11.46 6.44 11.16 6.97 10.79 7.41 10.48 7.94 10.11 8.46 9.67 8.84 9.28 9.29 8.92 9.74 8.39 10.11 7.93 10.48 7.42 10.79 6.96 11.16 6.45 11.46 5.84 11.76 5.32 12.06 4.79 12.35 4.12 12.51 3.59 12.81 3 13.11 2.32 13.25 1.72 13.49 0.98 13.78 0.37 0 266.34 -27.27 -0.67 -26.96 -2.1 -26.59 -3.37 -26.21 -4.72 -25.84 -5.91 -25.32 -7.19 -24.72 -8.39 -24.26 -9.59 -23.6 -10.71 -22.99 -11.76 -22.24 -12.81 -21.65 -13.85 -20.82 -14.83 -20.15 -15.81 -19.25 -16.7 -18.5 -17.6 -17.6 -18.5 -16.78 -19.25 -15.8 -20.07 -14.83 -20.9 -13.86 -21.57 -12.88 -22.32 -11.83 -22.99 -10.71 -23.6 -9.52 -24.26 -8.46 -24.8 -7.19 -25.31 -5.99 -25.84 -4.72 -26.29 -3.37 -26.67 -2.1 -27.03 -0.67 -27.27 0 0zm532.68 -532.68l0 266.34 0 0 -13.78 0.38 -13.49 0.97 -13.25 1.72 -13.11 2.33 -12.81 2.99 -12.51 3.6 -12.35 4.12 -12.06 4.79 -11.76 5.32 -11.46 5.84 -11.16 6.44 -10.79 6.97 -10.48 7.41 -10.11 7.94 -9.74 8.39 -9.29 8.91 -8.84 9.29 -8.46 9.66 -7.94 10.11 -7.41 10.49 -6.97 10.78 -6.44 11.16 -5.84 11.46 -5.4 11.76 -4.71 12.06 -4.2 12.36 -3.59 12.58 -3 12.81 -2.32 13.03 -1.65 13.33 -1.05 13.56 -0.37 13.78 -266.34 0 0.67 -27.26 2.1 -27.04 3.37 -26.66 4.72 -26.29 5.99 -25.84 7.19 -25.32 8.46 -24.79 9.52 -24.27 10.71 -23.59 11.83 -22.99 12.88 -22.32 13.86 -21.57 14.83 -20.9 15.8 -20.07 16.78 -19.25 17.6 -18.5 18.5 -17.6 19.25 -16.71 20.15 -15.8 20.82 -14.83 21.65 -13.86 22.24 -12.8 22.99 -11.76 23.6 -10.71 24.26 -9.59 24.72 -8.39 25.32 -7.19 25.84 -5.92 26.21 -4.72 26.59 -3.37 26.96 -2.09 27.27 -0.68 0 0zm532.68 532.68l-266.34 0 -0.38 -13.78 -1.05 -13.56 -1.64 -13.33 -2.33 -13.03 -2.99 -12.81 -3.6 -12.58 -4.19 -12.36 -4.72 -12.06 -5.39 -11.76 -5.84 -11.46 -6.45 -11.16 -6.96 -10.78 -7.42 -10.49 -7.94 -10.11 -8.46 -9.66 -8.84 -9.29 -9.28 -8.91 -9.74 -8.39 -10.11 -7.94 -10.49 -7.41 -10.78 -6.97 -11.16 -6.44 -11.46 -5.84 -11.76 -5.32 -12.06 -4.79 -12.36 -4.12 -12.51 -3.6 -12.81 -2.99 -13.1 -2.33 -13.26 -1.72 -13.48 -0.97 -13.78 -0.38 0 -266.34 27.26 0.68 26.96 2.09 26.59 3.37 26.22 4.72 25.84 5.92 25.31 7.19 24.72 8.39 24.27 9.59 23.59 10.71 22.99 11.76 22.25 12.8 21.64 13.86 20.83 14.83 20.14 15.8 19.25 16.71 18.5 17.6 17.6 18.5 16.78 19.25 15.81 20.07 14.83 20.9 13.85 21.57 12.88 22.32 11.84 22.99 10.71 23.59 9.51 24.27 8.46 24.79 7.2 25.32 5.99 25.84 4.72 26.29 3.37 26.66 2.09 27.04 0.68 27.26z"/>
  </g>
 </g>
</svg>
