<?xml version="1.0" encoding="UTF-8"?>
<!DOCTYPE svg PUBLIC "-//W3C//DTD SVG 1.1//EN" "http://www.w3.org/Graphics/SVG/1.1/DTD/svg11.dtd">
<!-- Creator: CorelDRAW 2017 -->
<svg xmlns="http://www.w3.org/2000/svg" xml:space="preserve" width="103px" height="258px" version="1.1" style="shape-rendering:geometricPrecision; text-rendering:geometricPrecision; image-rendering:optimizeQuality; fill-rule:evenodd; clip-rule:evenodd"
viewBox="0 0 12 30.11"
 xmlns:xlink="http://www.w3.org/1999/xlink">
 <defs>
  <style type="text/css">
   <![CDATA[
    .fil0 {fill:#C83538;fill-rule:nonzero}
   ]]>
  </style>
 </defs>
 <g id="Layer_x0020_1">
  <metadata id="CorelCorpID_0Corel-Layer"/>
  <g>
   <path class="fil0" d="M10.03 29.13l0 0 0 -0.05 0.01 -0.05 0 -0.05 0.01 -0.05 0.01 -0.04 0.02 -0.05 0.01 -0.05 0.02 -0.04 0.02 -0.05 0.02 -0.04 0.03 -0.04 0.02 -0.04 0.03 -0.04 0.03 -0.03 0.03 -0.04 0.03 -0.03 0.03 -0.04 0.04 -0.03 0.04 -0.03 0.04 -0.02 0.04 -0.03 0.04 -0.02 0.04 -0.02 0.04 -0.02 0.05 -0.02 0.04 -0.02 0.05 -0.01 0.05 -0.01 0.05 -0.01 0.04 -0.01 0.05 0 0.05 0 0 0.49 -0.02 0 -0.03 0 -0.02 0 -0.02 0.01 -0.03 0 -0.02 0.01 -0.02 0.01 -0.03 0.01 -0.02 0.01 -0.02 0.01 -0.02 0.01 -0.02 0.01 -0.02 0.02 -0.02 0.01 -0.02 0.02 -0.01 0.01 -0.02 0.02 -0.01 0.02 -0.02 0.02 -0.01 0.02 -0.02 0.02 -0.01 0.02 -0.01 0.02 -0.01 0.02 -0.01 0.02 0 0.02 -0.01 0.03 -0.01 0.02 0 0.03 0 0.02 -0.01 0.02 0 0.03 0 0 -0.49 0zm0.98 0.98l0 0 -0.05 0 -0.05 0 -0.04 -0.01 -0.05 -0.01 -0.05 -0.01 -0.05 -0.01 -0.04 -0.02 -0.05 -0.02 -0.04 -0.02 -0.04 -0.02 -0.04 -0.02 -0.04 -0.03 -0.04 -0.02 -0.04 -0.03 -0.04 -0.03 -0.03 -0.04 -0.03 -0.03 -0.03 -0.04 -0.03 -0.03 -0.03 -0.04 -0.02 -0.04 -0.03 -0.04 -0.02 -0.04 -0.02 -0.05 -0.02 -0.04 -0.01 -0.05 -0.02 -0.05 -0.01 -0.04 -0.01 -0.05 0 -0.05 -0.01 -0.05 0 -0.05 0.49 0 0 0.03 0.01 0.02 0 0.02 0 0.03 0.01 0.02 0.01 0.03 0 0.02 0.01 0.02 0.01 0.02 0.01 0.02 0.01 0.02 0.02 0.02 0.01 0.02 0.02 0.02 0.01 0.02 0.02 0.02 0.01 0.01 0.02 0.02 0.02 0.01 0.02 0.02 0.02 0.01 0.02 0.01 0.02 0.01 0.02 0.01 0.03 0.01 0.02 0.01 0.02 0.01 0.03 0 0.02 0 0.02 0.01 0.03 0 0.02 0 0 0 0 0.49zm0.99 -0.98l0 0 -0.01 0.05 0 0.05 -0.01 0.05 0 0.05 -0.01 0.04 -0.02 0.05 -0.01 0.05 -0.02 0.04 -0.02 0.05 -0.02 0.04 -0.03 0.04 -0.02 0.04 -0.03 0.04 -0.03 0.03 -0.03 0.04 -0.03 0.03 -0.04 0.04 -0.03 0.03 -0.04 0.03 -0.04 0.02 -0.04 0.03 -0.04 0.02 -0.04 0.02 -0.04 0.02 -0.05 0.02 -0.04 0.02 -0.05 0.01 -0.05 0.01 -0.05 0.01 -0.05 0.01 -0.05 0 -0.05 0 0 -0.49 0.03 0 0.02 0 0.03 -0.01 0.02 0 0.03 0 0.02 -0.01 0.02 -0.01 0.03 -0.01 0.02 -0.01 0.02 -0.01 0.02 -0.01 0.02 -0.01 0.02 -0.02 0.02 -0.01 0.01 -0.02 0.02 -0.01 0.02 -0.02 0.01 -0.02 0.02 -0.02 0.01 -0.02 0.01 -0.02 0.02 -0.02 0.01 -0.02 0.01 -0.02 0.01 -0.02 0 -0.02 0.01 -0.03 0.01 -0.02 0 -0.03 0 -0.02 0 -0.02 0.01 -0.03 0 0 0.49 0zm-0.99 -0.98l0.05 0 0.05 0 0.05 0.01 0.05 0.01 0.05 0.01 0.05 0.01 0.04 0.02 0.05 0.02 0.04 0.02 0.04 0.02 0.04 0.02 0.04 0.03 0.04 0.02 0.04 0.03 0.03 0.03 0.04 0.04 0.03 0.03 0.03 0.04 0.03 0.03 0.03 0.04 0.02 0.04 0.03 0.04 0.02 0.04 0.02 0.05 0.02 0.04 0.01 0.05 0.02 0.05 0.01 0.04 0 0.05 0.01 0.05 0 0.05 0.01 0.05 -0.49 0 -0.01 -0.03 0 -0.02 0 -0.02 0 -0.03 -0.01 -0.02 -0.01 -0.03 0 -0.02 -0.01 -0.02 -0.01 -0.02 -0.01 -0.02 -0.02 -0.02 -0.01 -0.02 -0.01 -0.02 -0.02 -0.02 -0.01 -0.02 -0.02 -0.02 -0.02 -0.01 -0.01 -0.02 -0.02 -0.01 -0.02 -0.02 -0.02 -0.01 -0.02 -0.01 -0.02 -0.01 -0.02 -0.01 -0.03 -0.01 -0.02 -0.01 -0.02 -0.01 -0.03 0 -0.02 -0.01 -0.03 0 -0.02 0 -0.03 0 0 -0.49zm-0.13 -1.08l0.27 0 0 1.38 -0.27 0 0 -1.38zm0 -2.21l0.27 0 0 1.38 -0.27 0 0 -1.38zm0 -2.2l0.27 0 0 1.38 -0.27 0 0 -1.38zm0 -2.21l0.27 0 0 1.38 -0.27 0 0 -1.38zm0 -2.21l0.27 0 0 1.38 -0.27 0 0 -1.38zm0 -2.21l0.27 0 0 1.38 -0.27 0 0 -1.38zm0 -2.21l0.27 0 0 1.38 -0.27 0 0 -1.38zm0 -2.2l0.27 0 0 1.38 -0.27 0 0 -1.38zm0 -2.21l0.27 0 0 1.38 -0.27 0 0 -1.38zm0 -2.21l0.27 0 0 1.38 -0.27 0 0 -1.38zm0 -2.21l0.27 0 0 1.38 -0.27 0 0 -1.38zm0 -2.21l0.27 0 0 1.38 -0.27 0 0 -1.38zm0 -2.2l0.27 0 0 1.38 -0.27 0 0 -1.38zm-1.63 -0.3l0 -0.28 1.38 0 0 0.28 -1.38 0zm-2.21 0l0 -0.28 1.38 0 0 0.28 -1.38 0zm-2.21 0l0 -0.28 1.38 0 0 0.28 -1.38 0zm-2.21 0l0 -0.28 1.38 0 0 0.28 -1.38 0zm-2.21 0l0 -0.28 1.38 0 0 0.28 -1.38 0z"/>
  </g>
 </g>
</svg>
