<?xml version="1.0" encoding="UTF-8"?>
<!DOCTYPE svg PUBLIC "-//W3C//DTD SVG 1.1//EN" "http://www.w3.org/Graphics/SVG/1.1/DTD/svg11.dtd">
<!-- Creator: CorelDRAW 2017 -->
<svg xmlns="http://www.w3.org/2000/svg" xml:space="preserve" width="157px" height="259px" version="1.1" style="shape-rendering:geometricPrecision; text-rendering:geometricPrecision; image-rendering:optimizeQuality; fill-rule:evenodd; clip-rule:evenodd"
viewBox="0 0 34.91 57.56"
 xmlns:xlink="http://www.w3.org/1999/xlink">
 <defs>
  <style type="text/css">
   <![CDATA[
    .fil0 {fill:#C83538;fill-rule:nonzero}
   ]]>
  </style>
 </defs>
 <g id="Layer_x0020_1">
  <metadata id="CorelCorpID_0Corel-Layer"/>
  <g>
   <path class="fil0" d="M32.28 0.53l0 -0.53 2.63 0 0 0.53 -2.63 0zm-4.21 0l0 -0.53 2.63 0 0 0.53 -2.63 0zm-4.2 0l0 -0.53 2.63 0 0 0.53 -2.63 0zm-4.21 0l0 -0.53 2.63 0 0 0.53 -2.63 0zm-4.21 0l0 -0.53 2.63 0 0 0.53 -2.63 0zm-4.21 0l0 -0.53 2.63 0 0 0.53 -2.63 0zm-4.2 0l0 -0.53 2.63 0 0 0.53 -2.63 0zm-4.21 0l0 -0.53 2.63 0 0 0.53 -2.63 0zm-0.7 2.98l-0.52 0 0 -2.63 0.52 0 0 2.63zm0 4.21l-0.52 0 0 -2.63 0.52 0 0 2.63zm0 4.21l-0.52 0 0 -2.63 0.52 0 0 2.63zm0 4.21l-0.52 0 0 -2.63 0.52 0 0 2.63zm0 4.2l-0.52 0 0 -2.63 0.52 0 0 2.63zm0 4.21l-0.52 0 0 -2.63 0.52 0 0 2.63zm0 4.21l-0.52 0 0 -2.63 0.52 0 0 2.63zm0 4.21l-0.52 0 0 -2.63 0.52 0 0 2.63zm0 4.2l-0.52 0 0 -2.63 0.52 0 0 2.63zm0 4.21l-0.52 0 0 -2.63 0.52 0 0 2.63zm0 4.21l-0.52 0 0 -2.63 0.52 0 0 2.63zm0 4.21l-0.52 0 0 -2.63 0.52 0 0 2.63zm0 4.21l-0.52 0 0 -2.63 0.52 0 0 2.63zm1.61 1.68l-0.93 0 0 0 -0.01 -0.05 0 -0.04 -0.01 -0.05 0 -0.05 -0.01 -0.04 -0.02 -0.04 -0.01 -0.05 -0.02 -0.04 -0.02 -0.04 -0.02 -0.04 -0.02 -0.04 -0.02 -0.04 -0.03 -0.04 -0.03 -0.03 -0.03 -0.04 -0.03 -0.03 -0.03 -0.03 -0.04 -0.03 -0.03 -0.03 -0.04 -0.02 -0.04 -0.03 -0.03 -0.02 -0.04 -0.02 -0.05 -0.02 -0.04 -0.02 -0.04 -0.01 -0.05 -0.01 -0.04 -0.01 -0.05 -0.01 -0.04 -0.01 -0.05 0 -0.05 0 0 -0.94 0.1 0 0.09 0.01 0.09 0.01 0.1 0.02 0.09 0.02 0.09 0.03 0.08 0.03 0.09 0.03 0.08 0.04 0.08 0.04 0.08 0.04 0.08 0.05 0.07 0.06 0.07 0.05 0.07 0.06 0.06 0.06 0.06 0.07 0.06 0.06 0.06 0.07 0.05 0.08 0.05 0.07 0.04 0.08 0.05 0.08 0.03 0.09 0.04 0.08 0.03 0.09 0.02 0.09 0.02 0.09 0.02 0.09 0.01 0.09 0.01 0.1 0 0.09 0 0zm-1.87 1.87l0 -0.93 0 0 0.05 0 0.05 -0.01 0.04 0 0.05 -0.01 0.04 -0.01 0.05 -0.01 0.04 -0.02 0.04 -0.02 0.05 -0.01 0.04 -0.02 0.03 -0.03 0.04 -0.02 0.04 -0.03 0.03 -0.03 0.04 -0.03 0.03 -0.03 0.03 -0.03 0.03 -0.03 0.03 -0.04 0.03 -0.04 0.02 -0.03 0.02 -0.04 0.02 -0.04 0.02 -0.04 0.02 -0.05 0.01 -0.04 0.02 -0.04 0.01 -0.05 0 -0.04 0.01 -0.05 0 -0.05 0.01 -0.05 0.93 0 0 0.1 -0.01 0.09 -0.01 0.1 -0.02 0.09 -0.02 0.09 -0.02 0.09 -0.03 0.08 -0.04 0.09 -0.03 0.08 -0.05 0.08 -0.04 0.08 -0.05 0.08 -0.05 0.07 -0.06 0.07 -0.06 0.07 -0.06 0.06 -0.06 0.07 -0.07 0.05 -0.07 0.06 -0.07 0.05 -0.08 0.05 -0.08 0.05 -0.08 0.04 -0.08 0.04 -0.09 0.03 -0.08 0.03 -0.09 0.02 -0.09 0.02 -0.1 0.02 -0.09 0.01 -0.09 0.01 -0.1 0 0 0zm-1.87 -1.87l0.94 0 0 0 0 0.05 0 0.05 0.01 0.05 0 0.04 0.01 0.05 0.02 0.04 0.01 0.04 0.02 0.05 0.02 0.04 0.02 0.04 0.02 0.04 0.02 0.03 0.03 0.04 0.03 0.04 0.03 0.03 0.03 0.03 0.03 0.03 0.04 0.03 0.03 0.03 0.04 0.03 0.04 0.02 0.04 0.03 0.04 0.02 0.04 0.01 0.04 0.02 0.04 0.02 0.05 0.01 0.04 0.01 0.05 0.01 0.04 0 0.05 0.01 0.05 0 0 0.93 -0.1 0 -0.09 -0.01 -0.09 -0.01 -0.1 -0.02 -0.09 -0.02 -0.09 -0.02 -0.08 -0.03 -0.09 -0.03 -0.08 -0.04 -0.08 -0.04 -0.08 -0.05 -0.08 -0.05 -0.07 -0.05 -0.07 -0.06 -0.07 -0.05 -0.06 -0.07 -0.06 -0.06 -0.06 -0.07 -0.06 -0.07 -0.05 -0.07 -0.05 -0.08 -0.04 -0.08 -0.05 -0.08 -0.03 -0.08 -0.04 -0.09 -0.03 -0.08 -0.02 -0.09 -0.02 -0.09 -0.02 -0.09 -0.01 -0.1 -0.01 -0.09 0 -0.1 0 0zm1.87 -1.87l0 0.94 -0.05 0 -0.05 0 -0.04 0.01 -0.05 0.01 -0.04 0.01 -0.05 0.01 -0.04 0.01 -0.04 0.02 -0.04 0.02 -0.04 0.02 -0.04 0.02 -0.04 0.03 -0.04 0.02 -0.03 0.03 -0.04 0.03 -0.03 0.03 -0.03 0.03 -0.03 0.04 -0.03 0.03 -0.03 0.04 -0.02 0.04 -0.02 0.04 -0.02 0.04 -0.02 0.04 -0.02 0.04 -0.01 0.05 -0.02 0.04 -0.01 0.04 0 0.05 -0.01 0.05 0 0.04 0 0.05 -0.94 0 0 -0.09 0.01 -0.1 0.01 -0.09 0.02 -0.09 0.02 -0.09 0.02 -0.09 0.03 -0.09 0.04 -0.08 0.03 -0.09 0.05 -0.08 0.04 -0.08 0.05 -0.07 0.05 -0.08 0.06 -0.07 0.06 -0.06 0.06 -0.07 0.06 -0.06 0.07 -0.06 0.07 -0.05 0.07 -0.06 0.08 -0.05 0.08 -0.04 0.08 -0.04 0.08 -0.04 0.09 -0.03 0.08 -0.03 0.09 -0.03 0.09 -0.02 0.1 -0.02 0.09 -0.01 0.09 -0.01 0.1 0z"/>
  </g>
 </g>
</svg>
