<?xml version="1.0" encoding="UTF-8"?>
<!DOCTYPE svg PUBLIC "-//W3C//DTD SVG 1.1//EN" "http://www.w3.org/Graphics/SVG/1.1/DTD/svg11.dtd">
<!-- Creator: CorelDRAW 2017 -->
<svg xmlns="http://www.w3.org/2000/svg" xml:space="preserve" width="18px" height="18px" version="1.1" style="shape-rendering:geometricPrecision; text-rendering:geometricPrecision; image-rendering:optimizeQuality; fill-rule:evenodd; clip-rule:evenodd"
viewBox="0 0 0.29 0.29"
 xmlns:xlink="http://www.w3.org/1999/xlink">
 <defs>
  <style type="text/css">
   <![CDATA[
    .fil0 {fill:#A9ABAE;fill-rule:nonzero}
   ]]>
  </style>
 </defs>
 <g id="Layer_x0020_1">
  <metadata id="CorelCorpID_0Corel-Layer"/>
  <g id="_1872695278704">
   <g id="at.eps">
    <path class="fil0" d="M0.14 0.11c0.02,0 0.03,0.02 0.03,0.03 0,0.01 0.01,0.01 0.01,0.01 0,0 0,0 0,-0.01 0,-0.02 -0.02,-0.04 -0.04,-0.04 -0.02,0 -0.04,0.02 -0.04,0.04 0,0.02 0.02,0.04 0.04,0.04 0.02,0 0.03,-0.01 0.04,-0.02 0,0 0,0 0,0 -0.01,0 -0.01,0 -0.01,0 -0.01,0.01 -0.02,0.01 -0.03,0.01 -0.01,0 -0.03,-0.01 -0.03,-0.03 0,-0.01 0.02,-0.03 0.03,-0.03z"/>
    <path class="fil0" d="M0.22 0.14c0,-0.04 -0.03,-0.07 -0.07,-0.07 0,0 -0.01,0 -0.01,0l0 0c-0.02,0 -0.04,0 -0.05,0.02 -0.02,0.01 -0.02,0.03 -0.02,0.05l0 0c0,0 0,0.01 0,0.01 0,0.04 0.03,0.07 0.07,0.07 0,0 0,0 0,0 0.02,0 0.04,-0.01 0.06,-0.02 0,-0.01 0,-0.01 0,-0.01 -0.01,0 -0.01,0 -0.01,0 -0.01,0.01 -0.03,0.02 -0.05,0.02 -0.04,0 -0.06,-0.03 -0.06,-0.06 -0.01,-0.02 0,-0.04 0.02,-0.05 0.01,-0.02 0.03,-0.03 0.05,-0.02 0.03,0 0.06,0.02 0.06,0.06 0,0 0,0.01 0,0.01 0,0.01 0,0.01 -0.01,0.01 0,0 -0.01,0 -0.01,0 0,0 0,0 -0.01,0 0,0.01 0,0.01 0.01,0.01 0,0 0.01,0 0.02,0 0,0 0.01,-0.01 0.01,-0.02 0,0 0,-0.01 0,-0.01z"/>
   </g>
   <g>
    <path class="fil0" d="M0.24 0.04c-0.02,-0.03 -0.06,-0.04 -0.1,-0.04 -0.04,0 -0.07,0.01 -0.1,0.04 -0.03,0.03 -0.04,0.06 -0.04,0.1 0,0.04 0.01,0.08 0.04,0.1 0.03,0.03 0.06,0.05 0.1,0.05 0.04,0 0.08,-0.02 0.1,-0.05 0.03,-0.02 0.05,-0.06 0.05,-0.1 0,-0.04 -0.02,-0.07 -0.05,-0.1zm0 0.2c-0.03,0.02 -0.06,0.04 -0.1,0.04 -0.03,0 -0.07,-0.02 -0.09,-0.04 -0.03,-0.03 -0.04,-0.06 -0.04,-0.1 0,-0.03 0.01,-0.07 0.04,-0.09 0.02,-0.03 0.06,-0.04 0.09,-0.04 0.04,0 0.07,0.01 0.1,0.04 0.02,0.02 0.04,0.06 0.04,0.09 0,0.04 -0.02,0.07 -0.04,0.1z"/>
    <path class="fil0" d="M0.24 0.06c0,0 0,0 -0.01,0 0,0.01 0,0.01 0,0.01 0.02,0.02 0.03,0.05 0.03,0.07 0,0.03 -0.01,0.06 -0.04,0.08 -0.02,0.03 -0.05,0.04 -0.08,0.04 -0.03,0 -0.05,-0.01 -0.07,-0.03 -0.01,0 -0.01,0 -0.01,0 0,0 0,0 0,0.01 0.02,0.02 0.05,0.03 0.08,0.03 0.04,0 0.07,-0.02 0.09,-0.04 0.02,-0.02 0.04,-0.05 0.04,-0.09 0,-0.03 -0.01,-0.05 -0.03,-0.08z"/>
    <path class="fil0" d="M0.03 0.14c0,-0.06 0.05,-0.11 0.11,-0.11 0.03,0 0.06,0.01 0.08,0.03 0,0 0,0 0.01,0 0,-0.01 0,-0.01 0,-0.01 -0.03,-0.02 -0.06,-0.03 -0.09,-0.03 -0.03,0 -0.06,0.01 -0.09,0.03 -0.02,0.03 -0.03,0.06 -0.03,0.09 0,0.03 0.01,0.06 0.03,0.08 0,0 0,0 0,0 0,0 0,0 0,0 0,0 0,0 0,0 -0.01,-0.02 -0.02,-0.05 -0.02,-0.08z"/>
   </g>
  </g>
 </g>
</svg>
