<?xml version="1.0" encoding="UTF-8"?>
<!DOCTYPE svg PUBLIC "-//W3C//DTD SVG 1.1//EN" "http://www.w3.org/Graphics/SVG/1.1/DTD/svg11.dtd">
<!-- Creator: CorelDRAW 2017 -->
<svg xmlns="http://www.w3.org/2000/svg" xml:space="preserve" width="18px" height="18px" version="1.1" style="shape-rendering:geometricPrecision; text-rendering:geometricPrecision; image-rendering:optimizeQuality; fill-rule:evenodd; clip-rule:evenodd"
viewBox="0 0 0.37 0.37"
 xmlns:xlink="http://www.w3.org/1999/xlink">
 <defs>
  <style type="text/css">
   <![CDATA[
    .fil0 {fill:#A9ABAE;fill-rule:nonzero}
   ]]>
  </style>
 </defs>
 <g id="Layer_x0020_1">
  <metadata id="CorelCorpID_0Corel-Layer"/>
  <g id="facebook.eps">
   <path class="fil0" d="M0.16 0.28l0.04 0c0,0 0.01,0 0.01,0l0 -0.09 0.02 0c0,0 0,0 0,0l0 -0.03c0.01,-0.01 0,-0.01 0,-0.01 0,0 0,0 0,0l-0.02 0 0 -0.01c0,-0.01 0,-0.01 0,-0.01l0.02 0c0,0 0,0 0,0l0 -0.03c0,-0.01 0,-0.01 0,-0.01l-0.03 0c-0.02,0 -0.03,0.01 -0.03,0.02 -0.01,0.01 -0.01,0.02 -0.01,0.02l0 0.02 -0.02 0c0,0 0,0 0,0.01l0 0.03c0,0 0,0 0,0l0.02 0 0 0.09c0,0 0,0 0,0zm-0.01 -0.1l0 -0.02 0.01 0c0.01,0 0.01,0 0.01,0l0 -0.03c0,0 0,-0.01 0,-0.02 0.01,0 0.02,-0.01 0.03,-0.01l0.02 0 0 0.02 -0.01 0c-0.01,0 -0.02,0.01 -0.02,0.02l0 0.02c0,0 0.01,0 0.01,0l0.02 0 0 0.02 -0.02 0c0,0 -0.01,0 -0.01,0.01l0 0.08 -0.02 0 0 -0.08c0,-0.01 0,-0.01 -0.01,-0.01l-0.01 0z"/>
   <path class="fil0" d="M0.32 0.05c-0.04,-0.03 -0.08,-0.05 -0.13,-0.05 -0.05,0 -0.1,0.02 -0.14,0.05 -0.03,0.04 -0.05,0.09 -0.05,0.14 0,0.05 0.02,0.09 0.05,0.13 0.04,0.03 0.09,0.05 0.14,0.05 0.05,0 0.09,-0.02 0.13,-0.05 0.03,-0.04 0.05,-0.08 0.05,-0.13 0,-0.05 -0.02,-0.1 -0.05,-0.14zm-0.01 0.26c-0.03,0.03 -0.08,0.05 -0.12,0.05 -0.05,0 -0.09,-0.02 -0.13,-0.05 -0.03,-0.03 -0.05,-0.08 -0.05,-0.12 0,-0.05 0.02,-0.09 0.05,-0.13 0.04,-0.03 0.08,-0.05 0.13,-0.05 0.04,0 0.09,0.02 0.12,0.05 0.03,0.04 0.05,0.08 0.05,0.13 0,0.04 -0.02,0.09 -0.05,0.12z"/>
   <path class="fil0" d="M0.31 0.08c0,0 0,0 0,0 -0.01,0.01 -0.01,0.01 -0.01,0.01 0.03,0.03 0.04,0.06 0.04,0.1 0,0.04 -0.02,0.08 -0.05,0.1 -0.02,0.03 -0.06,0.05 -0.1,0.05 -0.04,0 -0.08,-0.01 -0.1,-0.04 -0.01,0 -0.01,0 -0.01,0 0,0 0,0.01 0,0.01 0.03,0.03 0.07,0.04 0.11,0.04 0.04,0 0.08,-0.02 0.11,-0.05 0.03,-0.03 0.05,-0.07 0.05,-0.11 0,-0.04 -0.01,-0.08 -0.04,-0.11z"/>
   <path class="fil0" d="M0.04 0.19c0,-0.09 0.06,-0.15 0.15,-0.15 0.03,0 0.07,0.01 0.1,0.03 0,0.01 0,0.01 0.01,0 0,0 0,0 0,0 -0.03,-0.03 -0.07,-0.05 -0.11,-0.05 -0.05,0 -0.09,0.02 -0.12,0.05 -0.03,0.03 -0.05,0.07 -0.05,0.12 0,0.03 0.02,0.07 0.04,0.1 0,0 0,0 0,0 0.01,0 0.01,0 0.01,0 0,0 0,0 0,-0.01 -0.02,-0.02 -0.03,-0.06 -0.03,-0.09z"/>
  </g>
 </g>
</svg>
