<?xml version="1.0" encoding="UTF-8"?>
<!DOCTYPE svg PUBLIC "-//W3C//DTD SVG 1.1//EN" "http://www.w3.org/Graphics/SVG/1.1/DTD/svg11.dtd">
<!-- Creator: CorelDRAW 2017 -->
<svg xmlns="http://www.w3.org/2000/svg" xml:space="preserve" width="18px" height="18px" version="1.1" style="shape-rendering:geometricPrecision; text-rendering:geometricPrecision; image-rendering:optimizeQuality; fill-rule:evenodd; clip-rule:evenodd"
viewBox="0 0 0.35 0.35"
 xmlns:xlink="http://www.w3.org/1999/xlink">
 <defs>
  <style type="text/css">
   <![CDATA[
    .fil0 {fill:#A9ABAE;fill-rule:nonzero}
   ]]>
  </style>
 </defs>
 <g id="Layer_x0020_1">
  <metadata id="CorelCorpID_0Corel-Layer"/>
  <g id="linkedin.eps">
   <path class="fil0" d="M0.3 0.05c-0.03,-0.03 -0.08,-0.05 -0.12,-0.05 -0.05,0 -0.1,0.02 -0.13,0.05 -0.03,0.03 -0.05,0.08 -0.05,0.13 0,0.04 0.02,0.09 0.05,0.12 0.03,0.03 0.08,0.05 0.13,0.05 0.04,0 0.09,-0.02 0.12,-0.05 0.03,-0.03 0.05,-0.08 0.05,-0.12 0,-0.05 -0.02,-0.1 -0.05,-0.13zm-0.01 0.24c-0.03,0.03 -0.07,0.05 -0.11,0.05 -0.05,0 -0.09,-0.02 -0.12,-0.05 -0.03,-0.03 -0.05,-0.07 -0.05,-0.11 0,-0.05 0.02,-0.09 0.05,-0.12 0.03,-0.03 0.07,-0.05 0.12,-0.05 0.04,0 0.08,0.02 0.11,0.05 0.03,0.03 0.05,0.07 0.05,0.12 0,0.04 -0.02,0.08 -0.05,0.11z"/>
   <path class="fil0" d="M0.29 0.08c0,0 0,0 0,0 -0.01,0 -0.01,0 0,0.01 0.02,0.02 0.03,0.05 0.03,0.09 0,0.03 -0.02,0.07 -0.04,0.1 -0.03,0.02 -0.07,0.04 -0.1,0.04 -0.04,0 -0.07,-0.02 -0.1,-0.04 0,0 -0.01,0 -0.01,0 0,0 0,0.01 0,0.01 0.03,0.02 0.07,0.04 0.11,0.04 0.04,0 0.07,-0.02 0.1,-0.05 0.03,-0.03 0.05,-0.06 0.05,-0.1 0,-0.04 -0.01,-0.07 -0.04,-0.1z"/>
   <path class="fil0" d="M0.03 0.18c0,-0.08 0.07,-0.15 0.15,-0.15 0.03,0 0.06,0.02 0.09,0.04 0,0 0.01,0 0.01,0 0,0 0,-0.01 0,-0.01 -0.03,-0.02 -0.07,-0.04 -0.1,-0.04 -0.05,0 -0.08,0.02 -0.11,0.05 -0.03,0.03 -0.05,0.06 -0.05,0.11 0,0.03 0.01,0.06 0.04,0.09 0,0 0,0 0,0 0,0 0,0 0,0 0.01,0 0.01,0 0,-0.01 -0.02,-0.02 -0.03,-0.05 -0.03,-0.08z"/>
   <path class="fil0" d="M0.22 0.26l0.04 0c0,0 0,-0.01 0,-0.01l0 -0.06c0,-0.02 0,-0.03 -0.01,-0.04 -0.01,-0.01 -0.02,-0.01 -0.03,-0.01 -0.01,0 -0.02,0 -0.03,0.01l0 0c0,-0.01 0,-0.01 0,-0.01l-0.04 0c0,0 0,0 0,0 0,0.01 0,0.01 0,0.01 0,0.01 0,0.1 0,0.1 0,0 0,0 0,0 0,0 0,0.01 0,0.01l0.04 0c0,0 0,-0.01 0,-0.01l0 -0.06c0,0 0,0 0,0 0,-0.01 0.01,-0.01 0.02,-0.01 0,0 0.01,0 0.01,0.02l0 0.05c0,0 0,0.01 0,0.01zm-0.01 -0.09c-0.01,0 -0.02,0 -0.03,0.01 0,0.01 0,0.01 0,0.01l0 0.05 -0.02 0c0,-0.01 0,-0.07 0,-0.09l0.02 0 0 0.01c0,0 0,0.01 0.01,0.01 0,0 0,0 0,0 0.01,-0.01 0.01,-0.02 0.03,-0.02 0.02,0 0.03,0.02 0.03,0.04l0 0.05 -0.02 0 0 -0.04c0,-0.01 0,-0.02 -0.01,-0.02 0,-0.01 -0.01,-0.01 -0.01,-0.01z"/>
   <path class="fil0" d="M0.14 0.12c0,-0.02 -0.01,-0.03 -0.02,-0.03 -0.02,0 -0.03,0.01 -0.03,0.03 0,0.01 0.01,0.02 0.03,0.02l0 0c0.01,0 0.02,-0.01 0.02,-0.02 0,0 0,0 0,0zm-0.02 0.01l0 0c-0.01,0 -0.02,-0.01 -0.02,-0.01 0,-0.01 0.01,-0.02 0.02,-0.02 0.01,0 0.01,0.01 0.01,0.02 0,0 0,0.01 -0.01,0.01z"/>
   <path class="fil0" d="M0.1 0.14c0,0 0,0 0,0.01l0 0.1c0,0 0,0.01 0,0.01l0.03 0c0.01,0 0.01,-0.01 0.01,-0.01l0 -0.1c0,-0.01 0,-0.01 -0.01,-0.01l-0.03 0zm0.03 0.1l-0.02 0 0 -0.09 0.02 0 0 0.09z"/>
  </g>
 </g>
</svg>
