<?xml version="1.0" encoding="UTF-8"?>
<!DOCTYPE svg PUBLIC "-//W3C//DTD SVG 1.1//EN" "http://www.w3.org/Graphics/SVG/1.1/DTD/svg11.dtd">
<!-- Creator: CorelDRAW 2017 -->
<svg xmlns="http://www.w3.org/2000/svg" xml:space="preserve" width="18px" height="18px" version="1.1" style="shape-rendering:geometricPrecision; text-rendering:geometricPrecision; image-rendering:optimizeQuality; fill-rule:evenodd; clip-rule:evenodd"
viewBox="0 0 0.43 0.43"
 xmlns:xlink="http://www.w3.org/1999/xlink">
 <defs>
  <style type="text/css">
   <![CDATA[
    .fil0 {fill:#A9ABAE;fill-rule:nonzero}
   ]]>
  </style>
 </defs>
 <g id="Layer_x0020_1">
  <metadata id="CorelCorpID_0Corel-Layer"/>
  <g id="_1872695289904">
   <g>
    <path class="fil0" d="M0.37 0.06c-0.04,-0.04 -0.1,-0.06 -0.15,-0.06 -0.06,0 -0.12,0.02 -0.16,0.06 -0.04,0.04 -0.06,0.1 -0.06,0.16 0,0.05 0.02,0.11 0.06,0.15 0.04,0.04 0.1,0.06 0.16,0.06 0.05,0 0.11,-0.02 0.15,-0.06 0.04,-0.04 0.06,-0.1 0.06,-0.15 0,-0.06 -0.02,-0.12 -0.06,-0.16zm-0.01 0.3c-0.04,0.04 -0.09,0.06 -0.14,0.06 -0.06,0 -0.11,-0.02 -0.15,-0.06 -0.04,-0.04 -0.06,-0.09 -0.06,-0.14 0,-0.06 0.02,-0.11 0.06,-0.15 0.04,-0.04 0.09,-0.06 0.15,-0.06 0.05,0 0.1,0.02 0.14,0.06 0.04,0.04 0.06,0.09 0.06,0.15 0,0.05 -0.02,0.1 -0.06,0.14z"/>
    <path class="fil0" d="M0.36 0.1c0,-0.01 0,-0.01 -0.01,0 0,0 0,0 0,0.01 0.03,0.03 0.04,0.07 0.04,0.11 0,0.04 -0.02,0.09 -0.05,0.12 -0.03,0.03 -0.08,0.05 -0.12,0.05 -0.05,0 -0.09,-0.01 -0.12,-0.04 0,0 -0.01,0 -0.01,0 0,0 0,0.01 0,0.01 0.04,0.03 0.08,0.05 0.13,0.05 0.05,0 0.1,-0.02 0.13,-0.06 0.04,-0.03 0.06,-0.08 0.06,-0.13 0,-0.05 -0.02,-0.09 -0.05,-0.12z"/>
    <path class="fil0" d="M0.04 0.22c0,-0.1 0.08,-0.18 0.18,-0.18 0.04,0 0.08,0.02 0.11,0.05 0.01,0 0.01,0 0.01,0 0.01,-0.01 0.01,-0.01 0,-0.01 -0.03,-0.04 -0.08,-0.05 -0.12,-0.05 -0.05,0 -0.1,0.02 -0.14,0.05 -0.03,0.04 -0.05,0.09 -0.05,0.14 0,0.04 0.01,0.08 0.04,0.12 0,0 0,0 0,0 0.01,0 0.01,0 0.01,0 0,0 0,-0.01 0,-0.01 -0.03,-0.03 -0.04,-0.07 -0.04,-0.11z"/>
   </g>
   <g id="phone-call.eps">
    <path class="fil0" d="M0.28 0.24c0,0 -0.01,0 -0.01,0 -0.01,0 -0.01,0 -0.02,0l-0.01 0.02c-0.01,0 -0.01,0 -0.01,0 0,0 0,0 0,0 -0.02,-0.01 -0.03,-0.03 -0.04,-0.04 -0.01,-0.01 -0.01,-0.02 -0.02,-0.02 0.01,-0.01 0.01,-0.01 0.01,-0.01 0.01,0 0.01,-0.01 0.01,-0.01 0.01,-0.01 0.01,-0.02 0,-0.03l-0.01 -0.01c-0.01,-0.01 -0.01,-0.01 -0.01,-0.01 0,0 0,-0.01 -0.01,-0.01 0,0 -0.01,-0.01 -0.01,-0.01 -0.01,0 -0.02,0.01 -0.02,0.01l0 0 -0.02 0.02c0,0 -0.01,0.01 -0.01,0.02 0,0.02 0,0.03 0.01,0.04 0.01,0.02 0.02,0.04 0.04,0.06 0.02,0.03 0.04,0.05 0.07,0.06 0.01,0.01 0.03,0.01 0.04,0.01 0.01,0 0.01,0 0.01,0 0.01,0 0.02,0 0.03,-0.01 0,0 0,0 0,0 0,0 0,-0.01 0,-0.01 0.01,0 0.01,0 0.01,0 0.01,-0.01 0.01,-0.02 0.01,-0.02 0,-0.01 0,-0.01 -0.01,-0.02l-0.03 -0.03zm0.02 0.06c0,0 0,0 0,0 0,0 0,0 0,0 -0.01,0.01 -0.01,0.01 -0.01,0.01 -0.01,0.01 -0.01,0.01 -0.02,0.01 0,0 0,0 0,0 -0.02,0 -0.03,-0.01 -0.04,-0.01 -0.03,-0.02 -0.05,-0.03 -0.07,-0.06 -0.02,-0.02 -0.03,-0.04 -0.04,-0.06 0,-0.01 -0.01,-0.02 -0.01,-0.03 0.01,0 0.01,-0.01 0.01,-0.01l0.02 -0.02c0,0 0,0 0.01,0 0,0 0,0 0,0l0 0c0.01,0 0.01,0.01 0.01,0.01 0,0 0,0 0.01,0l0.01 0.02c0,0 0,0.01 0,0.01 0,0 0,0.01 0,0.01 -0.01,0 -0.01,0.01 -0.02,0.01 0,0 0,0 0,0 0,0 0,0.01 0,0.01l0 0c0,0.01 0.01,0.02 0.02,0.03l0 0c0.01,0.01 0.02,0.03 0.04,0.04 0,0 0,0 0.01,0 0,0 0,0 0,0 0,0 0,0 0,0 0,0 0,0 0.01,0 0,0 0,0 0,0l0.02 -0.02c0,0 0,0 0.01,0 0,0 0,0 0,0l0.03 0.03c0.01,0.01 0.01,0.01 0,0.02z"/>
    <path class="fil0" d="M0.23 0.16c0.01,0 0.02,0 0.03,0.01 0.01,0.01 0.02,0.02 0.02,0.04 0,0 0,0 0,0 0,0 0,0 0.01,0 0,0 0,0 0,0 0,-0.02 -0.01,-0.03 -0.02,-0.05 -0.01,-0.01 -0.03,-0.01 -0.04,-0.02 0,0 -0.01,0.01 -0.01,0.01 0,0 0,0.01 0.01,0.01z"/>
    <path class="fil0" d="M0.33 0.2c0,-0.02 -0.01,-0.05 -0.03,-0.06 -0.02,-0.02 -0.04,-0.03 -0.07,-0.04 0,0 -0.01,0 -0.01,0.01 0,0 0,0 0.01,0 0.02,0.01 0.04,0.02 0.06,0.04 0.01,0.01 0.03,0.03 0.03,0.06 0,0 0,0 0.01,0 0,0 0,0 0,0 0,0 0,0 0,-0.01z"/>
   </g>
  </g>
 </g>
</svg>
