<?xml version="1.0" encoding="UTF-8"?>
<!DOCTYPE svg PUBLIC "-//W3C//DTD SVG 1.1//EN" "http://www.w3.org/Graphics/SVG/1.1/DTD/svg11.dtd">
<!-- Creator: CorelDRAW 2017 -->
<svg xmlns="http://www.w3.org/2000/svg" xml:space="preserve" width="18px" height="18px" version="1.1" style="shape-rendering:geometricPrecision; text-rendering:geometricPrecision; image-rendering:optimizeQuality; fill-rule:evenodd; clip-rule:evenodd"
viewBox="0 0 0.3 0.3"
 xmlns:xlink="http://www.w3.org/1999/xlink">
 <defs>
  <style type="text/css">
   <![CDATA[
    .fil0 {fill:#A9ABAE;fill-rule:nonzero}
   ]]>
  </style>
 </defs>
 <g id="Layer_x0020_1">
  <metadata id="CorelCorpID_0Corel-Layer"/>
  <g id="_1872894893680">
   <path class="fil0" d="M0.19 0.2l-0.05 -0.02 0.06 -0.09 -0.01 0.11zm-0.02 -0.09l-0.05 0.06c0,0 0,0 0,0l-0.01 0.03 -0.01 -0.04 0.07 -0.05zm-0.05 0.07l0.01 0 -0.01 0.02 0 -0.02zm0.02 -0.01l-0.01 0 0.04 -0.05 -0.01 0.01 -0.02 0.04zm0.07 -0.09c0,-0.01 0,-0.01 -0.01,-0.01l-0.08 0.04c0,0 0,0 0,0 0,0.01 0,0.01 0.01,0.01l0.05 -0.03 -0.03 0.02 -0.05 0.05 -0.03 -0.02 0.04 -0.02c0,0 0,0 0,0 0,0 0,0 0,0l-0.05 0.02c0,0 0,0 0,0 0,0.01 0,0.01 0,0.01l0.03 0.02 0.01 0.06c0,0 0.01,0 0.01,0l0.03 -0.05 0.05 0.03c0.01,0 0.01,0 0.01,-0.01l0.01 -0.12c0,0 0,0 0,0z"/>
   <g>
    <path class="fil0" d="M0.25 0.04c-0.03,-0.02 -0.06,-0.04 -0.1,-0.04 -0.04,0 -0.08,0.02 -0.11,0.04 -0.02,0.03 -0.04,0.07 -0.04,0.11 0,0.04 0.02,0.07 0.04,0.1 0.03,0.03 0.07,0.05 0.11,0.05 0.04,0 0.07,-0.02 0.1,-0.05 0.03,-0.03 0.05,-0.06 0.05,-0.1 0,-0.04 -0.02,-0.08 -0.05,-0.11zm0 0.21c-0.03,0.02 -0.07,0.04 -0.1,0.04 -0.04,0 -0.07,-0.02 -0.1,-0.04 -0.03,-0.03 -0.04,-0.07 -0.04,-0.1 0,-0.04 0.01,-0.07 0.04,-0.1 0.03,-0.03 0.06,-0.04 0.1,-0.04 0.03,0 0.07,0.01 0.1,0.04 0.02,0.03 0.04,0.06 0.04,0.1 0,0.03 -0.02,0.07 -0.04,0.1z"/>
    <path class="fil0" d="M0.25 0.07c0,-0.01 -0.01,-0.01 -0.01,0 0,0 0,0 0,0 0.02,0.02 0.03,0.05 0.03,0.08 0,0.03 -0.01,0.06 -0.04,0.08 -0.02,0.03 -0.05,0.04 -0.08,0.04 -0.03,0 -0.06,-0.01 -0.08,-0.03 0,0 -0.01,0 -0.01,0 0,0 0,0 0,0 0.03,0.03 0.06,0.04 0.09,0.04 0.03,0 0.06,-0.02 0.09,-0.04 0.02,-0.03 0.04,-0.06 0.04,-0.09 0,-0.03 -0.01,-0.06 -0.03,-0.08z"/>
    <path class="fil0" d="M0.03 0.15c0,-0.07 0.05,-0.12 0.12,-0.12 0.03,0 0.06,0.01 0.08,0.03 0,0 0,0 0,0 0.01,0 0.01,-0.01 0,-0.01 -0.02,-0.02 -0.05,-0.03 -0.08,-0.03 -0.04,0 -0.07,0.01 -0.09,0.04 -0.03,0.02 -0.04,0.05 -0.04,0.09 0,0.03 0.01,0.06 0.03,0.08 0,0 0,0 0,0 0,0 0,0 0,0 0.01,0 0.01,0 0,-0.01 -0.01,-0.02 -0.02,-0.04 -0.02,-0.07z"/>
   </g>
  </g>
 </g>
</svg>
