<?xml version="1.0" encoding="UTF-8"?>
<!DOCTYPE svg PUBLIC "-//W3C//DTD SVG 1.1//EN" "http://www.w3.org/Graphics/SVG/1.1/DTD/svg11.dtd">
<!-- Creator: CorelDRAW 2017 -->
<svg xmlns="http://www.w3.org/2000/svg" xml:space="preserve" width="18px" height="18px" version="1.1" style="shape-rendering:geometricPrecision; text-rendering:geometricPrecision; image-rendering:optimizeQuality; fill-rule:evenodd; clip-rule:evenodd"
viewBox="0 0 0.31 0.31"
 xmlns:xlink="http://www.w3.org/1999/xlink">
 <defs>
  <style type="text/css">
   <![CDATA[
    .fil0 {fill:#A9ABAE;fill-rule:nonzero}
   ]]>
  </style>
 </defs>
 <g id="Layer_x0020_1">
  <metadata id="CorelCorpID_0Corel-Layer"/>
  <g id="youtube.eps">
   <path class="fil0" d="M0.27 0.05c-0.03,-0.03 -0.07,-0.05 -0.11,-0.05 -0.05,0 -0.08,0.02 -0.11,0.05 -0.03,0.03 -0.05,0.06 -0.05,0.11 0,0.04 0.02,0.08 0.05,0.11 0.03,0.03 0.06,0.04 0.11,0.04 0.04,0 0.08,-0.01 0.11,-0.04 0.03,-0.03 0.04,-0.07 0.04,-0.11 0,-0.05 -0.01,-0.08 -0.04,-0.11zm-0.01 0.21c-0.03,0.03 -0.07,0.04 -0.1,0.04 -0.04,0 -0.08,-0.01 -0.11,-0.04 -0.03,-0.03 -0.04,-0.07 -0.04,-0.1 0,-0.04 0.01,-0.08 0.04,-0.11 0.03,-0.03 0.07,-0.04 0.11,-0.04 0.03,0 0.07,0.01 0.1,0.04 0.03,0.03 0.04,0.07 0.04,0.11 0,0.03 -0.01,0.07 -0.04,0.1z"/>
   <path class="fil0" d="M0.26 0.07c0,0 0,0 0,0 -0.01,0 -0.01,0 -0.01,0.01 0.02,0.02 0.03,0.05 0.03,0.08 0,0.03 -0.01,0.06 -0.03,0.09 -0.03,0.02 -0.06,0.03 -0.09,0.03 -0.04,0 -0.07,-0.01 -0.09,-0.03 0,0 0,0 -0.01,0 0,0 0,0.01 0,0.01 0.03,0.02 0.06,0.03 0.1,0.03 0.03,0 0.07,-0.01 0.09,-0.04 0.03,-0.02 0.04,-0.06 0.04,-0.09 0,-0.04 -0.01,-0.07 -0.03,-0.09z"/>
   <path class="fil0" d="M0.03 0.16c0,-0.07 0.06,-0.13 0.13,-0.13 0.03,0 0.06,0.01 0.08,0.03 0,0 0.01,0 0.01,0 0,0 0,0 0,-0.01 -0.03,-0.02 -0.06,-0.03 -0.09,-0.03 -0.04,0 -0.07,0.01 -0.1,0.04 -0.03,0.03 -0.04,0.06 -0.04,0.1 0,0.03 0.01,0.06 0.03,0.08 0,0 0,0 0,0 0,0 0.01,0 0.01,0 0,0 0,0 0,0 -0.02,-0.03 -0.03,-0.06 -0.03,-0.08z"/>
   <path class="fil0" d="M0.24 0.12c0,0 0,-0.01 -0.01,-0.02 0,-0.01 -0.01,-0.01 -0.02,-0.01 0,0 0,0 0,0 0,0 0,0 0,0 -0.02,0 -0.05,0 -0.05,0l0 0c0,0 -0.04,0 -0.06,0 0,0 0,0 0,0 0,0 0,0 0,0 0,0 -0.01,0 -0.02,0.01 -0.01,0.01 -0.01,0.02 -0.01,0.02 0,0 0,0 0,0 0,0 0,0.02 0,0.03l0 0.01c0,0.02 0,0.03 0,0.03 0,0 0,0 0,0 0,0 0,0.01 0.01,0.02 0.01,0.01 0.01,0.01 0.02,0.01 0,0 0,0 0,0 0,0 0,0 0,0 0.01,0 0.05,0 0.06,0 0,0 0.03,0 0.05,0 0,0 0,0 0,0 0,0 0,0 0,0 0.01,0 0.02,0 0.02,-0.01 0.01,-0.01 0.01,-0.02 0.01,-0.02 0,0 0,0 0,0 0,0 0,-0.01 0,-0.03l0 -0.01c0,-0.01 0,-0.03 0,-0.03 0,0 0,0 0,0zm-0.01 0.04c0,0.02 0,0.03 0,0.03 0,0 0,0.01 0,0.01 0,0 -0.01,0 -0.01,0 0,0.01 0,0.01 -0.01,0.01 0,0 0,0 0,0 -0.02,0 -0.05,0 -0.05,0 0,0 -0.04,0 -0.06,0 0,0 0,0 0,0 0,0 -0.01,0 -0.01,-0.01l0 0c-0.01,0 -0.01,-0.01 -0.01,-0.01 0,0 0,-0.01 0,-0.03l0 -0.01c0,-0.01 0,-0.03 0,-0.03 0,0 0,-0.01 0.01,-0.01 0,0 0,0 0,0 0,-0.01 0.01,-0.01 0.01,-0.01 0,0 0,0 0,0 0.02,0 0.06,0 0.06,0l0 0c0,0 0.03,0 0.05,0 0,0 0,0 0,0 0.01,0 0.01,0 0.01,0.01 0,0 0.01,0 0.01,0 0,0 0,0.01 0,0.01 0,0 0,0.02 0,0.03l0 0.01z"/>
   <path class="fil0" d="M0.19 0.15l-0.05 -0.03c0,0 0,0 -0.01,0 0,0 0,0 0,0.01l0 0.06c0,0 0,0 0,0 0,0 0.01,0 0.01,0 0,0 0,0 0,0l0.05 -0.03c0,0 0,0 0,0 0,-0.01 0,-0.01 0,-0.01zm-0.05 0.03l0 -0.05 0.04 0.03 -0.04 0.02z"/>
  </g>
 </g>
</svg>
