<?xml version="1.0" encoding="UTF-8"?>
<!DOCTYPE svg PUBLIC "-//W3C//DTD SVG 1.1//EN" "http://www.w3.org/Graphics/SVG/1.1/DTD/svg11.dtd">
<!-- Creator: CorelDRAW 2017 -->
<svg xmlns="http://www.w3.org/2000/svg" xml:space="preserve" width="55px" height="50px" version="1.1" style="shape-rendering:geometricPrecision; text-rendering:geometricPrecision; image-rendering:optimizeQuality; fill-rule:evenodd; clip-rule:evenodd"
viewBox="0 0 21.27 19.5"
 xmlns:xlink="http://www.w3.org/1999/xlink">
 <defs>
  <style type="text/css">
   <![CDATA[
    .fil0 {fill:#848688;fill-rule:nonzero}
    .fil1 {fill:#C83538;fill-rule:nonzero}
   ]]>
  </style>
 </defs>
 <g id="Layer_x0020_1">
  <metadata id="CorelCorpID_0Corel-Layer"/>
  <g id="_2082770447136">
   <path class="fil0" d="M0.89 15.51l0 -1.77 19.49 0 0 1.77 -19.49 0zm20.38 0.89l0 -16.4 -21.27 0 0 16.4 6.65 0 0 2.21 -1.78 0 0 0.89 11.53 0 0 -0.89 -1.78 0 0 -2.21 6.65 0zm-7.53 2.21l-6.21 0 0 -2.21 6.21 0 0 2.21zm-12.85 -17.72l19.49 0 0 11.96 -19.49 0 0 -11.96z"/>
   <polygon class="fil0" points="13.29,2.66 19.05,2.66 19.05,1.77 13.29,1.77 "/>
   <polygon class="fil0" points="10.19,2.66 12.41,2.66 12.41,1.77 10.19,1.77 "/>
   <polygon class="fil0" points="8.42,2.66 9.31,2.66 9.31,1.77 8.42,1.77 "/>
   <polygon class="fil0" points="6.65,2.66 7.53,2.66 7.53,1.77 6.65,1.77 "/>
   <polygon class="fil0" points="13.74,9.31 19.05,9.31 19.05,8.42 13.74,8.42 "/>
   <polygon class="fil0" points="11.96,9.31 12.85,9.31 12.85,8.42 11.96,8.42 "/>
   <polygon class="fil0" points="10.19,9.31 11.08,9.31 11.08,8.42 10.19,8.42 "/>
   <polygon class="fil0" points="14.62,7.09 19.05,7.09 19.05,6.2 14.62,6.2 "/>
   <polygon class="fil0" points="8.42,7.09 13.74,7.09 13.74,6.2 8.42,6.2 "/>
   <polygon class="fil0" points="9.75,4.87 11.52,4.87 11.52,3.99 9.75,3.99 "/>
   <polygon class="fil0" points="12.41,4.87 19.05,4.87 19.05,3.99 12.41,3.99 "/>
   <polygon class="fil0" points="2.22,4.87 8.86,4.87 8.86,3.99 2.22,3.99 "/>
   <polygon class="fil0" points="10.63,11.52 19.05,11.52 19.05,10.63 10.63,10.63 "/>
   <polygon class="fil1" points="7.62,7.88 7,8.51 8.24,9.75 7,10.99 7.62,11.61 9.49,9.75 "/>
   <polygon class="fil1" points="4.08,8.51 3.45,7.88 1.59,9.75 3.45,11.61 4.08,10.99 2.84,9.75 "/>
   <polygon class="fil1" points="4.24,11.8 6.01,7.37 6.84,7.7 5.06,12.13 "/>
  </g>
 </g>
</svg>
