<?xml version="1.0" encoding="UTF-8"?>
<!DOCTYPE svg PUBLIC "-//W3C//DTD SVG 1.1//EN" "http://www.w3.org/Graphics/SVG/1.1/DTD/svg11.dtd">
<!-- Creator: CorelDRAW 2017 -->
<svg xmlns="http://www.w3.org/2000/svg" xml:space="preserve" width="51px" height="50px" version="1.1" style="shape-rendering:geometricPrecision; text-rendering:geometricPrecision; image-rendering:optimizeQuality; fill-rule:evenodd; clip-rule:evenodd"
viewBox="0 0 2.54 2.47"
 xmlns:xlink="http://www.w3.org/1999/xlink">
 <defs>
  <style type="text/css">
   <![CDATA[
    .fil1 {fill:#848688;fill-rule:nonzero}
    .fil0 {fill:#C83538;fill-rule:nonzero}
   ]]>
  </style>
 </defs>
 <g id="Layer_x0020_1">
  <metadata id="CorelCorpID_0Corel-Layer"/>
  <g id="_2082770445856">
   <path class="fil0" d="M0.59 1.1l-0.26 0 0 -0.26 0.26 0 0 0.26zm0.04 -0.34l-0.34 0c-0.02,0 -0.04,0.02 -0.04,0.04l0 0.34c0,0.02 0.02,0.04 0.04,0.04l0.34 0c0.03,0 0.04,-0.02 0.04,-0.04l0 -0.34c0,-0.02 -0.01,-0.04 -0.04,-0.04z"/>
   <path class="fil1" d="M0.84 0.84l0.26 0 0 0.26 -0.26 0 0 -0.26zm-0.04 0.34l0.34 0c0.02,0 0.04,-0.02 0.04,-0.04l0 -0.34c0,-0.02 -0.02,-0.04 -0.04,-0.04l-0.34 0c-0.02,0 -0.04,0.02 -0.04,0.04l0 0.34c0,0.02 0.02,0.04 0.04,0.04z"/>
   <path class="fil0" d="M0.59 1.61l-0.26 0 0 -0.26 0.26 0 0 0.26zm0.04 -0.34l-0.34 0c-0.02,0 -0.04,0.02 -0.04,0.04l0 0.34c0,0.02 0.02,0.04 0.04,0.04l0.34 0c0.03,0 0.04,-0.02 0.04,-0.04l0 -0.34c0,-0.02 -0.01,-0.04 -0.04,-0.04z"/>
   <path class="fil1" d="M1.82 2.39c-0.33,0 -0.6,-0.25 -0.63,-0.57 0,0 0,0 0,0 -0.01,-0.03 -0.01,-0.05 -0.01,-0.07 0,-0.24 0.14,-0.46 0.36,-0.57 0,0 0,0 0,0 0.04,-0.02 0.08,-0.04 0.12,-0.05 0,0 0,0 0,0 0.05,-0.01 0.11,-0.02 0.16,-0.02 0.03,0 0.05,0 0.08,0.01 0,0 0,0 0,0 0.32,0.04 0.56,0.31 0.56,0.63 0,0.35 -0.29,0.64 -0.64,0.64zm-0.72 -1.04l0 0.26 -0.26 0 0 -0.26 0.26 0zm0.41 -0.25l-0.16 0 0 -0.26 0.26 0 0 0.22c-0.03,0.01 -0.07,0.03 -0.1,0.04zm-1.43 -0.77l0.13 0 0 0.22c0,0.02 0.02,0.04 0.04,0.04l0.17 0c0.02,0 0.04,-0.02 0.04,-0.04l0 -0.22 0.39 0 0 0.22c0,0.02 0.02,0.04 0.04,0.04l0.17 0c0.02,0 0.04,-0.02 0.04,-0.04l0 -0.22 0.38 0 0 0.22c0,0.02 0.02,0.04 0.04,0.04l0.17 0c0.03,0 0.04,-0.02 0.04,-0.04l0 -0.22 0.14 0 0 0.7c-0.02,0 -0.03,0 -0.05,0 -0.04,0 -0.09,0.01 -0.13,0.01l0 -0.24c0,-0.02 -0.02,-0.04 -0.04,-0.04l-0.34 0c-0.02,0 -0.04,0.02 -0.04,0.04l0 0.34c0,0.02 0.02,0.04 0.04,0.04l0.07 0c-0.07,0.05 -0.12,0.12 -0.17,0.19 -0.01,0.01 -0.02,0.03 -0.03,0.05l0 -0.11c0,-0.02 -0.02,-0.04 -0.04,-0.04l-0.34 0c-0.02,0 -0.04,0.02 -0.04,0.04l0 0.34c0,0.02 0.02,0.04 0.04,0.04l0.31 0c-0.01,0.02 -0.01,0.04 -0.01,0.06 0,0.01 0,0.02 0,0.03l-1.02 0 0 -1.45zm0.21 -0.25l0.09 0 0 0.43 -0.09 0 0 -0.43zm0.64 0l0.09 0 0 0.43 -0.09 0 0 -0.43zm0.63 0l0.09 0 0 0.43 -0.09 0 0 -0.43zm0.39 0.96l0 -0.75c0,-0.02 -0.02,-0.04 -0.04,-0.04l-0.18 0 0 -0.21c0,-0.02 -0.01,-0.04 -0.04,-0.04l-0.17 0c-0.02,0 -0.04,0.02 -0.04,0.04l0 0.21 -0.38 0 0 -0.21c0,-0.02 -0.02,-0.04 -0.04,-0.04l-0.17 0c-0.02,0 -0.04,0.02 -0.04,0.04l0 0.21 -0.39 0 0 -0.21c0,-0.02 -0.02,-0.04 -0.04,-0.04l-0.17 0c-0.02,0 -0.04,0.02 -0.04,0.04l0 0.21 -0.17 0c-0.02,0 -0.04,0.02 -0.04,0.04l0 1.53c0,0.02 0.02,0.04 0.04,0.04l1.07 0c0.03,0.16 0.11,0.31 0.23,0.42 0.13,0.12 0.3,0.19 0.48,0.19 0.4,0 0.72,-0.32 0.72,-0.72 0,-0.35 -0.25,-0.65 -0.59,-0.71z"/>
   <path class="fil1" d="M2.37 1.55c0,-0.02 -0.03,-0.03 -0.05,-0.02 -0.02,0.01 -0.03,0.03 -0.02,0.05 0.02,0.05 0.03,0.11 0.03,0.17 0,0.02 0.02,0.04 0.04,0.04 0.02,0 0.04,-0.02 0.04,-0.04 0,-0.07 -0.01,-0.13 -0.04,-0.2z"/>
   <path class="fil1" d="M2.3 1.42c-0.07,-0.12 -0.19,-0.2 -0.32,-0.23 -0.02,-0.01 -0.04,0 -0.05,0.02 0,0.02 0.01,0.05 0.03,0.05 0.11,0.03 0.21,0.11 0.28,0.2 0.01,0.01 0.02,0.02 0.03,0.02 0.01,0 0.02,0 0.02,-0.01 0.02,-0.01 0.03,-0.04 0.01,-0.05z"/>
   <path class="fil1" d="M1.82 2.12c-0.2,0 -0.37,-0.17 -0.37,-0.37 0,-0.2 0.17,-0.37 0.37,-0.37 0.21,0 0.37,0.17 0.37,0.37 0,0.2 -0.16,0.37 -0.37,0.37zm0 -0.82c-0.25,0 -0.45,0.2 -0.45,0.45 0,0.25 0.2,0.45 0.45,0.45 0.25,0 0.45,-0.2 0.45,-0.45 0,-0.25 -0.2,-0.45 -0.45,-0.45z"/>
   <path class="fil0" d="M2.05 1.74l-0.19 0 0 -0.19c0,-0.03 -0.02,-0.04 -0.04,-0.04 -0.02,0 -0.04,0.01 -0.04,0.04l0 0.23c0,0.02 0.02,0.04 0.04,0.04l0.23 0c0.03,0 0.04,-0.02 0.04,-0.04 0,-0.02 -0.01,-0.04 -0.04,-0.04z"/>
  </g>
 </g>
</svg>
