<?xml version="1.0" encoding="UTF-8"?>
<!DOCTYPE svg PUBLIC "-//W3C//DTD SVG 1.1//EN" "http://www.w3.org/Graphics/SVG/1.1/DTD/svg11.dtd">
<!-- Creator: CorelDRAW 2017 -->
<svg xmlns="http://www.w3.org/2000/svg" xml:space="preserve" width="50px" height="50px" version="1.1" style="shape-rendering:geometricPrecision; text-rendering:geometricPrecision; image-rendering:optimizeQuality; fill-rule:evenodd; clip-rule:evenodd"
viewBox="0 0 2.67 2.67"
 xmlns:xlink="http://www.w3.org/1999/xlink">
 <defs>
  <style type="text/css">
   <![CDATA[
    .fil0 {fill:#848688;fill-rule:nonzero}
    .fil1 {fill:#C83538;fill-rule:nonzero}
   ]]>
  </style>
 </defs>
 <g id="Layer_x0020_1">
  <metadata id="CorelCorpID_0Corel-Layer"/>
  <g id="_2082731331024">
   <path class="fil0" d="M0.09 1.25l0.29 0 0.1 0.2c0.01,0.02 0.03,0.03 0.04,0.03 0.02,0 0.03,-0.01 0.04,-0.03l0.1 -0.2 0.02 0c0.03,0 0.05,-0.02 0.05,-0.05 0,-0.02 -0.02,-0.04 -0.05,-0.04l-0.04 0c-0.02,0 -0.03,0.01 -0.04,0.02l-0.08 0.16 -0.08 -0.16c0,-0.01 -0.02,-0.02 -0.03,-0.02l-0.32 0c0,0 0,0 0,-0.01l0 -1.06c0,0 0,0 0,0l0.86 0c0.01,0 0.01,0 0.01,0l0 0.46c0,0.03 0.02,0.05 0.04,0.05 0.02,0 0.04,-0.02 0.04,-0.05l0 -0.46c0,-0.05 -0.04,-0.09 -0.09,-0.09l-0.86 0c-0.05,0 -0.09,0.04 -0.09,0.09l0 1.06c0,0.05 0.04,0.1 0.09,0.1z"/>
   <path class="fil0" d="M0.52 0.17c-0.12,0 -0.21,0.1 -0.21,0.21 0,0.12 0.09,0.22 0.21,0.22 0.12,0 0.21,-0.1 0.21,-0.22 0,-0.11 -0.09,-0.21 -0.21,-0.21zm0 0.34c-0.07,0 -0.13,-0.06 -0.13,-0.13 0,-0.07 0.06,-0.12 0.13,-0.12 0.07,0 0.13,0.05 0.13,0.12 0,0.07 -0.06,0.13 -0.13,0.13z"/>
   <path class="fil0" d="M0.52 0.77c0.05,0 0.1,0.01 0.14,0.04 0.02,0.01 0.05,0 0.06,-0.02 0.01,-0.02 0.01,-0.04 -0.01,-0.06 -0.06,-0.03 -0.12,-0.05 -0.19,-0.05 -0.19,0 -0.35,0.16 -0.35,0.35 0,0.03 0.02,0.05 0.04,0.05l0.47 0c0.03,0 0.05,-0.02 0.05,-0.05 0,-0.02 -0.02,-0.04 -0.05,-0.04l-0.42 0c0.02,-0.13 0.13,-0.22 0.26,-0.22z"/>
   <path class="fil0" d="M2.58 0l-0.86 0c-0.05,0 -0.1,0.04 -0.1,0.09l0 0.46c0,0.03 0.02,0.05 0.05,0.05 0.02,0 0.04,-0.02 0.04,-0.05l0 -0.46c0,0 0,0 0.01,0l0.86 0c0,0 0,0 0,0l0 1.06c0,0.01 0,0.01 0,0.01l-0.32 0c-0.02,0 -0.03,0.01 -0.04,0.02l-0.07 0.16 -0.08 -0.16c-0.01,-0.01 -0.02,-0.02 -0.04,-0.02l-0.05 0c-0.02,0 -0.04,0.02 -0.04,0.04 0,0.03 0.02,0.05 0.04,0.05l0.02 0 0.11 0.2c0,0.02 0.02,0.03 0.04,0.03 0.01,0 0.03,-0.01 0.03,-0.03l0.11 -0.2 0.29 0c0.05,0 0.09,-0.05 0.09,-0.1l0 -1.06c0,-0.05 -0.04,-0.09 -0.09,-0.09z"/>
   <path class="fil0" d="M2.15 0.17c-0.12,0 -0.22,0.1 -0.22,0.21 0,0.12 0.1,0.22 0.22,0.22 0.11,0 0.21,-0.1 0.21,-0.22 0,-0.11 -0.1,-0.21 -0.21,-0.21zm0 0.34c-0.07,0 -0.13,-0.06 -0.13,-0.13 0,-0.07 0.06,-0.12 0.13,-0.12 0.07,0 0.12,0.05 0.12,0.12 0,0.07 -0.05,0.13 -0.12,0.13z"/>
   <path class="fil0" d="M1.94 1.03c0,0.03 0.02,0.05 0.04,0.05l0.47 0c0.03,0 0.05,-0.02 0.05,-0.05 0,-0.19 -0.16,-0.35 -0.35,-0.35 -0.07,0 -0.13,0.02 -0.19,0.05 -0.02,0.02 -0.03,0.04 -0.01,0.06 0.01,0.02 0.03,0.03 0.05,0.02 0.05,-0.03 0.1,-0.04 0.15,-0.04 0.13,0 0.24,0.09 0.26,0.22l-0.43 0c-0.02,0 -0.04,0.02 -0.04,0.04z"/>
   <path class="fil0" d="M0.81 0.77l0 1.06c0,0.05 0.04,0.1 0.09,0.1l0.29 0 0.11 0.2c0,0.02 0.02,0.03 0.03,0.03 0.02,0 0.03,-0.01 0.04,-0.03l0.11 -0.2 0.28 0c0.05,0 0.1,-0.05 0.1,-0.1l0 -1.06c0,-0.05 -0.05,-0.09 -0.1,-0.09l-0.86 0c-0.05,0 -0.09,0.04 -0.09,0.09zm0.96 0l0 1.06c0,0.01 0,0.01 -0.01,0.01l-0.31 0c-0.02,0 -0.03,0.01 -0.04,0.02l-0.08 0.16 -0.07 -0.16c-0.01,-0.01 -0.03,-0.02 -0.04,-0.02l-0.32 0c0,0 0,0 0,-0.01l0 -1.06c0,0 0,0 0,0l0.86 0c0.01,0 0.01,0 0.01,0z"/>
   <path class="fil1" d="M1.33 1.28c0.12,0 0.22,-0.1 0.22,-0.22 0,-0.11 -0.1,-0.21 -0.22,-0.21 -0.11,0 -0.21,0.1 -0.21,0.21 0,0.12 0.1,0.22 0.21,0.22zm0 -0.34c0.07,0 0.13,0.05 0.13,0.12 0,0.07 -0.06,0.13 -0.13,0.13 -0.07,0 -0.12,-0.06 -0.12,-0.13 0,-0.07 0.05,-0.12 0.12,-0.12z"/>
   <path class="fil1" d="M1.02 1.76l0.62 0c0.03,0 0.04,-0.02 0.04,-0.05 0,-0.19 -0.15,-0.35 -0.35,-0.35 -0.19,0 -0.35,0.16 -0.35,0.35 0,0.03 0.02,0.05 0.04,0.05zm0.31 -0.31c0.14,0 0.25,0.09 0.27,0.22l-0.53 0c0.02,-0.13 0.13,-0.22 0.26,-0.22z"/>
   <path class="fil1" d="M2.16 2.5c0.03,0 0.05,-0.02 0.05,-0.05 0,-0.02 -0.02,-0.04 -0.05,-0.04 -0.02,0 -0.04,0.02 -0.04,0.04 0,0.03 0.02,0.05 0.04,0.05z"/>
   <path class="fil1" d="M1.93 2.5c0.03,0 0.05,-0.02 0.05,-0.05 0,-0.02 -0.02,-0.04 -0.05,-0.04 -0.02,0 -0.04,0.02 -0.04,0.04 0,0.03 0.02,0.05 0.04,0.05z"/>
   <path class="fil1" d="M2.4 2.5c0.02,0 0.04,-0.02 0.04,-0.05 0,-0.02 -0.02,-0.04 -0.04,-0.04 -0.03,0 -0.05,0.02 -0.05,0.04 0,0.03 0.02,0.05 0.05,0.05z"/>
   <path class="fil0" d="M2.62 2.24l-2.58 0c-0.02,0 -0.04,0.02 -0.04,0.04l0 0.34c0,0.03 0.02,0.05 0.04,0.05l2.58 0c0.03,0 0.05,-0.02 0.05,-0.05l0 -0.34c0,-0.02 -0.02,-0.04 -0.05,-0.04zm-2.53 0.09l1.57 0 0 0.25 -1.57 0 0 -0.25zm2.49 0.25l-0.83 0 0 -0.25 0.83 0 0 0.25z"/>
  </g>
 </g>
</svg>
