<?xml version="1.0" encoding="UTF-8"?>
<!DOCTYPE svg PUBLIC "-//W3C//DTD SVG 1.1//EN" "http://www.w3.org/Graphics/SVG/1.1/DTD/svg11.dtd">
<!-- Creator: CorelDRAW 2017 -->
<svg xmlns="http://www.w3.org/2000/svg" xml:space="preserve" width="50px" height="50px" version="1.1" style="shape-rendering:geometricPrecision; text-rendering:geometricPrecision; image-rendering:optimizeQuality; fill-rule:evenodd; clip-rule:evenodd"
viewBox="0 0 3.91 3.91"
 xmlns:xlink="http://www.w3.org/1999/xlink">
 <defs>
  <style type="text/css">
   <![CDATA[
    .fil0 {fill:#848688;fill-rule:nonzero}
    .fil1 {fill:#C83538;fill-rule:nonzero}
   ]]>
  </style>
 </defs>
 <g id="Layer_x0020_1">
  <metadata id="CorelCorpID_0Corel-Layer"/>
  <g id="_2082771156336">
   <path class="fil0" d="M3.84 0l-3.77 0c-0.04,0 -0.07,0.03 -0.07,0.07l0 3.77c0,0.04 0.03,0.07 0.07,0.07l3.77 0c0.04,0 0.07,-0.03 0.07,-0.07l0 -3.77c0,-0.04 -0.03,-0.07 -0.07,-0.07zm-0.06 0.26l-1.24 0 0 0.13 1.24 0 0 3.13 -1.24 0 0 0.13 1.24 0 0 0.13 -3.65 0 0 -0.13 2.15 0 0 -0.13 -2.15 0 0 -3.13 2.15 0 0 -0.13 -2.15 0 0 -0.13 3.65 0 0 0.13z"/>
   <path class="fil1" d="M0.71 0.63c-0.01,-0.02 -0.03,-0.04 -0.06,-0.04 -0.02,0 -0.05,0.02 -0.06,0.04l-0.19 0.5c0,0.01 -0.01,0.02 -0.01,0.04l0 2.09c0,0.04 0.03,0.06 0.07,0.06l0.39 0c0.04,0 0.06,-0.02 0.06,-0.06l0 -2.09c0,-0.02 0,-0.03 -0.01,-0.04l-0.19 -0.5zm-0.07 0.2l0.11 0.28 -0.2 0 0.09 -0.28zm-0.12 0.41l0.07 0 0 1.56 -0.07 0 0 -1.56zm0.26 1.95l-0.26 0 0 -0.26 0.26 0 0 0.26zm0 -0.39l-0.06 0 0 -1.56 0.06 0 0 1.56z"/>
   <path class="fil0" d="M1.89 0.59l-0.65 0c-0.04,0 -0.07,0.02 -0.07,0.06l0 2.61c0,0.04 0.03,0.06 0.07,0.06l0.65 0c0.04,0 0.06,-0.02 0.06,-0.06l0 -2.61c0,-0.04 -0.02,-0.06 -0.06,-0.06zm-0.07 2.6l-0.52 0 0 -0.19 0.2 0 0 -0.13 -0.2 0 0 -0.2 0.33 0 0 -0.13 -0.33 0 0 -0.2 0.2 0 0 -0.13 -0.2 0 0 -0.19 0.33 0 0 -0.13 -0.33 0 0 -0.2 0.2 0 0 -0.13 -0.2 0 0 -0.19 0.33 0 0 -0.13 -0.33 0 0 -0.2 0.2 0 0 -0.13 -0.2 0 0 -0.19 0.52 0 0 2.47z"/>
   <path class="fil0" d="M2.21 0.65l0 0.65c0,0.04 0.03,0.07 0.07,0.07l0.52 0 0 0.19 -0.52 0c-0.04,0 -0.07,0.03 -0.07,0.07l0 0.65c0,0.04 0.03,0.06 0.07,0.06l0.52 0 0 0.2 -0.52 0c-0.04,0 -0.07,0.03 -0.07,0.07l0 0.65c0,0.04 0.03,0.06 0.07,0.06l1.17 0c0.04,0 0.07,-0.02 0.07,-0.06l0 -0.65c0,-0.04 -0.03,-0.07 -0.07,-0.07l-0.52 0 0 -0.2 0.52 0c0.04,0 0.07,-0.02 0.07,-0.06l0 -0.65c0,-0.04 -0.03,-0.07 -0.07,-0.07l-0.52 0 0 -0.19 0.52 0c0.04,0 0.07,-0.03 0.07,-0.07l0 -0.65c0,-0.04 -0.03,-0.06 -0.07,-0.06l-1.17 0c-0.04,0 -0.07,0.02 -0.07,0.06zm1.18 2.02l0 0.52 -1.05 0 0 -0.52 1.05 0zm0 -0.98l0 0.52 -1.05 0 0 -0.52 1.05 0zm-1.05 -0.97l1.05 0 0 0.52 -1.05 0 0 -0.52z"/>
   <polygon class="fil0" points="2.54,1.04 2.67,1.04 2.67,0.91 2.54,0.91 "/>
   <polygon class="fil0" points="2.8,1.04 2.93,1.04 2.93,0.91 2.8,0.91 "/>
   <polygon class="fil0" points="3.06,1.04 3.19,1.04 3.19,0.91 3.06,0.91 "/>
   <polygon class="fil0" points="2.54,2.02 2.67,2.02 2.67,1.89 2.54,1.89 "/>
   <polygon class="fil0" points="2.8,2.02 2.93,2.02 2.93,1.89 2.8,1.89 "/>
   <polygon class="fil0" points="3.06,2.02 3.19,2.02 3.19,1.89 3.06,1.89 "/>
   <polygon class="fil0" points="2.54,3 2.67,3 2.67,2.87 2.54,2.87 "/>
   <polygon class="fil0" points="2.8,3 2.93,3 2.93,2.87 2.8,2.87 "/>
   <polygon class="fil0" points="3.06,3 3.19,3 3.19,2.87 3.06,2.87 "/>
  </g>
 </g>
</svg>
