<?xml version="1.0" encoding="UTF-8"?>
<!DOCTYPE svg PUBLIC "-//W3C//DTD SVG 1.1//EN" "http://www.w3.org/Graphics/SVG/1.1/DTD/svg11.dtd">
<!-- Creator: CorelDRAW 2017 -->
<svg xmlns="http://www.w3.org/2000/svg" xml:space="preserve" width="59px" height="50px" version="1.1" style="shape-rendering:geometricPrecision; text-rendering:geometricPrecision; image-rendering:optimizeQuality; fill-rule:evenodd; clip-rule:evenodd"
viewBox="0 0 6.55 5.55"
 xmlns:xlink="http://www.w3.org/1999/xlink">
 <defs>
  <style type="text/css">
   <![CDATA[
    .fil1 {fill:#848688;fill-rule:nonzero}
    .fil0 {fill:#C83538;fill-rule:nonzero}
   ]]>
  </style>
 </defs>
 <g id="Layer_x0020_1">
  <metadata id="CorelCorpID_0Corel-Layer"/>
  <g id="_2082770439264">
   <path class="fil0" d="M1.06 2.73c0,0 0.02,0 0.04,0 0.13,0 0.61,-0.02 1.28,-0.28 0.45,-0.18 0.9,-0.43 1.33,-0.75 0.49,-0.37 0.96,-0.83 1.4,-1.37l0.03 0.27c0.01,0.04 0.05,0.08 0.1,0.08 0,0 0,0 0.01,0 0.05,-0.01 0.08,-0.06 0.08,-0.11l-0.07 -0.49c0,-0.02 -0.02,-0.05 -0.04,-0.06 -0.02,-0.02 -0.04,-0.02 -0.07,-0.02l-0.54 0.08c-0.05,0.01 -0.09,0.06 -0.08,0.11 0.01,0.05 0.06,0.09 0.11,0.08l0.31 -0.05c-0.42,0.52 -0.87,0.97 -1.35,1.32 -0.41,0.31 -0.84,0.56 -1.28,0.73 -0.74,0.29 -1.24,0.27 -1.25,0.27 -0.05,0 -0.09,0.04 -0.1,0.09 0,0.05 0.04,0.1 0.09,0.1z"/>
   <path class="fil1" d="M5.42 4.94c0,0 0,0 0,0 -0.1,0.05 -0.2,0.08 -0.3,0.09 -0.01,0 -0.01,0 -0.01,0 -0.01,0 -0.01,0 -0.02,0.01 -0.01,0 -0.02,0 -0.03,0 -0.01,0 -0.01,0 -0.01,0 -0.02,0 -0.03,0 -0.05,0 -0.01,0 -0.02,0 -0.04,0 0,0 0,0 -0.01,0 -0.01,0 -0.02,0 -0.03,0 -0.01,-0.01 -0.02,-0.01 -0.02,-0.01 -0.01,0 -0.02,0 -0.02,0 -0.01,0 -0.02,0 -0.03,0 0,0 0,0 0,0 -0.11,-0.02 -0.22,-0.06 -0.31,-0.12 -0.01,0 -0.01,0 -0.01,0 -0.07,-0.04 -0.13,-0.09 -0.19,-0.15 -0.18,-0.17 -0.27,-0.41 -0.27,-0.66 0,-0.25 0.09,-0.49 0.27,-0.66 0.07,-0.07 0.14,-0.13 0.23,-0.17 0,0 0,0 0,0 0.14,-0.07 0.29,-0.11 0.43,-0.11 0.12,0 0.24,0.02 0.35,0.07 0.01,0 0.01,0 0.01,0 0.01,0 0.02,0.01 0.04,0.02 0,0 0,0 0.01,0 0.09,0.05 0.18,0.11 0.26,0.19 0.37,0.36 0.37,0.96 0,1.32 -0.07,0.08 -0.16,0.14 -0.25,0.18zm-1.81 0.1l-0.79 0 0 -2.28c0,-0.02 0.01,-0.03 0.03,-0.03l0.73 0c0.02,0 0.03,0.01 0.03,0.03l0 2.28 0 0zm-1.76 0l-0.79 0 0 -1.52c0,-0.01 0.01,-0.02 0.03,-0.02l0.74 0c0.01,0 0.02,0.01 0.02,0.02l0 1.52zm4.53 0l-0.75 0c0.06,-0.04 0.12,-0.09 0.17,-0.14 0.21,-0.22 0.33,-0.5 0.33,-0.8 0,-0.3 -0.12,-0.58 -0.33,-0.8 -0.07,-0.07 -0.16,-0.13 -0.25,-0.18l0 -0.38c0,-0.05 -0.04,-0.1 -0.09,-0.1 -0.05,0 -0.09,0.05 -0.09,0.1l0 0.29c-0.26,-0.08 -0.54,-0.08 -0.79,0.03l0 -1.15c0,-0.01 0.01,-0.02 0.02,-0.02l0.74 0c0.02,0 0.03,0.01 0.03,0.02l0 0.23c0,0.05 0.04,0.09 0.09,0.09 0.05,0 0.09,-0.04 0.09,-0.09l0 -0.23c0,-0.12 -0.09,-0.21 -0.21,-0.21l-0.74 0c-0.11,0 -0.2,0.09 -0.2,0.21l0 1.24c-0.07,0.05 -0.13,0.1 -0.19,0.15 -0.21,0.22 -0.33,0.5 -0.33,0.8 0,0.3 0.12,0.58 0.33,0.8 0.05,0.05 0.11,0.1 0.17,0.14l-0.59 0 0 -2.28c0,-0.12 -0.09,-0.21 -0.21,-0.21l-0.73 0c-0.12,0 -0.21,0.09 -0.21,0.21l0 2.28 -0.61 0 0 -1.52c0,-0.11 -0.09,-0.2 -0.2,-0.2l-0.74 0c-0.12,0 -0.21,0.09 -0.21,0.2l0 1.52 -0.39 0 0 -4.81c0,-0.09 -0.07,-0.17 -0.17,-0.17l-0.15 0c-0.09,0 -0.17,0.08 -0.17,0.17l0 0.67c0,0.05 0.04,0.09 0.09,0.09 0.05,0 0.1,-0.04 0.1,-0.09l0 -0.65 0.12 0 0 4.8c0,0.1 0.07,0.18 0.17,0.18l5.89 0 0 0.14 -6.18 0 0 -3.88c0,-0.05 -0.05,-0.1 -0.1,-0.1 -0.05,0 -0.09,0.05 -0.09,0.1l0 3.89c0,0.1 0.08,0.17 0.17,0.17l6.21 0c0.1,0 0.17,-0.07 0.17,-0.17l0 -0.17c0,-0.09 -0.07,-0.17 -0.17,-0.17z"/>
   <path class="fil1" d="M5.04 4.19l0 0.35c0.09,-0.02 0.14,-0.07 0.14,-0.17 0,-0.1 -0.06,-0.14 -0.14,-0.18zm-0.08 -0.21l0 -0.3c-0.09,0.01 -0.16,0.05 -0.16,0.14 0,0.09 0.07,0.13 0.16,0.16zm-0.01 0.72c-0.2,0 -0.34,-0.11 -0.34,-0.19 0,-0.04 0.03,-0.1 0.08,-0.1 0.05,0 0.09,0.12 0.26,0.13l0 -0.38c-0.15,-0.06 -0.31,-0.12 -0.31,-0.33 0,-0.2 0.16,-0.28 0.31,-0.3l0 -0.05c0,-0.02 0.02,-0.04 0.05,-0.04 0.02,0 0.05,0.02 0.05,0.04l0 0.05c0.11,0 0.27,0.03 0.27,0.11 0,0.03 -0.03,0.1 -0.08,0.1 -0.03,0 -0.08,-0.06 -0.19,-0.06l0 0.33c0.14,0.05 0.3,0.12 0.3,0.35 0,0.2 -0.12,0.31 -0.3,0.33l0 0.06c0,0.02 -0.03,0.04 -0.05,0.04 -0.03,0 -0.05,-0.02 -0.05,-0.04l0 -0.05 0 0z"/>
  </g>
 </g>
</svg>
