<?xml version="1.0" encoding="UTF-8"?>
<!DOCTYPE svg PUBLIC "-//W3C//DTD SVG 1.1//EN" "http://www.w3.org/Graphics/SVG/1.1/DTD/svg11.dtd">
<!-- Creator: CorelDRAW 2017 -->
<svg xmlns="http://www.w3.org/2000/svg" xml:space="preserve" width="32px" height="36px" version="1.1" style="shape-rendering:geometricPrecision; text-rendering:geometricPrecision; image-rendering:optimizeQuality; fill-rule:evenodd; clip-rule:evenodd"
viewBox="0 0 0.9 1.02"
 xmlns:xlink="http://www.w3.org/1999/xlink">
 <defs>
  <style type="text/css">
   <![CDATA[
    .fil0 {fill:#848688;fill-rule:nonzero}
    .fil1 {fill:#C83538;fill-rule:nonzero}
   ]]>
  </style>
 </defs>
 <g id="Layer_x0020_1">
  <metadata id="CorelCorpID_0Corel-Layer"/>
  <g id="_1630658828656">
   <path class="fil0" d="M0.9 0l-0.1 0.07 -0.09 0.23 -0.08 0 -0.03 -0.07 0.02 0c0.03,0 0.06,-0.03 0.06,-0.07l0 -0.06 0.04 0 0 -0.1 -0.1 0 0 0.1 0.03 0 0 0.06c0,0.02 -0.01,0.04 -0.03,0.04l-0.04 0 -0.04 -0.09 0.05 -0.03 -0.16 -0.07 -0.04 0.14c0,-0.08 -0.07,-0.15 -0.15,-0.15 -0.08,0 -0.15,0.07 -0.15,0.15 0,0.05 0.03,0.09 0.07,0.12l0 0.03 -0.04 0 -0.01 0.01c0,0.04 0,0.08 0,0.13l-0.11 0.2 0.12 0.02 0 0.21 0.17 0 0 0.15 0.39 0 0 -0.23c0.12,-0.08 0.18,-0.21 0.18,-0.35l0 -0.06c0,-0.02 0,-0.05 0,-0.07l0 -0.01 -0.04 0 0.08 -0.18 0 -0.12zm-0.25 0.07l0 -0.04 0.03 0 0 0.04 -0.03 0zm-0.06 0.23l-0.06 0 -0.03 -0.07 0.06 0 0.03 0.07zm-0.14 -0.24l0.06 0.02 -0.01 0.01 0.05 0.11 -0.07 0 -0.04 -0.09 -0.01 0.01 0.02 -0.06zm0.04 0.24l-0.07 0 0 -0.04c0,-0.01 0.02,-0.03 0.03,-0.03l0.01 0 0 0 0.03 0.07zm-0.06 -0.15l0.02 0.05c-0.04,0 -0.06,0.03 -0.06,0.06l0 0.04 -0.07 0 0 -0.03c0.03,-0.02 0.06,-0.06 0.06,-0.09l0.05 -0.03zm-0.31 0c0,-0.07 0.06,-0.12 0.12,-0.12 0.06,0 0.11,0.05 0.11,0.12 0,0.04 -0.02,0.08 -0.05,0.1l-0.01 0 0 0.05 -0.03 0 0 -0.11c0.01,0 0.03,-0.02 0.03,-0.04 0,-0.03 -0.02,-0.05 -0.05,-0.05 -0.03,0 -0.05,0.02 -0.05,0.05 0,0.02 0.01,0.04 0.03,0.04l0 0.11 -0.03 0 0 -0.05 -0.01 0c-0.03,-0.02 -0.06,-0.06 -0.06,-0.1zm0.12 0.01c-0.01,0 -0.02,0 -0.02,-0.01 0,-0.01 0.01,-0.02 0.02,-0.02 0.01,0 0.02,0.01 0.02,0.02 0,0.01 -0.01,0.01 -0.02,0.01zm0.59 0.17c0,0.02 0,0.03 0,0.05l0 0.06c0,0.13 -0.06,0.25 -0.17,0.33l-0.01 0 0 0.22 -0.33 0 0 -0.15 -0.16 0 0 -0.2 -0.11 -0.03 0.1 -0.17 0 0c-0.01,-0.04 -0.01,-0.08 -0.01,-0.11l0.69 0zm-0.04 -0.03l-0.05 0 0.08 -0.2 0.04 0.02 -0.07 0.18zm0.07 -0.21l-0.01 -0.01 0.01 -0.01 0 0.02z"/>
   <path class="fil1" d="M0.27 0.43c-0.03,0 -0.05,-0.02 -0.05,-0.05l-0.03 0c0,0.05 0.04,0.08 0.08,0.08 0.05,0 0.08,-0.03 0.08,-0.08l-0.03 0c0,0.03 -0.02,0.05 -0.05,0.05z"/>
  </g>
 </g>
</svg>
