<?xml version="1.0" encoding="UTF-8"?>
<!DOCTYPE svg PUBLIC "-//W3C//DTD SVG 1.1//EN" "http://www.w3.org/Graphics/SVG/1.1/DTD/svg11.dtd">
<!-- Creator: CorelDRAW 2017 -->
<svg xmlns="http://www.w3.org/2000/svg" xml:space="preserve" width="36px" height="36px" version="1.1" style="shape-rendering:geometricPrecision; text-rendering:geometricPrecision; image-rendering:optimizeQuality; fill-rule:evenodd; clip-rule:evenodd"
viewBox="0 0 1.59 1.59"
 xmlns:xlink="http://www.w3.org/1999/xlink">
 <defs>
  <style type="text/css">
   <![CDATA[
    .fil0 {fill:#848688;fill-rule:nonzero}
    .fil1 {fill:#E71615;fill-rule:nonzero}
   ]]>
  </style>
 </defs>
 <g id="Layer_x0020_1">
  <metadata id="CorelCorpID_0Corel-Layer"/>
  <g id="_1630660057184">
   <path class="fil0" d="M1.03 0.2c0,-0.02 0.01,-0.03 0.03,-0.03 0.02,0 0.04,0.01 0.04,0.03 0,0.02 -0.02,0.03 -0.04,0.03 -0.02,0 -0.03,-0.01 -0.03,-0.03zm0.13 0c0,-0.06 -0.04,-0.1 -0.1,-0.1 -0.05,0 -0.1,0.04 -0.1,0.1 0,0.05 0.05,0.1 0.1,0.1 0.06,0 0.1,-0.05 0.1,-0.1z"/>
   <path class="fil0" d="M1.33 0.17c0.02,0 0.03,0.01 0.03,0.03 0,0.02 -0.01,0.03 -0.03,0.03 -0.02,0 -0.03,-0.01 -0.03,-0.03 0,-0.02 0.01,-0.03 0.03,-0.03zm0 0.13c0.05,0 0.1,-0.05 0.1,-0.1 0,-0.06 -0.05,-0.1 -0.1,-0.1 -0.06,0 -0.1,0.04 -0.1,0.1 0,0.05 0.04,0.1 0.1,0.1z"/>
   <path class="fil1" d="M0.56 0.43l-0.09 0 0 -0.2 0.09 0 0 0.2zm-0.46 0.53l0.27 0 0 -0.06 -0.27 0c-0.02,0 -0.03,-0.02 -0.03,-0.04l0 -0.59c0,-0.02 0.01,-0.04 0.03,-0.04l0.3 0 0 0.24c0,0.01 0.01,0.03 0.03,0.03l0.17 0c0.02,0 0.03,-0.02 0.03,-0.03l0 -0.24 0.03 0c0.02,0 0.04,0.02 0.04,0.04l0 0.49 0.06 0 0 -0.49c0,-0.06 -0.04,-0.1 -0.1,-0.1l-0.56 0c-0.06,0 -0.1,0.04 -0.1,0.1l0 0.59c0,0.06 0.04,0.1 0.1,0.1z"/>
   <polygon class="fil1" points="0.13,0.83 0.37,0.83 0.37,0.76 0.13,0.76 "/>
   <polygon class="fil1" points="0.13,0.7 0.27,0.7 0.27,0.63 0.13,0.63 "/>
   <path class="fil0" d="M1.53 1.53l-0.48 0c0.01,-0.02 0.01,-0.04 0.01,-0.07 0,-0.04 -0.02,-0.08 -0.06,-0.11l0.47 -0.32 0.06 0 0 0.5 0 0zm-1.44 -0.02c-0.03,-0.02 -0.03,-0.07 -0.01,-0.09l0.04 -0.02 0.69 0c-0.01,0.01 -0.01,0.04 -0.01,0.06 0,0.03 0,0.05 0.01,0.07l-0.68 0c-0.01,0 -0.03,-0.01 -0.04,-0.02zm0.84 0.02c-0.04,0 -0.07,-0.03 -0.07,-0.07 0,-0.04 0.03,-0.06 0.07,-0.06 0.04,0 0.07,0.02 0.07,0.06 0,0.04 -0.03,0.07 -0.07,0.07zm-0.53 -0.3l0 0 0.66 0 -0.14 0.1 -0.69 0 0.17 -0.1zm0.36 -0.17c0,0.02 0.02,0.04 0.04,0.04l0.33 0c0.05,0 0.09,-0.03 0.11,-0.07l0.11 0 -0.19 0.13 -0.65 0 0.16 -0.1 0.09 0 0 0zm-0.26 -0.08c0,-0.01 0.01,-0.02 0.01,-0.02l0.15 0c0.02,0 0.04,-0.01 0.04,-0.03l0 -0.03 0.06 0 0 0.1 -0.25 0c0,0 -0.01,-0.01 -0.01,-0.02zm0.33 -0.08l0.18 0c-0.01,0.02 -0.01,0.04 -0.01,0.06 0,0.03 0,0.05 0.01,0.07l-0.18 0 0 -0.13zm0.13 -0.3c0,-0.02 0.02,-0.04 0.04,-0.04l0.35 0c-0.01,0.02 -0.02,0.04 -0.02,0.06l-0.21 0.21 -0.16 0 0 -0.23 0 0zm0.57 0.03c0,0.04 -0.03,0.07 -0.07,0.07 -0.04,0 -0.06,-0.03 -0.06,-0.07 0,-0.04 0.02,-0.07 0.06,-0.07 0.04,0 0.07,0.03 0.07,0.07zm-0.1 0.18l0 0.15 -0.15 0 0.15 -0.15zm-0.37 0.15c0,-0.03 0.03,-0.06 0.07,-0.06 0.04,0 0.07,0.03 0.07,0.06 0,0.04 -0.03,0.07 -0.07,0.07 -0.04,0 -0.07,-0.03 -0.07,-0.07zm0.19 -0.06c-0.02,-0.02 -0.03,-0.04 -0.06,-0.05l0.15 -0.16c0.02,0.03 0.04,0.05 0.06,0.06l-0.15 0.15zm-0.35 -0.53l0 -0.27c0,-0.02 0.01,-0.03 0.03,-0.03l0.53 0c0.02,0 0.03,0.01 0.03,0.03l0 0.27c0,0.01 -0.01,0.03 -0.03,0.03l-0.16 0 0 -0.03c0,-0.02 -0.02,-0.04 -0.04,-0.04l-0.13 0c-0.02,0 -0.03,0.02 -0.03,0.04l0 0.03 -0.17 0c-0.02,0 -0.03,-0.02 -0.03,-0.03zm0.66 0.59l-0.07 0 0 -0.2c0.06,-0.02 0.1,-0.07 0.1,-0.13 0,-0.07 -0.06,-0.13 -0.13,-0.13l-0.23 0 0 -0.03 0.23 0c0.06,0 0.1,-0.05 0.1,-0.1l0 -0.27c0,-0.06 -0.04,-0.1 -0.1,-0.1l-0.53 0c-0.06,0 -0.1,0.04 -0.1,0.1l0 0.27c0,0.05 0.04,0.1 0.1,0.1l0.23 0 0 0.03 -0.16 0c-0.06,0 -0.1,0.04 -0.1,0.1l0 0.23 -0.24 0c-0.01,0 -0.03,0.02 -0.03,0.03l0 0.04 -0.12 0c-0.04,0 -0.08,0.03 -0.08,0.08 0,0.05 0.04,0.08 0.08,0.08l0.03 0 -0.44 0.27 0 0 0 0 -0.05 0.03c-0.01,0 -0.01,0.01 -0.01,0.01 -0.03,0.02 -0.04,0.06 -0.04,0.09 0,0.07 0.06,0.13 0.13,0.13l1.43 0c0.02,0 0.03,-0.01 0.03,-0.03l0 -0.56c0,-0.02 -0.01,-0.04 -0.03,-0.04z"/>
   <polygon class="fil1" points="1.4,1.46 1.46,1.46 1.46,1.4 1.4,1.4 "/>
   <polygon class="fil1" points="1.4,1.33 1.46,1.33 1.46,1.26 1.4,1.26 "/>
   <polygon class="fil1" points="1.26,1.46 1.33,1.46 1.33,1.4 1.26,1.4 "/>
  </g>
 </g>
</svg>
