<?xml version="1.0" encoding="UTF-8"?>
<!DOCTYPE svg PUBLIC "-//W3C//DTD SVG 1.1//EN" "http://www.w3.org/Graphics/SVG/1.1/DTD/svg11.dtd">
<!-- Creator: CorelDRAW 2017 -->
<svg xmlns="http://www.w3.org/2000/svg" xml:space="preserve" width="36px" height="36px" version="1.1" style="shape-rendering:geometricPrecision; text-rendering:geometricPrecision; image-rendering:optimizeQuality; fill-rule:evenodd; clip-rule:evenodd"
viewBox="0 0 1.74 1.74"
 xmlns:xlink="http://www.w3.org/1999/xlink">
 <defs>
  <style type="text/css">
   <![CDATA[
    .fil0 {fill:#848688;fill-rule:nonzero}
    .fil1 {fill:#E71615;fill-rule:nonzero}
   ]]>
  </style>
 </defs>
 <g id="Layer_x0020_1">
  <metadata id="CorelCorpID_0Corel-Layer"/>
  <g id="_1630660028000">
   <path class="fil0" d="M1.71 0l-1.68 0c-0.02,0 -0.03,0.01 -0.03,0.03l0 0.32c0,0.02 0.01,0.03 0.03,0.03l1.68 0c0.02,0 0.03,-0.01 0.03,-0.03l0 -0.32c0,-0.02 -0.01,-0.03 -0.03,-0.03zm-0.03 0.32l-1.62 0 0 -0.26 1.62 0 0 0.26z"/>
   <polygon class="fil0" points="0.15,0.17 0.32,0.17 0.32,0.12 0.15,0.12 "/>
   <polygon class="fil0" points="0.15,0.26 0.32,0.26 0.32,0.2 0.15,0.2 "/>
   <path class="fil1" d="M0.03 1.13l0.96 0c0.02,0 0.03,-0.01 0.03,-0.03l0 -0.58c0,-0.01 -0.01,-0.03 -0.03,-0.03l-0.96 0c-0.02,0 -0.03,0.02 -0.03,0.03l0 0.58c0,0.02 0.01,0.03 0.03,0.03zm0.72 -0.22l0.21 -0.11 0 0.25 -0.21 -0.14zm0.15 0.16l-0.78 0 0.4 -0.25 0.38 0.25zm0.06 -0.52l0 0.19 -0.26 0.13 -0.16 -0.11c-0.01,-0.01 -0.03,-0.01 -0.03,0l-0.45 0.29 0 -0.5 0.9 0z"/>
   <path class="fil1" d="M0.25 0.81c0.05,0 0.1,-0.04 0.1,-0.1 0,-0.05 -0.05,-0.1 -0.1,-0.1 -0.06,0 -0.1,0.05 -0.1,0.1 0,0.06 0.04,0.1 0.1,0.1zm0 -0.14c0.02,0 0.04,0.02 0.04,0.04 0,0.02 -0.02,0.05 -0.04,0.05 -0.03,0 -0.05,-0.03 -0.05,-0.05 0,-0.02 0.02,-0.04 0.05,-0.04z"/>
   <polygon class="fil0" points="1.1,0.55 1.54,0.55 1.54,0.49 1.1,0.49 "/>
   <polygon class="fil0" points="1.1,0.7 1.74,0.7 1.74,0.64 1.1,0.64 "/>
   <polygon class="fil0" points="1.1,0.84 1.74,0.84 1.74,0.78 1.1,0.78 "/>
   <polygon class="fil0" points="1.1,0.99 1.74,0.99 1.74,0.93 1.1,0.93 "/>
   <polygon class="fil0" points="1.1,1.13 1.74,1.13 1.74,1.07 1.1,1.07 "/>
   <path class="fil0" d="M0.67 1.25l-0.64 0c-0.02,0 -0.03,0.01 -0.03,0.03l0 0.43c0,0.02 0.01,0.03 0.03,0.03l0.64 0c0.02,0 0.03,-0.01 0.03,-0.03l0 -0.43c0,-0.02 -0.01,-0.03 -0.03,-0.03zm-0.03 0.43l-0.58 0 0 -0.37 0.58 0 0 0.37z"/>
   <path class="fil0" d="M1.71 1.25l-0.9 0c-0.01,0 -0.03,0.01 -0.03,0.03l0 0.43c0,0.02 0.02,0.03 0.03,0.03l0.9 0c0.02,0 0.03,-0.01 0.03,-0.03l0 -0.43c0,-0.02 -0.01,-0.03 -0.03,-0.03zm-0.32 0.06l0 0.37 -0.23 0 0 -0.37 0.23 0zm-0.55 0l0.26 0 0 0.37 -0.26 0 0 -0.37zm0.84 0.37l-0.23 0 0 -0.37 0.23 0 0 0.37z"/>
   <polygon class="fil0" points="0.29,1.51 0.41,1.51 0.41,1.45 0.29,1.45 "/>
   <polygon class="fil0" points="0.46,1.51 0.58,1.51 0.58,1.45 0.46,1.45 "/>
   <polygon class="fil0" points="0.12,1.51 0.23,1.51 0.23,1.45 0.12,1.45 "/>
  </g>
 </g>
</svg>
