<?xml version="1.0" encoding="UTF-8"?>
<!DOCTYPE svg PUBLIC "-//W3C//DTD SVG 1.1//EN" "http://www.w3.org/Graphics/SVG/1.1/DTD/svg11.dtd">
<!-- Creator: CorelDRAW 2017 -->
<svg xmlns="http://www.w3.org/2000/svg" xml:space="preserve" width="36px" height="36px" version="1.1" style="shape-rendering:geometricPrecision; text-rendering:geometricPrecision; image-rendering:optimizeQuality; fill-rule:evenodd; clip-rule:evenodd"
viewBox="0 0 3.06 3.06"
 xmlns:xlink="http://www.w3.org/1999/xlink">
 <defs>
  <style type="text/css">
   <![CDATA[
    .fil0 {fill:#848688;fill-rule:nonzero}
    .fil1 {fill:#E71615;fill-rule:nonzero}
   ]]>
  </style>
 </defs>
 <g id="Layer_x0020_1">
  <metadata id="CorelCorpID_0Corel-Layer"/>
  <g id="_1630658833136">
   <path class="fil0" d="M2.81 2.96l0 -0.56c0,-0.08 -0.07,-0.15 -0.15,-0.15l-0.72 0c-0.08,0 -0.15,0.07 -0.15,0.15l0 0.56 -0.51 0 0 -0.3c0,-0.09 -0.07,-0.16 -0.16,-0.16l-0.71 0c-0.09,0 -0.15,0.07 -0.15,0.16l0 0.3 -0.16 0 0 -2.55 2.86 0 0 2.55 -0.15 0zm-0.77 0l0 -0.2 0.21 0 0 0.2 -0.21 0zm-0.15 -0.41l0.82 0 0 0.41 -0.36 0 0 -0.25c0,-0.03 -0.02,-0.05 -0.05,-0.05l-0.31 0c-0.03,0 -0.05,0.02 -0.05,0.05l0 0.25 -0.05 0 0 -0.41zm0.82 -0.1l-0.82 0 0 -0.05c0,-0.03 0.02,-0.05 0.05,-0.05l0.72 0c0.02,0 0.05,0.02 0.05,0.05l0 0.05zm-2.35 0.36l0.81 0 0 0.15 -0.81 0 0 -0.15zm0.81 -0.1l-0.81 0 0 -0.05c0,-0.03 0.02,-0.06 0.05,-0.06l0.71 0c0.03,0 0.05,0.03 0.05,0.06l0 0.05zm1.79 -2.61l0 0.21 -2.86 0 0 -0.21 2.86 0zm0 -0.1l-2.86 0c-0.05,0 -0.1,0.05 -0.1,0.1l0 2.86c0,0.06 0.05,0.1 0.1,0.1l2.86 0c0.06,0 0.1,-0.04 0.1,-0.1l0 -2.86c0,-0.05 -0.04,-0.1 -0.1,-0.1z"/>
   <path class="fil1" d="M0.26 0.26l0.3 0c0.03,0 0.05,-0.03 0.05,-0.06 0,-0.02 -0.02,-0.05 -0.05,-0.05l-0.3 0c-0.03,0 -0.06,0.03 -0.06,0.05 0,0.03 0.03,0.06 0.06,0.06z"/>
   <path class="fil1" d="M0.77 0.26l0.1 0c0.03,0 0.05,-0.03 0.05,-0.06 0,-0.02 -0.02,-0.05 -0.05,-0.05l-0.1 0c-0.03,0 -0.05,0.03 -0.05,0.05 0,0.03 0.02,0.06 0.05,0.06z"/>
   <path class="fil1" d="M1.07 0.26l0.1 0c0.03,0 0.06,-0.03 0.06,-0.06 0,-0.02 -0.03,-0.05 -0.06,-0.05l-0.1 0c-0.03,0 -0.05,0.03 -0.05,0.05 0,0.03 0.02,0.06 0.05,0.06z"/>
   <path class="fil1" d="M1.38 0.26l0.1 0c0.03,0 0.05,-0.03 0.05,-0.06 0,-0.02 -0.02,-0.05 -0.05,-0.05l-0.1 0c-0.03,0 -0.05,0.03 -0.05,0.05 0,0.03 0.02,0.06 0.05,0.06z"/>
   <path class="fil1" d="M1.69 0.26l0.1 0c0.03,0 0.05,-0.03 0.05,-0.06 0,-0.02 -0.02,-0.05 -0.05,-0.05l-0.1 0c-0.03,0 -0.06,0.03 -0.06,0.05 0,0.03 0.03,0.06 0.06,0.06z"/>
   <path class="fil1" d="M2.81 0.26l0.05 0c0.03,0 0.05,-0.03 0.05,-0.06 0,-0.02 -0.02,-0.05 -0.05,-0.05l-0.05 0c-0.03,0 -0.05,0.03 -0.05,0.05 0,0.03 0.02,0.06 0.05,0.06z"/>
   <path class="fil0" d="M2.71 1.94c0,0.03 -0.03,0.05 -0.05,0.05l-0.31 0 0 -0.1c0,-0.03 -0.02,-0.05 -0.05,-0.05l-0.31 0c-0.03,0 -0.05,0.02 -0.05,0.05l0 0.1c-0.03,0 -0.05,-0.02 -0.05,-0.05l0 -0.72c0.06,-0.02 0.1,-0.08 0.1,-0.15 0,-0.06 -0.04,-0.12 -0.1,-0.14l0 -0.11 0.82 0 0 1.12zm-0.46 0.05l-0.21 0 0 -0.05 0.21 0 0 0.05zm-0.41 -0.97c0.03,0 0.05,0.02 0.05,0.05 0,0.03 -0.02,0.05 -0.05,0.05 -0.03,0 -0.05,-0.02 -0.05,-0.05 0,-0.03 0.02,-0.05 0.05,-0.05zm0.1 -0.41l0.72 0c0.02,0 0.05,0.03 0.05,0.05l0 0.06 -0.82 0 0 -0.06c0,-0.02 0.02,-0.05 0.05,-0.05zm-0.71 1.28c-0.03,0 -0.06,-0.02 -0.06,-0.05 0,-0.03 0.03,-0.05 0.06,-0.05 0.02,0 0.05,0.02 0.05,0.05 0,0.03 -0.03,0.05 -0.05,0.05zm-0.11 0.36l-0.71 0c-0.03,0 -0.05,-0.03 -0.05,-0.05l0 -1.13 0.81 0 0 0.62c-0.06,0.03 -0.1,0.08 -0.1,0.15 0,0.06 0.04,0.12 0.1,0.14l0 0.22c0,0.02 -0.02,0.05 -0.05,0.05zm-0.71 -1.38l0.71 0c0.03,0 0.05,0.02 0.05,0.05l0 0.05 -0.81 0 0 -0.05c0,-0.03 0.02,-0.05 0.05,-0.05zm2.25 -0.36l-0.72 0c-0.08,0 -0.15,0.07 -0.15,0.15l0 0.27c-0.06,0.02 -0.1,0.08 -0.1,0.14 0,0.01 0,0.01 0,0.01 -0.14,0.09 -0.22,0.24 -0.21,0.4 0,0.13 -0.04,0.22 -0.13,0.27 -0.02,-0.02 -0.04,-0.04 -0.07,-0.06l0 -0.77c0,-0.09 -0.07,-0.15 -0.16,-0.15l-0.71 0c-0.09,0 -0.15,0.06 -0.15,0.15l0 1.28c0,0.08 0.06,0.15 0.15,0.15l0.71 0c0.09,0 0.16,-0.07 0.16,-0.15l0 -0.22c0.05,-0.02 0.09,-0.07 0.1,-0.13 0.09,-0.04 0.2,-0.14 0.2,-0.37 -0.01,-0.12 0.05,-0.23 0.15,-0.3 0.01,0.01 0.03,0.03 0.06,0.04l0 0.72c0,0.09 0.07,0.15 0.15,0.15l0.72 0c0.08,0 0.15,-0.06 0.15,-0.15l0 -1.28c0,-0.08 -0.07,-0.15 -0.15,-0.15z"/>
   <path class="fil1" d="M0.77 1.79c-0.09,0 -0.16,-0.07 -0.16,-0.16 0,-0.08 0.07,-0.15 0.16,-0.15 0.08,0 0.15,0.07 0.15,0.15 0,0.09 -0.07,0.16 -0.15,0.16zm0.25 -0.16c0,-0.14 -0.11,-0.25 -0.25,-0.25 -0.14,0 -0.26,0.11 -0.26,0.25 0,0.15 0.12,0.26 0.26,0.26 0.14,0 0.25,-0.11 0.25,-0.26z"/>
   <path class="fil1" d="M0.66 1.99l-0.15 0c-0.03,0 -0.05,0.02 -0.05,0.05 0,0.03 0.02,0.05 0.05,0.05l0.15 0c0.03,0 0.06,-0.02 0.06,-0.05 0,-0.03 -0.03,-0.05 -0.06,-0.05z"/>
   <path class="fil1" d="M1.02 1.99l-0.15 0c-0.03,0 -0.05,0.02 -0.05,0.05 0,0.03 0.02,0.05 0.05,0.05l0.15 0c0.03,0 0.05,-0.02 0.05,-0.05 0,-0.03 -0.02,-0.05 -0.05,-0.05z"/>
   <path class="fil1" d="M0.51 1.28l0.51 0c0.03,0 0.05,-0.03 0.05,-0.05 0,-0.03 -0.02,-0.06 -0.05,-0.06l-0.51 0c-0.03,0 -0.05,0.03 -0.05,0.06 0,0.02 0.02,0.05 0.05,0.05z"/>
   <path class="fil0" d="M2.09 1.28l0.21 0c0.03,0 0.05,-0.03 0.05,-0.05l0 -0.26c0,-0.03 -0.02,-0.05 -0.05,-0.05l-0.15 0c-0.03,0 -0.06,0.02 -0.06,0.05 0,0.03 0.03,0.05 0.06,0.05l0.1 0 0 0.15 -0.16 0c-0.02,0 -0.05,0.03 -0.05,0.06 0,0.02 0.03,0.05 0.05,0.05z"/>
   <path class="fil0" d="M2.25 1.63l-0.21 0 0 -0.15 0.21 0 0 0.15zm0.05 -0.25l-0.31 0c-0.03,0 -0.05,0.02 -0.05,0.05l0 0.26c0,0.02 0.02,0.05 0.05,0.05l0.31 0c0.03,0 0.05,-0.03 0.05,-0.05l0 -0.26c0,-0.03 -0.02,-0.05 -0.05,-0.05z"/>
   <path class="fil0" d="M2.45 1.02l0.1 0c0.03,0 0.05,-0.02 0.05,-0.05 0,-0.03 -0.02,-0.05 -0.05,-0.05l-0.1 0c-0.03,0 -0.05,0.02 -0.05,0.05 0,0.03 0.02,0.05 0.05,0.05z"/>
   <path class="fil0" d="M2.45 1.17l0.1 0c0.03,0 0.05,-0.02 0.05,-0.05 0,-0.02 -0.02,-0.05 -0.05,-0.05l-0.1 0c-0.03,0 -0.05,0.03 -0.05,0.05 0,0.03 0.02,0.05 0.05,0.05z"/>
   <path class="fil0" d="M2.45 1.48l0.1 0c0.03,0 0.05,-0.02 0.05,-0.05 0,-0.03 -0.02,-0.05 -0.05,-0.05l-0.1 0c-0.03,0 -0.05,0.02 -0.05,0.05 0,0.03 0.02,0.05 0.05,0.05z"/>
   <path class="fil0" d="M2.45 1.63l0.1 0c0.03,0 0.05,-0.02 0.05,-0.05 0,-0.02 -0.02,-0.05 -0.05,-0.05l-0.1 0c-0.03,0 -0.05,0.03 -0.05,0.05 0,0.03 0.02,0.05 0.05,0.05z"/>
   <path class="fil0" d="M2.45 2.76l0.1 0c0.03,0 0.05,-0.02 0.05,-0.05 0,-0.03 -0.02,-0.05 -0.05,-0.05l-0.1 0c-0.03,0 -0.05,0.02 -0.05,0.05 0,0.03 0.02,0.05 0.05,0.05z"/>
   <path class="fil0" d="M2.45 2.91l0.1 0c0.03,0 0.05,-0.02 0.05,-0.05 0,-0.03 -0.02,-0.05 -0.05,-0.05l-0.1 0c-0.03,0 -0.05,0.02 -0.05,0.05 0,0.03 0.02,0.05 0.05,0.05z"/>
   <path class="fil0" d="M2.45 1.94l0.1 0c0.03,0 0.05,-0.02 0.05,-0.05 0,-0.03 -0.02,-0.05 -0.05,-0.05l-0.1 0c-0.03,0 -0.05,0.02 -0.05,0.05 0,0.03 0.02,0.05 0.05,0.05z"/>
  </g>
 </g>
</svg>
