<?xml version="1.0" encoding="UTF-8"?>
<!DOCTYPE svg PUBLIC "-//W3C//DTD SVG 1.1//EN" "http://www.w3.org/Graphics/SVG/1.1/DTD/svg11.dtd">
<!-- Creator: CorelDRAW 2017 -->
<svg xmlns="http://www.w3.org/2000/svg" xml:space="preserve" width="32px" height="36px" version="1.1" style="shape-rendering:geometricPrecision; text-rendering:geometricPrecision; image-rendering:optimizeQuality; fill-rule:evenodd; clip-rule:evenodd"
viewBox="0 0 28.24 31.47"
 xmlns:xlink="http://www.w3.org/1999/xlink">
 <defs>
  <style type="text/css">
   <![CDATA[
    .fil1 {fill:#848688;fill-rule:nonzero}
    .fil0 {fill:#C83538;fill-rule:nonzero}
   ]]>
  </style>
 </defs>
 <g id="Layer_x0020_1">
  <metadata id="CorelCorpID_0Corel-Layer"/>
  <g id="_1630660023840">
   <path class="fil0" d="M19.29 16.15c0,0.26 -0.14,0.5 -0.36,0.63l-6.78 3.99c-0.39,0.19 -0.62,0.07 -0.73,0.01 -0.23,-0.13 -0.38,-0.38 -0.38,-0.64l0 -7.98c0,-0.27 0.15,-0.51 0.38,-0.64 0.22,-0.13 0.51,-0.13 0.73,0l6.78 3.99c0.22,0.14 0.36,0.38 0.36,0.64zm-1.83 0l-4.59 -2.7 0 5.4 4.59 -2.7z"/>
   <path class="fil1" d="M28.24 8.94l0 14.65c0,1.64 -1.33,2.97 -2.97,2.97l-10.41 0 0 3.44 2.49 0c0.41,0 0.74,0.33 0.74,0.74 0,0.4 -0.33,0.73 -0.74,0.73l-6.46 0c-0.4,0 -0.73,-0.33 -0.73,-0.73 0,-0.41 0.33,-0.74 0.73,-0.74l2.5 0 0 -3.44 -10.41 0c-1.64,0 -2.98,-1.33 -2.98,-2.97l0 -14.65c0,-1.64 1.34,-2.97 2.98,-2.97l22.29 0c1.64,0 2.97,1.33 2.97,2.97zm-1.3 -0.03c0,-0.82 -0.67,-1.5 -1.5,-1.5l-22.29 0c-0.83,0 -1.5,0.68 -1.5,1.5l0 3.51 5.25 0c0.41,0 0.74,0.33 0.74,0.74 0,0.41 -0.33,0.73 -0.74,0.73l-5.25 0 0 4.69 5.25 0c0.41,0 0.74,0.33 0.74,0.73 0,0.41 -0.33,0.74 -0.74,0.74l-5.25 0 0 3.51c0,0.82 0.67,1.5 1.5,1.5l22.29 0c0.83,0 1.5,-0.68 1.5,-1.5l0 -3.51 -5.71 0c-0.4,0 -0.74,-0.33 -0.74,-0.74 0,-0.4 0.34,-0.73 0.74,-0.73l5.71 0 0 -4.69 -5.71 0c-0.4,0 -0.74,-0.32 -0.74,-0.73 0,-0.41 0.34,-0.74 0.74,-0.74l5.71 0 0 -3.51z"/>
   <g>
    <path class="fil1" d="M6.88 4c0.12,0.26 0.39,0.42 0.67,0.42 0.1,0 0.21,-0.02 0.31,-0.07 0.37,-0.17 0.53,-0.61 0.35,-0.98l-0.98 -2.11c-0.18,-0.37 -0.61,-0.53 -0.98,-0.36 -0.37,0.17 -0.53,0.61 -0.36,0.98l0.99 2.12z"/>
    <path class="fil1" d="M20.39 4.35c0.1,0.05 0.2,0.07 0.31,0.07 0.27,0 0.54,-0.15 0.66,-0.42l0.99 -2.12c0.17,-0.37 0.01,-0.81 -0.35,-0.98 -0.37,-0.17 -0.81,-0.01 -0.98,0.36l-0.99 2.11c-0.17,0.37 -0.01,0.81 0.36,0.98z"/>
    <path class="fil1" d="M13.39 2.85l0 -2.11c0,-0.41 0.32,-0.74 0.73,-0.74 0.41,0 0.74,0.33 0.74,0.74l0 2.11c0,0.41 -0.33,0.74 -0.74,0.74 -0.41,0 -0.73,-0.33 -0.73,-0.74z"/>
   </g>
  </g>
 </g>
</svg>
