<?xml version="1.0" encoding="UTF-8"?>
<!DOCTYPE svg PUBLIC "-//W3C//DTD SVG 1.1//EN" "http://www.w3.org/Graphics/SVG/1.1/DTD/svg11.dtd">
<!-- Creator: CorelDRAW 2017 -->
<svg xmlns="http://www.w3.org/2000/svg" xml:space="preserve" width="36px" height="36px" version="1.1" style="shape-rendering:geometricPrecision; text-rendering:geometricPrecision; image-rendering:optimizeQuality; fill-rule:evenodd; clip-rule:evenodd"
viewBox="0 0 3.63 3.63"
 xmlns:xlink="http://www.w3.org/1999/xlink">
 <defs>
  <style type="text/css">
   <![CDATA[
    .fil0 {fill:#848688;fill-rule:nonzero}
    .fil1 {fill:#E71615;fill-rule:nonzero}
   ]]>
  </style>
 </defs>
 <g id="Layer_x0020_1">
  <metadata id="CorelCorpID_0Corel-Layer"/>
  <g id="_1630660073376">
   <path class="fil0" d="M2.82 0.77c-0.12,-0.11 -0.13,-0.3 -0.02,-0.43 0.11,-0.12 0.3,-0.13 0.43,-0.02 0.12,0.11 0.13,0.3 0.02,0.43 -0.01,0 -0.02,0.01 -0.02,0.02 -0.02,0.01 -0.02,0.03 -0.02,0.04l0 0.1 -0.13 0 0 -0.16 0.17 -0.16 -0.09 -0.09 -0.14 0.14 -0.13 -0.14 -0.09 0.09 0.16 0.16 0 0.16 -0.12 0 0 -0.1c0,-0.01 0,-0.03 -0.02,-0.04zm-0.22 0.14l0 0.12 0.85 0 0 -0.12 -0.12 0 0 -0.07c0.16,-0.17 0.16,-0.43 -0.01,-0.6 -0.17,-0.16 -0.43,-0.16 -0.6,0.01 -0.16,0.16 -0.16,0.43 0,0.59l0 0.07 -0.12 0z"/>
   <polygon class="fil1" points="0.48,0.6 0.6,0.6 0.6,0.48 0.48,0.48 "/>
   <polygon class="fil1" points="2.66,1.51 2.78,1.51 2.78,1.39 2.66,1.39 "/>
   <path class="fil1" d="M0.54 0.73c-0.1,0 -0.18,-0.09 -0.18,-0.19 0,-0.1 0.08,-0.18 0.18,-0.18 0.1,0 0.19,0.08 0.19,0.18 0,0.1 -0.09,0.19 -0.19,0.19zm0 -0.49c-0.16,0 -0.3,0.14 -0.3,0.3 0,0.17 0.14,0.31 0.3,0.31 0.17,0 0.31,-0.14 0.31,-0.31 0,-0.16 -0.14,-0.3 -0.31,-0.3z"/>
   <path class="fil0" d="M3.51 3.51l-2.18 0 0 -1.04c0.08,0.09 0.19,0.13 0.3,0.13l1.58 0c0.11,0 0.22,-0.04 0.3,-0.13l0 1.04zm-2.84 -0.24l0 -1.46c0,0 -0.01,-0.01 -0.01,-0.02l-0.12 -0.24c-0.02,-0.03 -0.06,-0.04 -0.09,-0.03 -0.01,0.01 -0.01,0.02 -0.02,0.03l-0.12 0.24c-0.01,0.01 -0.01,0.02 -0.01,0.02l0 1.46 -0.18 0 0 -3.15 2.06 0 0 2 -0.91 0c-0.03,0 -0.06,0.02 -0.06,0.06l0 1.09 -0.54 0zm-0.19 0.24c-0.03,0 -0.06,-0.03 -0.06,-0.06l0 -0.18 0.12 0 0 0.18c0,0.03 -0.02,0.06 -0.06,0.06zm-0.06 -0.49l0.12 0 0 0.13 -0.12 0 0 -0.13zm0.01 -1.21l0.05 -0.1 0.06 0.1 -0.11 0zm-0.01 0.13l0.12 0 0 0.96 -0.12 0 0 -0.96zm3.08 0.3c-0.03,0.14 -0.15,0.24 -0.29,0.24l-1.58 0c-0.14,0 -0.26,-0.1 -0.29,-0.24l2.16 0zm0.07 -0.12l-1.27 0 0 -2.06c0,-0.03 -0.03,-0.06 -0.06,-0.06l-2.18 0c-0.03,0 -0.06,0.03 -0.06,0.06l0 3.27c0,0.03 0.03,0.06 0.06,0.06l0.24 0 0 0.06c0,0.1 0.08,0.18 0.18,0.18 0.1,0 0.19,-0.08 0.19,-0.18l0 -0.06 0.54 0 0 0.18c0,0.03 0.03,0.06 0.06,0.06l2.3 0c0.03,0 0.06,-0.03 0.06,-0.06l0 -1.39c0,-0.04 -0.03,-0.06 -0.06,-0.06z"/>
   <path class="fil0" d="M3.51 1.88l-0.97 0 0 -0.61 0.97 0 0 0.61zm0.06 -0.73l-1.09 0c-0.03,0 -0.06,0.03 -0.06,0.06l0 0.73c0,0.03 0.03,0.06 0.06,0.06l1.09 0c0.03,0 0.06,-0.03 0.06,-0.06l0 -0.73c0,-0.03 -0.03,-0.06 -0.06,-0.06z"/>
   <polygon class="fil1" points="2.96,1.75 3.27,1.75 3.27,1.63 2.96,1.63 "/>
   <polygon class="fil1" points="1.03,0.48 2.06,0.48 2.06,0.36 1.03,0.36 "/>
   <polygon class="fil1" points="1.03,0.73 1.81,0.73 1.81,0.6 1.03,0.6 "/>
   <polygon class="fil1" points="1.45,3.15 1.57,3.15 1.57,3.02 1.45,3.02 "/>
   <polygon class="fil1" points="1.75,3.15 2.54,3.15 2.54,3.02 1.75,3.02 "/>
   <polygon class="fil1" points="1.75,3.39 2.3,3.39 2.3,3.27 1.75,3.27 "/>
   <polygon class="fil1" points="2.96,1.51 3.39,1.51 3.39,1.39 2.96,1.39 "/>
  </g>
 </g>
</svg>
